<?xml version="1.0" encoding="utf-8" ?><svg xmlns="http://www.w3.org/2000/svg" xmlns:xlink="http://www.w3.org/1999/xlink" width="2048" height="1024" viewBox="0 0 2048 1024"><path d="M491.884 554.097L491.943 256.196C492.022 237.43 490.695 127.386 494.582 119.683C499.11 115.795 501.641 115.208 507.772 115.17C531.436 115.025 555.188 115.154 578.852 115.166L718.974 115.217L1128.87 115.159L1397.84 115.24L1485.96 115.217C1496.99 115.217 1545.91 114.343 1552.61 118.364C1557.8 130.479 1556.58 166.235 1556.66 180.556L1556.83 264.049L1556.96 507.965L1787.41 508.046L1862.27 508.077C1873.94 508.081 1911.38 506.565 1919.87 511.835C1923.84 522.428 1922.38 580.003 1922.45 593.945L1923.04 724.006C1923.03 793.385 1923.05 862.76 1923.11 932.139C1923.11 938.612 1923.02 942.723 1918.99 947.995L1995.52 947.928C2008.25 947.931 2032.85 947.528 2044.9 949.489C2024.87 953.031 2000.98 951.22 1980.11 951.202L1875 951.26L1466.27 951.445L1343.9 951.982C1337.54 952.022 1297.97 952.693 1294.51 952.15C1288.7 951.149 1280.82 952.667 1276.25 950.5C1277.56 950.264 1278.87 950.011 1280.17 949.74C1288.86 947.921 1291.12 945.193 1295.93 937.811L1297.75 933.019L1299.71 932.539C1323.92 933.384 1350.28 932.869 1374.66 932.879L1506.23 932.916L1905.88 933.076L1905.59 526.932L1255.59 527.001L1255.66 631.396C1257.27 632.11 1259.83 633.151 1261.28 633.95L1241.06 634.216C1239.76 631.025 1240.39 596.743 1240.44 589.801C1240.62 565.065 1240.87 541.922 1238.93 517.123C1244.96 504.44 1265.58 507.679 1277.48 507.906L1277.92 447.769C1299.66 443.904 1337.16 443.176 1358.28 448.581C1358.8 468.395 1359.04 488.215 1359.01 508.036C1374.12 508.016 1415.05 506.981 1428.22 508.375L1430.2 506.794L1432.1 507.163C1440.8 509.832 1523.19 508.015 1537.9 507.984L1538.2 134.483L509.243 134.49L509.062 554.224L566.487 554.675C578.931 554.821 604.891 555.402 616.546 553.15L620.497 553.857C632.68 554.786 649.663 554.616 662.069 554.237C687.797 553.853 713.531 553.961 739.256 554.561C750.449 555.032 776.287 553.007 784.227 556.587C790.578 564.691 788.535 599.939 788.527 611.676L788.743 691.099C797.787 691.115 808.219 690.869 817.144 691.189C811.91 695.017 796.87 691.813 788.99 693.502L788.735 778.025L1134.21 778.055C1135.07 782.457 1135.55 788.851 1134.41 793.182L1132.16 793.974L1128.5 793.914C1125.1 798.359 1126.43 855.409 1127.55 864.793C1129.66 867.85 1129.68 867.18 1133.47 869.03L1134.7 869.96C1134.94 879.842 1132.42 936.099 1137.08 940.101C1137.32 940.303 1137.57 940.477 1137.82 940.665C1145.28 948.601 1149 949.673 1159.87 950.304C1153.36 954.814 1114.09 948.834 1107 952.735C1080.55 953.741 1045.91 952.804 1018.88 952.627L879.594 952.347L707.191 952.574C675.589 952.564 640.753 953.186 609.345 951.878C601.091 950.132 551.904 950.707 542.476 951.892C514.772 952.769 484.647 952.318 456.81 952.396L290.744 952.43L140.02 952.306C124.045 952.364 15.4908 954.048 8.55929 950.994C14.2318 947.846 75.7383 948.867 86.2634 948.878C77.0417 938.799 77.7862 935.421 77.8704 921.971L116.253 921.951L116.072 691.587C116.048 673.316 114.309 566.037 118.593 557.443C128.593 552.936 163.72 554.339 176.724 554.326L254.449 554.256L491.884 554.097ZM182.741 902.39L553.884 902.358L668.468 902.669C685.336 902.708 707.241 903.378 723.759 902.702L727.571 902.468C733.864 903.511 762.628 903.025 770.75 903.004L770.317 573.682L371.319 573.027L221.741 572.858C195.738 572.854 169.521 572.632 143.559 573.074C140.403 573.127 133.852 573.744 133.795 575.278C131.388 640.019 132.662 850.402 133.098 902.402C145.535 902.341 167.278 901.637 178.879 902.805L182.741 902.39ZM789.043 797.03C788.701 838.585 788.712 880.142 789.074 921.696C801.093 921.723 817.451 921.31 829.112 922.071C845.457 910.353 861.919 898.8 878.496 887.413C889.393 879.864 900.213 872.203 910.954 864.434L910.993 796.961C872.422 796.957 827.142 795.923 789.043 797.03ZM81.9919 925.349C81.7074 930.017 80.8564 938.854 84.2344 942.185C89.1396 947.023 91.5421 948.783 98.2688 948.821C142.096 949.068 186.158 948.984 229.961 948.996L490.813 949.013L701.545 948.959C736.495 948.945 771.903 949.037 806.883 948.773C810.654 948.744 813.563 946.917 816.704 944.905C821.653 937.157 822.083 934.347 821.813 925.023L325.964 925.019L164.617 925.164C138.507 925.195 107.855 924.519 81.9919 925.349Z"/><path fill="#FDBE50" d="M1277.92 447.769C1299.66 443.904 1337.16 443.176 1358.28 448.581C1358.8 468.395 1359.04 488.215 1359.01 508.036C1331.38 507.479 1305.12 507.743 1277.48 507.906L1277.92 447.769Z"/><path d="M178.683 607.899L727.78 607.879L728.177 798.629C728.22 830.568 729.032 871.194 727.571 902.468L723.759 902.702L723.692 876.943L182.795 876.774L182.741 902.39L178.879 902.805C178.312 833.172 178.192 763.537 178.521 693.903C178.58 665.453 179.45 636.34 178.683 607.899ZM182.793 873.703L526.215 873.892L655.595 873.893C677.332 873.891 702.075 874.481 723.627 873.756L723.471 748.659L183.317 748.254C183.881 790.095 182.919 831.867 182.793 873.703ZM183.122 745.123L723.843 745.661L723.746 670.014L366.747 670.14C307.098 670.132 242.368 668.775 183.117 670.121L183.122 745.123ZM182.771 667.116L723.772 667.015L723.824 610.943L361.595 610.987L243.551 610.955C225.543 610.95 200.006 610.159 182.449 611.094L182.771 667.116Z"/><path fill="#A5ACF3" d="M200.173 761.18C217.831 760.498 240.514 761.086 258.531 761.068C259.031 795.249 259.845 827.412 259.41 861.789C247.3 863.015 214.955 861.927 201.53 861.797C200.045 830.156 200.546 793.114 200.173 761.18Z"/><path fill="#A5ACF3" d="M646.129 761.242L704.286 761.187L704.475 860.968C701.343 863.269 653.699 862.181 646.188 862.142L646.129 761.242Z"/><path fill="#A5ACF3" d="M499.806 760.919C517.595 760.331 538.861 760.957 556.924 761.008C556.792 794.878 556.873 828.749 557.167 862.618C541.573 863.513 515.315 862.769 499.681 862.491C499.512 828.634 499.554 794.776 499.806 760.919Z"/><path fill="#A5ACF3" d="M348.533 760.93C366.459 760.452 386.414 760.893 404.505 760.892L404.515 861.466C399.153 863.223 357.22 862.185 348.621 862.14C349.082 828.555 348.07 794.715 348.533 760.93Z"/><path fill="#FDBE50" d="M221.189 682.397C234.667 679.385 248.051 687.811 251.163 701.266C254.275 714.722 245.95 728.168 232.518 731.38C218.943 734.627 205.323 726.194 202.178 712.595C199.033 698.997 207.567 685.44 221.189 682.397Z"/><path d="M1757.07 709.511C1792.18 705.994 1823.52 731.501 1827.22 766.587C1830.91 801.673 1805.56 833.15 1770.5 837.02C1735.18 840.918 1703.43 815.348 1699.71 780.012C1695.99 744.676 1721.72 713.054 1757.07 709.511Z"/><path fill="#8FD384" d="M1788.87 745.626C1792.9 745.758 1795.1 745.666 1798.35 748.02C1808.63 761.163 1774.65 788.845 1766.53 798.8C1754.09 814.068 1743.86 796.999 1735.57 787.083C1729.54 781.297 1718.06 769.848 1725.17 761.234C1737.43 755.376 1749.8 773.019 1756.08 781.104C1766.54 768.848 1777.48 757.013 1788.87 745.626Z"/><path fill="#FDBE50" d="M1366.85 714.308C1401.05 710.349 1431.95 734.965 1435.73 769.186C1439.5 803.407 1414.73 834.172 1380.49 837.771C1346.5 841.343 1316.01 816.788 1312.26 782.821C1308.51 748.854 1332.9 718.238 1366.85 714.308Z"/><path d="M1311.97 599.505C1330.3 597.211 1360.57 598.795 1379.73 598.795L1509.96 598.794L1726.81 598.808C1764.34 598.813 1801.99 598.744 1839.53 598.973C1844.04 599 1844.8 599.057 1847.77 601.548C1846.43 601.762 1845.25 601.887 1843.89 601.906C1817.25 602.289 1790.37 601.928 1763.72 601.929L1601.5 601.993L1416.58 602.021C1384.45 602.018 1352.15 602.122 1320.01 601.846C1316.83 601.819 1314.36 601.7 1311.97 599.505Z"/><path d="M1542.16 723.486C1554.69 723.372 1630.89 722.09 1636.14 726.332C1632.68 727.56 1601.41 726.981 1595.5 726.981C1583.77 727.022 1506.05 728.175 1500.75 725.825C1504.22 722.907 1535.82 723.578 1542.16 723.486Z"/><path d="M1508.1 823.546C1520.89 822.963 1633.1 823.214 1636.11 825.307C1633 827.211 1630.91 826.885 1627.25 826.858C1602.13 827.142 1576.9 826.061 1551.67 826.916C1536.64 827.425 1518.84 827.382 1503.99 825.616L1503.3 824.62L1502.89 825.389L1501.84 825.112L1501.5 824.365C1502.3 824.378 1504.94 823.616 1508.1 823.546Z"/><path d="M1500.13 774.468C1505.8 773.701 1520 773.963 1526.16 773.949L1574.38 773.876C1593.06 773.858 1613.49 773.604 1632.26 774.172C1635.14 774.259 1635.17 774.901 1636.53 776.706C1631.85 777.007 1612.05 777.308 1607.42 776.941C1592.86 775.787 1505.31 779.899 1500.13 774.468Z"/><path d="M616.509 170.995C706.546 169.398 801.159 170.921 891.618 170.939L1432.12 171.014L1432.51 399.109C1432.5 434.396 1433.03 472.007 1432.1 507.163L1430.2 506.794L1428.22 508.375C1427.86 480.266 1428.62 452.153 1428.33 424.172L620.555 424.268C620.624 467.829 621.304 510.174 620.497 553.857L616.546 553.15C615.926 525.21 617.002 494.785 616.834 466.422L616.509 170.995ZM620.51 420.998L1428.28 420.966C1428.26 394.126 1427.39 362.428 1428.28 336.013L1013.27 336.091C988.749 336.098 829.417 338.036 820.404 334.474C828.588 331.835 881.682 332.937 893.384 332.941L1023.1 332.964L1287.37 332.998C1331.92 332.996 1384.81 331.716 1428.72 333.311C1427.76 323.569 1428.17 308.055 1428.17 297.717L1428.13 238.068L1015.74 237.946L894.407 238.064C870.8 238.093 839.278 239.191 816.609 236.101C838.484 233.448 877.931 234.43 901.16 234.614L1012.05 234.766L1428.24 235.002L1428.17 174.102L620.615 174.057L620.51 420.998Z"/><path d="M755.947 325.498L757.708 326.08L758.22 327.462C753.074 335.832 705.946 380.366 696.016 389.877C680.556 376.4 663.832 359.215 649.028 344.682C646.736 342.439 647.267 343.468 646.433 340.714L647.779 340.091C653.238 342.297 688.186 378.325 695.694 385.249C715.192 365.372 736.14 345.322 755.947 325.498Z"/><path d="M756.761 227.308C758.525 228.01 758.436 228.036 759.575 229.43C741.507 249.999 715.053 274.149 694.739 293.353C679.524 278.039 664.2 262.836 648.766 247.743L646.608 245.27L647.67 244.323C654.23 246.455 687.601 281.277 694.925 288.353C715.668 268.137 736.28 247.789 756.761 227.308Z"/><path d="M1428.28 336.013L1013.27 336.091C988.749 336.098 829.417 338.036 820.404 334.474C828.588 331.835 881.682 332.937 893.384 332.941L1023.1 332.964L1287.37 332.998C1331.92 332.996 1384.81 331.716 1428.72 333.311L1428.28 336.013Z"/><path fill="#A5ACF3" d="M869 445.211C879.028 444.561 932.496 442.529 938.006 449.034C939.096 453.854 939.828 459.294 939.845 464.287C940.077 531.113 940.336 598.036 939.498 664.829C939.48 666.331 935.97 668.596 934.755 669.411C921.995 669.799 875.856 671.943 866.993 666.281C861.998 651.757 865.405 480.844 864.805 452.502C864.733 449.083 866.568 447.281 869 445.211Z"/><path d="M1163.74 865.471C1172.54 864.323 1267.53 864.275 1271.4 866.146L1271.57 867.903C1247.9 868.58 1224.23 868.774 1200.55 868.486C1190.37 868.395 1179.85 868.361 1169.66 867.958C1165.76 867.804 1165.61 867.745 1163.74 865.471Z"/><path d="M1168.06 774.494L1231.38 774.395C1239.51 774.377 1264.77 773.956 1271.6 775.753L1271.82 776.836L1268.85 777.706C1253.21 777.775 1172.34 779.081 1163.64 776.164L1163.95 775.176L1168.06 774.494Z"/><path d="M1178.41 908.439C1204.11 907.508 1230.49 909.462 1256.27 909.116C1261.37 909.047 1266.6 909.19 1271.67 909.821L1271.77 910.585C1267.06 912.394 1262.89 911.954 1257.88 911.843C1247.07 911.879 1165.27 913.019 1162.85 910.285C1167.9 908.383 1173.02 908.586 1178.41 908.439Z"/><path d="M1179.02 730.545C1195.26 729.665 1215.8 730.826 1232.37 730.909C1243.24 730.963 1262.1 730.676 1271.96 731.838L1271.66 732.574C1266.02 734.595 1260.72 734.194 1254.73 734.191C1234.74 734.187 1214.74 733.977 1194.75 733.561C1186.2 733.429 1171.7 733.751 1163.63 732.86L1163.24 732.171C1168.43 730.617 1173.61 730.719 1179.02 730.545Z"/><path d="M1161.96 820.476C1167.16 819.87 1184.94 819.465 1189.98 819.837C1202.1 820.732 1268.45 817.348 1272.75 822.524C1271.83 822.621 1268.38 822.965 1267.74 822.918C1254.31 821.935 1167.37 825.493 1161.96 820.476Z"/><path fill="#FDBE50" d="M1066.5 668.711C1065.57 663.461 1064.69 657.851 1064.61 652.527C1064.14 620.249 1064.89 587.811 1064.82 555.542L1064.36 489.336C1064.31 479.426 1063.55 458.077 1065.92 449.189C1071.36 443.561 1102.54 446.081 1111.86 445.868C1117.72 446.411 1135.95 444.039 1140.14 448.045C1145.63 453.291 1143.62 487.531 1143.6 495.294L1143.04 582.457C1142.91 596.219 1142.09 620.244 1143.35 633.466C1140.69 636.763 1136.63 641.03 1134.53 644.32C1134.45 652.653 1134.18 661.709 1134.58 669.968C1111.37 669.987 1089.62 670.293 1066.5 668.711Z"/><path fill="#A5ACF3" d="M663.974 446.562C676.492 444.885 728.583 441.682 737.065 447.868C741.02 458.021 739.158 537.417 739.256 554.561C713.531 553.961 687.797 553.853 662.069 554.237L662.396 487.187C662.474 476.741 662.263 456.257 663.974 446.562Z"/><path d="M1134.58 669.968C1136.43 667.671 1134.56 663.689 1138.02 659.552C1137.09 720.151 1138 781.49 1137.7 842.171C1137.55 873.898 1135.85 909.415 1137.82 940.665C1137.57 940.477 1137.32 940.303 1137.08 940.101C1132.42 936.099 1134.94 879.842 1134.7 869.96L1133.47 869.03C1132.72 858.158 1135.95 799.359 1132.16 793.974L1134.41 793.182C1135.55 788.851 1135.07 782.457 1134.21 778.055C1133.08 772.942 1133.35 755.921 1133.32 749.834L1133.21 694.037L896.347 694.028L826.952 694.154C817.225 694.175 797.767 694.708 788.99 693.502C796.87 691.813 811.91 695.017 817.144 691.189C852.463 690.198 891.43 691.02 926.983 691.033L1133.84 691.097C1133.8 684.782 1133.44 675.94 1134.58 669.968Z"/><path d="M1255.66 631.396C1274.19 630.581 1286.5 627.899 1299.31 643.981C1300.56 718.029 1300.81 792.089 1300.06 866.144C1299.98 878.797 1301.89 922.219 1299.71 932.539L1297.75 933.019L1295.93 937.811C1294.55 918.78 1295.6 881.11 1295.54 861.045L1295.14 707.61C1295.11 686.761 1295.87 664.231 1293.78 643.577C1292.85 634.345 1267.52 634.171 1261.28 633.95C1259.83 633.151 1257.27 632.11 1255.66 631.396Z"/><path d="M1238.93 517.123C1240.87 541.922 1240.62 565.065 1240.44 589.801C1240.39 596.743 1239.76 631.025 1241.06 634.216C1241.68 638.059 1242.21 639.833 1241.17 643.595C1236.68 648.303 1189.72 646.11 1180.54 645.995L1180.34 634.983C1154.08 634.512 1138.75 627.683 1138.02 659.552C1134.56 663.689 1136.43 667.671 1134.58 669.968C1134.18 661.709 1134.45 652.653 1134.53 644.32C1136.63 641.03 1140.69 636.763 1143.35 633.466C1153.2 630.145 1173.96 631.239 1184.4 632.438L1184.5 642.183C1198.78 643.721 1222.42 643.051 1237.46 642.978C1239.4 614.145 1237.76 583.827 1238.12 554.856C1238.23 546.002 1237.41 525.055 1238.93 517.123Z"/><path fill="#FEFEFE" fill-opacity="0.0078431377" d="M1133.47 869.03C1129.68 867.18 1129.66 867.85 1127.55 864.793C1126.43 855.409 1125.1 798.359 1128.5 793.914L1132.16 793.974C1135.95 799.359 1132.72 858.158 1133.47 869.03Z"/><path d="M1159.87 950.304C1186 949.45 1213.23 950.276 1239.46 949.944C1244.85 949.876 1272.59 949.703 1276.25 950.5C1280.82 952.667 1288.7 951.149 1294.51 952.15C1270.98 954.073 1228.7 953.22 1204.2 952.986C1174.62 952.703 1135.88 954.149 1107 952.735C1114.09 948.834 1153.36 954.814 1159.87 950.304Z"/><path fill="#545454" fill-opacity="0.98823529" d="M542.476 951.892C551.904 950.707 601.091 950.132 609.345 951.878C589.409 952.781 562.495 952.229 542.476 951.892Z"/></svg>