<?xml version="1.0" encoding="utf-8" ?><svg xmlns="http://www.w3.org/2000/svg" xmlns:xlink="http://www.w3.org/1999/xlink" width="1024" height="1024" viewBox="0 0 1024 1024"><path d="M511.145 371.735C513.452 372.878 513.793 373.386 515.527 375.333C526.744 375.799 538.7 375.575 549.98 375.571L604.79 375.541C617.153 375.518 629.677 375.108 641.983 376.044C653.495 376.795 651.168 391.699 651.289 399.836C651.835 436.513 650.227 473.908 651.25 510.503C652.847 510.491 654.443 510.468 656.039 510.435C656.284 510.279 656.529 510.124 656.774 509.969C657.441 468.82 656.383 427.444 657.067 386.297C657.104 384.091 658.057 381.087 659.063 379.806C660.839 377.545 664.454 376.06 667.15 375.912C678.421 375.292 690.371 375.488 701.64 375.486L771.535 375.519L868.992 375.491C885.261 375.484 901.575 375.332 917.834 375.633C925.074 375.767 931.218 381.597 931.525 388.898C932.214 405.263 931.812 421.654 931.746 438.028L931.843 515.698L931.808 591.433C931.805 605.388 932.025 619.466 931.362 633.39C931.007 640.84 924.036 644.586 917.283 644.765C903.266 645.135 889.263 645.005 875.242 644.999L795.751 644.986L711.183 645.011C696.44 645.012 681.476 645.132 666.729 644.813C664.546 644.766 662.29 644.366 660.669 642.843C658.945 641.152 657.548 637.983 657.377 635.567C656.509 623.288 656.987 610.489 656.99 598.192L657.03 514.499L651.571 514.612C650.388 524.973 651.221 540.803 651.254 551.68L651.037 608.37C651.061 617.762 651.468 627.155 650.836 636.521C650.569 640.477 647.57 645.522 643.372 645.922C631.026 647.097 618.233 646.562 605.791 646.604L514.526 646.551L514.327 652.768L597.891 652.917C611.661 652.923 626.049 652.708 639.823 653.207C642.934 653.32 644.947 654.118 647.618 655.647C650.789 659.873 650.963 661.854 650.982 667.108C651.042 683.962 650.956 700.849 650.925 717.701L650.86 820.437L651.025 881.131C651.047 891.141 651.192 901.426 650.829 911.405C650.397 923.284 632.199 921.151 624.079 921.135L598.787 921.128L512.375 921.004L429.453 920.941C415.046 920.934 400.674 921.075 386.263 920.82C378.264 920.679 372.735 918.159 372.616 909.106C372.422 894.306 372.648 879.462 372.676 864.651L372.8 774.278L372.731 705.156C372.617 691.562 372.385 677.581 372.633 664.04C372.713 659.669 374.753 654.89 379.014 654.066C388.437 652.242 403.308 652.887 412.973 652.911L480.167 652.799L499.529 652.724C502.522 652.732 507.511 653.622 509.588 651.804C510.933 647.909 509.81 647.074 506.344 646.872C494.952 646.206 483.471 646.472 472.055 646.485L411.258 646.55C406.05 646.558 398.656 646.253 393.63 646.633C368.196 648.556 372.449 636.971 372.425 616.109L372.925 545.033C372.943 538.419 373.412 520.368 372.215 515.164C370.595 514.363 370.975 514.633 368.923 514.725C367.819 515.422 367.492 515.541 367.256 516.941C366.249 522.925 367.051 533.169 367.079 539.667C367.155 556.787 366.972 573.915 367.194 591.034C367.369 604.5 368.113 618.359 367.301 631.792C367.154 634.228 366.894 637.327 365.875 639.535C364.972 641.49 362.716 642.898 360.745 643.594C354.307 645.868 303.253 644.754 293.5 644.798L187.974 644.854C161.202 644.925 134.416 645.185 107.646 644.641C102.14 644.963 95.1366 642.897 93.4584 636.832C91.2499 628.852 91.9786 618.575 91.9768 610.228L91.9765 579.887L91.9988 493.842L91.9556 424.544C91.9418 413.251 91.811 401.896 91.9192 390.611C91.9512 387.281 92.3547 385.296 93.8001 382.395C95.154 379.679 98.7694 376.631 101.745 376.291C109.645 375.386 119.547 375.591 127.525 375.578L179.283 375.582L289.133 375.565C310.573 375.565 332.021 375.542 353.453 376.003C358.701 376.301 365.486 377.224 366.49 383.545C367.914 392.507 367.467 402.31 367.466 411.413L367.372 476.002C367.321 482.607 366.642 504.056 367.596 509.711C369.764 511.68 372.587 511.068 372.648 507.357C372.803 497.898 372.435 488.48 372.424 479.013L372.387 415.264C372.366 405.464 372.224 395.663 372.569 385.869C372.743 380.947 374.671 376.989 380.042 376.283C389.527 375.036 399.602 375.504 409.207 375.504L478.293 375.475C485.04 375.464 502.794 376.076 508.609 375.335C509.883 374.624 510.142 373.684 510.839 372.337L511.145 371.735ZM376.008 510.546C379.079 510.353 381.64 509.781 384.042 511.778L384.074 512.834C381.71 514.883 379.226 514.378 376.009 514.373L375.867 590.295C375.852 598.627 374.108 636.201 378.559 640.765C380.756 641.673 384.346 642.453 386.76 642.448C427.176 642.35 468.571 643.805 508.913 642.799C509.763 641.229 510.311 639.666 511.811 638.883C514.355 639.892 514.992 643.137 519.374 643.037C524.948 642.909 530.616 642.912 536.199 642.911L574.75 642.916L616.896 642.882C622.288 642.875 642.251 643.812 645.709 640.387C648.847 633.113 647.573 599.374 647.561 590.021L647.562 514.497C645.218 514.418 643.579 514.667 641.764 513.317L641.341 512.345C642.887 509.976 644.94 510.413 647.548 510.363L647.928 427.975C647.934 420.247 649.082 385.671 645.22 381.289C639.066 378.521 625.299 379.37 618.113 379.378L583.313 379.411C562.863 379.391 535.933 378.52 515.876 379.554C514.759 381.296 514.079 382.797 512.315 383.769C509.638 383.607 509.701 381.91 509.067 379.524C492.112 378.307 463.727 379.073 445.979 379.236C432.154 379.558 418.325 379.691 404.496 379.636C397.548 379.605 390.484 379.206 383.571 379.634C378.704 379.935 375.785 381.68 375.633 386.862C375.262 399.501 375.673 412.164 375.701 424.81L376.008 510.546ZM669.964 379.251C664.797 379.649 661.216 380.814 660.875 386.696C660.435 394.263 660.558 401.866 660.583 409.446L660.686 446.861C660.592 461.442 660.61 476.024 660.742 490.605C660.793 496.344 660.447 505.172 661.009 510.435C663.532 510.336 665.348 509.891 667.025 512.036C666.508 514.856 663.351 514.557 661.029 514.572C660.369 521.823 660.579 530.572 660.57 537.994L660.53 572.883L660.444 609.777C660.433 618.455 659.97 630.148 661.832 638.465C663.608 639.896 664.318 640.817 666.491 640.962C675.935 641.594 685.836 641.34 695.306 641.261C710.926 641.05 726.547 640.961 742.168 640.993L912.125 641.006C926.676 640.811 928.37 639.019 928.774 624.445C929.138 611.286 928.954 598.153 928.921 584.993L928.801 516.99C928.683 492.089 928.708 467.187 928.873 442.285C928.899 427.863 930.299 398.141 927.531 384.989C924.696 381.717 923.166 379.814 918.527 379.635C907.297 379.203 895.755 379.408 884.516 379.461L825.957 379.539L720.94 379.229C704.301 379.201 686.538 378.88 669.964 379.251ZM514.342 656.658C514.272 660.939 514.578 666.992 512.41 670.563L511.572 670.724C509.349 667.792 509.89 660.239 509.945 656.501C467.703 656.626 424.762 656.108 382.613 656.705C377.276 658.316 376.156 660.742 376.085 666.232C375.88 682.104 375.966 697.988 375.972 713.863L375.979 801.181L375.935 872.632C375.923 884.564 375.493 900.486 376.105 912.246C378.164 914.7 379.731 916.792 383.103 916.968C395.805 917.631 408.951 917.365 421.683 917.346L489.396 917.344L586.111 917.463C603.213 917.486 620.339 917.687 637.435 917.372C643.47 917.261 645.819 915.101 646.991 909.411L646.996 753.789L647.091 697.995C647.127 686.992 647.334 675.986 646.922 664.995C646.594 656.272 638.939 656.547 632.329 656.596C593.032 656.888 553.627 656.243 514.342 656.658ZM359.149 640.615C361.146 639.177 363.198 636.938 363.42 634.466C364.487 622.564 363.841 608.921 363.889 596.918L363.933 545.513C363.918 536.053 363.954 526.588 363.737 517.13C363.694 515.25 362.908 514.727 361.687 513.445C361.368 509.769 363.929 510.399 363.917 506.71C363.795 467.362 364.396 427.938 363.55 388.608C363.5 386.274 363.005 383.074 361.259 381.446C359.578 380.343 353.043 379.757 350.978 379.726C337.232 379.518 323.391 379.589 309.649 379.587L232.365 379.588L146.481 379.562C132.68 379.55 116.73 379.142 103.079 379.534C94.4774 383.569 95.2735 387.371 95.0817 396.198C94.9194 403.672 95.0715 411.22 95.089 418.697L95.0991 462.394L95.106 569.209C95.1268 588.519 94.7316 608.112 95.5058 627.409C95.6299 630.5 95.8017 634.283 97.2545 637.042C97.8313 638.098 99.258 639.78 100.504 639.928C108.347 641.383 116.996 641.013 124.959 641.014L155.022 640.998L269.106 641.031L328.215 641.015C335.834 641.027 352.417 641.597 359.149 640.615Z"/><path fill="#FEBE51" d="M505.082 463.801C531.53 459.883 556.146 478.149 560.061 504.597C563.977 531.046 545.708 555.66 519.259 559.572C492.815 563.484 468.205 545.219 464.29 518.775C460.376 492.33 478.638 467.719 505.082 463.801Z"/><path fill="#FEFEFE" d="M534.341 492.896C536.563 493.576 537.324 493.713 537.828 496.082C535.534 502.279 506.562 530.335 500.467 535.977C497.544 533.432 494.368 530.153 491.568 527.401C489.928 525.771 487.238 522.393 488.022 519.973C492.221 517.505 497.565 524.671 499.882 527.395C511.85 516.844 520.525 503.974 534.341 492.896Z"/><path d="M511.128 594.043C516.578 595.841 514.407 607.492 513.091 611.772C508.043 611.908 509.801 597.18 511.128 594.043Z"/><path d="M511.546 412.189C516.923 414.06 515.246 424.058 513.16 427.794C507.744 424.874 508.932 416.652 511.546 412.189Z"/><path d="M511.352 390.007C517.025 391.939 515.025 401.145 513.497 405.351C512.913 405.057 512.318 404.895 511.865 404.53C508.482 401.808 509.199 392.808 511.352 390.007Z"/><path d="M510.904 617.147C516.543 618.761 514.566 629.112 513.434 633.423C508.094 632.432 509.253 620.489 510.904 617.147Z"/><path d="M510.764 433.723C517.106 434.692 514.452 444.337 512.907 448.39C508.125 446.098 509.189 437.715 510.764 433.723Z"/><path d="M416.099 510.185C419.764 510.224 425.057 510 428.118 512.135L428.262 513.108C427.384 514.067 426.802 514.077 425.532 514.458C422.549 514.537 414.582 515.042 412.585 512.482L412.796 511.609C413.976 510.63 414.633 510.578 416.099 510.185Z"/><path d="M510.885 574.137C516.502 576.767 514.589 584.625 512.851 589.332C507.979 589.941 509.812 576.766 510.885 574.137Z"/><path d="M601.808 510.145C604.405 510.088 613.119 509.336 613.026 512.789C611.817 514.34 612.562 513.731 610.58 514.509C607.296 514.624 600.741 515.407 598.529 512.959L598.733 511.811C600.053 510.343 599.641 510.799 601.808 510.145Z"/><path d="M623.024 510.232C626.423 510.131 632.603 509.407 634.068 513.135C633.055 514.177 633.065 513.971 631.587 514.549C627.841 514.666 620.709 516.047 620.017 511.524C620.974 510.241 620.897 510.64 623.024 510.232Z"/><path d="M579.858 510.124C583.13 509.976 589.197 509.181 591.45 511.567C591.729 513.416 591.752 512.455 590.71 514.534C587.411 514.772 581.257 515.536 578.95 512.999C578.894 511.1 578.752 512.054 579.858 510.124Z"/><path d="M393.348 510.522C396.435 510.408 406.73 509.109 407.189 513.004L405.878 514.376C402.762 514.46 392.792 515.519 392.246 511.726L393.348 510.522Z"/><path d="M440.034 510.262C442.555 510.494 443.805 510.138 444.879 512.547L444.327 513.602C442.683 514.855 441.7 514.573 439.487 514.553C437.072 514.446 435.165 514.794 434.205 512.295L434.965 511.144C436.604 510.08 438.034 510.301 440.034 510.262Z"/><path d="M473.797 704.588C478.72 704.333 484.821 704.433 489.757 704.572C508.305 705.09 526.84 704.281 545.367 704.716C548.914 704.96 552.482 705.715 555.777 707.059C567.222 711.726 564.321 730.435 564.229 740.296L564.144 774.242C564.146 799.629 564.24 825.136 564.048 850.526C564.033 852.463 563.8 857.098 562.939 858.728C560.473 863.394 557.594 865.236 552.789 866.799C545.155 868.944 512.642 867.303 502.711 867.539C493.81 867.384 484.814 867.791 475.931 867.357C457.279 866.446 461.016 845.249 461.007 831.938L460.981 793.323L460.97 747.711C460.974 739.193 460.922 730.664 461.124 722.15C461.367 711.873 463.819 707.58 473.797 704.588Z"/><path fill="#B0B4FA" d="M473.837 708.174C477.012 707.933 480.275 708.075 483.464 708.139C483.404 710.735 483.066 713.844 483.903 716.327C484.4 717.802 485.233 719.045 486.715 719.67C491.519 721.697 533.173 721.301 536.928 719.164C540.894 716.906 541.777 712.49 542.824 708.434C546.333 708.458 549.936 708.764 553.248 710.008C555.735 710.942 558.166 712.667 559.154 715.227C562.561 724.053 560.713 792.84 560.695 806.596C560.677 820.592 561.542 835.057 560.711 848.995C560.489 852.713 560.033 855.879 558.473 859.314C557.266 860.623 555.972 861.758 554.334 862.506C551.71 863.706 548.518 864.197 545.647 864.404C535.75 865.117 525.734 864.159 515.818 864.199C504.301 864.245 492.591 865.198 481.089 864.507C478.222 864.334 475.365 863.944 472.663 862.921C469.331 861.658 466.678 859.392 465.306 856.046C462.869 850.102 463.721 734.729 464.771 719.903C464.905 718.003 465.061 716.091 465.887 714.345C467.444 711.057 470.614 709.45 473.837 708.174Z"/><path d="M511.444 678.753C516.509 680.891 514.228 689.155 512.763 692.988C508.646 689.434 508.88 683.168 511.444 678.753Z"/><path d="M187.256 424.208C200.824 423.271 217.382 424.505 231.087 424.298C239.745 424.568 248.344 423.669 256.997 424.228C267.605 424.913 272.868 429.41 273.501 440.383C274.054 449.969 273.817 459.288 273.865 468.724L274.005 521.093L274.021 554.087C274.044 566.59 277.636 585.43 260.125 586.111L209.33 586.183C200.533 586.205 191.043 586.695 182.31 585.722C176.881 585.118 171.803 580.576 171.561 574.824C171.175 565.661 171.348 556.345 171.374 547.108L171.407 499.551L171.384 459.019C171.38 451.451 171.213 443.548 171.778 436.011C171.947 433.75 173.429 430.863 174.994 429.22C178.481 425.558 182.497 424.569 187.256 424.208Z"/><path fill="#B0B4FA" d="M249.163 427.685C264.335 427.589 270.357 428.702 270.442 445.61C270.575 471.984 270.437 498.362 270.492 524.737L270.552 554.681C270.566 563.97 273.271 582.695 259.782 582.652C233.887 582.569 207.837 583.287 181.949 582.565C171.363 579.024 174.829 560.378 174.72 551.075C174.49 531.324 174.835 511.462 174.872 491.703L174.897 460.417C174.895 454.153 174.866 447.929 175.115 441.67C175.672 427.646 182.143 427.937 194.354 428.068C194.433 431.332 194.247 439.403 198.441 439.944C206.806 441.022 238.923 442.456 245.599 439.341C248.349 436.386 248.298 431.936 249.163 427.685Z"/><path d="M341.226 509.849C345.434 510.933 350.673 508.784 355.104 511.356C356.07 513.053 355.827 512.094 355.289 514.45C351.507 514.655 342.265 515.822 339.993 512.549C340.176 510.673 339.909 511.589 341.226 509.849Z"/><path d="M319.096 509.996C322.732 510.023 330.76 509.543 333.423 511.547C334.208 513.271 334.04 512.345 333.583 514.462C329.512 514.572 321.895 515.486 318.867 513.295C318.091 511.603 318.24 512.302 319.096 509.996Z"/><path d="M297.801 510.128C300.549 510.058 311.008 509.246 311.107 512.983L309.909 514.192C306.457 514.45 298.152 515.554 296.183 512.418C296.567 511.035 296.696 511.112 297.801 510.128Z"/><path d="M279.618 510.617C282.623 510.43 285.607 509.909 288.212 511.297C289.252 512.927 289.026 512.053 288.854 514.029C286.133 514.733 282.921 515.267 280.425 513.756C279.261 511.961 279.6 512.948 279.618 510.617Z"/><path d="M770.789 424.257C785.359 424.209 799.862 424.431 814.437 424.133C821.979 423.978 831.882 423.712 839.227 425.071C854.443 427.886 852.965 443.822 852.955 455.617L852.919 481.297C852.782 509.154 852.825 537.011 853.049 564.867C853.108 577.856 850.635 585.441 835.625 585.495L787.113 585.534C779.038 585.54 770.77 585.807 762.853 585.284C753.721 584.682 749.828 578.514 749.696 569.926C749.561 561.072 749.826 552.069 749.848 543.217L749.83 491.248L749.849 460.216C749.832 441.855 746.418 425.015 770.789 424.257Z"/><path fill="#B0B4FA" d="M765.35 428.573C776.831 427.234 771.326 435.77 774.687 437.91C782.155 442.665 816.82 440.646 824.053 440.477C824.784 439.955 825.486 439.394 826.156 438.795C829.601 435.723 829.403 432.675 829.666 428.335C836.586 428.475 846.627 429.595 848.257 438.082C850.215 448.285 849.527 459.815 849.528 470.287L849.512 515.872L849.543 552.488C849.554 558.831 849.649 565.344 849.423 571.683C849.318 574.604 847.999 576.799 846.488 579.224C840.37 583.686 812.797 581.52 803.882 581.598C789.439 581.295 772.642 583.304 758.637 580.593C751.275 579.168 753.461 555.487 753.483 550.008L753.503 510.112C753.504 488.904 753.362 467.678 753.659 446.475C753.798 436.5 755.493 431.822 765.35 428.573Z"/><path d="M674.972 510.224C678.632 510.006 686.61 509.035 688.387 512.614C687.788 513.98 688.102 513.515 686.943 514.504C683.368 514.663 675.321 515.589 673.122 512.309C673.835 510.684 673.335 511.426 674.972 510.224Z"/><path d="M716.403 510.107C719.977 510.016 726.683 509.358 729.025 512.363C728.594 514.004 728.949 513.213 727.463 514.603C723.908 514.773 717.455 515.578 714.949 512.857C715.225 510.882 714.879 511.823 716.403 510.107Z"/><path d="M695.964 510.176C700.376 510.022 703.249 509.803 707.448 511.621C708.398 512.762 708.164 512.125 708.208 513.582C707.715 514.003 707.144 514.205 706.527 514.504C703.126 514.618 695.969 515.34 693.78 512.427C694.548 510.647 694.01 511.479 695.964 510.176Z"/><path d="M735.897 510.17C739.122 510.066 742.92 509.806 744.908 512.782C744.113 514.315 744.644 513.614 742.898 514.669C740.214 514.894 736.623 515.236 734.769 513.092C734.929 511.08 734.664 512.049 735.897 510.17Z"/><path d="M388.82 102.219C406.382 101.905 424.722 102.166 442.332 102.164L541.961 102.15L602.633 102.279C615.402 102.287 635.963 100.503 647.27 105.105C648.627 106.725 650.671 109.118 650.755 111.316C651.679 135.38 650.96 159.975 651.008 184.042L651.117 303.519C651.108 321.275 651.205 339.032 651.198 356.787C651.195 365.202 648.806 368.238 640.249 369.354C623.517 370.009 604.204 369.514 587.264 369.506L490.201 369.493L419.904 369.515C407.668 369.518 395.2 369.694 382.972 369.295C375.364 369.048 373.244 363.617 373.096 356.847C372.806 343.621 372.939 330.275 372.941 317.001L372.954 239.927L372.947 157.662C372.931 143.22 372.815 128.775 373.025 114.336C373.184 103.39 379.682 102.563 388.82 102.219ZM633.421 365.87C636.465 365.748 639.505 365.668 642.537 365.383C644.733 363.931 646.815 362.836 647.126 360.055C648.13 351.079 647.647 340.77 647.563 331.738L647.335 283.273L647.583 177.529C647.644 158.187 647.724 138.811 647.549 119.466C647.525 116.762 647.143 111.839 646.053 109.373C645.217 107.481 640.642 106.346 638.709 106.151C628.357 105.112 617.153 105.563 606.722 105.676C592.244 105.784 577.764 105.797 563.286 105.716L388.35 105.754C379.409 105.881 376.328 107.159 376.19 116.774C375.957 132.943 376.259 149.107 376.225 165.275L376.04 274.853L376.001 330.714C375.996 340.303 375.616 350.454 376.519 359.99C376.856 363.556 381.668 365.416 384.74 365.363C396.705 366.091 408.677 365.882 420.658 365.828L465.965 365.808L633.421 365.87Z"/><path d="M475.093 155.642C480.157 155.176 489.184 154.941 495.559 155.393C514.802 156.76 538.565 152.035 556.683 158.515C558.746 159.253 562.852 165.423 563.001 167.558C564 181.774 563.277 196.493 563.332 210.86L563.517 273.595C563.547 283.316 563.783 293.048 563.667 302.765C563.543 313.194 560.324 319.015 549.623 321.463C525.091 322.707 498.246 321.675 473.536 321.323C464.966 321.201 459.522 310.113 460.248 302.399C460.623 298.424 460.312 292.33 460.347 287.907L460.374 258.06L460.304 200.857C460.293 190.574 460.069 180.019 460.559 169.743C460.952 161.497 467.438 157.015 475.093 155.642Z"/><path fill="#B0B4FA" d="M539.123 159.496C551.717 159.334 559.105 158.953 559.488 173.961C559.892 189.811 559.635 205.653 559.702 221.504C559.913 239.059 559.929 256.615 559.749 274.17C559.746 284.448 560.686 302.815 558.042 312.141C555.091 316.078 550.593 318.02 545.667 317.999C523.047 317.903 500.419 318.085 477.803 317.931C474.684 317.91 467.224 315.732 466.113 312.257C465.343 309.598 464.816 306.197 464.651 303.392C463.976 274.637 464.547 245.815 464.28 217.054C464.144 202.412 463.991 187.958 464.41 173.334C464.66 164.586 466.428 162.422 474.811 159.544L484.476 159.533C484.416 166.965 483.934 172.827 493.338 172.787C505.747 172.734 518.539 173.551 530.92 172.762C539.782 172.197 538.967 166.597 539.123 159.496Z"/><path d="M510.249 327.585C510.572 327.705 510.896 327.825 511.22 327.946C516.378 329.185 515.168 339.844 513.361 343.619C507.477 341.755 509.127 332.292 510.249 327.585Z"/><path d="M511.244 349.734L513.077 350.367C516.267 353.368 515.265 360.653 513.738 364.291C512.288 364.08 512.754 364.194 511.413 363.583C509.015 360.309 509.295 353.184 511.244 349.734Z"/><path d="M101.875 651.2C116.241 650.585 133.019 651.068 147.621 651.104L227.767 651.147L308.516 651.051C324.088 651 339.676 650.8 355.241 651.059C359.846 651.136 365.72 653.72 366.403 658.813C368.167 671.965 367.358 685.638 367.218 698.901L367.123 746.284L367.175 852.141C367.251 871.021 367.374 889.901 367.477 908.779C367.52 916.684 363.773 919.318 356.845 921.184C350.112 920.719 339.867 920.948 332.927 920.954L292.767 920.979L164.141 921.095C152.166 921.116 106.808 922.707 99.0407 919.444C96.4867 918.372 94.3127 916.649 93.3658 913.997C91.922 909.954 91.8544 904.952 91.7438 900.707C91.467 890.09 91.9867 879.377 91.971 868.743L91.9067 783.765L91.8549 705.526C91.847 691.73 91.7722 677.872 91.9312 664.078C91.9536 662.139 92.3946 659.316 93.3406 657.62C95.5181 653.715 97.8695 652.475 101.875 651.2ZM356.956 917.463C359.181 916.492 361.809 915.728 362.678 913.218C365.217 905.889 363.952 875.219 363.943 865.869L363.912 802.837L363.858 718.336C363.871 702.051 363.928 685.738 363.858 669.451C363.847 666.84 363.639 661.037 362.494 658.757C361.782 657.337 358.664 655.424 357.049 655.277C347.093 654.369 336.025 654.589 326.092 654.605L267.81 654.757L157.867 654.738C139.739 654.699 120.499 654.344 102.463 654.673C95.5844 656.948 95.168 661.272 95.0415 668.097C94.8119 680.485 95.0544 692.922 95.0508 705.32L95.0011 779.386L94.9699 858.044C94.9625 872.231 94.8842 887.256 95.1059 901.361C95.187 906.525 95.5613 916.343 101.453 917.058C110.95 918.211 124.607 917.902 134.149 917.926L208.046 917.883L303.461 917.891C320.461 917.879 340.248 918.442 356.956 917.463Z"/><path d="M135.802 706.592C142.929 705.999 155.53 706.449 163.194 706.457L214.365 706.415L277.432 706.342C289.258 706.33 301.261 706.131 313.038 706.619C321.936 706.987 324.539 712.734 322.903 720.635C320.428 732.593 317.63 744.418 315.332 756.389C311.821 774.678 308.918 793.091 305.08 811.309C304.354 814.777 303.12 818.502 301.25 821.505C310.567 834.239 321.861 853.031 328.098 867.595C330.082 872.228 321.749 874.193 318.625 874.525L193.988 874.476L156.652 874.489C149.75 874.508 142.731 874.805 135.847 874.461C133.344 874.335 130.435 874.045 128.242 872.737C126.829 871.895 126.09 870.823 125.798 869.181C124.405 861.343 143.992 830.933 149.247 823.025C143.672 814.833 137.952 779.366 135.716 768.242C132.447 751.97 127.346 731.221 125.893 714.933C128.893 709.454 129.86 708.544 135.802 706.592Z"/><path fill="#B0B4FA" d="M141.546 718.685C157.532 718.096 176.982 718.58 193.128 718.591L288.13 718.471C292.666 718.456 306.058 717.636 308.922 720.48C309.121 725.071 305.177 743.829 304.147 749.313L294.991 799.384C293.984 805.898 294.236 810.522 286.301 810.333C243.351 809.308 200.387 810.981 157.442 809.803C155 801.889 138.629 722.119 139.511 719.938C139.8 719.226 140.89 718.99 141.546 718.685Z"/><path fill="#FEFEFE" d="M219.617 739.764C233.777 737.639 246.976 747.403 249.086 761.565C251.195 775.728 241.416 788.915 227.251 791.009C213.109 793.099 199.947 783.339 197.841 769.199C195.735 755.06 205.48 741.887 219.617 739.764Z"/><path fill="#FEFEFE" d="M152.565 824.334C192.626 826.345 233.783 824.23 273.955 825.024C282.156 825.186 290.401 824.984 298.587 824.419C305.842 835.725 318.5 854.245 323.782 867.009C325.85 872.005 305.914 870.914 302.504 870.91C284.608 870.961 135.559 871.87 131.45 870.009C130.234 869.458 129.988 868.947 129.556 867.741C130.498 860.435 148.063 831.332 152.565 824.334Z"/><path d="M159 829.188C178.66 828.554 199.1 828.978 218.826 829.058L291.716 829.162C292.303 830.015 292.878 830.876 293.441 831.746C296.486 836.434 309.78 859.11 308.724 864.131C305.68 866.865 295.879 865.906 291.533 865.772C280.25 865.42 267.689 865.708 256.255 865.706L187.992 865.738C181.212 865.743 144.499 866.979 142.651 863.494C143.235 857.125 154.926 834.618 159 829.188Z"/><path d="M665.988 651.208C673.717 650.359 693.405 650.993 702.292 651.004L774.187 651.018L879.795 651.167C891.151 651.2 902.52 650.868 913.876 651.273C916.505 651.367 919.224 651.393 921.907 651.987C924.746 652.615 928.025 655.034 929.571 657.544C931.276 661.131 931.665 665.624 931.83 669.546C932.003 682.474 931.838 695.482 931.756 708.412L931.675 766.426C931.896 803.081 931.882 839.737 931.633 876.391C931.578 884.909 931.756 893.481 931.695 902C931.632 910.969 932.129 916.042 923.109 920.167C917.17 921.723 898.689 921.167 891.593 921.157L840.706 921.103L729.942 921.078C710.255 921.09 690.571 921.173 670.883 921.064C659.087 920.998 656.926 916.041 656.87 905.118C656.813 894.125 656.867 883.098 656.849 872.109L656.874 786.974L656.704 718.466C656.571 700.322 656.313 682.171 656.614 664.03C656.671 660.582 656.67 657.774 658.972 655.034C660.89 652.75 663.252 651.981 665.988 651.208ZM910.26 917.521C921.488 917.5 927.942 917.764 928.325 904.141C928.685 891.335 928.541 878.49 928.542 865.677L928.499 792.355L928.414 710.921C928.417 696.818 928.514 682.514 928.348 668.391C928.259 660.873 926.417 655.132 917.587 654.825C904.898 654.385 891.995 654.703 879.208 654.697L807.525 654.558L714.132 654.556C703.74 654.574 688.522 653.85 678.883 654.216C673.897 654.479 665.597 654.211 661.852 657.844C660.054 659.588 660.337 664.504 660.147 666.91C659.923 689.346 660.191 711.807 660.347 734.236L660.413 820.906L660.352 877.836C660.308 888.42 660.073 899.146 660.606 909.718C660.737 912.32 661.635 914.419 663.708 916.052C664.858 916.891 671.351 917.475 672.985 917.482C698.306 917.584 723.739 917.613 749.054 917.604L910.26 917.521Z"/><path d="M811.991 706.264C825.372 705.373 839.994 706.128 853.635 705.965C866.15 705.816 880.624 705.5 892.993 707.035C898.736 707.748 900.589 714.317 899.626 719.475C897.024 733.424 893.097 747.113 890.14 761.088L882.004 801.236C880.634 808.05 879.067 817.414 877.039 823.857C884.061 837.298 894.326 853.266 899.401 867.15C903.22 877.6 863.872 874.503 858.893 874.524L788.75 874.788L742.253 874.755C737.484 874.791 694.651 876.816 697.138 869.528C701.586 856.49 713.979 834.835 722.811 824.096C716.693 794.43 711.954 764.066 706.349 734.269C705.033 727.273 702.009 714.799 704.955 708.39C708.984 705.454 739.053 706.351 746.224 706.347C768.146 706.464 790.069 706.436 811.991 706.264Z"/><path fill="#B0B4FA" d="M773.11 718.264C789.97 717.767 807.926 718.266 824.89 718.127C845.246 717.96 866.03 717.741 886.353 718.48C879.05 748.312 873.185 780.003 866.126 810.314C854.659 809.617 840.609 809.731 829.034 809.67C803.505 810.651 777.229 809.894 751.646 810.416C746.878 810.514 737.377 810.757 733.362 808.248C732.525 806.711 731.928 804.898 731.612 803.172C726.852 777.202 722.427 751.178 717.426 725.251C717.109 723.607 717.004 721.807 717.285 720.158C721.63 717.497 735.102 718.281 740.503 718.289C751.372 718.336 762.242 718.327 773.11 718.264Z"/><path fill="#FEFEFE" d="M795.694 738.215C809.956 736.573 822.854 746.789 824.524 761.047C826.193 775.306 816.003 788.224 801.748 789.921C787.453 791.623 774.491 781.398 772.817 767.1C771.144 752.802 781.393 739.861 795.694 738.215Z"/><path fill="#FEFEFE" d="M725.874 825.507L872.652 825.58C879.011 835.009 892.41 858.436 895.808 868.891C887.501 871.876 879.142 871.159 870.381 871.01L766.025 871.353C746.312 871.471 719.459 872.485 700.505 870.167C704.479 859.345 719.224 835.276 725.874 825.507Z"/><path d="M735.522 829.717C764.006 829.27 792.705 829.868 821.207 829.569C835.888 829.415 850.832 829.459 865.485 830.048C868.769 834.861 882.553 859.71 881.143 864.575C877.274 867.687 866.651 866.558 861.375 866.41C829.549 865.234 795.746 866.565 763.835 866.004C748.806 865.739 730.407 867.305 715.918 865.057C717.193 857.195 726.232 837.253 730.771 830.58C732.148 829.637 733.775 829.802 735.522 829.717Z"/><path d="M101.02 102.56C150.465 102.171 199.913 102.121 249.36 102.41L316.75 102.379C328.986 102.361 341.293 101.985 353.521 102.381C355.776 102.455 358.583 102.412 360.652 103.383C362.975 104.474 365.706 106.787 366.553 109.26C368.791 115.791 367.398 169.012 367.371 180.134L367.247 306.713L367.168 340.901C367.227 349.777 369.026 358.963 364.844 366.816C362.117 368.245 361.412 368.608 358.363 369.476C305.659 370.175 252.292 369.02 199.51 369.513C174.732 369.32 149.968 370.239 125.192 369.819C116.78 369.277 106.906 370.406 98.7408 368.112C92.7696 366.435 92.0234 357.436 91.9766 352.641C91.8251 337.14 91.9228 321.578 91.9142 306.109L91.9533 212.127C91.9711 198.66 90.6448 115.999 92.9059 109.828C94.3483 105.892 97.3565 104.17 101.02 102.56ZM349.125 365.805C351.548 365.788 354.111 365.845 356.515 365.659C362.502 365.194 363.198 362.522 363.438 357.202C363.976 345.255 363.926 333.287 363.959 321.34L363.979 259.621L363.925 167.679C363.934 151.765 364.058 134.955 363.981 118.953C363.949 112.16 363.843 106.313 355.108 105.967C344.907 105.563 334.268 105.738 323.877 105.739L267.41 105.673L111.071 105.752C100.582 105.984 95.4884 105.95 95.2595 117.885C94.9773 132.604 95.0535 147.297 95.0487 162.017L95.0328 245.072L95.0159 315.715C95.0161 329.395 94.768 343.188 95.492 356.841C95.941 365.308 102.589 365.573 109.138 365.629C134.302 365.844 159.474 365.701 184.641 365.709L349.125 365.805Z"/><path d="M144.908 145.747C151.755 145.332 167.719 145.936 175.359 145.946L244.753 145.983L293.398 145.988C301.099 145.991 309.992 145.758 317.627 146.515C319.418 146.693 321.161 148.06 322.227 149.539C323.732 158.533 316.681 187.119 314.785 197.493L308.548 232.306C306.802 242.122 305.685 252.507 301.858 261.587C309.1 273.064 316.738 284.25 323.45 296.055C334.109 314.804 316.369 312.778 304.125 312.536L197.398 312.75C176.14 312.887 154.85 313.262 133.605 312.59C129.662 312.465 124.657 311.183 123.102 307.095C123.25 299.99 143.736 269.461 148.43 262.713C146.179 255.555 144.47 245.395 142.828 237.824C139.369 222.287 136.058 206.719 132.896 191.12C130.436 178.949 127.118 165.358 125.799 153.056C124.891 144.588 139.419 145.786 144.908 145.747ZM302.387 309.079C307.041 309.264 320.787 310.646 322.762 305.222C321.961 298.349 303.702 270.876 298.884 263.299C285.96 263.645 273.054 263.147 260.07 263.208L151.116 263.248C147.983 269.191 126.899 303.413 127.109 306.533C131.065 310.398 148.681 309.192 154.601 309.161L187.771 309.118L302.387 309.079Z"/><path fill="#B0B4FA" d="M139.379 158.538C159.588 158.053 180.237 158.389 200.481 158.409L308.896 158.516C303.119 183.61 298.97 209.312 294.582 234.709L291.682 247.973L158.354 248.101C151.532 218.354 145.207 188.496 139.379 158.538Z"/><path fill="#FEFEFE" d="M218.753 178.223C228.176 176.667 237.708 180.298 243.708 187.729C249.708 195.16 251.248 205.244 247.74 214.127C244.232 223.01 236.218 229.321 226.76 230.648C212.381 232.666 199.053 222.744 196.861 208.391C194.668 194.037 204.427 180.59 218.753 178.223Z"/><path d="M157.458 269.234C183.281 269.049 209.105 269.029 234.929 269.173C254.312 269.187 273.638 268.806 293.032 269.256C297.842 276.629 306.316 293.529 308.799 301.736C302.942 304.032 298.949 303.795 292.746 303.999C281.796 304.099 270.901 303.688 259.965 303.637L200.34 303.62L169.991 303.684C160.201 303.713 151.071 304.306 141.519 302.131C142.164 299.531 143.408 296.167 144.908 292.96C148.255 285.802 151.64 276.44 156.044 269.797C156.515 269.609 156.986 269.421 157.458 269.234Z"/><path d="M670.515 102.211L837.674 102.207L890.146 102.163C900.15 102.154 910.037 101.985 920.087 102.556C929.003 103.063 931.281 110.346 931.491 118.059C931.85 131.27 931.679 144.592 931.683 157.825L931.668 236.056L931.8 313.908C931.829 327.695 931.99 341.471 931.66 355.253C931.429 364.929 926.877 369.323 917.105 369.559C897.837 370.03 878.538 369.68 859.249 369.643L763.507 369.548L699.956 369.59C689.128 369.604 678.114 369.788 667.394 369.463C661.042 369.27 657.615 366.137 657.171 360.178C656.263 348.005 656.701 335.078 656.705 322.957L656.862 250.43C657.097 205.4 656.796 160.389 656.664 115.364C656.636 105.687 661.58 103.056 670.515 102.211ZM660.653 110.864C659.636 119.179 660.033 134.034 660.026 142.854L660.503 208.048L660.301 295.929C660.187 314.833 659.67 333.725 660.479 352.619C660.694 357.64 660.629 365.469 667.831 365.71C679.208 366.091 690.722 365.908 702.118 365.911L772.316 365.922L866.648 365.974C881.289 366.004 903.33 366.734 917.623 365.889C922.652 365.287 924.063 364.753 927.265 360.722L927.602 360.29C929.098 352.588 928.467 337.254 928.457 328.725L928.49 277.437L928.443 173.304C928.415 154.914 928.407 136.516 928.176 118.129C928.101 112.193 927.22 109.25 921.902 106.163C911.339 105.402 900.387 105.68 889.758 105.68L841.921 105.648L670.645 105.665C665.864 106.262 664.036 106.452 660.934 110.49L660.653 110.864Z"/><path d="M709.313 146.17C722.121 145.538 737.316 145.972 750.363 145.978L823.801 146.001L868.057 145.963C875.575 145.956 883.718 145.738 891.199 146.29C894.811 146.556 896.517 148.72 898.519 151.49C898.702 154.396 898.556 157.314 898.085 160.188C897.199 165.813 892.49 187.56 891.14 193.014C887.883 206.177 880.7 254.927 875.657 263.835C882.796 277.581 895.142 290.871 900.291 305.985C901.92 310.767 892.756 312.542 889.625 312.982L762.679 312.976L732.606 313.005C724.211 313.07 701.648 315.386 697.305 307.631C696.574 303.328 704.196 293.228 706.714 289.408C712.31 280.791 718.069 272.281 723.989 263.883C722.929 261.55 721.781 258.937 721.298 256.412C715.013 223.557 708.541 190.69 702.863 157.725C701.737 151.191 703.439 148.725 709.313 146.17ZM700.613 305.955C701.52 306.976 702.444 308.08 703.7 308.676C706.28 309.9 869.148 309.89 886.162 309.382C888.687 309.307 892.266 309.391 894.511 308.145C896.097 307.265 896.251 306.299 896.684 304.685C891.907 304.085 885.684 305.094 880.489 304.106C868.039 303.53 852.042 303.962 839.354 303.971L761.013 303.988C749.442 303.966 725.695 304.475 715.063 303.205C708.14 304.155 710.083 306.36 700.613 305.955Z"/><path fill="#B0B4FA" d="M748.221 157.749L885.349 158.05L874.268 213.507C872.136 224.406 869.865 237.964 867.028 248.498L855.125 248.573C814.353 248.966 773.578 248.936 732.807 248.482C731.901 241.768 729.909 232.816 728.605 226.035L720.931 186.202C719.23 177.473 716.939 166.816 716.315 158.024L748.221 157.749Z"/><path fill="#FEFEFE" d="M797.139 175.217C812.195 173.516 825.776 184.347 827.467 199.404C829.157 214.461 818.316 228.034 803.258 229.714C788.215 231.393 774.658 220.564 772.969 205.523C771.28 190.481 782.099 176.916 797.139 175.217Z"/><path d="M700.613 305.955C703.17 298.261 722.038 272.989 727.296 265.43C729.374 262.443 772.289 263.281 778.694 263.275C809.557 263.304 840.419 263.517 871.279 263.916C879.615 276.573 889.562 291.489 896.684 304.685C891.907 304.085 885.684 305.094 880.489 304.106C868.039 303.53 852.042 303.962 839.354 303.971L761.013 303.988C749.442 303.966 725.695 304.475 715.063 303.205C708.14 304.155 710.083 306.36 700.613 305.955Z"/><path fill="#FEFEFE" d="M700.613 305.955C703.17 298.261 722.038 272.989 727.296 265.43C729.374 262.443 772.289 263.281 778.694 263.275C809.557 263.304 840.419 263.517 871.279 263.916C879.615 276.573 889.562 291.489 896.684 304.685C891.907 304.085 885.684 305.094 880.489 304.106C881.686 303.346 881.377 303.522 882.359 302.413C883.431 297.878 870.358 275.2 867.489 269.473C822.008 268.836 776.522 268.802 731.04 269.372C726.236 277.992 719.485 290.973 714.779 300.066C714.396 300.806 714.84 302.355 715.063 303.205C708.14 304.155 710.083 306.36 700.613 305.955Z"/></svg>