<?xml version="1.0" encoding="utf-8" ?><svg xmlns="http://www.w3.org/2000/svg" xmlns:xlink="http://www.w3.org/1999/xlink" width="1024" height="1024" viewBox="0 0 1024 1024"><path d="M721.022 706.766C745.096 705.657 746.234 711.503 750.233 732.807C751.956 742.059 753.73 751.3 755.555 760.532C759.183 778.104 762.688 795.702 766.071 813.323C768.38 824.888 771.482 837.559 771.984 849.32C772.294 857.339 771.911 865.622 772.006 873.599C772.255 894.451 754.813 890.747 739.601 890.779L707.492 890.742L618.964 890.626L310.875 890.522C302.293 890.489 293.691 890.668 285.115 890.613C277.563 890.566 269.522 891.323 263.467 885.858C259.152 881.964 258.543 877.2 258.496 871.717C258.431 864.083 258.91 856.499 258.94 848.868C259.151 825.816 260.176 802.701 260.83 779.655L261.823 742.044C262.037 735.656 262.285 729.282 262.791 723.049C263.466 714.739 271.595 707.412 279.752 707.073C293.121 706.517 307.072 706.845 320.492 706.827L404.634 706.83L615.837 706.837C650.161 706.828 686.925 707.535 721.022 706.766ZM752.897 858.881C763.951 858.079 771.583 856.74 769.499 843.22C766.841 825.981 762.694 808.946 759.354 791.812L750.654 746.638C748.988 737.813 746.601 719.203 741.925 712.481C738.469 707.513 707.145 708.968 700.517 708.968L645.736 708.984L480.263 708.981L344.786 708.98L304.895 708.923C296.896 708.886 287.452 708.518 279.576 709.072C260.294 713.388 264.301 733.15 263.965 748.772L262.844 786.963L261.828 822.564C261.589 829.778 260.452 838.43 261.752 845.451C263.105 852.756 270.777 858.318 278.023 858.526C297.761 859.093 317.497 858.778 337.236 858.837L457.332 858.956L664.341 858.837C693.715 858.806 723.555 859.216 752.897 858.881ZM767.191 884.568C771.42 877.802 770.036 863.844 769.753 855.688C766.54 858.421 763.627 860.974 759.182 861.047C750.633 861.187 741.911 861.087 733.358 861.088L677.348 860.99L511.597 860.985L355.378 860.98L306.387 860.961C296.19 860.961 286.095 861.132 275.902 860.534C267.126 860.019 265.873 854.794 261.015 851.196C260.931 855.186 260.749 859.58 260.531 863.563C259.458 883.179 263.137 888.347 282.725 888.559C319.911 888.746 357.097 888.733 394.283 888.519L600.299 888.507L703.001 888.608C715.004 888.765 727.007 888.833 739.011 888.811C746.042 888.816 753.208 888.843 760.238 888.357C762.648 888.19 765.407 886.134 767.191 884.568Z"/><path d="M698.958 721.75L705.292 721.751L719.48 800.585C721.687 812.659 726.137 832.791 727.17 844.336C707.691 843.466 688.156 844.571 668.674 844.494C657.069 844.447 645.457 844.559 633.851 844.479L348.75 844.483L318.527 844.478C319.549 836.833 319.264 816.153 319.612 807.254L323.229 722.017C335.946 721.677 350.131 721.978 362.948 721.97L441.329 721.938L698.958 721.75Z"/><path fill="#979EFA" d="M445.44 778.262C476.021 777.996 506.603 777.915 537.185 778.017C547.965 778.04 558.745 778.119 569.525 778.254C575.275 778.319 580.724 778.353 586.607 778.681C592.903 779.033 593.929 786.1 590.55 790.195C588.196 793.048 581.436 792.483 577.875 792.47L485.475 792.494C470.875 792.487 455.912 792.769 441.304 792.505C438.871 792.461 436.304 791.91 434.463 790.19C433.081 788.883 432.293 787.067 432.284 785.165C432.25 783.327 432.978 781.557 434.294 780.275C437.022 777.649 441.597 778.289 445.44 778.262Z"/><path d="M294.683 748.735C297.399 750.35 294.864 803.612 294.431 810.279C294.189 810.294 293.581 810.107 293.309 810.038C291.704 805.66 293.809 755.003 294.683 748.735Z"/><path d="M730.949 753.302C731.831 753.923 732.524 754.857 732.688 755.933C735.211 772.496 739.961 789.749 741.681 806.34L740.418 805.265C737.636 798.681 730.814 760.426 730.949 753.302Z"/><path d="M414.218 257.107C437.056 256.43 463.029 257.187 486.139 257.297C527.583 257.471 569.027 257.383 610.47 257.035C613.612 260.435 619.72 268.911 622.782 272.936C631.056 283.774 639.252 294.671 647.369 305.627C662.28 325.647 679.748 347.321 693.575 367.661C683.082 382.786 671.873 401.108 661.658 416.786C638.404 452.495 614.911 488.047 591.178 523.439C579.107 541.485 565.292 562.962 552.684 580.368C541.939 597.584 529.413 614.331 518.512 631.54C516.94 634.022 514.369 637.422 512.12 639.329C508.398 638.136 475.595 586.267 471.062 579.469L389.047 456.651L350.156 398.222C344.746 390.074 334.458 375.522 330.188 367.349C332.749 362.886 339.616 354.348 342.886 350.077L368.245 317.073L397.751 277.797C402.081 272.079 409.393 261.985 414.218 257.107Z"/><path fill="#979EFA" d="M448.67 370.513L575.392 370.333C568.664 396.378 562.467 424.14 556.163 450.387L524.914 581.137L518.008 610.73C516.549 617.031 514.433 627.115 512.057 632.829L448.67 370.513Z"/><path fill="#979EFA" d="M511.69 261.357C514.711 264.752 528.199 288.238 531.016 293.033L574.577 367.496L512.25 367.581L449.028 367.528C455.426 354.076 466.375 337.151 474.261 324.122C486.902 303.299 499.378 282.376 511.69 261.357Z"/><path fill="#979EFA" d="M609.898 260.262C614.538 264.781 629.915 286.176 634.672 292.488L690.392 366.911C680.266 367.145 669.23 366.973 659.041 366.99L578.623 367.406C583.689 352.45 587.957 336.935 592.307 321.738L609.898 260.262Z"/><path fill="#979EFA" d="M413.277 262.041C415.704 264.983 441.986 356.663 445.2 367.591C419.176 367.085 391.86 367.493 365.738 367.492C357.824 367.551 340.711 368.04 333.631 366.988C339.851 356.922 355.738 337.493 363.511 327.322C379.97 305.463 396.559 283.702 413.277 262.041Z"/><path fill="#979EFA" d="M535.92 259.231C558.35 258.482 584.69 259.435 607.479 259.513C597.589 291.673 589.018 324.711 579.037 357.129C578.407 359.453 577.334 362.541 576.591 364.894C568.307 353.165 560.756 339.062 553.463 326.548C540.426 304.331 527.556 282.017 514.854 259.607L535.92 259.231Z"/><path fill="#979EFA" d="M416.236 259.514C447.065 259.189 478.463 259.503 509.339 259.507C498.017 280.68 483.024 304.288 470.438 325.218C462.791 338.242 455.042 351.205 447.191 364.107C443.356 352.4 439.76 339.261 436.25 327.368L416.236 259.514Z"/><path d="M284.109 30.2298C284.958 30.1809 285.809 30.1575 286.66 30.1595C301.323 30.2047 316.179 34.1304 328.042 43.3674C331.79 46.3561 335.263 49.5859 338.85 52.7855C350.63 63.2956 364.87 73.9782 373.307 87.4385C379.114 96.7036 382.119 110.617 381.911 121.505C381.202 158.624 361.765 194.781 335.602 220.389C318.17 237.452 296.958 251.012 273.156 256.886C269.197 257.852 261.627 259.285 257.625 259.258L256.871 259.311C234.235 260.83 219.881 248.694 202.758 236.217C195.352 230.82 188.33 226.076 181.372 220.024C166.298 207.276 159.546 190.579 158.362 171.102C154.289 104.102 217.048 33.994 284.109 30.2298ZM228.122 230.912C293.297 224.409 354.35 158.301 350.062 91.2541C348.954 73.9281 340.285 55.9678 326.636 45.3379C315.786 36.6457 296.677 30.719 282.84 32.2143C215.533 39.0752 154.629 106.091 160.777 175.064C162.249 191.567 170.436 208.734 183.394 219.124C196.783 230.111 211.11 232.356 228.122 230.912ZM197.514 230.215C207.092 237.575 217.113 244.341 227.52 250.473C308.074 291.179 435.901 132.008 353.127 68.341C349.729 65.7273 346.798 62.6913 343.182 60.2187C345.838 66.8531 349.833 76.0325 350.969 83.0195C363.807 161.941 277.198 250.053 197.514 230.215Z"/><path d="M275.071 47.7776C289.51 46.4729 305.809 48.717 316.831 58.28C349.849 86.929 332.07 142.731 307.708 170.835C288.78 192.67 262.9 211.993 234.121 214.792C222.803 216.541 206.51 213.56 197.054 206.638C161.953 180.943 174.891 128.257 196.973 98.2447C216.423 71.8084 241.938 53.0087 275.071 47.7776ZM229.593 132.357C237.315 144.207 245.32 160.855 252.659 171.153C260.406 156.886 269.179 141.816 277.207 127.487C272.317 117.826 267.299 108.23 262.156 98.7012C260.437 95.5478 256.562 88.2186 254.583 85.4269C246.53 100.388 237.098 117.308 229.593 132.357Z"/><path fill="#FEBE51" d="M279.755 49.6872C291.62 47.9005 304.807 52.1086 314.06 59.5684C324.307 67.9609 330.77 80.1046 332.009 93.292C337.721 148.862 285.33 207.396 230.62 212.859C219.255 213.802 205.706 210.778 196.727 203.537C162.585 176.003 179.74 123.064 202.77 94.3775C222.721 69.5264 247.977 53.2943 279.755 49.6872ZM229.593 132.357C237.315 144.207 245.32 160.855 252.659 171.153C260.406 156.886 269.179 141.816 277.207 127.487C272.317 117.826 267.299 108.23 262.156 98.7012C260.437 95.5478 256.562 88.2186 254.583 85.4269C246.53 100.388 237.098 117.308 229.593 132.357Z"/><path d="M255.231 79.9162C258.408 81.6075 262.554 83.056 265.979 84.3605C269.337 88.9966 273.893 97.9375 276.734 103.191C281.943 112.951 287.332 122.613 292.9 132.172C282.807 149.106 272.984 166.2 263.435 183.447L262.775 184.305L261.869 184.346C249.902 172.083 247.8 167.663 239.584 152.988C235.671 146.023 231.534 139.186 227.181 132.488C234.571 116.915 246.673 94.9301 255.231 79.9162ZM229.593 132.357C237.315 144.207 245.32 160.855 252.659 171.153C260.406 156.886 269.179 141.816 277.207 127.487C272.317 117.826 267.299 108.23 262.156 98.7012C260.437 95.5478 256.562 88.2186 254.583 85.4269C246.53 100.388 237.098 117.308 229.593 132.357Z"/><path d="M158.714 417.235C160.542 417.212 162.37 417.22 164.197 417.261C195.846 418.129 215.779 439.616 236.406 461.076C286.213 512.897 228.008 602.58 176.319 629.968C163.039 637.005 142.998 645.824 127.625 645.238C103.096 644.791 93.791 635.858 74.6185 622.063C67.5182 616.954 59.9427 611.959 53.2505 606.204C39.1258 594.058 32.4403 577.994 31.3119 559.56C29.3241 527.089 46.2869 489.489 67.762 465.597C91.2531 439.461 122.843 419.302 158.714 417.235ZM99.1187 617.463C140.063 612.05 170.884 592.724 196.58 559.994C223.497 525.71 240.115 463.26 200.298 431.23C190.459 423.316 171.324 418.224 158.77 419.204C122.772 421.926 92.6155 441.092 68.5241 468.246C38.5291 502.055 14.0526 568.393 54.3887 603.97C67.1191 615.199 82.3719 618.058 99.1187 617.463ZM71.2416 616.825C78.3914 622.307 93.4232 633.846 101.707 637.474C120.277 645.776 136.989 644.603 155.891 637.34C193.437 622.913 226.058 590.362 242.376 553.808C252.139 531.938 257.379 506.187 248.569 483.164C243.702 470.442 235.623 462.421 225.814 453.485C223.359 451.248 219.303 446.82 216.414 445.314C229.17 473.469 229.285 496.674 218.258 525.723C204.536 561.869 174.52 593.08 139.367 609.002C115.134 619.977 97.1292 621.936 71.2416 616.825Z"/><path d="M149.771 434.647C191.505 429.911 213.653 460.849 207.458 499.879C199.792 548.178 155.553 593.472 107.382 601.03C95.1488 603.217 75.4417 600.066 65.5865 592.374C32.8165 566.796 49.6717 512.9 70.5898 485.505C90.7206 459.14 117.008 439.787 149.771 434.647ZM105.68 516.934C113.857 529.657 121.412 543.568 129.393 556.603C131.743 553.415 147.329 511.835 149.061 506.464C143.643 496.249 133.178 477.044 126.542 467.939C120.557 482.7 110.648 502.893 105.68 516.934Z"/><path fill="#FEBE51" d="M157.321 436.729C187 436.346 206.095 457.011 205.955 485.95C205.809 516.181 191.714 543.196 170.775 564.336C152.922 582.361 124.218 599.522 98.3636 599.589C4.87787 597.972 56.5348 443.339 157.321 436.729ZM105.68 516.934C113.857 529.657 121.412 543.568 129.393 556.603C131.743 553.415 147.329 511.835 149.061 506.464C143.643 496.249 133.178 477.044 126.542 467.939C120.557 482.7 110.648 502.893 105.68 516.934Z"/><path d="M126.29 463.298C127.228 464.085 130.792 468.18 131.799 469.303C134.939 468.386 136.665 467.442 139.585 465.98C148.369 480.337 156.781 495.601 165.534 510.149C158.636 529.118 150.804 548.041 143.599 566.989C140.896 564.201 138.888 562.04 135.84 559.654L129.895 562.373C121.102 549.45 112.023 531.278 103.029 517.002C105.376 509.923 110.15 500.349 113.172 493.225C117.252 483.61 121.541 472.495 126.29 463.298ZM105.68 516.934C113.857 529.657 121.412 543.568 129.393 556.603C131.743 553.415 147.329 511.835 149.061 506.464C143.643 496.249 133.178 477.044 126.542 467.939C120.557 482.7 110.648 502.893 105.68 516.934Z"/><path d="M908.453 412.761C924.722 412.424 940.791 415.225 953.827 426.028C966.895 437.031 979.036 449.049 991.02 461.201C1000.14 470.446 1004.16 476.012 1005.65 489.136C1013.47 557.658 947.684 632.012 880.625 639.996C859.957 640.905 851.68 635.11 835.618 623.275C828.734 618.224 821.895 613.113 815.102 607.94C796.791 593.836 784.288 580.791 781.592 556.945C776.542 512.28 802.459 469.85 836.48 443.01C858.788 425.411 880.599 416.23 908.453 412.761ZM906.253 415.194C843.33 420.594 777.87 488.139 783.299 553.452C784.655 569.767 791.617 585.178 804.362 595.666C819.671 608.339 833.56 609.84 852.587 609.471C893.892 603.235 923.638 583.403 948.921 550.092C974.646 516.198 989.459 456.345 950.106 425.993C938.717 417.209 920.412 413.661 906.253 415.194ZM850.02 630.517C866.107 639.061 881.753 640.404 899.293 634.419C942.089 619.817 980.874 582.876 996.636 540.411C1004.31 519.443 1008.65 492.783 998.255 472.988C996.418 469.491 971.634 445.145 967.982 442.46C970.63 449.097 973.561 456.46 974.918 463.468C989.657 539.526 895.929 632.422 819.663 607.726L819.595 608.11C825.321 613.239 843.595 626.323 850.02 630.517Z"/><path d="M906.28 429.211C906.681 429.179 907.083 429.156 907.485 429.142C939.352 428.042 957.29 449.788 958.162 480.25C959.722 534.744 904.22 592.425 850.471 593.738C821.423 595.157 799.077 576.527 797.669 546.975C794.919 489.282 849.907 433.849 906.28 429.211ZM850.721 509.03C855.806 516.777 864.907 535.473 869.843 541.27C879.734 528.572 890.387 512.862 900.829 501.185C898.149 496.69 884.107 469.828 881.98 468.381C873.41 478.511 857.979 498.062 850.721 509.03Z"/><path fill="#FEBE51" d="M902.627 432.192C928.163 429.437 951.46 443.814 955.101 470.193C958.654 495.93 949.441 522.33 934.042 542.795C914.02 569.403 887.198 586.654 854.123 591.418C841.969 592.291 827.439 590.387 817.83 582.443C785.415 555.643 802.134 505.398 824.306 478.118C844.199 453.642 871.404 435.704 902.627 432.192ZM850.721 509.03C855.806 516.777 864.907 535.473 869.843 541.27C879.734 528.572 890.387 512.862 900.829 501.185C898.149 496.69 884.107 469.828 881.98 468.381C873.41 478.511 857.979 498.062 850.721 509.03Z"/><path d="M882.669 463.336C888.899 472.711 895.985 488.539 902.141 499.079C902.988 497.577 903.278 497.117 904.316 495.747C907.245 495.626 915.302 502.195 917.792 504.288C910.945 517.293 890.88 542.65 881.53 554.941L877.062 560.668C873.204 555.273 868.788 546.689 865.483 540.646C859.613 529.803 853.664 519.002 847.636 508.245C859.712 494.416 870.349 477.929 882.669 463.336ZM850.721 509.03C855.806 516.777 864.907 535.473 869.843 541.27C879.734 528.572 890.387 512.862 900.829 501.185C898.149 496.69 884.107 469.828 881.98 468.381C873.41 478.511 857.979 498.062 850.721 509.03Z"/><path d="M723.36 60.1887C745.644 56.4492 772.055 68.134 790.867 79.0798C833.802 104.06 889.101 181.19 856.977 229.937C854.83 233.183 852.371 236.21 849.634 238.976C845.044 243.654 839.292 247.944 834.286 252.267C820.164 264.461 809.003 276.16 790.118 280.149C789.562 280.324 786.431 280.813 785.657 280.896C759.808 283.657 734.044 272.047 714.144 256.533C682.818 232.11 654.924 192.769 649.631 152.87C647.705 138.359 648.972 121.498 658.634 110.16C664.71 103.03 670.86 96.5141 677.373 89.8258C692.943 73.8358 700.126 63.0455 723.36 60.1887ZM811.018 250.708C845.062 249.354 866.072 227.341 863.952 193.025C860.106 130.794 793.938 64.4142 731.497 61.7476C693.993 63.6074 677.152 88.5665 679.443 124.928C681.687 160.534 703.449 193.837 729.507 217.08C750.212 235.383 782.863 252.416 811.018 250.708ZM806.94 271.239C818.335 263.632 825.551 256.298 836.086 248.311C829.767 250.066 824.157 251.637 817.591 252.417C796.417 254.93 773.72 248.614 755.349 238.247C721.025 218.878 691.333 184.029 680.81 145.866C676.616 130.659 675.083 112.902 680.107 97.6228C680.653 95.9612 683.764 88.3709 682.968 87.487C677.995 92.2483 673.17 97.1624 668.501 102.222C656.292 115.24 651.912 120.982 651.091 139.95C648.28 204.862 739.009 307.514 806.94 271.239Z"/><path d="M731.279 76.6339C749.867 73.9108 775.179 84.6371 790.186 94.976C818.28 114.577 842.187 144.88 848.841 178.993C854.475 207.877 844.91 230.535 814.532 236.138C723.809 241.749 645.361 91.8734 731.279 76.6339ZM745.863 145.59C749.599 150.759 775.941 187.215 778.686 187.962L779.033 187.301C782.869 175.61 787.826 159.52 792.861 148.415C788.507 142.863 762.297 108.045 758.055 105.159C755.396 112.62 747.281 138.278 745.863 145.59Z"/><path fill="#FEBE51" d="M736.405 78.6981C756.147 77.9905 780.44 90.1847 795.858 102.071C820.956 121.799 842.593 151.015 847.272 183.066C849.971 201.556 846.283 220.266 828.585 229.3C822.001 232.662 816.429 233.418 809.157 234.292C772.861 232.013 745.807 213.202 723.19 185.837C696.012 152.953 674.65 86.0874 736.405 78.6981ZM745.863 145.59C749.599 150.759 775.941 187.215 778.686 187.962L779.033 187.301C782.869 175.61 787.826 159.52 792.861 148.415C788.507 142.863 762.297 108.045 758.055 105.159C755.396 112.62 747.281 138.278 745.863 145.59Z"/><path d="M757.269 101.03L757.783 101.074C761.295 103.173 791.594 143.182 794.958 147.985C790.284 161.202 784.125 186.443 775.647 197.115C772.741 197.971 771.091 198.23 768.158 198.686C767.565 198.668 766.977 198.644 766.388 198.563C761.443 197.884 734.298 159.057 729.182 152.104L740.828 105.776C746.292 104.14 751.773 102.558 757.269 101.03ZM745.863 145.59C749.599 150.759 775.941 187.215 778.686 187.962L779.033 187.301C782.869 175.61 787.826 159.52 792.861 148.415C788.507 142.863 762.297 108.045 758.055 105.159C755.396 112.62 747.281 138.278 745.863 145.59Z"/><path d="M241.274 787.143C242.464 786.881 243.336 786.657 244.258 787.401C242.524 789.696 220.036 793.547 215.007 794.812C183.31 803.185 147.752 812.295 120.676 831.582C90.0559 853.585 106.681 875.852 133.059 890.143C197.126 924.853 279.726 939.576 351.445 947.318C435.5 956.488 520.199 958.242 604.561 952.559C677.183 948.083 745.586 939.16 816.038 919.839C866.994 906.095 980.889 863.762 875.993 815.955C847.066 802.771 814.581 795.965 783.518 789.204C782.255 788.929 780.606 788.404 779.742 787.379L780.521 786.826C819.959 794.304 861.781 804.338 896.679 824.667C912.264 833.746 930.31 853.36 916.143 870.821C886.847 906.927 818.899 922.136 775.499 932.001C702.819 948.523 628.359 953.965 554.25 956.78C451.704 960.098 346.304 953.875 245.992 931.988C204.792 922.647 162.857 910.99 126.713 888.626C111.451 879.183 92.0802 859.799 106.992 842.152C134.109 810.062 202.643 794.109 241.274 787.143Z"/></svg>