<?xml version="1.0" encoding="utf-8" ?><svg xmlns="http://www.w3.org/2000/svg" xmlns:xlink="http://www.w3.org/1999/xlink" width="2048" height="1024" viewBox="0 0 2048 1024"><path d="M193.927 82.2523C211.09 81.0565 236.663 81.9998 254.678 82.0739L360.472 82.1847L521.797 82.0534C546.891 82.0147 572.363 82.2101 597.477 81.9835C634.94 81.6455 662.003 107.152 662.514 144.897C662.781 164.626 662.93 184.865 662.959 204.792L662.972 309.936L662.827 615.739L662.814 782.307C662.877 797.289 663.536 812.619 663.111 827.58C661.66 878.602 674.978 913.188 623.177 941.912C658.261 942.468 694.767 941.954 729.929 941.95L938.843 941.947L1528.44 941.773L1795.09 941.574L1875.12 941.878C1891.6 941.984 1913.05 941.698 1929.13 943.593C1902.55 945.782 1875.17 945.212 1848.5 944.92L596.99 944.945L267.773 944.894L185.408 944.922C164.239 945.029 139.477 946.496 119.003 942.765C136.714 941.155 164.658 941.914 183.065 941.873C160.685 932.244 139.199 915.5 136.155 889.411C132.821 860.836 134.21 829.241 134.155 800.276L134.077 620.911L134.654 316.743L134.795 209.544C134.845 188.025 134.642 166.219 135.685 144.727C136.366 130.688 138.508 122.49 146.726 110.918C158.163 94.8149 174.644 85.5597 193.927 82.2523Z"/><path fill="#FDFDFD" d="M248.532 84.49C333.389 86.2677 423.101 84.8469 508.416 84.8563L568.058 84.7723C583.23 84.6974 599.891 83.9996 614.703 86.4235C632.139 89.6367 653.56 107.996 656.958 125.893C662.206 153.531 660.431 188.655 660.525 216.936L660.852 678.189L660.905 817.065C660.912 841.716 661.484 868.219 659.681 892.745C658.884 903.587 652.144 917.37 644.118 924.742C628.131 939.426 613.139 942.205 592.5 941.926L344.323 941.926C322.803 941.891 301.283 941.973 279.764 942.175C236.442 942.5 185.967 944.307 181.906 883.708C180.823 867.543 181.668 850.747 181.667 834.497L181.759 740.626L181.415 467.675L181.056 248.907L180.947 180.499C180.929 154.675 177.527 126.337 196.722 106.006C210.882 91.0083 228.367 85.3458 248.532 84.49Z"/><path d="M245.509 104.408C259.101 103.533 280.109 104.663 294.58 104.608L407.21 104.105L526.554 104.381C552.633 104.402 578.519 104.207 604.6 105.285C618.604 104.41 637.762 121.02 639.112 134.939C641.027 154.693 640.182 178.122 640.183 198.357L640.162 344.899L640.113 698.984C640.117 757.804 640.344 816.631 640.141 875.448C640.022 909.885 629.302 920.327 594.915 922.576C585.067 923.659 555.464 922.703 544.835 922.609C514.438 922.343 484.04 922.256 453.642 922.347L314.618 922.551C289.814 922.647 264.32 923.306 239.576 922.393C231.036 922.078 223.689 920.034 216.728 914.788C208.411 908.612 202.938 899.343 201.547 889.078C200.533 881.113 200.949 865.499 200.946 856.889L200.975 798.979L200.995 605.765L200.97 299.837L200.862 199.779C200.843 180.947 200.655 162.097 201.216 143.277C201.725 126.192 212.858 111.643 229.361 107.003C234.922 105.439 239.759 104.958 245.509 104.408Z"/><path fill="#FDFDFD" d="M544.779 107.533C567.134 106.212 610.113 103.13 627.232 119.187C639.591 130.779 637.381 155.249 637.407 171.464C637.481 217.19 636.986 262.927 636.983 308.668L637.036 645.93L637.111 808.657C637.119 826.671 638.275 872.956 636.664 888.483C635.895 896.194 632.462 903.396 626.957 908.85C612.663 923.105 587.463 919.24 568.371 919.18L497.789 919.03L253.5 919.07L252.853 919.079C215.466 919.533 204.205 909.187 204.059 871.533L204.024 378.517L203.986 218.83L203.988 169.813C203.991 152.73 201.424 132.012 214.644 118.991C219.557 114.224 225.641 110.838 232.282 109.176C244.799 106.021 300.646 107.819 316.488 107.928C317.126 109.511 317.804 111.078 318.522 112.626C338.858 156.384 378.687 151.561 419.505 150.869C464.913 150.098 505.043 160.824 523.323 107.96C530.476 107.888 537.628 107.745 544.779 107.533Z"/><path d="M384.747 370.078C395.276 369.522 406.349 369.417 416.768 371.227C422.543 372.231 427.942 374.017 432.997 377.013C448.568 386.239 569.854 473.127 576.363 482.463C580.509 488.409 582.059 494.891 580.676 502.066C579.88 506.191 578.271 509.807 575.928 513.283C562.391 533.365 540.974 556.416 525.123 575.516C505.593 599.048 486.578 624.65 465.435 646.667C462.975 649.229 460.119 651.345 457.192 653.339C448.898 656.458 439.699 656.117 431.659 652.393C422.766 648.252 406.766 635.423 398.12 629.161L342.267 589.277C328.53 579.474 314.729 569.759 300.867 560.133C282.791 547.71 270.296 543.435 262.409 521.907C263.252 519.152 264.186 516.427 265.21 513.734C266.588 510.212 271.093 502.677 273.635 499.58C291.116 478.276 308.268 456.84 325.682 435.476C341.809 415.69 357.687 394.872 374.822 376.019C377.32 373.269 381.341 371.556 384.747 370.078Z"/><path fill="#7478BF" d="M293.193 550.822C285.958 534.62 284.7 527.675 297.861 512.424C334.573 469.881 368.845 423.242 405.856 381.119C408.935 377.614 420.838 375.643 425.649 376.583C427.447 377.929 428.009 378.831 429.975 378.972C427.834 382.817 429.749 387.6 429.718 392.125C429.069 393.698 427.98 396.107 427.492 397.645C428.727 423.716 430.914 448.124 433.17 474.152C420.844 489.21 405.489 505.49 392.307 520.008C407.103 532.444 422.721 544.762 437.784 556.936C438.408 587.41 445.153 623.433 443.831 654.015C425.777 647.152 396.864 624.062 379.743 611.896L293.193 550.822Z"/><path fill="#050332" d="M425.649 376.583C427.447 377.929 428.009 378.831 429.975 378.972C427.834 382.817 429.749 387.6 429.718 392.125C429.069 393.698 427.98 396.107 427.492 397.645C426.81 394.525 425.966 380.529 425.649 376.583Z"/><path fill="#7478BF" d="M429.718 392.125C429.749 387.6 427.834 382.817 429.975 378.972C477.679 410.728 525.46 447.431 571.568 481.64C584.83 491.48 573.609 513.343 565.165 522.453C535.338 558.06 505.512 593.817 476.334 629.979C467.903 640.415 460.535 648.367 448 653.449C445.433 623.838 441.499 585.302 440.822 556.07C455.053 542.179 469.018 528.017 482.71 513.594C467.967 501.322 450.033 487.058 436.191 474.132C434.536 449.586 433.161 416.082 429.718 392.125Z"/><path fill="#FDFDFD" d="M386.254 373.127C395.605 372.947 402.109 373.103 411.433 373.785C405.528 378.364 398.785 383.984 393.942 389.841C358.072 433.212 322.312 477.234 287.514 521.408C284.317 525.468 284.733 534.779 284.928 539.854C285.997 542.247 286.044 541.418 285.532 543.579C279.786 543.16 269.219 532.876 267.403 527.422C266.292 524.088 265.215 520.358 266.922 517.017C274.951 501.309 287.352 488.069 298.421 474.435L335.449 428.592C348.896 411.941 363.046 393.925 377.209 377.733C378.57 376.177 384.121 373.988 386.254 373.127Z"/><path fill="#FDFDFD" d="M434.722 477.618C445.963 485.172 467.427 504.349 478.438 513.709C466.261 526.598 452.689 539.763 440.114 552.377C434.468 551.935 403.023 524.87 396.363 519.355C409.395 505.67 422.183 491.756 434.722 477.618Z"/><path fill="#FDFDFD" d="M153.669 257.83C157.522 257.829 161.147 258.122 164.097 260.736C168.529 268.07 165.127 369.38 165.481 385.362C165.501 386.244 161.305 390.287 160.15 391.402C150.324 390.427 148.665 387.936 148.696 378.189C148.819 340.469 147.966 302.638 148.779 264.952C148.82 263.047 152.343 259.284 153.669 257.83Z"/><path fill="#FDFDFD" d="M152.865 156.797C163.908 156.94 166.022 159.404 166.066 170.608C166.165 195.381 166.442 220.27 165.598 245.018C165.559 246.173 161.993 249.89 161.077 250.865C154.957 250.538 150.464 250.088 149.777 242.565C148.219 225.485 144.638 168.958 152.865 156.797Z"/><path d="M1095.68 873.256C1075.38 870.886 1063.36 862.252 1063.11 839.796C1062.89 819.947 1063.67 799.992 1063.68 780.114L1063.65 629.582L1063.63 545.842C1063.6 530.379 1063.2 513.949 1064.26 498.572C1064.61 493.518 1068.07 486.61 1071.58 483.008C1078.68 475.728 1091.46 475.724 1101.1 475.728C1137.07 475.743 1173.08 475.815 1209.06 475.791L1437.6 475.544L1552.02 475.345C1573.94 475.297 1597.12 474.572 1618.9 476.401C1628.1 477.173 1632.69 479.601 1639.17 485.889C1644.07 500.121 1642.52 525.542 1642.32 541.585C1650.39 546.268 1653.48 549.689 1659.43 556.475L1814.58 556.357C1835.94 556.395 1899.32 554.136 1914.61 561.555C1918.28 566.01 1921.27 570.152 1921.92 576.054C1923.97 594.691 1923.88 614.414 1924.03 633.133L1924.16 727.998L1923.93 809.089C1923.87 823.079 1924.2 837.531 1923.34 851.452C1922.48 865.299 1913.45 873.302 1899.92 873.699C1873.25 874.483 1846.59 874.154 1819.93 874.133L1664.43 873.893C1660.17 888.662 1654.21 899.353 1639.01 904.677C1634.58 906.226 1631.06 906.573 1626.43 906.7C1594.51 907.578 1562.55 907.298 1530.62 907.281L1376.93 907.283L1223.43 907.219C1194.96 907.194 1166.53 907.279 1138.06 906.738C1115.77 906.314 1103.17 893.254 1095.68 873.256Z"/><path fill="#212021" d="M1659.43 556.475L1814.58 556.357C1835.94 556.395 1899.32 554.136 1914.61 561.555C1918.28 566.01 1921.27 570.152 1921.92 576.054C1923.97 594.691 1923.88 614.414 1924.03 633.133L1924.16 727.998L1923.93 809.089C1923.87 823.079 1924.2 837.531 1923.34 851.452C1922.48 865.299 1913.45 873.302 1899.92 873.699C1873.25 874.483 1846.59 874.154 1819.93 874.133L1664.43 873.893C1669.01 858.087 1665.87 799.406 1665.75 780.189L1666.01 664.349C1666.06 637.187 1666.54 609.56 1666.78 582.371C1666.84 575.102 1662.4 563.144 1659.43 556.475Z"/><path fill="#FDBE50" d="M1667.03 622.072L1919.21 622.075L1919.23 795.999L1667 796.001C1665.38 741.322 1666.98 677.557 1667.03 622.072Z"/><path fill="#FDFDFD" d="M1116.85 479.453C1118.28 479.406 1119.7 479.367 1121.13 479.335C1145.26 478.801 1173.7 479.832 1198.43 479.798L1389.89 479.305L1532.18 479.044C1557.52 479.009 1582.85 478.701 1608.27 479.239C1635.55 479.818 1639.26 486.199 1639.19 513.479C1639.17 522.117 1639.1 531.694 1639.01 540.4C1621.46 537.68 1601.2 538.565 1583.21 538.624L1522.22 538.369L1264.5 538.072C1224.21 538.023 1183.8 537.677 1143.44 538.028C1087.28 538.517 1094.8 586.72 1094.87 626.417C1094.88 633.565 1094.89 640.944 1094.9 648.029L1094.97 786.497C1095.03 811.123 1095.42 836.534 1094.73 861.161C1094.64 864.617 1094.42 866.509 1092.31 868.758C1083.94 871.909 1073.81 861.96 1069.02 856.026C1066.1 840.799 1066.95 816.604 1067 800.414L1067.11 722.705L1067.07 589.039C1066.98 558.95 1064.17 519.535 1070.06 490.524C1072.32 487.925 1075.6 484.877 1078.13 482.399C1092.34 480.788 1102.69 479.966 1116.85 479.453Z"/><path fill="#7478BF" d="M1374.66 642.46C1417.85 637.935 1456.44 669.51 1460.56 712.742C1464.68 755.975 1432.74 794.265 1389.47 797.974C1346.77 801.634 1309.1 770.212 1305.04 727.552C1300.98 684.892 1332.04 646.924 1374.66 642.46Z"/><path fill="#FDFDFD" d="M1372.85 670.522C1390.95 666.986 1409.55 673.44 1421.57 687.425C1433.59 701.41 1437.17 720.771 1430.95 738.131C1424.73 755.49 1409.67 768.173 1391.51 771.346C1363.81 776.184 1337.39 757.815 1332.27 730.169C1327.16 702.523 1345.26 675.914 1372.85 670.522Z"/><path fill="#FDFDFD" d="M1582.57 560.566C1618.97 558.909 1646.95 554.888 1643.49 599.961C1642.12 617.944 1644.99 632.99 1640.98 652.322C1635.38 634.323 1639.59 613.083 1638.99 594.247C1638.6 582.004 1636.58 566.785 1620.65 566.146C1601.69 565.385 1582.24 565.886 1563.19 565.918L1448.95 566.01L1248.7 565.989C1211.55 565.982 1172.76 565.382 1135.79 566.272C1126.93 571.3 1122.58 575.715 1122.29 586.587C1121.59 612.394 1122.05 638.346 1122.08 664.184C1122.28 722.153 1122.15 780.122 1121.69 838.09C1121.53 847.607 1121.47 867.263 1128.39 875.023C1131.67 878.692 1136.64 880.274 1141.49 880.549C1158.9 881.534 1176.95 881.209 1194.4 881.199L1288.37 881.127L1592.5 881.17C1608.51 881.262 1628.88 884.611 1636.95 868.387C1643.4 855.423 1634.44 806.536 1640.18 798.3L1641.5 798.466C1644.79 805.623 1642.63 825.608 1642.71 834.147C1642.84 847.75 1646.13 865.358 1637.17 876.684C1632.94 882.034 1623.6 884.812 1616.96 885.44C1596.06 886.223 1574.45 885.892 1553.56 885.828L1424.69 885.281L1233.04 885.054C1204.64 885.011 1176.07 885.401 1147.87 885.237C1126.09 885.111 1119.25 875.104 1118.26 854.364C1117.48 838.136 1118.01 820.978 1118.03 804.729L1118.12 711.631L1117.95 631.159C1117.91 617.055 1117.61 602.244 1118.26 588.209C1118.5 582.861 1120.42 573.29 1124.17 569.338C1128.35 564.943 1133.42 562.934 1139.42 562.519C1154.86 561.453 1171.01 561.781 1186.49 561.824L1265.65 561.945L1455.18 561.699C1497.32 561.633 1540.56 562.094 1582.57 560.566Z"/><path fill="#FDFDFD" d="M1569.1 700.49C1577.33 698.466 1586.01 701.04 1591.81 707.224C1597.61 713.408 1599.62 722.239 1597.07 730.323C1594.52 738.408 1587.81 744.488 1579.51 746.227C1566.99 748.852 1554.67 740.955 1551.83 728.477C1548.99 715.999 1556.67 703.547 1569.1 700.49Z"/><path fill="#FDFDFD" d="M1343.74 639.305C1352.07 638.854 1357.26 638.543 1365.54 640.644C1364.03 643.051 1345.3 643.051 1341.42 643.657C1330.72 645.329 1321 649.142 1311.98 655.096C1294.78 666.369 1282.82 684.075 1278.78 704.244C1274.78 724.179 1278.86 744.887 1290.14 761.809C1301.67 778.902 1318.05 788.802 1338.09 792.698L1339.61 792.876C1344.29 793.438 1350.65 793.542 1353.3 796.905L1353.34 795.678L1354.41 796.489C1353.63 797.078 1353.19 797.445 1352.16 797.511C1334.75 798.638 1319.15 793.36 1305.48 783.253C1288.42 770.488 1277.15 751.439 1274.19 730.334C1271.03 709.066 1276.51 687.418 1289.41 670.214C1303.41 651.616 1321.11 642.536 1343.74 639.305Z"/><path d="M1695.28 209.462C1725.86 205.793 1754.81 205.521 1780.25 225.42C1798.55 239.754 1810.39 260.775 1813.16 283.848C1815.83 305.646 1809.72 327.611 1796.17 344.896C1782.79 361.806 1762.48 372.547 1741.2 374.472C1729.9 375.494 1700.62 375.12 1689.52 373.26C1692.42 373.193 1698.69 373.459 1700.77 372.088L1699.18 370.948C1680.91 361.48 1665.43 349.809 1655.18 331.534C1644.48 312.431 1641.85 289.846 1647.88 268.796C1655.4 242.151 1671.83 226.932 1695.09 213.858L1694.84 212.879L1695.68 211.866L1695.28 209.462Z"/><path fill="#FDBE50" d="M1718.89 211.478C1763.28 205.62 1803.99 236.948 1809.69 281.362C1815.39 325.777 1783.93 366.374 1739.49 371.925C1695.27 377.448 1654.92 346.167 1649.24 301.969C1643.57 257.77 1674.71 217.307 1718.89 211.478Z"/><path fill="#FDFDFD" d="M1724.49 235.526C1755.55 233.081 1782.73 256.259 1785.22 287.323C1787.71 318.386 1764.56 345.593 1733.5 348.122C1702.38 350.655 1675.11 327.459 1672.62 296.338C1670.13 265.216 1693.36 237.977 1724.49 235.526Z"/><path fill="#FDBE50" d="M1722.81 238.509C1752.29 235.157 1778.87 256.398 1782.11 285.885C1785.35 315.371 1764 341.872 1734.5 344.993C1705.17 348.096 1678.84 326.894 1675.62 297.571C1672.41 268.248 1693.5 241.842 1722.81 238.509Z"/><path fill="#B66B0E" d="M1727.31 255.891C1729.91 255.892 1730.4 255.684 1732.4 257.12C1734.81 267.099 1742.48 262.125 1746.03 268.571L1745.35 270.619C1737.87 273.482 1724.5 262.568 1718.18 276.132C1718.84 291.512 1760.99 291.923 1748.96 315.067C1745.48 321.756 1741.02 320.21 1736.68 324.361C1734.71 326.247 1734.39 329.444 1730.76 332.719C1728.62 330.442 1727.12 326.78 1725.53 325.51C1722.94 323.45 1714.92 323.568 1712.66 320.462C1710.92 318.089 1710.35 318.489 1710.46 315.804C1719.32 312.167 1733.76 322.708 1740 311.157C1740.73 296.222 1700.91 296.743 1708.58 275.934C1712.34 265.724 1724.25 266.867 1727.07 256.759L1727.31 255.891Z"/><path d="M1500.69 375.497L1502.44 375.926C1502.26 380.861 1482.4 413.084 1478.35 420.749C1469.08 413.953 1459.69 407.334 1450.17 400.896L1426.81 384.848C1451.43 381.571 1475.98 377.934 1500.69 375.497Z"/><path d="M1689.52 373.26C1686.76 373.136 1682.87 372.081 1680.12 371.336C1647.17 362.426 1625.69 335.133 1622.38 301.34C1620 278.237 1627.03 255.149 1641.88 237.292C1656.44 219.732 1672.73 211.501 1695.28 209.462L1695.68 211.866L1694.84 212.879C1671.87 216.365 1655.33 225.124 1641.31 244.237C1628.36 262.105 1623.05 284.391 1626.55 306.18C1629.87 327.11 1641.17 344.78 1658.37 357.069C1672.38 367.078 1682.51 369.086 1699.18 370.948L1700.77 372.088C1698.69 373.459 1692.42 373.193 1689.52 373.26Z"/><path d="M1143.05 130.283C1152.34 129.897 1175.75 128.453 1179.67 138.459C1179.18 141.72 1178.03 142.547 1175.81 144.876C1167.11 145.104 1142.5 145.102 1138.98 135.612C1139.58 132.689 1140.76 132.095 1143.05 130.283Z"/><path d="M1417.54 284.39C1428.65 285.82 1446.56 309.003 1440.84 321.047C1431.44 320.915 1422.12 304.363 1418.45 296.501C1416.07 291.391 1415.53 289.599 1417.54 284.39Z"/><path d="M1196.71 136.916C1205 137.404 1226.32 140.643 1230.98 149.102C1232.17 151.266 1230.95 153.459 1230.14 155.623C1222.32 156.214 1198.98 153.092 1194.98 144.717C1193.65 141.929 1195.49 139.527 1196.71 136.916Z"/><path d="M1248.67 152.58C1258.98 153.499 1274.02 158.094 1280.5 166.687C1282.65 169.549 1281.43 172.39 1280.77 175.519C1271.85 176.178 1252.88 168.38 1248.3 160.444C1247.15 158.462 1248.18 154.725 1248.67 152.58Z"/><path d="M1105.66 131.36C1110.82 130.749 1119.36 130.283 1123.1 134.344C1123.71 143.602 1107.65 144.07 1101.41 144.61C1096.33 145.397 1088.12 146.544 1084.42 142.525C1084.16 133.115 1098.82 132.103 1105.66 131.36Z"/><path d="M1059.5 139.17C1064.06 138.971 1065.43 139.127 1068.2 142.487C1069.1 152.06 1046.77 155.652 1038.91 157.729C1034.38 157.637 1033.07 157.071 1031.02 153.367C1031.5 143.436 1051.12 141.108 1059.5 139.17Z"/><path d="M960.619 179.155C963.134 179.522 963.932 179.915 966.289 180.895C971.703 189.562 947.176 202.105 940.535 206.355C937.984 206.064 937.095 205.254 934.933 203.893C930.121 194.123 953.241 183.104 960.619 179.155Z"/><path d="M1340.64 206.419C1351.4 206.704 1366.65 218.524 1371.55 227.7C1373.08 230.552 1372.26 232.681 1371.35 235.517C1362.95 236.439 1349.23 223.93 1343.9 217.58C1339.75 212.631 1340.14 212.323 1340.64 206.419Z"/><path d="M1381.96 243.421C1394.72 243.27 1412.6 261.752 1409.24 274.838C1397.45 274.415 1380.68 255.265 1381.96 243.421Z"/><path d="M1447.28 331.524C1458.22 333.058 1464.96 349.871 1467.38 359.266C1468.39 363.206 1467.55 364.832 1465.88 368.309C1455.01 367.533 1442.93 341.4 1447.28 331.524Z"/><path d="M1297.97 175.81C1307.55 176.188 1332.41 188.609 1326.05 201.994C1324.69 201.956 1322.12 201.544 1320.92 200.958C1311.38 196.317 1292.22 189.225 1297.97 175.81Z"/><path d="M839.79 285.62C855.84 292.113 833.672 314.17 827.395 322.032L823.622 320.483C817.397 312.211 833.581 291.523 839.79 285.62Z"/><path d="M915.13 208.933C919.594 210.231 921.195 210.138 922.168 214.871C920.247 222.435 905.691 232.443 898.932 237.827L894.86 237.321C891.996 235.253 892.656 236.325 891.907 233.398C893.409 224.33 907.79 214.555 915.13 208.933Z"/><path d="M790.185 382.546C791.616 382.966 793.037 383.611 794.429 384.185C801.323 391.43 791.642 413.728 786.848 420.983L783.048 419.716C774.524 411.89 785.427 390.707 790.185 382.546Z"/><path d="M874.165 244.52C875.631 244.732 877.139 245.191 878.591 245.572C885.626 253.805 866.088 270.111 860.012 276.417C857.131 276.102 856.772 276.029 854.301 274.527C849.653 265.477 867.754 250.876 874.165 244.52Z"/><path d="M773.113 486.139C787.563 492.019 783.284 513.675 778.668 525.017C764.309 522.267 769.495 496.076 773.113 486.139Z"/><path d="M1008.83 156.042C1012.19 156.334 1013.89 157.069 1015.72 159.671C1015.06 167.729 994.827 175.331 988.086 177.838C985.137 177.719 984.424 177.258 981.815 176.015C980.285 173.567 980.528 174.745 981.222 171.465C986.736 163.816 1000.17 159.27 1008.83 156.042Z"/><path d="M809.131 333.504C825.822 336.028 808.487 361.788 804.161 369.314L799.964 368.04C792.31 359.86 803.891 341.171 809.131 333.504Z"/><path d="M775.781 435.307C777.888 435.429 778.946 435.824 780.987 436.406C788.849 443.354 783.359 464.033 779.48 472.074C778.104 472.009 776.395 471.425 775.032 471.04C767.034 464.322 772.549 443.997 775.781 435.307Z"/></svg>