<?xml version="1.0" encoding="utf-8" ?><svg xmlns="http://www.w3.org/2000/svg" xmlns:xlink="http://www.w3.org/1999/xlink" width="2048" height="1024" viewBox="0 0 2048 1024"><path d="M1031.22 705.578L1069.29 304.777L1081.43 174.847C1083.58 150.584 1085.03 125.325 1088.82 101.235C1090.3 91.8649 1097.49 82.1267 1104.69 76.1293C1113.63 68.6852 1124.56 64.016 1136.12 62.6953C1157.53 60.2756 1194.34 61.8796 1217.19 61.972L1359.39 62.0069L1519.99 62.0543C1537.34 62.0385 1554.66 61.8946 1572.04 61.9367C1596.03 62.1317 1624.9 59.3147 1641.97 80.0204C1649.38 89.0173 1652.68 102.029 1652.19 113.513C1650.81 145.896 1646.74 178.66 1643.61 210.942L1627.17 386.533C1615.5 518.083 1603.06 649.562 1589.84 780.965C1585.87 821.112 1582.65 861.404 1578.86 901.573C1575.73 934.715 1562.59 946.825 1532.88 957.871C1557.43 958.125 1755.64 956.362 1763.32 959.39C1761.05 961.73 1752.51 962.637 1749.31 962.534C1723.98 961.722 1698.62 961.852 1673.29 961.841L1454.45 961.734L851.342 961.74L850.831 959.552L847.289 958.454L848.972 957.836L849.454 956.549C837.665 927.162 828.51 885.722 815.798 857.952C815.346 854.343 813.653 849.226 810.659 846.89C808.308 848.949 808.719 850.08 807.856 853.67C806.248 858.589 804.692 863.526 803.189 868.478C803.062 865.816 802.717 862.663 802.486 859.964C804.609 851.57 806.78 843.189 809 834.821L695.719 815.865C672.013 811.98 646.556 808.44 623.256 803.541L621.503 803.572L621.357 802.661L628.349 800.616L617.539 798.785C604.155 784.779 592.381 775.02 577.542 762.614C600.462 742.703 615.441 728.239 634.15 704.088C643.605 691.9 652.392 679.207 660.471 666.066C666.506 656.19 671.993 645.642 678.695 636.217C686.184 625.686 696.346 617.015 705.363 607.821C723.268 589.564 740.774 567.364 764.061 555.783C771.724 551.972 779.082 549.689 787.465 552.63C824.88 565.758 888.398 697.688 906.838 735.852L907.243 729.791L910.726 737.275C916.347 737.329 940.467 738.078 943.938 736.871C974.629 726.195 997.887 710.937 1031.22 705.578ZM1110.94 146.567C1107.85 157.798 1106.8 170.933 1105.32 182.552C1102.24 206.702 1100.47 231.016 1098.33 255.265L1082.54 431.824C1078.47 474.161 1074.1 516.468 1069.44 558.744C1060.46 647.051 1052.27 735.437 1044.87 823.89C1044.21 832.827 1039.38 862.937 1050.8 865.1C1065.3 867.847 1082.52 867.338 1097.43 867.4L1161.67 867.621L1430.5 867.985C1455.37 868.059 1489.52 869.587 1514.03 866.453C1518.82 865.841 1525.35 860.766 1529.01 857.392C1545.89 692.202 1561.88 526.921 1576.98 361.558L1589.61 221.016C1591.57 198.736 1593.84 175.79 1595.17 153.46C1595.44 148.961 1593.69 145.867 1591.4 142.122C1588.87 137.985 1580.51 137.111 1575.46 136.773C1562.59 135.911 1548.81 136.024 1535.77 135.933L1471.64 135.528C1385.67 135.135 1295.68 137.134 1210.3 135.502C1192.62 136.515 1174.85 135.352 1157.2 135.81C1139.99 136.257 1123.78 131.99 1111.23 146.24L1110.94 146.567ZM1019.34 766.806C1010.73 788.654 1002.35 810.143 992.356 831.419C984.481 848.186 972.138 842.058 956.452 838.897C965.733 859.77 974.854 889.799 984.405 908.443C993.347 910.887 1002.31 913.234 1011.31 915.482C1013.2 892.488 1015.47 869.525 1018.1 846.603C1019.02 838.378 1022.61 809.921 1022.06 803.344C1024.19 791.47 1026.52 761.104 1026.55 749.151C1023.72 755.389 1021.69 760.376 1019.34 766.806ZM766.317 702.725C758.302 711.312 744.968 726.731 737.565 736.116L751.401 736.181L777.98 736.223C776.356 731.758 768.187 704.316 766.317 702.725Z"/><path fill="#99A4FA" d="M577.542 762.614C600.462 742.703 615.441 728.239 634.15 704.088C643.605 691.9 652.392 679.207 660.471 666.066C666.506 656.19 671.993 645.642 678.695 636.217C686.184 625.686 696.346 617.015 705.363 607.821C723.268 589.564 740.774 567.364 764.061 555.783C771.724 551.972 779.082 549.689 787.465 552.63C824.88 565.758 888.398 697.688 906.838 735.852C928.491 783.378 949.329 831.271 969.345 879.51L827.702 879.302C814.804 841.136 802.201 802.871 789.896 764.511C782.967 742.634 776.529 719.691 769.399 698.102C774.711 690.799 777.38 686.89 780.759 678.244C776.54 682.68 772.471 687.365 768.727 692.21C735.945 734.632 701.807 774.629 657.49 805.493L628.349 800.616L617.539 798.785C604.155 784.779 592.381 775.02 577.542 762.614Z"/><path d="M1496.34 230.462C1506.41 236.153 1558.71 294.552 1563.94 304.826L1563.02 306.352C1556.03 308.87 1534.9 306.466 1526.56 305.842C1524.24 356.703 1516.53 412.815 1511.94 464.013L1482.27 461.927C1482.1 469.26 1480.75 500.277 1476.46 503.967L1474.01 503.71C1475.61 489.806 1477.09 475.888 1478.45 461.959L1449.21 459.852C1450.07 439.931 1452.78 419.091 1454.7 399.122C1457.7 366.548 1460.91 333.993 1464.32 301.459C1456.14 301.075 1424.49 300.806 1419.9 296.713C1422.36 288.219 1484.88 241.071 1496.34 230.462Z"/><path fill="#99A4FA" d="M1497.92 234.877C1504.7 239.096 1553.12 295.152 1562.28 305.198C1549.36 304.117 1536.41 303.305 1523.46 302.761L1508.7 460.241C1498.54 459.791 1489.3 459.024 1479.21 458.096C1470.99 458.087 1461 457.188 1452.66 456.652C1455.61 441.16 1456.51 416.751 1458.17 400.26C1461.51 367.039 1466.96 331.7 1468.13 298.58C1453.21 297.434 1438.28 296.524 1423.33 295.853C1443.77 276.832 1475.54 252.5 1497.92 234.877Z"/><path d="M1348.2 374.747C1356.11 375.424 1371.92 377.434 1378.8 376.454L1382.39 377.808C1392.3 378.009 1402.16 378.803 1412.04 379.509C1406.95 427.685 1403.68 475.935 1398.84 524.088C1396.85 543.856 1396.45 569.443 1391.9 588.17C1382.18 587.796 1372.31 586.768 1362.61 585.875C1362.3 592.461 1360.32 625.766 1357.19 628.653L1356.04 627.43C1354.01 618.399 1357.46 596.717 1358.27 586.09L1329.84 583.636C1330.2 562.056 1334.12 528.099 1336.07 505.719C1339.73 462.027 1343.77 418.368 1348.2 374.747Z"/><path fill="#88D794" d="M1352.29 378.891C1368.4 378.825 1391.77 381.656 1408.32 383.283C1404.29 404.276 1403.15 434.96 1401.28 457.048L1389.71 584.596C1371.08 583.092 1352.44 581.859 1333.78 580.898C1334.22 573.557 1334.73 566.013 1335.4 558.698C1340.87 499.041 1344.64 438.277 1352.29 378.891Z"/><path d="M1262.96 451.222L1265.18 452.303C1267.09 456.292 1264.02 487.641 1263.64 495.129C1272.71 496.08 1283.1 496.585 1292.28 497.25C1289.1 526.193 1287.17 556.632 1284.74 585.796L1275.64 692.009L1243.74 689.829C1242.64 698.237 1241.23 727.86 1238.61 733.849L1236.8 731.903C1235 725.354 1238.98 697.385 1239.9 689.421C1230.73 688.65 1220.32 688.377 1211.04 687.922C1216.14 623.642 1224.41 556.761 1228.43 492.807C1238.47 493.134 1248.49 493.868 1258.47 495.007C1260.31 480.871 1261.18 465.783 1262.96 451.222Z"/><path fill="#88D794" d="M1232.14 496.959C1247.41 496.782 1272.81 499.199 1288.2 500.954C1283.56 544.319 1281.2 589.205 1276.9 632.714C1275.1 650.905 1274.28 670.356 1271.83 688.318C1253.83 686.306 1233.13 685.508 1214.81 684.071C1217.99 667.133 1219.8 636.587 1221.42 618.376L1232.14 496.959Z"/><path d="M1109.84 564.881C1118.77 565.317 1129.59 566.976 1138.32 566.513L1142.88 567.946C1153.65 568.153 1163.63 569.7 1174.18 570.355C1171.3 608.251 1167.55 647.151 1164.09 685.103C1154.34 684.414 1143.82 683.867 1134.16 682.769L1130.06 683.067C1124.73 681.693 1104.8 680.897 1098.35 680.544C1103.2 645.474 1102.67 599.745 1109.84 564.881Z"/><path fill="#F96048" d="M1112.13 568.824C1131.21 570.754 1151.68 571.902 1170.86 573.211C1166.16 605.682 1163.59 648.045 1160.84 681.167C1143.74 680.721 1119.28 678.562 1102.09 677.001C1103.71 668.486 1105.02 649.484 1105.93 639.966C1108.44 616.293 1110.5 592.575 1112.13 568.824Z"/><path d="M1106.71 792.474C1114 791.563 1130.02 792.026 1137.72 792.067L1195.5 792.25L1430.05 791.996C1438.49 791.957 1486.56 790.312 1491.27 793.384L1491.59 795.329C1490.92 795.43 1490.24 795.518 1489.57 795.592C1479.78 796.668 1452.24 796.119 1441.24 796.183L1341.93 796.588L1192.2 796.114C1166.79 795.953 1141.02 796.265 1115.64 795.318C1111.17 795.151 1109.83 795.021 1106.71 792.474Z"/><path d="M1378.8 376.454C1379.66 369.549 1382.67 338.623 1384.12 333.716L1385.62 333.384C1388.83 337.86 1384.32 366.678 1383.16 373.998C1382.95 375.277 1382.7 376.548 1382.39 377.808L1378.8 376.454Z"/><path d="M1138.32 566.513C1139.39 558.471 1141.32 529.895 1144.44 525.032L1145.71 525.482C1147.9 535.129 1141.54 563.848 1142.88 567.946L1138.32 566.513Z"/><path d="M1130.06 683.067L1134.16 682.769C1133.87 687.363 1130.54 724.175 1129.39 726.206L1127.82 725.764C1124.83 721.673 1129.3 689.895 1130.06 683.067Z"/><path fill="#FDFDFD" d="M1596.22 77.8309C1599.33 77.8996 1602.74 78.456 1605.48 79.9225C1622.84 89.2828 1629.03 106.784 1627.41 125.573C1624.48 159.637 1621.08 193.617 1617.88 227.639L1598.99 428.12L1567.66 756.094L1560.41 832.402C1559.42 843.418 1558.89 854.952 1557.42 865.882C1552.31 903.934 1559.58 935.839 1516.28 951.524L1514.34 951.878L1513.47 951.097C1517.29 946.35 1532.46 941.521 1538.97 930.668C1544.77 920.993 1546.85 917.149 1548.32 905.497C1551.05 883.855 1552.94 862.042 1555.03 840.357L1565.51 730.82L1597 399.847C1603.73 331.373 1610.1 262.865 1616.13 194.325C1618.53 167.662 1624.12 134.513 1622.09 108.154C1621.12 95.6883 1605.87 84.6816 1596.22 77.8309Z"/><path fill="#393B6D" d="M1244.24 906.493C1260.87 906.31 1312.51 902.902 1323.9 911.309C1327.24 917.148 1323.15 919.746 1318.34 922.927C1296.48 922.829 1274.46 923.487 1252.6 923.118C1247.41 923.031 1240.04 921.581 1237.07 916.804C1236.3 913.788 1236.57 913.318 1237.76 910.392C1240.24 907.65 1240.78 907.528 1244.24 906.493Z"/><path fill="#393B6D" d="M1335.96 90.4056C1336.8 90.3488 1337.64 90.2991 1338.47 90.2567C1350.75 89.6357 1389.15 88.3587 1366.69 109.888C1356.29 110.29 1338.7 112.206 1330.89 105.177C1327.83 98.458 1331.25 95.1876 1335.96 90.4056Z"/><path fill="#FDFDFD" fill-opacity="0.039215688" d="M1019.34 766.806C1021.69 760.376 1023.72 755.389 1026.55 749.151C1026.52 761.104 1024.19 791.47 1022.06 803.344C1020.32 793.333 1024.58 779.28 1022.15 768.206L1019.34 766.806Z"/><path fill="#FDBE50" d="M380.068 958C357.612 941.492 333.253 922.54 313.458 901.931C247.478 832.625 177.717 730.767 176.977 631.933C176.19 526.885 284.676 467.468 376.881 458.851C383.405 458.241 406.301 454.151 410.536 458.535C410.904 460.092 411.685 463.419 411.509 464.811C410.728 470.986 395.752 476.048 389.354 481.562C378.765 490.689 372.177 504.542 371.079 518.315C365.573 587.426 416.004 650.169 456.314 700.205C415.524 688.612 347.327 670.028 305.214 679.92C318.364 682.059 336.705 681.158 350.499 682.246C452.055 690.253 559.427 736.905 626.564 814.115C636.751 825.924 645.938 838.559 654.031 851.89C658.748 859.638 667.162 875.237 672.617 881.312L672.918 881.642C667.919 859.889 647.905 836.459 634.326 818.797C631.35 814.925 624.7 807.385 623.256 803.541C646.556 808.44 672.013 811.98 695.719 815.865L809 834.821C806.78 843.189 804.609 851.57 802.486 859.964C789.773 898.264 776.444 926.956 749.986 958L380.068 958Z"/><path d="M408.831 420.775C413.622 437.733 415.017 448.914 415.66 466.745C423.941 470.397 454.039 478.159 460.93 471.844L461.028 470.056C458.748 467.977 457.809 467.475 455.232 465.986L456.37 464.247L458.28 464.01C507.394 484.928 581.618 568.995 612.381 613.409C622.982 595.727 629.89 578.912 638.117 560.183C638.628 558.212 648.664 548.954 648.767 548.535C657.972 510.796 659.777 469.072 670.417 431.828L673.42 432.917C668.369 456.004 665.651 480.526 661.725 503.933C660.442 511.582 652.132 549.259 654.907 554.142C665.931 552.058 681.957 503.825 692.309 502.174C698.509 508.637 689.183 533.302 686.858 542.046L687.761 542.345C696.657 545.369 700.636 558.289 702.605 566.616L703.834 566.719C710.261 554.349 714.658 511.732 717.138 496.816C720.574 476.153 723.534 454.261 727.701 433.534C728.348 435.382 728.836 437.304 730.078 438.783C727.729 460.053 723.58 481.807 720.614 503.156C717.735 523.875 714.974 545.464 709.713 565.779C708.829 569.19 703.82 572.344 702.445 576.025C699.099 584.988 695.734 594.449 692.624 603.498C690.373 610.043 686.677 617.651 684.704 623.789C705.474 601.196 746.927 549.088 777.774 547.717C789.453 547.198 797.915 552.404 806.145 560.102C834.518 586.638 893.513 692.487 907.243 729.791L906.838 735.852C888.398 697.688 824.88 565.758 787.465 552.63C779.082 549.689 771.724 551.972 764.061 555.783C740.774 567.364 723.268 589.564 705.363 607.821C696.346 617.015 686.184 625.686 678.695 636.217C671.993 645.642 666.506 656.19 660.471 666.066C652.392 679.207 643.605 691.9 634.15 704.088C615.441 728.239 600.462 742.703 577.542 762.614C592.381 775.02 604.155 784.779 617.539 798.785L628.349 800.616L621.357 802.661L621.503 803.572L623.256 803.541C624.7 807.385 631.35 814.925 634.326 818.797C647.905 836.459 667.919 859.889 672.918 881.642L672.617 881.312C667.162 875.237 658.748 859.638 654.031 851.89C645.938 838.559 636.751 825.924 626.564 814.115C559.427 736.905 452.055 690.253 350.499 682.246C336.705 681.158 318.364 682.059 305.214 679.92C347.327 670.028 415.524 688.612 456.314 700.205C416.004 650.169 365.573 587.426 371.079 518.315C372.177 504.542 378.765 490.689 389.354 481.562C395.752 476.048 410.728 470.986 411.509 464.811C411.685 463.419 410.904 460.092 410.536 458.535C406.301 454.151 383.405 458.241 376.881 458.851C284.676 467.468 176.19 526.885 176.977 631.933C177.717 730.767 247.478 832.625 313.458 901.931C333.253 922.54 357.612 941.492 380.068 958L749.986 958C776.444 926.956 789.773 898.264 802.486 859.964C802.717 862.663 803.062 865.816 803.189 868.478C794.571 896.974 775.119 935.1 755.437 957.983L814.378 958.009C823.376 958.018 838.905 957.61 847.289 958.454L850.831 959.552L851.342 961.74C813.194 962.627 771.966 961.887 733.484 961.9L499.944 961.846L325.905 961.819C300.185 961.817 274.245 961.732 248.504 962.109C245.414 962.154 240.495 960.962 237.777 959.363C241.32 956.984 359.145 958.008 373.158 958.033C280.412 893.742 187.096 765.172 174.052 650.794C169.341 609.483 182.81 564.694 210.223 533.194C262.159 473.517 335.649 458.189 410.258 451.947C409.852 445.183 407.228 437.257 407.848 431.202C408.892 429.678 408.764 423.069 408.831 420.775ZM573.728 760.415C613.01 732.142 657.149 670.298 679.096 626.94C655.328 629.437 635.658 626.785 613.257 618.493C602.213 635.78 581.142 658.363 566.368 672.148C559.838 677.898 549.821 686.822 542.335 690.775C529.797 674.844 459.914 584.735 458.121 568.49L459.245 568.304L458.2 568.744L458.244 567.374L459.68 568.865L458.524 569.798L460.353 569.811C488.687 613.611 511.963 644.862 543.505 686.05C572.139 664.027 589.342 644.827 610.894 616.421C576.025 572.653 517.84 502.2 469.682 473.178C450.331 481.584 445.548 478.953 425.337 474.04C421.311 473.062 417.946 471.873 413.773 472.175C398.778 477.527 387.075 484.823 380.12 499.854C368.728 524.475 375.038 556.115 384.193 580.368C395.665 610.761 443.997 694.3 473.135 707.426C483.839 712.248 495.339 715.317 506.001 720.247C530.256 731.461 551.518 745.85 573.728 760.415ZM688.739 508.46C680.66 522.619 668.72 553.796 654.302 560.83C649.651 561.014 649.536 559.378 647.507 555.304C644.978 556.058 643.015 559.498 641.889 561.87C631.962 582.78 629.022 595.29 615.298 614.887C630.747 620.988 643.651 623.521 660.385 624.097C667.927 623.978 673.991 623.946 681.458 622.964L681.654 622.149C685.232 607.781 701.998 578.774 698.363 562.81L697.228 562.27C692.745 565.296 691.214 569.458 688.564 574.353C689.225 567.068 693.135 553.874 690.248 548.497C683.239 546.006 680.096 558.516 674.845 560.688C674.758 553.952 692.136 522.231 690.313 509.506L688.739 508.46Z"/><path d="M407.848 431.202C383.537 429.51 361.574 427.885 351.953 400.552C346.358 384.659 341.555 366.876 346.931 350.244C353.83 328.905 377.971 326.016 394.369 314.944C406.331 306.836 415.678 295.332 428.922 289.13C463.372 272.056 517.888 312.723 503.43 351.203C499.592 361.354 490.633 366.725 481.095 370.726C478.484 369.965 476.921 366.966 475.186 364.552L470.561 351.341C455.061 367.369 448.135 372.016 426.242 377.631C426.928 383.223 429.781 402.44 422.112 403.806C411.182 398.709 407.436 372.945 391.437 377.436C381.871 380.121 371.347 400.211 385.592 405.388C398.096 409.932 405.066 403.897 408.831 420.775C408.764 423.069 408.892 429.678 407.848 431.202Z"/><path d="M388.014 391.347C395.078 389.707 401.939 391.72 404.12 399.243C402.404 399.114 391.188 394.374 388.514 393.373L388.014 391.347Z"/><path d="M475.186 364.552C476.921 366.966 478.484 369.965 481.095 370.726C477.99 377.617 505.842 427.175 465.84 442.42C463.014 443.525 460.105 444.406 457.14 445.053C457.545 451.074 458.164 458.051 458.28 464.01L456.37 464.247L455.232 465.986L454.315 465.356C454.134 458.097 453.744 451.987 453.099 444.751C450.378 444.378 447.661 443.972 444.95 443.534C441.9 443.031 435.546 441.91 433.687 439.31C442.031 437.805 451.73 442.068 461.149 440.074C496.48 432.592 480.096 388.695 475.186 364.552Z"/><path d="M670.417 431.828C677.37 427.828 725.523 427.454 730.002 433.406L730.078 438.783C728.836 437.304 728.348 435.382 727.701 433.534L673.42 432.917L670.417 431.828Z"/><defs><linearGradient id="gradient_0" gradientUnits="userSpaceOnUse" x1="808.99432" y1="858.02942" x2="814.0957" y2="854.58496"><stop offset="0" stop-color="#ECEEF8" stop-opacity="0"/><stop offset="1" stop-color="#ECEEF8" stop-opacity="0.06666667"/></linearGradient></defs><path fill="url(#gradient_0)" d="M807.856 853.67C808.719 850.08 808.308 848.949 810.659 846.89C813.653 849.226 815.346 854.343 815.798 857.952L813.533 861.804L811.907 862.01C810.498 859.259 809.147 856.478 807.856 853.67Z"/></svg>