<?xml version="1.0" encoding="utf-8" ?><svg xmlns="http://www.w3.org/2000/svg" xmlns:xlink="http://www.w3.org/1999/xlink" width="1024" height="1024" viewBox="0 0 1024 1024"><path d="M460.819 698.097C461.341 691.9 464.216 678.131 465.453 671.613C469.28 652.054 473.25 632.524 477.365 613.024L505.369 472.949L552.961 234.716L569.847 150.789C572.277 138.906 574.484 126.974 577.039 115.112C579.151 105.307 581.514 98.5314 588.169 90.8129C596.689 81.1189 608.711 75.2066 621.591 74.3766C633.061 73.5619 666.155 81.3063 679.278 83.8809L760.842 99.2728C808.151 107.78 855.396 116.64 902.573 125.851C921.274 129.438 940.34 132.239 958.902 136.324C966.843 138.071 973.87 141.611 980.021 147.019C989.122 155.022 994.668 166.316 995.437 178.411C996.061 188.117 993.009 200.631 991.084 210.364L984.996 241.344L958.915 373.509L892.773 715.067L872.489 820.063C868.015 843.49 863.72 867.121 858.51 890.384C856.736 899.077 853.217 906.495 847.264 913.13C828.005 934.592 798.749 926.902 773.982 922.629C760.032 920.358 746.114 917.902 732.229 915.261L636.23 897.518C631.058 896.539 599.072 889.631 596.971 891.972C597.863 893.402 599.467 893.829 601.092 894.552C606.678 894.224 608.807 895.172 613.628 898.31C615.731 899.366 620.91 904.213 622.757 905.807C642.449 922.808 660.783 942.851 668.738 968.177C669.676 971.164 672.811 976.76 671.951 979.752C669.263 981.333 594.422 980.404 584.387 980.392L250.741 979.661L160.085 979.551C140.661 979.527 121.172 979.987 101.823 978.645C76.1064 976.86 53.6235 965.601 40.341 942.962C33.0758 930.579 29.6637 917.944 27.088 903.932C19.9337 865.01 23.4658 824.957 32.8102 786.724C46.2983 732.206 71.9538 675.177 114.281 636.859C122.991 628.974 132.28 623.039 142.26 617.027C149.658 582.012 162.38 550.495 196.886 534.573C204.339 531.134 214.039 529.856 219.551 524.122C199.898 519.11 188.808 509.225 183.455 489.126C179.259 473.369 181.77 449.27 200.685 444.84C192.828 413.337 228.362 405.491 252.072 409.053C265.171 411.02 295.625 419.035 291.696 437.051C289.56 446.843 276.529 454.803 268.529 459.733C269.946 463.591 271.158 467.521 272.162 471.506C276.057 486.883 278.313 506.188 262.061 515.149C257.305 517.772 252.789 518.578 247.569 519.695C248.651 523.636 249.335 525.604 251.685 528.931C253.883 529.592 256.074 530.272 258.26 530.973C264.877 533.106 272.547 536.169 278.519 539.77C307.254 557.1 327.745 592.131 342.726 621.466C355.08 616.796 370.913 610.321 383.352 606.73C386.277 612.259 387.831 619.404 389.8 625.508C392.29 620.544 396.001 608.752 397.846 603.228C401.765 591.388 405.76 579.573 409.831 567.784C412.85 559.033 414.848 549.625 422.296 543.682C430.187 542.111 450.881 550.833 459.738 552.952C466.621 554.599 469.767 559.921 467.594 567.06C461.133 588.286 453.061 609.331 446.532 630.573C444.583 637.041 446.888 640.267 443.103 647.996C434.919 664.705 423.795 672.254 406.699 678.563L408.768 685.127C401.568 689.668 373.288 698.574 364.05 701.603C366.554 705.682 371.688 711.683 374.807 716.312C390.168 704.288 408.052 680.721 429.255 680.542C442.107 680.434 452.244 689.723 460.819 698.097Z"/><path fill="#FDFDFE" d="M601.092 894.552C606.678 894.224 608.807 895.172 613.628 898.31C603.134 907.334 593.71 915.056 587.412 927.575C590.229 930.765 593.069 932.4 596.641 934.572C595.374 936.864 594.134 939.172 592.921 941.494C591.882 943.528 589.627 947.84 590.314 949.93C592.362 949.938 593.765 945.448 595.085 943.253C603.54 929.193 610.385 919.406 624.195 910.454C628.389 915.513 634.339 920.521 639.057 925.262C648.238 934.486 653.824 942.583 659.613 953.959C644.243 954.04 628.872 954.031 613.502 953.932C603.409 953.878 592.445 953.598 582.447 954.656C573.532 955.598 563.895 959.528 555.147 961.361C545.392 963.405 535.189 964.79 525.306 966.534L522.671 961.346C533.508 959.403 556.035 956.768 565.206 954.244C572.933 924.736 579.973 915.545 601.092 894.552Z"/><path fill="#FDFDFE" d="M629.823 98.0993C639.659 96.894 686.439 107.183 698.691 109.8C698.138 118.623 698.218 124.965 702.263 132.947C710.233 148.677 725.938 150.102 741.412 152.941L770.98 158.348L805.176 164.562C811.686 165.73 822.116 167.819 828.407 167.884C834.08 167.964 839.68 166.601 844.682 163.924C855.293 158.202 858.227 149.581 861.483 138.9C873.66 139.575 920.092 147.373 929.797 152.637C938.044 157.11 943.316 164.634 945.898 173.54C948.101 181.137 948.098 189.237 946.91 197.006C943.994 216.07 939.89 235.043 936.211 253.974L917.944 347.856L862.741 628.986L828.275 803.314L820.363 842.863C818.053 854.47 815.304 873.952 809.969 883.575C803.381 893.522 789.886 901.201 777.867 901.4C770.55 901.521 761.616 899.473 754.339 898.1L726.684 892.909L649.828 878.69C628.598 874.65 606.971 870.07 585.551 867.322C576.762 853.151 569.433 838.271 560.126 824.184C546.648 803.865 532.395 784.069 517.399 764.842C505.186 749.258 492.17 733.897 479.773 718.369C481.572 710.047 483.116 700.092 484.732 691.582C488.198 673.408 491.777 655.256 495.467 637.126L563.467 293.268L586.183 179.929C588.742 167.343 591.389 154.341 593.563 141.702C597.407 119.344 606.039 102.81 629.823 98.0993Z"/><path fill="#7478BF" d="M772.997 320.101C790.578 304.917 808.388 290.002 826.423 275.359C832.537 270.293 845.57 258.558 851.612 254.724L879.707 304.684C885.131 314.187 896.629 333.208 899.889 342.643C890.21 342.103 875.367 338.968 865.795 336.794C864.328 346.296 862.011 356.436 860.086 365.932L850.48 413.351C848.327 423.788 846.23 434.235 844.189 444.694C843.05 450.597 841.722 458.912 840.199 464.574C836.185 463.835 816.065 459.647 813.188 461.042L812.894 461.896C811.904 459.793 812.652 460.497 810.749 459.536C808.651 458.69 786.649 454.425 783.161 453.702C791.448 412.128 800.617 368.755 808.128 327.196C798.033 325.155 782.29 322.795 772.997 320.101Z"/><path d="M772.997 320.101C790.578 304.917 808.388 290.002 826.423 275.359C832.537 270.293 845.57 258.558 851.612 254.724L879.707 304.684C885.131 314.187 896.629 333.208 899.889 342.643C890.21 342.103 875.367 338.968 865.795 336.794C862.047 336.402 861.101 336.441 858.074 334.356L858.174 333.83C863.512 333.09 889.512 338.823 896.477 340.186C892.932 331.84 884.102 317.524 879.339 309.214L850.836 258.62C826.105 278.114 802.978 299.43 778.702 318.535C783.746 319.551 810.944 324.152 813.258 326.407L812.935 327.145C811.088 327.899 810.197 327.528 808.128 327.196C798.033 325.155 782.29 322.795 772.997 320.101Z"/><path fill="#DA7270" d="M574.73 493.187C583.403 495.334 594.198 496.852 603.306 498.844L605.786 499.099C612.439 501.27 623.794 502.672 631.219 504.637C623.773 546.626 615.776 588.515 607.23 630.294C603.096 629.441 582.945 625.165 580.21 626.054L579.906 626.476C578.865 624.924 579.558 625.463 577.686 624.895C568.384 623.247 559.57 621.256 550.127 619.762C559.592 578.042 565.461 534.823 574.73 493.187Z"/><path fill="#B8E8B6" d="M689.778 402.015C692.614 402.658 717.103 406.432 718.235 406.06C719.551 407.251 718.81 406.933 720.493 407.141L721.171 406.572C724.786 408.843 742.791 410.895 748.184 412.06C743.103 437.728 738.322 463.455 733.843 489.235C731.738 500.836 728.291 521.246 725.224 532.449C721.563 531.742 699.998 527.26 697.582 528.229L697.365 528.511C696.625 527.48 696.226 527.567 694.889 526.951C689.241 526.995 673.813 523.867 667.855 522.726C668.727 510.649 672.66 494.322 674.802 482.256C679.489 455.861 685.782 428.507 689.778 402.015Z"/><path fill="#D9D8DF" d="M561.97 733.006C563.482 732.999 564.994 733.091 566.494 733.282C576.432 734.495 589.959 737.651 600.068 739.534L664.942 751.477C683.244 754.929 701.566 758.277 719.906 761.521C730.878 763.456 742.081 765.25 752.974 767.491C755.637 768.342 761.116 769.217 762.72 771.49C766.877 777.381 763.429 785.843 757.913 789.669C755.941 789.702 753.97 789.604 752.011 789.374C738.539 787.849 721.631 784.428 708.17 781.791C692.26 778.659 676.33 775.634 660.38 772.717L600.886 761.785C589.21 759.698 577.316 757.785 565.708 755.414C563.215 754.605 558.692 754.161 557.172 751.901C552.701 745.257 556.202 737.473 561.97 733.006Z"/><path fill="#D9D8DF" d="M610.131 775.033C611.672 774.825 613.837 774.799 615.391 774.998C638.268 777.921 660.707 783.728 683.56 786.983C687.169 787.497 690.626 788.584 694.058 789.316C708.702 792.441 709.097 802.74 697.805 811.01C690.317 811.787 661.454 805.284 653.124 803.898C644.336 802.436 632.534 800.342 623.522 798.742C618.653 797.324 605.743 795.985 603.201 790.848C599.972 784.323 604.356 778.132 610.131 775.033Z"/><path d="M810.749 459.536C812.652 460.497 811.904 459.793 812.894 461.896C809.971 474.136 807.562 487.628 804.943 500.085L789.339 574.081L784.511 597.916C783.479 603.149 782.526 610.08 780.557 614.82L779.68 615.312L779.775 615.728C778.924 612.796 780.316 605.637 780.952 602.567C790.807 554.96 800.218 506.979 810.749 459.536Z"/><path d="M718.235 406.06C721.566 391.129 724.682 376.151 727.581 361.13C728.4 357.024 730.538 341.359 733.074 339.45C734.783 343.884 730.054 361.311 728.98 366.559L721.171 406.572L720.493 407.141C718.81 406.933 719.551 407.251 718.235 406.06Z"/><path d="M603.306 498.844C604.899 490.402 613.317 439.801 615.871 435.922L616.487 436.221C617.82 441.377 607.743 490.529 605.786 499.099L603.306 498.844Z"/><path d="M577.686 624.895C579.558 625.463 578.865 624.924 579.906 626.476C576.639 637.843 570.556 681.299 566.808 687.756L566.295 687.745C565.448 682.016 575.671 633.302 577.686 624.895Z"/><path d="M694.889 526.951C696.226 527.567 696.625 527.48 697.365 528.511C695.697 534.993 689.943 574.241 686.539 576.62L685.971 575.904C685.762 571.777 689.009 557.656 689.985 552.951C691.813 544.322 693.448 535.653 694.889 526.951Z"/><path fill="#FEBE51" d="M140.313 621.409L140.934 621.938C141.493 626.211 138.227 640.189 137.403 645.252C135.872 654.994 134.503 664.762 133.297 674.549C130.637 695.887 128.825 717.321 127.866 738.802C122.786 739.046 105.711 739.982 102.247 742.461C102.665 744.091 107.669 743.415 109.255 743.218C126.047 741.136 145.311 740.501 162.14 742.489C211.791 748.355 271.115 770.04 313.39 796.079C315.595 804.218 317.816 816.151 319.638 824.603L332.271 884.605C337.801 884.575 347.483 882.631 353.141 881.577C356.612 892.361 358.962 905.059 361.638 916.236L376.467 977.025L308.049 976.726L165.268 976.499L127.705 976.538C114.986 976.559 101.425 977.075 89.0512 974.431C71.485 970.677 54.1554 960.171 44.5663 944.7C19.6017 904.422 23.8363 838.102 33.8554 793.703C45.2265 743.312 70.1641 684.895 106.742 647.584C116.308 637.826 128.923 628.706 140.313 621.409Z"/><path fill="#FDFDFE" d="M215.105 530.482C216.647 531.014 222.625 540.763 228.698 543.204C241.169 548.217 249.66 544.207 255.168 532.618C286.692 540.924 308.598 568.01 324.765 594.697C330.285 603.809 335.488 612.76 339.864 622.493C329.027 626.993 314.407 631.64 302.981 633.862C301.353 615.45 299.587 597.443 293.711 579.777C292.903 577.349 291.11 570.292 288.565 569.623C287.197 571.591 288.62 574.791 289.41 576.888C296.358 595.312 299.201 614.468 300.588 634.133C293.957 634.782 286.821 634.226 280.843 631.074C267.544 624.063 238.414 584.935 227.992 571.41C224.139 566.411 219.71 558.803 214.038 555.769C213.006 555.218 213.458 555.245 212.519 555.531C212.59 555.738 212.662 555.945 212.734 556.152C230.873 580.578 250.669 604.36 271.068 626.967C287.971 645.7 317.494 633.632 337.305 626.518C352.307 621.021 367.247 615.358 382.123 609.529C388.667 632.447 395.773 655.201 403.433 677.771L405.574 684.008C391.35 689.347 377.049 694.475 362.674 699.392C361.263 697.512 359.832 695.647 358.38 693.798C348.668 681.513 338.848 671.713 322.633 669.602C299.689 666.614 285.205 683.765 269.045 697.215C260.155 704.606 251.151 711.859 242.037 718.973C217.278 702.331 197.469 676.661 179.194 653.378C177.578 651.32 175.01 647.479 172.527 647.16L172.344 647.848C174.245 652.305 180.886 660.215 183.977 664.22C201.045 686.335 217.601 703.774 239.388 721.166C229.885 729.221 215.244 740.795 205.244 747.671C175.924 740.86 160.893 738.569 130.498 738.489C130.23 720.301 133.562 692.897 136.189 674.485C140.584 643.69 143.779 606.338 157.05 578.077C169.177 552.251 189.094 539.579 215.105 530.482Z"/><path fill="#D9D8DF" d="M953.574 137.443C982.167 143.48 996.914 164.82 991.703 193.751C988.901 209.306 985.781 224.796 982.713 240.308L966.695 321.477L921.884 551.691L878.096 775.806C870.707 813.71 864.041 851.736 855.903 889.489C851.298 910.856 838.929 919.745 818.477 924.329C811.408 924.951 804.609 924.792 797.662 923.343C817.943 915.384 827.025 907.315 833.14 885.487C836.261 874.343 837.776 863.539 839.938 852.237L850.33 798.989L884.868 625.185C905.365 524.301 925.345 423.313 944.806 322.224L961.336 236.804C964.404 221.008 967.809 205.048 970.421 189.18C974.697 163.211 967.669 156.777 953.574 137.443Z"/><path d="M948.96 346.937C949.828 346.932 954.342 346.967 954.144 348.281C951.97 362.718 948.995 389.652 942.954 402.275C941.011 402.159 939.086 402.197 937.729 400.626C937.53 395.389 946.537 351.296 948.96 346.937Z"/><path d="M963.661 272.787C966.071 273.119 967.565 272.984 968.728 275.252C968.461 283.962 961.597 319.794 957.924 327.283C955.684 327.316 954.193 326.299 953.207 324.401C953.099 318.418 961.019 278.002 963.661 272.787Z"/><path fill="#FDFDFE" d="M620.174 77.1779C624.452 76.7177 634.658 78.1506 638.938 78.9445C663.526 83.5055 688.07 88.4467 712.636 93.1222L837.498 116.341L903.236 128.52C909.334 129.649 917.29 131.595 923.299 132.237C955.761 135.708 973.98 156.526 967.76 190.608C937.114 350.773 905.602 510.771 873.225 670.596L844.908 814.016L836.492 856.93C832.392 877.816 830.157 901.143 811.373 914.128C794.065 926.094 770.718 919.595 751.434 916.107C735.983 913.309 720.553 910.397 705.145 907.371L594.343 886.805C593.091 884.67 591.811 882.03 590.657 879.801C607.805 882.048 624.297 885.686 641.295 888.809L727.743 904.592C748.521 908.404 769.319 913.261 790.517 913.759C804.711 914.093 818.094 904.679 822.397 891.086C827.264 875.712 829.719 859.482 832.836 843.645L848.416 765.079L902.387 494.409C908.286 466.54 913.617 437.702 919.025 409.683L942.407 289.107L954.961 223.84C957.85 209.042 961.425 193.73 962.657 178.725C963.267 171.564 962.039 164.813 958.365 158.579C948.348 141.581 925.407 139.72 907.977 136.434L866.668 128.716L742.409 105.745L664.189 90.8651C651.524 88.4143 637.812 85.2204 625.112 83.655C618.141 83.2112 610.436 85.1066 604.594 88.7436C588.478 98.7772 586.026 116.757 582.665 133.771L576.396 165.34L555.028 272.47L495.84 568.757L478.073 658.241C474.987 674.055 472.261 690.982 468.673 706.6L462.957 700.038C470.101 660.439 479.065 618.951 486.964 579.351L533.793 344.557L564.832 189.581L574.608 140.78C576.516 131.193 578.368 121.669 580.493 112.122C584.822 92.6786 600.389 79.3425 620.174 77.1779Z"/><path fill="#FDFDFE" d="M465.428 875.604C467.559 877.467 473.543 885.332 475.523 887.884C464.087 890.581 450.48 912.691 445.193 922.635C449.954 927.417 453.786 931.917 458.875 936.757C461.904 932.429 464.356 926.67 467.372 922.144C472.945 913.78 480.217 907.14 487.404 900.216C489.127 905.358 490.011 906.732 493.298 910.906C490.917 912.5 487.579 914.251 487.611 917.376L488.542 917.805C491.718 916.905 492.642 915.109 494.616 912.515C496.642 915.292 503.328 923.671 502.664 926.67C501.575 927.463 500.999 927.702 500.402 928.886C500.546 930.245 500.496 930.161 501.406 931.175C502.215 931.18 502.775 931.167 503.594 931.116L504.347 931.064C507.087 932.738 514.227 950.612 515.855 954.5L500.662 954.495C459.889 954.274 414.394 953.751 373.817 954.95L372.002 948.715C391.959 947.545 424.161 954.88 431.352 930.936C433.508 923.758 431.736 918.591 428.399 912.352C442.408 897.983 448.666 887.921 465.428 875.604Z"/><path fill="#FEBE51" d="M424.144 546.019C434.006 547.143 457.792 553.816 465.612 559.517C464.849 570.463 459.117 583.713 455.596 594.267C452.099 604.75 448.678 615.963 444.827 626.253C444.598 625.714 444.356 625.181 444.103 624.653C441.436 619.128 439.631 617.509 434.001 615.518C418.564 613.674 406.363 620.451 392.445 626.023C398.993 609.362 404.39 591.512 410.512 574.621C413.471 566.457 415.938 557.198 420.052 549.57C421.026 547.765 422.398 547.03 424.144 546.019Z"/><path fill="#FDFDFE" d="M445.689 857.022C447.174 857.398 458.467 873.481 460.089 875.706C447.128 886.036 441.096 895.312 429.662 906.28C410.676 907.383 389.54 909.093 370.621 910.838L363.698 911.628C360.998 903.273 357.833 889.495 356.171 880.874C385.993 875.882 417.141 866.81 445.689 857.022Z"/><path fill="#FDFDFE" d="M265.427 461.519C268.632 464.593 270.493 475.265 271.229 479.262C273.791 493.176 271.88 510.762 255.722 515.101C252.298 516.02 245.328 515.925 243.696 518.351C243.675 522.89 249.171 529.27 252.03 532.995C245.405 543.705 237.562 544.25 226.915 538.979C223.081 536.154 221.552 534.128 218.856 530.374C225.38 518.697 225.915 505.595 225.531 492.502C220.152 491.572 217.92 491.133 215.184 485.916C212.902 481.565 216.524 473.506 221.004 472.045C224.522 470.897 230.601 472.536 234.425 471.562C245.177 469.332 255.253 465.567 265.427 461.519Z"/><path fill="#FDFDFE" d="M377.116 957.78C392.028 956.869 411.692 957.393 426.89 957.39L517.494 957.499C517.721 957.857 517.945 958.218 518.166 958.58C520.249 962.028 527.509 973.746 526.694 977.133L525.625 977.493L379.346 977.483C378.492 973.578 374.516 960.996 375.681 958.242L377.116 957.78Z"/><path fill="#FDFDFE" d="M581.961 872.534C585.13 875.58 591.132 887.053 593.564 891.54C585.973 895.775 577.856 901.482 570.34 906.121C556.73 914.631 542.199 921.57 527.025 926.805C523.295 928.056 518.797 929.552 514.751 929.664C513.337 929.704 512.858 928.772 511.936 927.756C505.979 919.373 501.532 912.802 497.179 903.402L581.961 872.534Z"/><path fill="#FDFDFE" d="M587.293 957.204C595.138 956.57 606.11 956.945 614.165 956.956L660.982 957.007C663.977 962.799 667.16 971.272 669.143 977.483C649.345 977.6 629.547 977.607 609.75 977.504L530.636 977.485C529.59 974.841 528.145 971.804 526.962 969.168C535.886 967.121 546.109 966.418 555 964.4C566.674 961.75 575.078 958.061 587.293 957.204Z"/><path fill="#FDFDFE" d="M425.776 617.643C442.756 616.872 446.314 629.156 441.985 643.344C436.933 659.9 423.122 668.162 408.682 675.437C407.838 675.621 407.324 675.671 406.468 675.774C403.56 672.728 392.759 636.565 391.107 629.908C401.895 624.62 413.967 619.735 425.776 617.643Z"/><path fill="#FEBE51" d="M419.268 909.704C421.57 909.532 424.29 909.132 426.465 909.655L426.825 910.414C424.434 916.698 429.36 916.918 429.509 922.627C430.26 951.389 395.358 946.209 376.375 945.971L371.418 945.878C368.851 935.395 366.412 924.881 364.104 914.338C380.907 911.885 402.06 910.847 419.268 909.704Z"/><path fill="#FEBE51" d="M594.984 894.472C595.398 897.334 588.542 903.629 586.464 905.861C573.915 919.339 567.121 934.453 562.646 952.061C551.683 954.356 539.91 955.659 528.698 957.764L520.811 948.156C516.888 943.632 513.283 938.842 510.022 933.82C529.222 931.353 554.857 918.825 571.66 908.876C579.618 904.164 586.342 898.94 594.984 894.472Z"/><path fill="#FEBE51" d="M415.262 750.468C419.019 754.061 424.012 761.726 426.975 766.263C443.783 792.129 457.37 819.951 467.434 849.11C463.274 850.067 459.094 851.271 454.972 852.407C452.586 851.498 448.002 839.738 446.479 836.659C437.913 819.717 428.813 803.049 419.192 786.682C413.807 777.444 407.785 767.771 402.732 758.422C406.792 755.732 411.131 753.079 415.262 750.468Z"/><path fill="#FDFDFE" d="M475.552 889.951C480.553 893.119 482.326 893.712 485.527 898.647C473.246 908.791 465.937 917.052 458.694 931.326L458.396 931.441C456.208 930.929 450.665 924.037 448.824 921.921C454.825 908.457 464.451 899.229 475.552 889.951Z"/><path fill="#FDFDFE" d="M613.534 901.467C616.514 903.382 619.298 906.088 621.941 908.493C611.497 915.81 606.172 921.712 598.565 931.701L598.165 931.861C596.312 931.271 592.33 928.295 590.553 927.059C597.804 916.323 603.849 909.983 613.534 901.467Z"/><path fill="#FDFDFE" d="M307.537 766.428C309.22 768.377 312.029 788.255 312.707 792.22L304.277 787.741L293.792 782.264C297.162 777.593 303.44 771.4 307.537 766.428Z"/><path fill="#FDFDFE" d="M451.908 859.783C455.957 860.319 473.225 861.924 473.662 866.846C472.333 868.373 472.15 868.052 469.944 868.855C467.098 870.144 464.55 871.934 461.929 873.643C457.939 869.166 455.082 864.834 451.908 859.783Z"/><path fill="#FDFDFE" d="M473.91 870.489C477.129 872.314 482.526 886.185 481.998 889.732L481.289 889.822L479.643 888.001C475.554 883.103 471.564 878.391 467.755 873.268C469.819 872.093 471.722 871.384 473.91 870.489Z"/><path fill="#FDFDFE" d="M515.616 946.788C517.907 948.094 523.605 955.608 525.542 958.062C518.848 959.496 517.578 951.955 515.616 946.788Z"/><path fill="#FDFDFE" d="M491.101 900.397C495.396 902.596 497.223 909.107 498.555 913.434C493.865 909.236 492.521 906.438 491.101 900.397Z"/><path fill="#D9D8DF" d="M505.037 923.319C507.513 924.785 509.956 929.193 510.569 932.015C507.264 929.921 506.261 926.844 505.037 923.319Z"/><path d="M418.628 534.429L419.247 534.243C418.002 535.479 416.829 536 415.303 536.846C414.716 536.384 414.972 536.556 414.709 535.548L414.998 535.113C416.421 534.714 417.194 534.622 418.628 534.429Z"/><path d="M22.0626 804.734C23.3727 804.775 24.6764 804.911 25.987 804.95L26.0047 806.041L25.7806 806.528C24.5909 806.094 23.4748 805.725 22.2011 805.839L22.0626 804.734Z"/></svg>