<?xml version="1.0" encoding="utf-8" ?><svg xmlns="http://www.w3.org/2000/svg" xmlns:xlink="http://www.w3.org/1999/xlink" width="1024" height="1024" viewBox="0 0 1024 1024"><path d="M657.953 213.019C658.399 205.965 658.881 198.656 659.325 191.578C659.382 190.681 660.664 188.761 661.198 187.914C660.262 184.562 642.628 178.18 638.481 176.512C619.763 168.934 600.618 162.458 581.143 157.117C574.339 155.206 567.871 154.044 561.08 152.236C559.651 151.856 559.3 151.501 558.753 150.357C562.467 148.231 583.514 154.433 588.066 155.671C615.725 162.932 642.461 173.337 667.751 186.683C673.228 186.165 683.648 184.214 687.954 187.548C692.069 190.734 694.338 208.868 697.06 210.004C701.355 211.799 712.126 214.305 717.498 216.215C722.883 211.25 728.366 206.141 734.733 202.453C742.659 206.569 750.192 212.22 755.573 219.415C752.913 224.634 748.453 234.275 746.221 239.819C750.998 245.594 753.478 249.944 757.207 256.421C764.075 256.58 772.388 256.645 779.21 257.321C776.78 254.706 762.567 240.338 761.759 238.091L762.298 237.009L761.659 237.734L761.752 236.854C767.886 237.679 797.263 273.652 802.455 280.237C870.099 366.018 896.097 478.305 873.259 585.093C871.596 592.873 868.612 601.446 867.721 609.392C867.762 616.092 869.665 626.328 869.887 633.837C870.419 651.778 870.646 671.365 870.281 689.291C869.951 705.504 872.202 736.81 868.052 751.082C865.454 760.135 859.993 768.103 852.488 773.793C840.86 782.505 829.256 782.977 815.437 783.029C815.915 805.268 820.625 829.265 822.199 851.638C822.688 858.592 823.547 865.714 823.429 872.695C815.769 866.326 807.336 858.165 800.08 851.201C782.872 834.686 766.247 818.097 748.925 801.644C726.034 818.97 711.549 829.432 685.687 843.13C615.196 879.574 535.055 893.004 456.534 881.534C409.313 874.652 363.885 858.638 322.787 834.387C314.088 829.268 302.223 821.954 294.622 815.207C295.484 814.536 296.338 813.855 297.185 813.164C306.202 819.427 315.793 826.187 325.222 831.735C370.784 858.237 421.478 874.709 473.915 880.052C571.794 890.255 669.709 861.075 746.036 798.957C740.554 793.661 735.103 788.332 729.683 782.973C716.589 782.665 702.326 782.962 689.122 782.959L607.842 782.976C592.859 782.989 564.808 783.801 550.996 782.036C541.436 780.822 532.149 778.008 523.523 773.711C501.27 762.734 482.87 741.454 475.122 717.898C473.255 712.188 472.058 706.28 471.557 700.292C470.675 689.488 471.018 677.032 471.034 666.095L471.004 616.881L470.982 574.322C470.981 566.504 470.675 555.666 471.506 548.18C472.504 539.478 475.014 531.017 478.923 523.179C487.94 505.717 503.513 492.543 522.227 486.545C528.997 484.348 536.015 483.003 543.118 482.54C554.399 481.815 568.002 482.396 579.572 482.442L640.704 482.431L697.651 482.315C708.946 482.297 724.968 481.939 735.761 483.292C751.757 485.425 767.268 490.293 781.615 497.681C815.131 514.739 842.547 542.348 857.026 577.106C860.619 585.732 862.883 592.649 865.811 601.571C875.796 563.936 879.666 524.94 877.275 486.076C873.665 419.695 851.212 357.04 814.244 302.07C808.93 294.169 792.967 272.243 786.434 266.383C785.358 264.807 783.706 262.609 782.197 261.475L781.768 261.824L782.287 264.148C783.208 269.096 785.519 278.007 782.951 282.319C779.913 287.421 763.728 288.514 762.286 292.831C760.161 299.193 758.433 308.915 756.518 315.795C761.49 321.081 767.05 327.128 771.727 332.656C768.346 338.507 760.227 350.251 755.732 355.281C749.624 353.383 738.956 348.448 733.071 345.408C725.245 350.701 720.585 353.829 711.829 357.776C710.754 365.517 709.85 373.281 709.119 381.062C701.033 382.715 692.09 384.479 683.843 384.516C679.746 376.784 677.435 370.2 674.42 362.036C664.837 360.53 660.175 359.734 650.893 356.025C644.514 361.1 639.03 366.058 632.321 370.764C625.521 365.807 617.453 359.687 611.536 353.684C613.458 347.103 617.684 338.68 620.717 332.363C615.893 325.595 611.932 319.238 608.706 311.523C600.857 310.254 591.256 309.604 583.209 308.878C581.954 300.996 580.717 290.459 580.87 282.511C589.194 279.406 597.668 277.341 605.72 274.225C607.496 266.877 609.352 260.638 611.52 253.408C605.654 246.491 599.755 240.068 594.251 232.849C598.919 226.377 606.199 217.063 612.2 212.183C614.687 213.197 616.926 214.18 619.361 215.439C624.221 217.952 628.62 221.512 633.695 223.573C633.862 223.641 635.765 223.022 635.984 222.917C643.637 219.313 649.74 215.478 657.953 213.019ZM688.742 332.305C714.086 329.078 732.049 305.966 728.921 280.611C725.793 255.255 702.752 237.201 677.384 240.23C651.876 243.276 633.701 266.473 636.846 291.969C639.991 317.465 663.259 335.55 688.742 332.305Z"/><path fill="#FEFEFE" d="M544.783 486.697C546.618 486.585 548.456 486.521 550.294 486.507L655.159 486.555L698.048 486.535C715.918 486.532 733.635 485.804 751.093 490.254C777.628 497.017 801.674 511.617 821.12 530.734C846.503 555.749 862.284 588.891 865.703 624.364C866.948 637.074 866.596 651.275 866.62 664.156C866.604 681.728 866.686 699.3 866.867 716.871C867.032 735.685 868.512 752.96 854.299 767.087C841.711 779.6 827.29 778.975 810.878 779.021C812.935 807.356 816.784 835.634 819.251 863.929L812.344 857.164C785.489 830.928 758.452 804.88 731.233 779.021C716.805 778.65 701.724 778.97 687.246 778.98L607.806 779.032C591.663 779.07 560.509 780.073 546.011 777.204C532.396 774.441 519.64 768.458 508.811 759.755C490.814 745.465 477.917 723.82 475.467 700.85C474.256 689.493 474.601 677.589 474.657 666.144L474.855 619.882L474.744 581.618C474.632 569.392 473.961 555.657 476.179 543.773C478.279 532.46 483.132 521.838 490.308 512.843C504.248 495.649 523.409 488.929 544.783 486.697Z"/><path d="M662.34 512.166C729.995 510.018 786.59 563.103 788.773 630.756C790.956 698.41 737.901 755.033 670.248 757.25C602.546 759.47 545.873 706.367 543.689 638.664C541.504 570.961 594.636 514.316 662.34 512.166Z"/><path fill="#FEFEFE" d="M663.083 555.737C696.792 555.123 734.903 557.727 724.865 606.987C722.61 618.052 710.748 626.106 701.11 631.115C703.762 632.231 706.403 633.374 709.031 634.545C732.75 645.22 739.269 666.124 729.392 690.617C725.15 701.138 716.51 706.755 706.093 710.624C690.865 714.638 673.922 713.558 658.088 713.536L612.307 713.478L612.508 556.009C629.367 556.033 646.226 555.942 663.083 555.737Z"/><path d="M632.051 639.499L659.79 639.459C682.055 639.443 714.2 637.453 713.573 669.965C713.406 678.628 712.202 684.293 705.694 690.61C692.035 699.662 677.753 698.171 662.105 698.035L632.294 697.874L632.051 639.499Z"/><path d="M632.227 570.587L657.095 570.47C680.209 570.378 710.325 568.529 705.945 602.497C705.141 608.727 702.594 612.679 698.684 617.36C688.31 626.319 672.865 624.994 660.039 624.998L632.152 625.01C631.888 606.869 631.913 588.726 632.227 570.587Z"/><path d="M677.673 244.157C701.038 241.231 722.323 257.876 725.117 281.257C727.911 304.639 711.147 325.829 687.75 328.492C664.539 331.133 643.552 314.531 640.781 291.335C638.009 268.139 654.492 247.059 677.673 244.157ZM686.244 326.282C708.164 324.453 724.51 305.294 722.866 283.359C721.222 261.425 702.201 244.917 680.253 246.377C658.042 247.854 641.294 267.152 642.958 289.35C644.622 311.548 664.061 328.133 686.244 326.282Z"/><path d="M184.707 178.601C197.087 177.767 216.439 178.469 229.466 178.475C261.478 178.357 293.49 178.437 325.5 178.717L404.829 178.534C418.834 178.531 433.389 178.361 447.389 179.283C451.622 179.562 458.178 182.592 461.255 185.468C467.798 191.582 469.627 199.083 469.715 207.663C469.892 224.931 469.806 242.245 469.811 259.507L469.725 364.176L469.908 417.14C469.95 427.486 470.259 438.656 469.29 448.931C468.869 453.389 465.346 459.725 462.214 462.923C452.577 472.765 439.209 471.528 426.569 471.479C419.924 471.459 413.279 471.476 406.634 471.53L394.555 512.57C390.11 526.975 386.541 541.649 381.961 556.015C381.084 558.768 380.167 561.497 379.617 564.337C373.525 556.218 367.313 546.085 361.714 537.458C352.122 522.528 342.303 507.747 332.258 493.118C327.5 486.158 322.629 478.648 317.525 472.026C302.939 471.607 287.35 472.154 272.736 472.319C254.7 472.432 236.664 472.431 218.628 472.316C207.141 472.261 181.467 473.787 172.311 468.582C165.995 464.976 161.436 458.936 159.7 451.873C158.571 447.24 158.973 428.683 158.974 423.184L159.011 366.781L159.025 259.899C159.031 242.149 158.933 224.393 159.127 206.645C159.306 190.393 169.708 181.75 184.707 178.601Z"/><path fill="#A9A0F0" d="M184.563 182.601C188.087 182.523 191.61 182.466 195.134 182.432C250.388 181.888 306.858 182.505 362.188 182.497L415.872 182.451C424.165 182.442 432.729 182.528 440.995 182.57C461.705 182.674 465.823 194.998 465.947 213.227L465.952 373.98L465.998 419.928C466.018 428.414 466.662 439.928 465.435 447.976C462.279 468.674 439.867 468.062 423.992 467.527C416.963 467.29 410.189 467.445 403.472 467.397C400.014 479.75 396.458 492.076 392.805 504.373C387.779 521.592 383.609 538.629 378.073 555.798C364.337 533.723 349.084 512.678 334.95 490.871C329.783 482.9 325.369 475.649 318.999 468.528C312.041 467.611 298.055 468.325 290.37 468.394L223.208 468.442C209.346 468.461 186.344 470.576 173.503 464.872C165.182 459.876 162.596 451.582 162.576 442.774C162.552 432.185 162.518 421.76 162.538 411.595L162.579 336.819L162.533 252.353C162.529 237.477 162.405 222.622 162.746 207.748C163.095 192.55 170.501 185.881 184.563 182.601Z"/><path d="M301.409 241.992C309.289 241.746 317.726 241.858 325.649 241.83C331.324 258.167 339.709 278.082 346.035 294.577L389.938 409.006L367.342 409.02C362.012 394.465 356.609 379.938 351.133 365.438L324.75 365.438L274.916 365.434C269.957 379.817 263.817 394.704 258.373 409.044L236.413 408.886C238.799 402.547 241.366 396.124 243.905 389.843C263.729 340.789 282.369 291.341 301.409 241.992Z"/><path fill="#A9A0F0" d="M313.483 264.754C315.75 268.062 321.765 285.1 323.531 289.851L344.368 346.58C333.907 346.435 323.319 346.505 312.847 346.491C302.766 346.529 292.686 346.422 282.608 346.17C285.457 336.942 290.691 325.003 294.226 315.739L313.483 264.754Z"/><path fill="#FEBE51" d="M294.622 815.207C234.57 861.913 148.073 851.36 101.012 791.586C53.951 731.812 63.9915 645.254 123.486 597.839C182.98 550.425 269.596 559.953 317.362 619.165C365.128 678.378 356.113 765.049 297.185 813.164C296.338 813.855 295.484 814.536 294.622 815.207Z"/><path d="M208.981 635.574C211.261 628.499 214.182 622.853 220.871 618.872C226.868 615.304 234.084 614.407 240.772 616.398C247.419 618.353 250.951 622.226 254.056 628.047C265.602 632.655 270.275 636.644 273.876 648.998C285.459 657.7 288.062 666.604 285.257 680.734C286.351 681.6 287.421 682.496 288.465 683.422C296.26 690.41 297.597 702.157 294.306 711.684C292.304 717.475 288.585 721.844 284.553 726.327C284.867 727.037 285.172 727.751 285.468 728.469C289.929 739.322 286.963 754.351 278.278 762.223C273.595 766.467 268.553 768.689 262.726 770.838C261.668 785.442 254.961 794.261 240.499 797.846C224.648 800.069 216.53 795.069 209.009 781.336C207.751 783.632 206.402 786.04 204.785 788.031C191.327 804.596 160.426 801.299 155.121 778.866C154.389 775.769 154.162 773.144 153.883 770.03C134.79 761.479 126.666 746.854 132.868 726.472C123.775 718.775 120.734 709.814 122.303 698.044C123.393 689.867 126.784 686.09 133.066 681.34C131.418 668.893 135.421 656.423 146.388 649.469C149.944 639.333 152.746 631.203 164.568 628.794C169.42 620.413 172.507 618.428 181.47 615.564C197.48 614.738 203.143 622.197 208.981 635.574Z"/><path fill="#FEFEFE" d="M230.924 619.115C240.765 618.55 244.388 621.114 250.619 628.054C233.955 632.021 226.72 641.054 226.987 658.405C227.057 663.016 229.865 681.726 235.512 681.124C236.79 679.488 233.612 672.483 232.819 670.278C228.217 657.47 229.824 640.632 243.451 633.986C247.738 631.854 252.719 631.601 257.201 633.287C264.454 636.059 267.928 642.159 270.872 648.763C267.599 651.629 259.885 657.894 259.197 661.958L259.842 662.271C263.904 660.868 269.189 655.411 272.54 652.325C281.52 658.942 287.142 673.036 280.287 682.87C278.184 685.885 272.94 688.828 272.658 692.532C276.289 692.647 282.442 686.547 285.062 684.131C296.155 695.114 294.615 713.389 282.335 722.841C278.696 722.283 270.913 719.154 269.241 723.118C271.561 727.067 279.454 724.167 282.868 731.147C289.234 755.614 268.326 774.122 244.719 765.473C230.106 760.119 232.389 741.476 227.682 739.405C223.641 743.811 230.61 758.249 234.263 762.235C241.499 770.132 249.383 770.692 259.124 771.512C257.592 782.195 252.959 790.793 242.045 794.155C235.646 796.083 228.735 795.293 222.936 791.969C207.895 783.318 210.975 768.167 211.018 753.374L211.026 712.668L210.975 669.5C210.838 650.339 206.263 624.18 230.924 619.115Z"/><path d="M241.169 705.522C252.483 705.093 257.132 712.55 261.871 721.592C264.188 726.011 269.998 742.922 263.72 745.433C261.7 744.183 262.411 741.31 262.345 738.607C262.18 731.931 260.574 727.894 257.76 721.971C251.67 710.164 241.515 702.683 232.666 717.145C230.82 720.16 230.536 725.532 227.352 727.07L226.714 726.464C224.292 717.285 233.622 708.973 241.169 705.522Z"/><path fill="#FEFEFE" d="M181.921 619.065C210.017 618.887 207.338 647.723 207.329 667.404L207.302 707.683L207.448 748.471C207.462 757.436 207.627 766.202 206.685 775.146C204.758 793.454 179.551 800.706 166.137 789.821C159.485 784.424 158.761 778.865 157.694 770.901C159.539 771.182 161.896 771.458 163.768 771.507C170.622 771.738 177.264 769.11 182.104 764.252C187.966 758.317 190.379 749.956 190.363 741.717C190.359 740.104 190.172 739.986 189.289 739.146L188.169 739.354C186.658 740.893 186.01 752.236 182.888 757.195C172.9 773.062 153.254 770.122 141.93 757.921C137.728 753.395 136.02 749.194 134.543 743.029C133.832 736.82 134.395 733.452 136.13 727.612C138.977 727.424 145.488 727.071 146.895 724.239L146.294 723.398C142.092 721.94 139.243 722.962 134.788 723.761C122.934 712.917 121.661 695.732 134.297 684.88C136.905 688.51 139.247 692.368 143.593 693.814L144.166 693.295C143.488 689.635 137.873 683.025 135.418 679.256C136.707 667.793 138.17 658.046 149.548 652.338C152.308 654.798 157.627 660.918 161.4 660.982L161.785 660.185C159.963 655.527 154.234 651.475 150.313 648.519C150.474 648.081 150.632 647.642 150.811 647.21C153.122 641.609 156.584 635.595 162.496 633.257C166 631.872 169.703 632.333 173.033 633.966C176.812 635.819 180.125 639.023 182.547 642.447C194.626 659.522 180.274 677.736 181.949 682.668L182.608 682.891C185.121 681.698 187.079 678.062 187.813 675.493C194.416 652.369 191.897 636.998 167.876 628.622C172.318 622.829 175.254 621.184 181.921 619.065Z"/><path d="M168.998 705.552C178.904 705.247 186.678 712.739 189.852 721.972C190.208 723.009 190.233 724.426 189.638 725.389L188.644 725.389C186.741 723.964 186.174 722.278 185.085 720.119C183.337 717.476 181.328 715.116 179.285 713.036C171.883 705.497 169.991 712.006 162.028 712.199C160.601 712.233 159.921 712.047 159.102 711.102C160.311 708.331 166.262 706.303 168.998 705.552Z"/><path d="M162.106 719.747L163.194 720.308C163.948 723.702 158.82 726.333 157.673 728.875C154.698 735.47 159.368 738.526 156.213 746.02C151.699 741.977 152.279 734.486 154.113 729.26C155.824 724.385 157.795 722.274 162.106 719.747Z"/><path d="M967.589 502.732C972.482 503.244 974.415 519.377 979.052 523.424C983.486 527.293 985.267 528.947 990.961 530.893C994.324 532.043 1004.85 533.349 1005.22 536.791C1002.07 540.89 992.58 539.389 986.159 543.659C975.566 550.704 973.761 558.392 970.687 569.642C965.11 571.457 965.531 566.339 964.553 562.495C962.215 553.301 956.332 546.382 947.71 542.451C944.35 540.919 936.562 539.451 934.612 536.832C935.512 532.011 948.311 532.302 954.479 526.925C964.391 518.285 962.415 510.892 967.589 502.732ZM943.946 536.497C954.356 540.661 961.53 544.737 966.016 555.647C966.566 556.985 967.877 560.317 968.813 561.203C974.023 547.341 979.025 541.401 993.023 536.488C983.201 532.55 976.764 529.487 971.738 519.111C970.718 517.005 969.796 513.218 968.287 511.796C962.156 524.549 959.221 531.125 944.977 536.147C944.635 536.269 944.292 536.386 943.946 536.497Z"/><path d="M77.7963 525.934C81.1324 527.077 81.8655 530.621 82.4155 533.934C84.6087 547.149 93.0062 553.307 105.079 557.188C107.937 558.107 111.405 558.297 113.939 559.753L114.155 560.592C111.237 564.228 100.728 564.792 94.9326 568.57C84.7735 575.193 83.1117 583.765 80.4951 594.828C75.1389 593.687 74.2636 581.602 69.821 574.895C64.9618 567.56 45.1973 564.458 45.2892 560.359C47.992 557.228 55.6325 556.33 59.7975 554.454C74.7408 547.725 73.3279 537.116 77.7963 525.934ZM53.1916 561.115C66.7514 566.361 74.5551 569.624 79.0564 584.866C84.8593 569.213 89.2074 565.819 104.771 560.566C95.4284 558.525 88.4557 554.696 83.0018 546.439C81.1854 543.689 80.1072 539.413 78.6587 537.813C72.9575 552.118 67.486 556.146 53.1916 561.115Z"/><path d="M775.147 296.129C779.694 297.216 792.698 315.671 793.179 320.721C789.339 320.107 775.741 300.372 775.147 296.129Z"/><path d="M800.485 332.335C804.487 333.907 809.887 345.588 810.044 349.931C806.059 348.288 799.461 336.433 800.485 332.335Z"/><path d="M829.048 394.184C834.142 396.57 836.337 406.032 835.928 411.275C832.074 409.204 829.078 398.153 829.048 394.184Z"/><path d="M709.361 789.881C710.541 790.699 710.113 790.179 710.688 791.5C709.687 794.303 702.069 798.717 699.235 800.577L697.839 800.195L697.522 799.269C698.683 796.205 706.371 791.649 709.361 789.881Z"/><path d="M816.493 362.905C820.919 364.854 823.857 374.739 824.499 379.362C820.149 378.335 816.621 367.059 816.493 362.905Z"/><path d="M323.387 798.229C328.064 799.144 335.519 803.521 337.147 808.152C332.354 808.007 324.501 803.209 323.387 798.229Z"/><path d="M564.819 179.423C567.46 179.384 574.41 180.799 576.9 181.78C579.853 182.943 579.745 182.999 580.818 185.427C578.39 185.626 570.59 184.077 568.22 182.922C565.432 181.565 565.838 181.804 564.819 179.423Z"/><path d="M347.982 813.903C352.8 814.205 361.078 818.604 363.826 822.669C359.071 822.424 349.713 818.639 347.982 813.903Z"/><path d="M849.179 522.276C849.695 522.614 850.058 523.059 850.508 523.515C851.84 527.805 850.65 534.489 849.523 538.813C845.538 536.291 847.68 526.175 849.179 522.276Z"/><path d="M849.519 489.749L850.659 490.81C852.252 495.59 851.901 502.053 850.435 506.848C847.313 502.383 847.423 494.575 849.519 489.749Z"/><path d="M494.906 853.269C497.947 853.168 506.883 852.414 509.355 854.38C510.02 854.908 509.777 855.171 509.804 856.228C505.999 856.23 499.851 857.348 496.261 855.921C495.038 855.434 495.087 854.315 494.906 853.269Z"/><path d="M845.384 456.809C848.7 459.642 849.016 469.561 848.261 473.728C844.231 471.426 844.183 460.898 845.384 456.809Z"/><path d="M595.571 188.451C600.115 188.899 609.4 191.377 611.927 195.566C608.057 195.614 602.149 193.604 598.584 191.936C596.183 190.813 596.288 190.594 595.571 188.451Z"/><path d="M682.944 807.46L684.053 807.704C685.26 810.765 675.131 814.962 672.694 816.031L671.404 815.691L671.051 814.775C672.533 811.922 679.901 808.676 682.944 807.46Z"/><path d="M464.04 851.187C468.963 850.856 477.397 850.671 480.58 854.842C477.338 855.25 469.484 854.828 466.318 853.739C464.541 853.128 464.615 852.594 464.04 851.187Z"/><path d="M375.653 827.037C380.217 827.386 389.582 830.241 391.792 834.579C387.156 834.148 377.796 831.517 375.653 827.037Z"/><path d="M533.388 173.564C538.069 173.344 547.22 173.872 549.498 178.416C545.399 178.156 539.64 177.658 535.788 176.261C534.033 175.625 534.074 175.054 533.388 173.564Z"/><path d="M628.106 832.939C629.635 833.028 628.972 832.787 630.192 833.616L630.106 834.437C627.859 836.83 621.259 838.823 617.864 840.026C617.341 839.998 616.582 839.817 616.042 839.712L615.747 838.847C617.496 836.566 625.01 834.109 628.106 832.939Z"/><path d="M569.316 848.686C570.793 848.696 570.067 848.604 571.558 849.621L571.483 850.242C568.933 852.211 562.195 852.806 558.732 853.288L557.603 853.169L556.824 852.084L556.3 852.571L556.906 852.782C556.455 851.804 556.42 852.214 556.578 851.591C559.508 849.529 565.735 849.108 569.316 848.686Z"/><path d="M433.964 845.416C437.735 845.163 447.628 846.983 450.122 850.144C448.295 850.819 442.548 850.195 440.565 849.64C436.577 848.523 435.862 848.581 433.964 845.416Z"/><path d="M839.076 425.69C839.739 425.906 839.958 426.091 840.569 426.441C842.452 430.152 843.91 437.506 843.691 441.629C839.735 441.541 838.825 428.759 839.076 425.69Z"/><path d="M534.144 852.713C535.988 852.46 539.333 852.245 540.538 853.793C539.106 856.088 534.989 855.813 532.503 855.953C532.003 855.975 531.502 855.991 531.002 856.001C529.079 856.038 527.715 856.091 526.344 854.76L527.012 853.898C529.394 852.641 531.416 852.822 534.144 852.713Z"/><path d="M405.095 837.463C408.865 837.602 418.938 840.303 420.908 844.021C417.781 843.852 412.051 842.488 409.124 841.24C406.297 840.035 406.123 839.958 405.095 837.463Z"/><path d="M503.61 170.74C508.504 170.366 515.094 169.284 517.784 174.035C514.477 174.014 506.992 174.282 504.205 172.522C503.569 172.12 503.733 171.678 503.61 170.74Z"/><path d="M599.41 842.164L600.379 842.389L600.746 843.161C599.105 845.303 591.587 847.077 588.592 847.958C587.128 846.899 587.517 847.573 587.158 846.019C588.689 843.767 596.568 842.688 599.41 842.164Z"/><path d="M656.053 821.399C657.116 821.848 656.672 821.492 657.346 822.512C656.34 825.05 647.723 828.021 645.12 829.015C644.33 829.032 644.779 829.086 643.8 828.697L644.013 827.703C647.067 824.935 652.238 822.94 656.053 821.399Z"/><path d="M472.494 170.267C476.097 169.934 483.175 169.165 486.169 171.197L486.025 171.916L485.136 172.228C482.037 172.635 474.196 173.644 472.079 171.226L472.494 170.267Z"/><path d="M626.967 198.305C630.518 199.404 637.605 200.725 637.032 205.124C633.115 203.957 626.401 203.082 626.967 198.305Z"/><path fill="#FEFEFE" fill-opacity="0.011764706" d="M782.287 264.148L781.768 261.824L782.197 261.475C783.706 262.609 785.358 264.807 786.434 266.383L785.733 266.653C784.368 266.349 783.516 265.223 782.287 264.148Z"/></svg>