<?xml version="1.0" encoding="utf-8" ?><svg xmlns="http://www.w3.org/2000/svg" xmlns:xlink="http://www.w3.org/1999/xlink" width="1024" height="1024" viewBox="0 0 1024 1024"><path fill="#1D1C1D" d="M773.103 53.4607C804.233 53.3911 829.488 62.805 851.797 84.8453C870.776 103.597 881.353 128.711 880.971 155.371C880.547 184.996 869.375 213.117 858.128 240.077C855.975 245.238 850.381 259.679 847.759 264.018C846.793 266.19 845.87 268.381 844.992 270.59L952.678 543.174C959.723 561.022 966.648 579.029 973.737 596.828C985.765 627.023 998.752 657.681 1009.42 688.367C1002.23 692.725 992.645 697.55 985.127 701.597C969.585 710.052 953.965 718.363 938.269 726.528C896.086 749.075 853.566 770.984 810.722 792.248C794.029 800.602 773.502 812.438 756.003 818.788C753.547 819.68 740.793 820.095 737.025 820.266C727.156 820.669 717.289 821.124 707.425 821.63L596.98 828.04L508.977 833.13C497.529 833.786 478.749 833.826 468.202 836.364C462.505 837.734 447.814 846.305 441.837 849.56L405.175 869.393C360.119 894.003 314.886 918.284 269.477 942.235L232.2 962.117C225.381 965.704 216.669 970.428 209.577 973.284C195.336 940.569 183.079 905.319 170.291 871.85L98.5662 682.119L39.8262 525.268C32.0634 504.332 22.4568 481.679 15.7005 460.701C75.6238 429.361 138.673 398.964 199.264 368.718L246.401 345.138C254.733 340.943 268.616 333.393 277.246 330.904C281.323 329.727 297.327 329.14 302.292 328.855L340.994 326.308L488.447 316.088L517.246 314.331C528.929 313.699 539.99 314.219 550.631 308.785C560.273 303.861 569.98 299.011 579.634 294.103L651.054 257.586C662.705 251.633 677.602 243.449 689.304 238.426C673.171 196.17 658.289 161.845 676.499 117.378C688.369 91.7883 707.497 73.1604 733.112 61.6332C746.758 56.1037 758.466 53.7002 773.103 53.4607ZM294.389 378.637C304.128 395.768 311.755 423.597 322.024 441.363L322.017 439.256C321.99 432.67 322.865 432.297 327.993 428.618L326.475 423.759C329.851 421.798 333.177 418.668 336.377 417.06C339.308 415.588 356.217 411.393 357.565 415.091C355.45 420.068 358.289 419.041 357.811 423.851C354.637 429.923 349.541 428.024 344.587 430.02C340.358 431.724 339.441 435.421 338.091 439.28C333.294 442.76 329.546 444.24 323.809 442.601L322.958 442.354L322.711 442.78C323.544 446.894 326.184 453.174 327.674 457.236C331.508 467.686 336.024 478.128 339.733 488.606L381.189 608.045C382.886 612.833 388.567 629.886 390.738 633.245L392.713 627.956C398.448 629.984 403.079 632.564 408.184 634.381C407.126 637.351 405.259 641.367 403.972 644.349C399.893 642.702 396.233 641.25 392.056 639.831C395.056 649.366 398.634 658.146 402.62 667.289C416.598 669.95 420.28 672.431 430.383 682.148C427.998 689.509 422.088 701.53 418.358 708.286C423.383 720.74 428.848 737.5 433.562 750.47C437.94 762.519 444.907 781.382 447.929 793.364C460.492 788.011 475.228 788.938 488.883 788.25L545.423 785.452C591.552 783.433 637.658 780.902 683.731 777.862C701.305 776.674 719.431 775.622 736.954 773.99C729.388 753.473 722.39 731.783 715.018 711.031L643.228 509.313C642.181 511.213 641.358 513.161 640.473 515.141C636.613 523.885 632.542 532.534 628.264 541.081C626.305 544.979 620.051 556.658 619.036 560.434C617.528 565.057 619.801 568.472 616.934 574.606C613.787 581.601 606.635 587.417 603.821 594.234C601.95 598.767 614.012 603.431 612.77 609.009C611.7 613.817 609.53 618.312 607.862 622.938C605.658 628.893 603.914 635.008 602.643 641.229C606.935 648.139 610.497 650.811 613.51 659.023C611.088 663.67 607.767 668.687 605.148 673.552C605.763 678.373 608.576 686.081 607.731 690.452C605.691 701.012 596.149 713.07 587.954 719.57C579.373 712.038 572.893 700.629 564.898 692.306C562.115 689.408 557.22 683.217 556.166 679.424C554.591 673.752 556.196 666.244 554.208 660.495C551.813 653.352 545.318 650.282 540.552 645.041C537.935 643.227 535.404 632.857 533.26 631.715C527.149 628.462 514.729 634.328 508.071 635.409C491.905 638.087 471.056 630.979 466.145 613.844C463.191 603.538 467.354 592.668 470.956 583.102C472.701 578.927 474.109 574.343 476.404 570.418C480.89 562.746 489.734 557.115 498.172 554.762C502.797 553.473 507.179 553.359 511.523 552.022C516.055 549.659 519.927 547.417 525.298 548.342L526.023 549.005C524.784 552.903 516.483 555.014 512.667 556.322C512.044 558.17 512.012 557.287 512.712 559.062C514.699 560.635 517.109 560.846 519.685 561.425L522.544 565.042L523.089 564.871C526.913 563.635 530.21 561.341 533.858 560.933C537.289 560.55 538.34 562.067 542.338 561.2C539.632 554.835 534.285 542.033 529.083 538.02L524.037 536.083C521.968 536.597 519.405 537.437 517.315 538.054C513.084 536.009 510.98 534.948 506.445 533.787C496.484 536.701 493.171 542.908 489.48 551.911C485.35 554.621 481.207 557.403 476.972 559.939C474.826 554.06 471.13 545.905 472.369 539.772C473.522 534.066 479.151 538.151 481.211 538.479L481.265 538.749C484.242 536.436 486.375 535.12 489.371 532.509C485.92 530.865 476.437 522.92 475.809 519.385C477.618 517.273 494.074 511.802 498.923 509.376L498.96 496.519C491.527 492.432 488.282 485.547 485.923 477.807C488.503 472.174 491.024 464.786 492.934 458.877C488.172 445.368 485.511 433.459 484.942 419.061C471.768 416.367 474.829 408.026 485.927 405.252C490.656 388.726 491.014 381.884 501.189 365.834C481.859 367.441 461.64 368.422 442.229 369.594L352.028 375.089C333.046 376.227 313.241 376.655 294.389 378.637ZM381.636 634.668C376.178 633.806 370.452 632.79 364.97 632.322L365.084 621.38C371.166 621.959 377.893 623.107 384.008 623.964C371.169 589.263 360.32 553.654 347.637 518.865C340.287 498.703 333.563 477.815 325.033 458.105L318.368 463.098C321.062 466.299 321.727 466.68 322.644 470.868C335.679 479.623 325.046 479.226 328.298 489.751L326.094 495.048C330.925 499.773 338.501 503.242 340.228 507.331C340.069 510.798 338.199 511.351 335.302 512.899C327.163 507.895 317.872 502.009 311.069 495.38C308.59 506.971 313.411 511.092 304.714 517C300.892 526.985 296.444 538.147 293.326 548.293C304.198 546.461 306.873 544.639 316.581 539.531C306.682 534.915 308.398 533.161 310.597 523.587C314.774 520.276 323.066 514.714 328.281 517.84C328.799 518.683 330.295 522.138 330.392 522.236C335.659 527.591 337.306 531.794 340.138 538.577C342.876 538.993 345.606 539.456 348.327 539.967C348.513 542.572 348.823 545.773 348.88 548.331C345.403 550.135 342.863 551.207 340.123 554.068C336.657 553.192 333.712 552.33 330.3 551.257C329.546 554.565 329.465 555.452 327.457 558.248L326.913 559.012C324.9 561.81 320.003 566.277 319.212 568.305L320.205 571.48C320.815 573.49 316.808 582.021 316.005 586.105C313.721 587.532 311.568 588.851 309.384 590.442C306.961 598.409 305.272 604.081 303.688 612.296C296.717 617 293.705 620.227 286.893 613.688C278.605 616.881 275.401 618.003 269.984 625.412C271.37 628.332 275.388 638.668 277.995 639.62C284.126 641.858 295.074 632.692 295.231 645.043L295.902 645.658C297.487 645.323 297.884 645.015 299.266 644.245C303.855 645.806 315.307 649.667 313.596 656.204C313.27 657.449 310.401 658.947 309.124 658.981C298.787 659.256 287.089 652.523 280.212 645.447L275.143 649.494C260.077 647.906 261.029 646.805 248.16 642.849C243.973 650.379 235.429 668.588 231.289 674.34C230.243 676.262 229.909 676.741 229.357 678.813C230.346 680.679 231.842 678.007 234.002 679.574C235.103 682.474 235.635 688.899 236.162 692.391C232.175 693.407 228.301 694.208 224.279 695.046C223.105 689.084 220.49 685.427 224.268 679.965L224.612 679.479C220.103 670.842 209.615 655.533 203.944 646.274C192.002 626.7 180.532 606.842 169.543 586.717C166.802 582.423 162.134 572.95 159.545 568.098C153.657 565.796 147.973 564.944 142.264 561.544C130.584 566.095 124.116 574.482 112.816 578.616C112.189 578.846 111.11 577.7 110.562 577.26C110.406 574.625 108.362 573.608 108.816 571.092C112.151 568.232 116.46 565.65 118.121 561.815C117.656 554.656 100.95 557.863 121.328 543.412C115.913 532.242 123.629 533.16 129.614 526.734C129.954 525.209 130.136 522.881 130.311 521.276C131.183 517.399 131.826 516.429 134.491 513.465C128.493 496.165 124.137 481.77 123.9 463.112C107.729 470.783 91.0515 479.344 74.8266 486.52C81.1353 504.721 89.229 523.653 95.7002 541.973C96.961 545.542 105.4 568.083 106.619 570.147L109.65 578.452L168.844 735.512C190.396 793.068 212.098 852.028 234.423 909.276C239.689 907.233 250.19 901.286 255.506 898.445C270.308 890.462 285.07 882.403 299.789 874.267C348.236 847.148 396.948 820.505 445.918 794.343L421.542 724.549C417.045 711.515 412.889 698.15 408.115 685.247C403.906 673.872 398.008 662.989 393.201 651.767C389.674 643.534 387.506 632.983 384.316 625.414C383.371 627.824 382.346 632.052 381.636 634.668ZM814.442 366.493L811.345 374.394C813.768 375.545 814.181 375.627 816.054 377.442L816.133 378.307C810.795 381.305 807.012 379.086 805.059 386.171L804.794 387.158C799.548 388.443 795.458 388.749 790.348 389.735L786.909 393.724C782.711 395.314 777.593 398.276 774.101 396.834C770.785 399.458 758.421 413.478 760.375 417.745C763.633 419.144 767.515 416.549 770.317 414.955C776.48 417.592 782.208 421.108 784.823 427.692C785.239 428.764 785.626 429.847 785.983 430.941C789.713 433.208 793.947 435.575 797.195 438.427C798.549 445.19 798.515 448.001 797.885 454.918C799.627 457.449 803.481 462.115 803.002 465.355C802.196 470.799 795.318 470.583 795.816 476.209C796.402 482.826 786.212 484.858 782.171 480.086C781.096 475.508 785.433 474.748 788.943 473.719C792.131 469.009 793.071 467.431 797.324 463.586C791.954 454.243 791.774 454.128 791.649 443.44C789.499 441.315 786.99 438.236 784.039 437.988C781.986 439.503 782.911 441.208 783.438 443.498L783.652 444.449L783.789 445.018C779.619 450.739 774.407 457.911 771.55 464.358C772.399 465.631 775.824 470.33 775.045 471.485C768.113 481.751 762.529 464.827 753.828 466.764C752.644 468.643 755.427 477.893 756.352 480.329C763.463 482.216 769.666 484.411 764.796 492.527C765.763 494.769 769.217 497.606 771.208 499.468C769.648 505.144 769.231 505.095 770.737 510.785C766.683 513.189 745.522 523.728 749.531 529.064C751.48 531.658 763.582 537.416 757.941 543.679C753.368 545.686 750.251 543.332 748.577 546.831C748.961 554.463 760.564 560.811 759.218 567.058C758.302 567.45 758.395 567.623 757.629 567.21C755.417 566.022 752.595 562.747 750.64 560.958C747.501 558.086 744.564 556.222 741.3 553.686C740.073 552.732 739.066 549.343 737.626 547.912C729.985 540.324 720.422 536.914 710.086 536.156C707.215 541.093 706.287 542.242 702.645 546.644C701.612 553.3 701.579 556.783 703.415 563.393C705.721 564.829 706.767 565.326 708.466 567.529L708.758 568.787C707.429 569.999 706.084 569.961 704.209 569.853C690.196 569.05 684.411 554.646 674.611 547.535C670.171 544.314 661.805 541.834 656.443 539.102L700.715 663.874L706.723 680.12C710.751 677.906 712.859 676.768 716.351 673.726C718.231 677.285 720.306 680.295 722.532 683.627L722.075 684.093C719.353 686.832 716.218 690.024 712.371 690.085C711.832 690.09 711.293 690.084 710.754 690.066L710.445 690.558C711.375 694.103 712.706 697.508 713.98 700.939C721.921 722.324 728.987 744.019 736.644 765.506C737.612 768.22 738.613 770.926 739.381 773.705C749.632 769.763 760.923 763.846 770.827 758.891C787.433 750.63 803.951 742.194 820.378 733.585L950.312 666.498C946.741 656.034 944.18 648.354 939.502 638.327C937.799 643.976 932.663 660.103 924.972 659.427C920.778 655.867 927.963 645.835 930.263 642.333C928.95 634.376 928.451 632.343 935.496 627.698C925.425 603.393 833.203 363.541 829.238 361.089C829.213 361.074 829.184 361.069 829.157 361.059C823.867 363.415 819.918 364.706 814.442 366.493ZM519.451 346.068C523.837 342.027 529.828 337.812 535.034 334.935C561.916 320.08 583.89 320.423 612.401 328.07C624.867 321.259 637.725 315.38 650.413 308.975L707.938 279.326L705.354 273.417L698.715 259.173L695.414 252.309C680.377 258.99 663.731 267.936 648.998 275.529L584.918 308.309C575.878 312.912 566.607 317.713 557.649 322.469C547.249 327.991 540.394 327.548 529.007 328.26C517.417 328.906 505.832 329.642 494.253 330.467L332.415 341.79L304.093 343.734C297.569 344.141 284.944 344.533 279.291 346.259C273.127 348.14 261.641 354.25 255.55 357.42C247.519 361.599 238.909 365.483 231.009 369.6C248.56 373.203 258.07 375.792 273.981 384.937C294.147 374.245 293.763 375.205 316.249 374.022L355.828 372.054C386.427 370.417 417.016 368.606 447.594 366.623C465.721 365.49 485.271 364.579 503.256 362.861C507.387 358.245 511.478 353.479 516.014 349.273C517.021 348.195 518.337 347.073 519.451 346.068ZM819.464 319.499L817.461 324.37C819.875 328.31 826.406 345.29 828.51 350.54L849.543 402.68C884.835 490.77 919.57 579.082 953.747 667.611C944.419 673.285 931.262 679.594 921.406 684.65L867.461 712.471L783.28 756.042C770.29 762.652 753.555 771.721 739.764 776.208C736.129 777.391 724.941 777.733 720.656 777.963C711.91 778.403 703.169 778.919 694.432 779.513C654.226 782.821 613.968 785.464 573.674 787.442L496.753 791.042C490.253 791.33 461.028 792.229 456.097 793.75C445.679 796.966 424.2 809.956 413.601 815.731C373.55 837.553 333.609 859.679 293.619 881.607C281.973 887.985 270.274 894.265 258.522 900.446C251.268 904.309 240.972 910.181 233.501 912.78L232.683 913.061C228.355 904.859 221.531 885.095 217.907 875.516L193.372 811.481L105.069 575.293L83.4806 517.887C80.4875 509.927 74.316 492.335 70.6781 485.445C86.4467 477.279 108.11 466.695 124.408 459.363C124.842 444.621 130.292 429.693 136.691 416.588C114.074 427.619 91.5813 438.901 69.216 450.433C57.7269 456.277 45.1529 462.145 34.0724 468.53C74.1753 571.939 112.422 676.891 151.37 780.793L201.922 913.938C206.726 926.803 212.366 940.612 216.838 953.408C270.004 925.567 322.983 897.371 375.772 868.821L432.469 837.628C442.271 832.297 454.958 825.176 465.336 821.215C469.552 819.606 484.319 819.407 489.576 819.186C499.764 818.747 509.949 818.246 520.131 817.683L690.937 807.972C702.661 807.251 714.39 806.595 726.121 806.005C743.351 805.232 748.783 806.286 764.982 798.517C781.728 790.485 797.787 781.716 814.29 773.286C849.502 755.619 884.616 737.757 919.63 719.703C942.929 707.529 967.829 693.242 991.1 681.869C980.844 652.025 967.636 620.835 956.025 591.308L884.357 410.029L854.291 333.102C851.534 325.995 839.012 292.733 835.922 288.493C830.652 297.626 824.671 309.863 819.464 319.499ZM739.955 341.322C738.232 339.091 732.393 342.913 728.135 342.422C726.368 341.376 727.034 342.077 726.099 340.208C726.346 335.538 733.802 336.374 737.323 336.538C730.362 322.819 723.323 309.14 716.206 295.501C713.885 291.214 711.29 286.166 708.79 282.045C679.154 299.018 645.5 312.855 616.604 329.444C639.684 340.021 645.44 345.956 661.229 364.926C666.457 361.384 672.369 357.17 677.646 362.605L679.021 363.998C681.779 364.659 684.547 361.502 686.879 360.965C696.514 358.745 696.579 361.481 702.453 353.2C706.326 353.179 708.142 353.084 711.904 354.383L714.612 357.775C719.778 364.263 722.819 358.658 726.212 356.41C730.564 353.528 739.068 351.97 744.285 350.144C743.285 348.205 740.526 343.109 739.955 341.322ZM816.916 353.559C815.206 354.158 813.603 354.439 812.57 355.82C813.914 356.583 816.203 355.32 817.571 354.685C820.854 353.203 822.704 353.437 826.309 353.31C825.505 350.609 824.548 348.189 823.546 345.565C820.992 347.523 820.097 347.035 817.39 349.444C816.557 351.109 816.768 351.713 816.916 353.559ZM311.03 431.28C312.367 436.522 312.339 436.572 317.459 438.61C310.118 421.792 300.012 395.43 291.936 380.084L291.454 379.94C286.774 382.449 282.114 384.993 277.473 387.572C291.545 399.475 306.226 412.596 311.03 431.28ZM509.477 496.434C507.135 497.382 504.734 498.081 502.997 499.821L502.751 500.888C505.465 503.474 509.227 502.193 512.589 502.448C511.532 499.775 511.269 498.731 509.477 496.434ZM213.844 403.274C179.682 406.515 154.535 436.713 157.531 470.898C160.527 505.082 190.544 530.445 224.749 527.695C259.303 524.916 284.982 494.526 281.955 459.992C278.928 425.459 248.354 399.999 213.844 403.274ZM816.664 339.079C818.023 339.233 818.798 339.394 820.172 339.192C821.048 336.866 817.632 328.778 816.167 326.894C814.214 330.194 811.515 333.455 812.059 337.011C813.488 338.772 814.229 338.638 816.664 339.079ZM768.721 91.1417C731.061 94.9406 703.54 128.441 707.124 166.122C710.708 203.802 744.051 231.514 781.752 228.145C819.757 224.748 847.743 191.076 844.13 153.09C840.516 115.105 806.685 87.3121 768.721 91.1417ZM579.815 356.689C546.286 357.215 519.533 384.826 520.067 418.356C520.601 451.885 548.219 478.631 581.748 478.089C615.266 477.547 642 449.941 641.467 416.423C640.933 382.905 613.333 356.164 579.815 356.689Z"/><path fill="#1D1C1D" d="M396.491 410.234C399.35 410.543 401.86 410.779 404.748 410.881C409.02 411.031 414.72 409.518 418.499 411.257C421.417 415.026 415.412 420.264 412.818 423.037C414.122 423.108 415.734 423.257 417.02 423.199C422.577 422.945 429.861 414.281 435.628 416.395L436.13 417.587C435.469 420.581 430.119 423.577 427.241 425.751C425.805 430.636 425.123 433.17 422.267 437.366C424.385 440.387 425.513 441.649 428.037 444.35C419.773 452.768 420.003 448.309 413.923 460.835C416.653 459.642 422.853 456.374 424.755 459.596C424.057 466.294 412.072 475.849 405.529 477.616C401.732 483.587 394.56 491.649 387.103 492.206L384.477 499.722C383.43 503.037 382.298 505.804 380.988 509.028C379.017 510.417 377.596 511.088 375.468 512.172C374.303 511.2 371.126 508.401 370.692 507.151C367.749 498.689 364.786 490.43 361.272 482.175C367.878 475.107 370.939 473.451 362.738 466.432C362.281 463.875 361.706 461.26 361.179 458.71C355.88 461.367 353.22 465.698 346.768 464.4C344.504 462.476 342.654 454.76 342.274 451.663C341.905 448.656 349.663 446.388 351.946 444.301C353.394 442.979 354.075 442.273 355.447 440.695C353.217 439.995 351.358 439.691 349.997 437.838C348.812 432.529 353.66 433.543 356.289 431.906C362.205 428.224 365.251 423.175 371.599 419.251C376.616 419.835 378.676 419.505 383.487 418.685L386.799 422.622C392.797 418.293 393.656 416.993 396.491 410.234Z"/><path fill="#1D1C1D" d="M629.259 655.866C633.663 660.715 634.829 685.879 627.655 687.615L626.246 686.391C619.325 672.752 616.678 667.686 629.259 655.866Z"/><path fill="#1D1C1D" d="M471.295 494.774C476.335 495.956 475.963 498.54 476.789 503.043C479.478 505.266 482.437 506.923 482.039 510.715C480.438 513.673 477.904 514.284 474.785 515.584C473.794 514.228 472.875 512.615 471.406 511.94C469.948 512.967 470.338 512.915 469.557 514.93C469.124 519.426 470.252 521.342 467.444 525.23L466.545 525.264C464.144 521.648 464.706 514.739 465.873 510.669C466.74 507.642 469.824 504.511 469.347 500.797C468.996 498.067 469.853 496.943 471.295 494.774Z"/><path fill="#1D1C1D" d="M513.45 744.249C516.33 745.486 524.087 751.352 527.488 753.373C526.665 755.723 523.647 762.518 521.503 763.614C516.372 760.108 511.155 756.731 505.855 753.486C508.052 750.411 510.964 747.096 513.45 744.249Z"/><path fill="#1D1C1D" d="M415.761 638.781C420.614 641.642 425.175 645.28 429.682 648.685C427.388 651.868 425.039 655.01 422.634 658.109C417.957 654.695 413.391 651.13 408.944 647.422C410.576 645.744 413.928 641.025 415.761 638.781Z"/><path fill="#1D1C1D" d="M495.512 727.89C498.769 730.126 504.719 736.988 507.446 740.105C504.765 743.246 503.034 745.287 499.901 747.945C494.834 743.307 491.563 740.077 487.407 734.627C490.171 732.457 492.874 730.211 495.512 727.89Z"/><path fill="#1D1C1D" d="M467.643 688.804C471.159 691.951 475.234 698.152 478.036 702.195C474.848 704.25 472.228 706.866 469.716 709.672C467.289 707.86 460.962 698.002 459.2 695.043C462.97 692.619 464.291 691.824 467.643 688.804Z"/><path fill="#1D1C1D" d="M435.284 653.802C439.301 657.37 442.464 661.185 446.882 664.396C445.198 666.753 441.354 671.629 439.243 673.372C434.949 670.401 431.427 665.874 426.466 662.492C429.817 659.431 432.216 657.127 435.284 653.802Z"/><path fill="#1D1C1D" d="M481.97 709.049C483.516 710.29 490.192 719.611 492.041 721.996L483.366 729.127C480.486 727.621 476.06 718.623 473.364 715.13C476.443 712.765 478.704 711.129 481.97 709.049Z"/><path fill="#1D1C1D" d="M452.054 670.794C455.084 672.424 460.614 679.568 463.042 682.517C460.148 685.778 458.758 687.279 455.433 690.092C452.011 687.389 446.176 681.385 443.868 677.789C446.555 675.792 449.505 673.049 452.054 670.794Z"/><path fill="#1D1C1D" d="M608.444 745.039C610.2 746.604 612.67 753.356 613.712 755.916C609.903 758.258 605.437 760.182 601.23 761.695L600.771 761.754C598.715 760.331 596.783 752.527 596.025 749.97C600.13 748.239 604.271 746.595 608.444 745.039Z"/><path fill="#1D1C1D" d="M587.282 752.599C587.595 752.739 587.908 752.88 588.221 753.02C590.3 756.51 591.116 760.176 591.982 764.101C588.993 765.431 583.575 766.922 580.286 767.932C579.348 767.974 578.611 768.232 578.165 767.731C576.417 765.769 575.807 758.552 575.399 755.822C579.372 754.793 583.333 753.718 587.282 752.599Z"/><path fill="#1D1C1D" d="M562.154 758.306C563.981 758.013 565.14 757.634 566.881 758.221C569.39 760.586 569.26 766.026 569.937 770.125L561.62 770.951L554.977 771.565C554.409 767.371 554.204 763.313 553.946 759.099C556.392 759.023 559.659 758.574 562.154 758.306Z"/><path fill="#1D1C1D" d="M533.217 756.353C537.551 757.691 542.003 758.607 546.513 759.088C546.527 761.751 546.905 769.154 545.453 770.91L543.884 770.887C538.243 770.344 535.425 769.463 530.142 767.448C530.708 764.48 532.336 759.406 533.217 756.353Z"/><path fill="#1D1C1D" d="M627.567 735.434C629.365 736.43 633.029 744.19 634.237 746.491C630.136 748.931 626.982 750.431 622.7 752.435L622.108 752.455C619.947 751.39 617.526 743.765 616.514 741.103C620.009 739.185 623.985 737.262 627.567 735.434Z"/><path fill="#1D1C1D" d="M645.829 725.413C648.461 727.521 650.938 732.621 652.429 735.634C649.142 737.936 645.243 740.416 641.685 742.211C638.942 740.279 636.38 735.019 634.863 731.985L645.829 725.413Z"/><path fill="#1D1C1D" d="M698.697 688.916C701.153 691.913 702.955 695.968 704.658 699.482C701.841 701.99 697.465 704.514 694.179 706.562C685.899 695.292 687.917 695.805 698.697 688.916Z"/><path fill="#1D1C1D" d="M680.908 701.476C683.233 703.623 685.891 708.74 687.544 711.668C684.494 713.395 680.001 716.599 676.972 718.62L676.367 718.453C674.491 716.729 671.555 710.99 670.309 708.502C672.707 706.53 678.11 703.273 680.908 701.476Z"/><path fill="#1D1C1D" d="M663.324 713.902C665.211 715.182 668.762 721.464 670.196 723.808C666.719 726.061 662.896 728.326 659.35 730.517C658.073 730.034 653.902 723.009 652.581 721.154C656.411 718.34 659.272 716.371 663.324 713.902Z"/><path fill="#1D1C1D" d="M435.465 479.94C442.152 483.622 435.841 491.532 429.587 491.477C427.623 490.182 427.247 490.042 425.812 488.254C424.759 483.623 431.766 481.704 435.465 479.94Z"/><path fill="#1D1C1D" d="M511.523 552.022C516.055 549.659 519.927 547.417 525.298 548.342L526.023 549.005C524.784 552.903 516.483 555.014 512.667 556.322C512.323 554.83 511.941 553.488 511.523 552.022Z"/><path fill="#FEBE51" d="M520.816 347.663C541.014 331.227 564.46 323.105 590.618 325.764C615.095 328.126 637.595 340.223 653.064 359.338C668.304 378.308 676.255 402.946 673.439 427.265C671.058 447.84 648.414 493.475 638.79 514.222L640.473 515.141C636.613 523.885 632.542 532.534 628.264 541.081C626.305 544.979 620.051 556.658 619.036 560.434C617.528 565.057 619.801 568.472 616.934 574.606C613.787 581.601 606.635 587.417 603.821 594.234C601.95 598.767 614.012 603.431 612.77 609.009C611.7 613.817 609.53 618.312 607.862 622.938C605.658 628.893 603.914 635.008 602.643 641.229C606.935 648.139 610.497 650.811 613.51 659.023C611.088 663.67 607.767 668.687 605.148 673.552C605.763 678.373 608.576 686.081 607.731 690.452C605.691 701.012 596.149 713.07 587.954 719.57C579.373 712.038 572.893 700.629 564.898 692.306C562.115 689.408 557.22 683.217 556.166 679.424C554.591 673.752 556.196 666.244 554.208 660.495C551.813 653.352 545.318 650.282 540.552 645.041C537.935 643.227 535.404 632.857 533.26 631.715C527.149 628.462 514.729 634.328 508.071 635.409C491.905 638.087 471.056 630.979 466.145 613.844C463.191 603.538 467.354 592.668 470.956 583.102C472.701 578.927 474.109 574.343 476.404 570.418C480.89 562.746 489.734 557.115 498.172 554.762C502.797 553.473 507.179 553.359 511.523 552.022C511.941 553.488 512.323 554.83 512.667 556.322C512.044 558.17 512.012 557.287 512.712 559.062C514.699 560.635 517.109 560.846 519.685 561.425L522.544 565.042L523.089 564.871C526.913 563.635 530.21 561.341 533.858 560.933C537.289 560.55 538.34 562.067 542.338 561.2C539.632 554.835 534.285 542.033 529.083 538.02L532.228 535.844C526.493 524.725 521.132 513.374 515.226 502.363C514.606 502.837 513.631 502.531 512.589 502.448C511.532 499.775 511.269 498.731 509.477 496.434L511.282 494.34C499.621 470.813 486.276 443.068 487.337 416.521C488.381 390.396 499.278 367.879 518.115 350.092L520.816 347.663ZM581.748 478.089C615.266 477.547 642 449.941 641.467 416.423C640.933 382.905 613.333 356.164 579.815 356.689C546.286 357.215 519.533 384.826 520.067 418.356C520.601 451.885 548.219 478.631 581.748 478.089Z"/><path fill="#1D1C1D" d="M587.954 719.57C579.373 712.038 572.893 700.629 564.898 692.306C562.115 689.408 557.22 683.217 556.166 679.424C554.591 673.752 556.196 666.244 554.208 660.495C551.813 653.352 545.318 650.282 540.552 645.041C537.935 643.227 535.404 632.857 533.26 631.715C527.149 628.462 514.729 634.328 508.071 635.409C491.905 638.087 471.056 630.979 466.145 613.844C463.191 603.538 467.354 592.668 470.956 583.102C472.701 578.927 474.109 574.343 476.404 570.418C480.89 562.746 489.734 557.115 498.172 554.762C502.797 553.473 507.179 553.359 511.523 552.022C511.941 553.488 512.323 554.83 512.667 556.322C512.044 558.17 512.012 557.287 512.712 559.062C514.699 560.635 517.109 560.846 519.685 561.425L522.544 565.042L523.089 564.871C526.913 563.635 530.21 561.341 533.858 560.933C537.289 560.55 538.34 562.067 542.338 561.2L544.843 560.486C548.097 566.26 551.082 573.109 554.21 579.151L581.841 632.982L604.66 586.74C608.447 578.878 613.56 566.679 617.612 559.503L619.036 560.434C617.528 565.057 619.801 568.472 616.934 574.606C613.787 581.601 606.635 587.417 603.821 594.234C601.95 598.767 614.012 603.431 612.77 609.009C611.7 613.817 609.53 618.312 607.862 622.938C605.658 628.893 603.914 635.008 602.643 641.229C606.935 648.139 610.497 650.811 613.51 659.023C611.088 663.67 607.767 668.687 605.148 673.552C605.763 678.373 608.576 686.081 607.731 690.452C605.691 701.012 596.149 713.07 587.954 719.57Z"/><path fill="#1D1C1D" d="M638.79 514.222L640.473 515.141C636.613 523.885 632.542 532.534 628.264 541.081C626.305 544.979 620.051 556.658 619.036 560.434L617.612 559.503C624.066 544.7 631.869 528.925 638.79 514.222Z"/><path fill="#1D1C1D" d="M529.083 538.02L532.228 535.844C536.99 544.037 541.104 551.755 544.843 560.486L542.338 561.2C539.632 554.835 534.285 542.033 529.083 538.02Z"/><path fill="#1D1C1D" d="M511.282 494.34C512.681 497.002 514.12 499.568 515.226 502.363C514.606 502.837 513.631 502.531 512.589 502.448C511.532 499.775 511.269 498.731 509.477 496.434L511.282 494.34Z"/><path fill="#1D1C1D" d="M574.952 354.729C609.657 351.531 640.367 377.113 643.491 411.826C646.615 446.538 620.966 477.192 586.248 480.242C551.634 483.282 521.092 457.728 517.978 423.121C514.863 388.514 540.352 357.918 574.952 354.729ZM581.748 478.089C615.266 477.547 642 449.941 641.467 416.423C640.933 382.905 613.333 356.164 579.815 356.689C546.286 357.215 519.533 384.826 520.067 418.356C520.601 451.885 548.219 478.631 581.748 478.089Z"/><path fill="#9094FD" d="M773.103 53.4607C804.233 53.3911 829.488 62.805 851.797 84.8453C870.776 103.597 881.353 128.711 880.971 155.371C880.547 184.996 869.375 213.117 858.128 240.077C855.975 245.238 850.381 259.679 847.759 264.018C846.712 263.758 847.035 263.8 846.103 263.015C841.925 271.03 838.177 279.322 834.022 287.306L835.922 288.493C830.652 297.626 824.671 309.863 819.464 319.499L817.891 319.15C811.137 332.249 804.644 345.071 797.299 357.849C790.028 370.498 782.378 381.943 774.517 394.152C760.348 374.304 753.67 361.089 741.779 340.859L739.955 341.322C738.232 339.091 732.393 342.913 728.135 342.422C726.368 341.376 727.034 342.077 726.099 340.208C726.346 335.538 733.802 336.374 737.323 336.538C730.362 322.819 723.323 309.14 716.206 295.501L717.217 293.151C713.884 286.411 710.455 279.188 706.872 272.621L705.354 273.417L698.715 259.173L699.618 257.006C685.761 225.979 669.506 186.324 670.027 151.318C670.152 142.892 673.801 131.247 676.518 123.175L676.499 117.378C688.369 91.7883 707.497 73.1604 733.112 61.6332C746.758 56.1037 758.466 53.7002 773.103 53.4607ZM781.752 228.145C819.757 224.748 847.743 191.076 844.13 153.09C840.516 115.105 806.685 87.3121 768.721 91.1417C731.061 94.9406 703.54 128.441 707.124 166.122C710.708 203.802 744.051 231.514 781.752 228.145Z"/><path fill="#1D1C1D" d="M773.103 53.4607C804.233 53.3911 829.488 62.805 851.797 84.8453C870.776 103.597 881.353 128.711 880.971 155.371C880.547 184.996 869.375 213.117 858.128 240.077C855.975 245.238 850.381 259.679 847.759 264.018C846.712 263.758 847.035 263.8 846.103 263.015C860.178 232.647 879.27 187.92 879.669 153.731C879.947 129.958 865.462 98.6476 847.502 82.8707C823.546 61.8268 800.004 54.6706 768.839 55.6319C771.063 55.082 771.318 54.9119 773.103 53.4607Z"/><path fill="#1D1C1D" d="M717.217 293.151C725.301 309.106 733.489 325.009 741.779 340.859L739.955 341.322C738.232 339.091 732.393 342.913 728.135 342.422C726.368 341.376 727.034 342.077 726.099 340.208C726.346 335.538 733.802 336.374 737.323 336.538C730.362 322.819 723.323 309.14 716.206 295.501L717.217 293.151Z"/><path fill="#1D1C1D" d="M676.499 117.378C688.369 91.7883 707.497 73.1604 733.112 61.6332L733.008 63.6951C705.963 75.4246 687.329 95.9733 676.518 123.175L676.499 117.378Z"/><path fill="#1D1C1D" d="M733.112 61.6332C746.758 56.1037 758.466 53.7002 773.103 53.4607C771.318 54.9119 771.063 55.082 768.839 55.6319C766.459 56.2647 760.125 56.7391 757.224 57.1729C748.935 58.4415 740.813 60.629 733.008 63.6951L733.112 61.6332Z"/><path fill="#1D1C1D" d="M834.022 287.306L835.922 288.493C830.652 297.626 824.671 309.863 819.464 319.499L817.891 319.15L834.022 287.306Z"/><path fill="#1D1C1D" d="M699.618 257.006L706.872 272.621L705.354 273.417L698.715 259.173L699.618 257.006Z"/><path fill="#1D1C1D" d="M768.686 89.2071C807.654 85.3532 842.374 113.805 846.254 152.77C850.133 191.736 821.704 226.475 782.741 230.38C743.742 234.288 708.964 205.827 705.081 166.826C701.198 127.824 729.682 93.0645 768.686 89.2071ZM781.752 228.145C819.757 224.748 847.743 191.076 844.13 153.09C840.516 115.105 806.685 87.3121 768.721 91.1417C731.061 94.9406 703.54 128.441 707.124 166.122C710.708 203.802 744.051 231.514 781.752 228.145Z"/><path fill="#1D1C1D" d="M519.451 346.068L520.816 347.663L518.115 350.092L516.014 349.273C517.021 348.195 518.337 347.073 519.451 346.068Z"/><path fill="#1D1C1D" d="M350.294 654.196C356.194 654.315 372.038 656.23 377.255 658.855C386.278 663.394 389.259 666.205 399.626 668.291C403.698 685.279 411.039 701.373 415.355 718.334C418.956 732.481 409.504 733.177 402.329 744.441L401.971 745.013C402.124 748.637 402.547 751.823 403.048 755.407C400.08 758.148 395.108 761.877 391.835 764.493C391.821 775.338 393.463 785.828 395.139 796.496C394.75 802.135 380.317 796.673 377.433 795.106C376.081 783.283 373.714 777.976 370.94 766.74C366.514 748.806 365.011 733.754 356.476 716.891C318.544 694.669 325.648 700.32 330.914 661.431C336.663 657.429 343.329 654.941 350.294 654.196Z"/><path fill="#1D1C1D" d="M288.569 780.318C291.872 781.76 299.568 787.331 302.864 789.6L296.999 799.079C292.093 796.652 286.668 792.583 282.202 789.293C284.091 786.174 286.113 783.008 288.569 780.318Z"/><path fill="#1D1C1D" d="M307.601 791.85C309.04 792.919 320.233 798.319 322.565 799.491C321.609 802.111 320.055 807.043 318.327 808.94C313.353 808.009 306.696 804.469 302.388 801.88C304.313 798.41 305.896 795.428 307.601 791.85Z"/><path fill="#1D1C1D" d="M327.667 801.09C333.388 802.592 338.105 803.838 343.951 804.849C342.955 808.312 342.098 812.326 341.259 815.873C336.185 815.103 330.429 813.238 325.605 811.504C326.424 807.936 327.216 804.73 327.667 801.09Z"/><path fill="#1D1C1D" d="M242.168 716.93C244.583 717.291 247.541 727.267 248.466 729.819C245.504 731.642 241.912 733.408 238.808 735.008C235.978 733.635 233.107 724.507 232.062 721.54C236.163 719.958 238.427 719.131 242.168 716.93Z"/><path fill="#1D1C1D" d="M236.607 698.639C238.461 699.973 240.809 708.832 241.693 711.6C237.417 713.048 234.496 713.969 230.121 714.982C228.166 713.107 226.378 704.217 225.803 701.396C229.314 700.421 233.058 699.538 236.607 698.639Z"/><path fill="#1D1C1D" d="M377.374 806.801C387.537 805.691 385.983 808.265 386.168 817.403L379.125 817.952C376.217 818.024 373.101 817.969 370.173 817.965C369.958 814.639 370.089 810.618 370.116 807.225L377.374 806.801Z"/><path fill="#1D1C1D" d="M348.66 805.805C353.739 806.357 358.354 806.859 363.476 807.096C363.583 809.472 364.185 816.441 362.98 818.073C357.907 818.037 352.72 817.585 347.676 817.083L348.66 805.805Z"/><path fill="#1D1C1D" d="M351.898 621.708C353.404 621.491 356.207 621.505 357.828 621.462C358.365 625.147 358.433 628.305 358.567 632.031C355.542 632.313 352.371 632.493 349.329 632.71C347.269 632.956 345.208 633.192 343.146 633.416C342.605 630.111 342.278 626.216 341.916 622.839C345.24 622.434 348.568 622.057 351.898 621.708Z"/><path fill="#1D1C1D" d="M250.064 734.832C252.449 735.867 256.472 743.642 257.715 746.144C255.598 748.007 251.227 751.023 248.808 752.796C246.227 751.008 242.461 743.639 240.999 740.714C244.205 738.743 246.997 737.002 250.064 734.832Z"/><path fill="#1D1C1D" d="M273.06 766.802C275.19 767.868 282.135 774.505 284.277 776.466C281.809 778.872 279.104 781.904 277.246 784.793C273.535 782.216 268.746 777.01 265.521 773.624C268.45 771.483 270.756 769.612 273.06 766.802Z"/><path fill="#1D1C1D" d="M260.935 751.828C262.865 752.471 267.068 758.913 269.759 761.401C267.451 764.453 264.311 767.179 261.485 769.805C258.287 766.281 254.534 762.062 252.327 757.837C255.098 756.138 258.251 753.756 260.935 751.828Z"/><path fill="#1D1C1D" d="M333.262 624.52L334.474 624.642C336.332 626.236 336.432 632.149 336.647 634.705C332.775 635.884 327.62 636.996 323.608 637.983L322.794 638.213C320.895 636.61 320.563 631.094 320.134 628.329L333.262 624.52Z"/><path fill="#1D1C1D" d="M310.788 630.525L312.244 630.457C314.705 632.262 314.919 636.364 315.505 639.522L308.562 641.961L306.987 642.332L306.045 641.731C304.794 639.284 304.472 635.761 303.844 632.812C306.113 631.894 308.446 631.239 310.788 630.525Z"/><path fill="#1D1C1D" d="M333.03 557.602C335.303 558.278 335.573 558.375 336.772 560.075C337.585 566.161 329.111 567.514 326.21 575.819C325.482 576.619 325.947 576.344 324.757 576.535C320.628 571.897 328.428 565.752 331.524 563.173C332.103 561.412 332.563 559.414 333.03 557.602Z"/><path fill="#1D1C1D" d="M340.429 558.977C342.351 559.351 343.942 559.618 345.184 561.093C345.477 563.103 345.538 562.094 344.661 564.191C342.49 564.331 341.181 564.668 339.636 563.023C339.318 561.351 339.814 560.575 340.429 558.977Z"/><path fill="#1D1C1D" d="M850.257 576.008L850.506 576.075C857.388 577.873 864.565 589.004 869.711 593.946C881.381 605.154 886.757 608.206 889.646 624.49C886.962 629.813 886.053 630.926 885.842 636.791C882.906 638.067 878.605 639.427 877.655 642.666C879.515 645.929 885.337 644.97 886.815 649.235C886.518 650.716 886.614 651.189 885.521 652.181C879.353 654.227 873.733 645.641 870.826 641.345C857.471 636.162 857.064 630.937 840.621 630.142C838.868 630.025 835.634 630.333 833.772 630.454C827.962 635.219 815.212 648.187 807.52 642.835C803.165 639.804 801.275 628.077 802.031 622.845C803.06 615.716 805.22 605.246 810.697 600.143C814.067 597.219 819.681 595.426 823.35 592.154C825.837 589.935 829.82 581.299 832.517 580.828C838.072 582.42 844.417 589.958 848.528 594.276C851.552 592.784 852.584 592.02 855.292 590.055C853.486 584.61 850.704 582 850.257 576.008Z"/><path fill="#1D1C1D" d="M800.968 545.314C807.459 547.449 816.918 553.502 822.752 557.21C824.711 557.298 822.923 555.917 825.422 554.568C832.479 557.292 830.611 553.199 838.502 554.124C846.462 554.799 852.233 558.849 858.504 563.39C861.669 565.682 867.102 566.48 866.164 571.622L865.111 572.29C863.425 572.261 862.929 571.735 861.516 570.801L861.004 570.456C858.536 569.204 856.895 568.8 854.277 568.04C853.764 568.745 853.206 569.414 852.604 570.044C844.244 578.938 834.814 560.883 830.566 561.181C829.712 563.41 831.164 566.093 830.334 568.309C828.561 568.739 828.429 568.561 826.69 568.11C824.882 566.741 825.244 564.264 824.573 563.442C817.666 554.963 805.028 557.565 800.968 545.314Z"/><path fill="#1D1C1D" d="M790.901 562.552C796.262 563.88 804.21 571.144 807.174 575.703C797.753 580.498 792.353 583.613 781.941 585.906L776.756 582.185C769.374 583.229 760.541 584.523 755.437 577.721C751.581 572.582 747.491 571.96 741.671 570.76C739.696 570.13 738.014 569.569 736.832 567.921C736.647 562.222 749.717 567.187 752.226 568.975C756.077 571.719 756.88 572.545 759.891 576.142C763.432 577.394 767.111 578.915 770.622 580.302L774.856 577.512C777.306 578.748 780.029 579.973 782.529 581.158C788.307 579.08 793.213 577.359 798.324 573.927C795.206 570.887 789.674 567.007 790.901 562.552Z"/><path fill="#1D1C1D" d="M780.205 542.194C783.972 544.576 786.981 550.579 786.579 555.075C786.153 559.82 784.732 561.149 781.484 564.144C780.688 568.382 781.254 571.465 776.339 572.242C772.811 569.348 771.055 567.755 768.733 563.849C768.792 563.705 768.851 563.561 768.909 563.417L769.216 562.703C771.588 557.093 777.058 548.318 780.205 542.194Z"/><path fill="#1D1C1D" d="M800.817 393.027C807.73 393.807 810.278 398.782 812.778 404.57C811.613 407.433 810.805 408.865 808.578 410.985C804.607 409.086 801.099 407.435 797.602 404.757C796.638 401.325 796.239 398.558 795.681 395.043C797.376 394.275 799.076 393.673 800.817 393.027Z"/><path fill="#1D1C1D" d="M750.523 646.368C752.776 647.583 756.001 653.597 757.385 655.937C753.925 659.117 750.31 662.124 746.553 664.948C743.45 661.816 741.385 658.752 738.814 655.213C742.806 652.385 746.711 649.435 750.523 646.368Z"/><path fill="#1D1C1D" d="M732.442 660.895C734.851 661.373 738.599 667.966 739.956 670.093L729.247 677.898C726.916 678.016 723.265 670.925 722.12 669.032C725.71 666.031 728.657 663.642 732.442 660.895Z"/><path fill="#1D1C1D" d="M767.607 634.27C770.445 634.917 773.786 640.758 775.365 643.217C771.775 645.722 768.249 648.319 764.792 651.005C762.443 650.506 758.552 643.405 757.333 641.366C760.721 638.949 764.146 636.583 767.607 634.27Z"/><path fill="#1D1C1D" d="M779.327 517.822C781.752 518.119 784.775 520.064 785.943 522.326C787.322 524.994 784.32 528.232 784.315 529.229C784.288 533.753 785.37 533.341 783.295 537.871C781.15 536.237 778.094 529.711 774.253 525.921C775.678 521.81 776.414 520.818 779.327 517.822Z"/><path fill="#1D1C1D" d="M785.582 625.369C787.729 626.263 790.774 631.976 791.924 634.157C788.566 636.336 785.893 638.268 782.686 640.676C781.324 639.726 777.372 633.063 776.25 631.279C779.25 629.206 782.47 627.283 785.582 625.369Z"/><path fill="#1D1C1D" d="M791.236 539.572C800.665 540.85 798.916 540.965 801.17 549.141C796.931 547.099 791.053 544.759 791.236 539.572Z"/><path fill="#A3BDA0" d="M139.763 520.909C126.627 485.846 119.116 460.478 135.753 423.643C145.337 402.423 163.337 384.973 185.387 376.983C209.489 368.104 236.134 369.178 259.443 379.969C295.404 396.888 319.051 432.662 314.074 472.521C311.552 492.713 305.305 507.343 298.718 526.046C285.387 563.897 267.917 599.27 249.976 635.103C248.68 637.694 247.285 640.366 246.137 643.014L248.16 642.849C243.973 650.379 235.429 668.588 231.289 674.34C230.243 676.262 229.909 676.741 229.357 678.813C230.346 680.679 231.842 678.007 234.002 679.574C235.103 682.474 235.635 688.899 236.162 692.391C232.175 693.407 228.301 694.208 224.279 695.046C223.105 689.084 220.49 685.427 224.268 679.965L224.612 679.479C220.103 670.842 209.615 655.533 203.944 646.274C192.002 626.7 180.532 606.842 169.543 586.717C166.802 582.423 162.134 572.95 159.545 568.098C153.657 565.796 147.973 564.944 142.264 561.544C130.584 566.095 124.116 574.482 112.816 578.616C112.189 578.846 111.11 577.7 110.562 577.26C110.406 574.625 108.362 573.608 108.816 571.092C112.151 568.232 116.46 565.65 118.121 561.815C117.656 554.656 100.95 557.863 121.328 543.412C115.913 532.242 123.629 533.16 129.614 526.734C129.954 525.209 130.136 522.881 130.311 521.276C132.539 520.978 137.356 520.973 139.763 520.909ZM224.749 527.695C259.303 524.916 284.982 494.526 281.955 459.992C278.928 425.459 248.354 399.999 213.844 403.274C179.682 406.515 154.535 436.713 157.531 470.898C160.527 505.082 190.544 530.445 224.749 527.695Z"/><defs><linearGradient id="gradient_0" gradientUnits="userSpaceOnUse" x1="139.3786" y1="582.25885" x2="145.72865" y2="522.26514"><stop offset="0" stop-color="#000005"/><stop offset="1" stop-color="#080B22"/></linearGradient></defs><path fill="url(#gradient_0)" d="M139.763 520.909C146.374 536.576 153.552 551.997 161.284 567.141C164.307 573.106 167.751 578.966 170.71 584.924L169.543 586.717C166.802 582.423 162.134 572.95 159.545 568.098C153.657 565.796 147.973 564.944 142.264 561.544C130.584 566.095 124.116 574.482 112.816 578.616C112.189 578.846 111.11 577.7 110.562 577.26C110.406 574.625 108.362 573.608 108.816 571.092C112.151 568.232 116.46 565.65 118.121 561.815C117.656 554.656 100.95 557.863 121.328 543.412C115.913 532.242 123.629 533.16 129.614 526.734C129.954 525.209 130.136 522.881 130.311 521.276C132.539 520.978 137.356 520.973 139.763 520.909Z"/><path fill="#1D1C1D" d="M170.71 584.924C176.99 596.281 222.039 675.202 227.535 677.743C228.158 676.714 228.75 675.741 229.341 674.69L229.739 675.031C230.21 674.564 230.614 674.111 231.018 673.591L231.289 674.34C230.243 676.262 229.909 676.741 229.357 678.813C230.346 680.679 231.842 678.007 234.002 679.574C235.103 682.474 235.635 688.899 236.162 692.391C232.175 693.407 228.301 694.208 224.279 695.046C223.105 689.084 220.49 685.427 224.268 679.965L224.612 679.479C220.103 670.842 209.615 655.533 203.944 646.274C192.002 626.7 180.532 606.842 169.543 586.717L170.71 584.924Z"/><path fill="#1D1C1D" d="M246.137 643.014L248.16 642.849C243.973 650.379 235.429 668.588 231.289 674.34L231.018 673.591C230.614 674.111 230.21 674.564 229.739 675.031L229.341 674.69C230.359 671.554 243.889 646.823 246.137 643.014Z"/><path fill="#1D1C1D" d="M212.199 401.247C247.718 397.047 279.907 422.459 284.066 457.982C288.226 493.505 262.777 525.665 227.249 529.783C191.778 533.895 159.682 508.496 155.53 473.031C151.378 437.566 176.739 405.44 212.199 401.247ZM224.749 527.695C259.303 524.916 284.982 494.526 281.955 459.992C278.928 425.459 248.354 399.999 213.844 403.274C179.682 406.515 154.535 436.713 157.531 470.898C160.527 505.082 190.544 530.445 224.749 527.695Z"/><path fill="#1D1C1D" d="M365.084 621.38C371.166 621.959 377.893 623.107 384.008 623.964C384.486 625.018 384.542 624.587 384.316 625.414C383.371 627.824 382.346 632.052 381.636 634.668C376.178 633.806 370.452 632.79 364.97 632.322L365.084 621.38Z"/><path fill="#FEFCFE" fill-opacity="0.011764706" d="M106.619 570.147L108.816 571.092C108.362 573.608 110.406 574.625 110.562 577.26L109.65 578.452L106.619 570.147Z"/><path fill="#FEFCFE" fill-opacity="0.039215688" d="M816.916 353.559L817.571 354.685C816.203 355.32 813.914 356.583 812.57 355.82C813.603 354.439 815.206 354.158 816.916 353.559Z"/></svg>