<?xml version="1.0" encoding="utf-8" ?><svg xmlns="http://www.w3.org/2000/svg" xmlns:xlink="http://www.w3.org/1999/xlink" width="2048" height="1024" viewBox="0 0 2048 1024"><path d="M614.423 0L617.428 0C624.927 1.38323 632.259 1.8874 640.005 3.41666C671.784 9.69068 689.835 22.923 713.815 42.9117C746.517 71.4789 766.576 111.832 769.607 155.148C771.572 182.345 765.517 199.796 752.99 223.83C751.222 227.221 744.379 239.594 743.31 242.281L1244.49 390.175C1296.7 405.568 1350.02 422.204 1402.34 436.815C1411.31 400.655 1426.01 377.597 1458.28 357.435C1500.77 330.878 1549.43 336.162 1585.25 371.17C1591.6 378.257 1599.58 386.007 1605.29 393.297C1619.79 411.809 1625.73 435.739 1624.27 458.987C1623.64 469.005 1620.55 489.459 1615.16 497.861C1683.37 518.877 1751.8 539.184 1820.44 558.777C1850.47 567.504 1881.77 576.545 1910.66 585.732C1933.48 592.987 1981 609.358 1977.51 639.068C1973.76 671.11 1970.96 715.581 1960.8 745.88C1938.2 763.889 1889.34 788.652 1862.63 802.885L1731.88 873.633L1574.86 960.147C1546.25 975.986 1517.63 992.519 1488.32 1007.09C1465.38 1018.49 1446.34 1018.49 1424.52 1024L1385.2 1024C1381.76 1022.97 1376.64 1022.21 1373.04 1021.63C1314.01 1012.07 1257.54 987.063 1200.84 967.953L933.105 879.042C663.519 789.633 394.787 697.67 126.946 603.165C102.993 594.484 80.096 584.532 68.6984 560.149C71.9257 525.793 74.7732 482.553 82.9886 449.685C86.6144 435.179 155.829 405.678 170.37 398.97L257.375 358.414L385.128 299.204C420.024 282.975 455.376 265.885 491.022 251.485C483.313 228.016 469.492 204.199 466.5 179.633C458.277 112.113 500.682 37.332 564.129 11.6941C581.507 4.67162 596.286 2.61519 614.423 0ZM919.027 358.814C923.657 361.744 927.395 364.096 932.299 366.624C902.963 367.138 921.856 378.954 906.042 381.253C895.642 382.765 882.942 361.308 867.471 370.143C865.911 372.415 866.134 373.262 866.23 376.071C861.935 378.253 848.175 375.609 842.741 374.954C820.58 372.279 798.258 376.408 776.031 374.593C764.405 373.643 752.974 371.049 741.559 368.734C736.168 367.604 729.963 366.668 724.476 365.727C719.501 364.924 714.235 363.848 709.232 364.066L707.514 367.306C703.017 370.671 698.863 371.017 694.654 367.186C694.295 363.726 694.246 364.905 696.506 361.493C689.311 359.807 682.366 361.16 676.151 357.781C672.704 364.978 667.409 372.521 663.003 379.32L662.575 380.833L664.752 381.321C657.339 384.595 650.036 401.811 644.314 409.787C648.211 411.025 654.755 410.204 659.276 410.489C671.295 411.247 687.081 413.103 698.451 417.297C699.96 419.18 702.759 422.754 704.654 424.006C715.118 430.918 730.554 432.429 713.067 445.828C728.314 451.899 744.391 457.569 756.363 469.099C729.554 471.076 707.468 477.72 681.218 481.507C665.376 483.792 647.632 480.519 631.645 481.122C621.633 481.293 607.126 487.117 596.545 487.616C572.818 488.757 549.089 489.727 525.344 490.46C512.762 490.848 499.456 489.37 486.976 490.239C470.266 491.813 454.465 494.814 437.735 496.993C429.607 498.052 419.712 497.882 411.364 499.599C404.938 500.922 399.41 510.621 389.163 502.508C388.213 501.756 387.584 500.169 387.111 498.996C387.923 492.673 394.81 491.645 400.472 490.694C421.337 487.192 550.362 464.847 556.659 452.697L556.854 450.269C553.905 448.092 552.744 447.733 549.377 446.389C564.023 434.427 576.77 428.273 595.141 423.138C587.5 411.796 578.445 400.593 570.507 388.944C552.246 361.61 534.904 333.673 518.511 305.18C438.026 340.391 352.284 380.783 272.755 418.102C251.599 428.04 230.389 437.864 209.127 447.574C200 451.813 179.118 461.323 171.095 466.643C249.141 494.482 330.369 520.363 409.064 546.959L927.046 720.832L1245.54 826.128L1339.3 856.932C1355.52 862.229 1372.7 868.213 1389.03 872.748C1398.57 875.4 1409.43 878.15 1418.15 873.572C1449.44 857.138 1480.43 839.434 1511.52 822.559L1709.73 714.99L1812.06 658.822C1817.14 656.008 1846.11 640.393 1848.56 638.44L1841.85 636.162C1835.24 634.253 1823.23 632.312 1815.97 630.967C1797.25 627.494 1782.42 623.991 1764.8 616.542C1755.02 618.528 1701.38 626.096 1696.09 621.334L1696.46 619.376C1699.46 616.018 1705.35 613.772 1709.59 611.789C1726.85 613.23 1746.74 615.149 1764.15 615.79C1766.33 615.87 1770.97 613.848 1773.04 612.7L1773.06 611.437C1762.52 603.813 1733.67 607.124 1719.97 604.731C1707.59 602.57 1698.63 597.154 1687.34 594.075C1669.45 589.193 1647.33 588.209 1628.73 587.563C1641.13 597.214 1643.21 599.514 1658.55 601.839C1625.13 612.676 1595.91 606.081 1561.81 601.375C1557.48 603.832 1556.16 604.472 1551.44 605.976C1549.27 610.544 1545.47 614.691 1542.21 618.626C1555.27 620.98 1560.03 621.954 1572.84 621.964C1588.68 621.975 1601.71 611.028 1615.25 617.932L1616.53 619.973C1612.39 626.528 1605.44 623.829 1599.07 622.429C1571.81 634.569 1565.07 630.918 1537 625.717C1533.65 630.458 1530.46 635.31 1527.44 640.263C1514.63 663.421 1498.76 643.669 1488.55 630.282C1479.88 618.928 1471.92 606.925 1463.89 595.115C1459.79 596.486 1454.24 599.676 1450.29 601.777C1410.82 600.728 1404.3 602.3 1365.76 592.73C1361.82 597.951 1356.39 603.623 1351.91 608.536C1344.11 610.604 1324.53 613.219 1317.06 610.675C1314.25 606.801 1318.96 603.398 1315.86 599.339C1315.31 599.262 1314.21 599.132 1313.58 599.207C1297.69 601.112 1284.22 622.468 1279.47 635.966C1277.81 640.668 1293.32 645.833 1296.93 647.458C1321.57 658.546 1344.35 654.031 1369.97 651.619C1362.85 653.492 1355.58 654.889 1348.43 656.662C1325.64 662.312 1292.54 654.972 1273.01 642.549C1269.68 640.429 1264.28 635.294 1264.2 631.339C1264.1 626.389 1268.13 610.106 1271.07 606.415L1272.49 606.683C1274.64 610.334 1274.7 616.88 1275.08 621.323C1289.75 599.967 1295.34 597.328 1318.6 587.385C1311.73 583.771 1304.71 581.821 1297.32 579.507C1302.29 577.6 1311.43 575.086 1310.09 568.465C1304.23 563.263 1263.13 562.477 1253.39 563.607C1245.16 564.561 1221.27 572.458 1215.05 569.038C1213.94 560.238 1240.25 552.891 1243.09 544.526C1241.28 541.322 1238.11 542.749 1235.95 540.546C1232.55 537.067 1237.95 536.395 1237.04 530.623C1233.13 526.435 1224.56 525.199 1218.99 524.147C1213.12 517.234 1203.8 493.399 1194.21 505.019C1192.93 512.591 1202.81 524.713 1207.3 531.228C1177.27 528.141 1147.32 527.466 1117.41 524.557C1125.33 518.462 1150.9 496.865 1150.18 487.194L1148.53 486.693C1137.5 490.831 1112.71 517.632 1102.88 527.549C1117.63 530.935 1133.3 533.945 1148.18 537.05C1105.9 543.529 1065.95 542.822 1023.97 548.613C1011.11 550.387 1005.66 558.929 997.89 568.171C988.569 568.323 976.897 566.21 967.492 566.125C944.977 565.922 915.402 567.374 898.094 583.233C875.131 600.406 855.249 601.996 826.8 599.137C815.714 599.215 781.876 588.725 784.935 573.694C789.564 550.947 842.152 551.589 855.2 553.189C863.37 549.031 869.808 541.254 878.612 538.581C888.492 535.58 901.831 537.116 910.94 531.324C917.249 527.313 911.563 523.978 912.649 518.204C918.453 510.34 945.711 517.65 949.484 506.122C944.584 491.064 905.148 484.26 891.138 484.252C889.538 479.485 887.311 473.794 888.893 468.818C897.392 442.08 957.048 439.462 980.622 438.426C992.006 437.925 1016.32 441.56 1027.73 438.424C1030.45 437.677 1031.91 431.644 1032.69 428.806C1039.35 423.341 1061.12 430.742 1071.7 425.01L1072.11 423.362C1070.01 421.582 1069.3 420.995 1066.91 419.601L1066.38 419.298C1077.43 417.945 1082.29 423.375 1094.05 419.17C1098.22 417.209 1098.61 416.864 1100.83 412.837C1102.14 410.194 1106.15 407.815 1108.72 405.986C1109.4 404.399 1109.25 404.225 1109.08 402.534C1103.6 399.026 1072.66 390.712 1064.78 388.594C1014.08 374.983 963.923 357.593 913.256 344.265L919.027 358.814ZM333.177 654.849C360.544 643.659 366.656 619.684 356.11 593.826C355.605 592.566 355.086 591.312 354.551 590.065C344.122 582.871 206.763 537.169 197.612 537.957C185.727 544.866 175.589 554.415 172.459 568.071C165.093 600.202 189.624 608.292 213.335 615.695C252.161 627.818 288.113 642.742 326.972 654.079C328.89 654.641 331.186 654.896 333.177 654.849ZM585.074 213.724C594.166 206.597 612.944 197.445 623.865 191.582C642.742 181.565 661.371 171.087 679.735 160.158C683.981 134.804 675.071 112.84 654.886 97.2868C620.918 81.2147 581.679 97.1501 565.905 130.636C557.762 147.667 556.811 167.257 563.266 184.997C566.18 193.095 576.636 211.297 585.074 213.724ZM711.031 299.22C704.485 310.525 696.946 323.011 691.042 334.517L691.787 334.318C708.572 329.714 745.139 313.092 711.031 299.22ZM494.55 259.812C482.065 266.507 462.994 274.612 449.815 280.74C421.815 293.945 393.721 306.949 365.535 319.753C286.521 355.595 208.103 393.639 129.245 429.9C117.149 435.463 81.9705 451.719 92.416 468.74C102.341 484.913 127.76 495.245 144.496 502.662C170.711 513.632 198.168 522.413 225.031 531.548L324.613 565.635L612.887 664.114L1106.55 828.384L1256.71 877.443C1335.11 903.187 1423.38 941.812 1503.73 897.878C1517.28 890.468 1530.93 883.124 1544.5 875.736L1624.84 832.067L1921.35 672.335C1959.56 651.808 1992.55 629.281 1931.28 603.92C1898.66 590.421 1860.64 581.284 1826.62 571C1754.85 549.23 1682.93 527.926 1610.87 507.089C1607.06 516.288 1603.84 523.721 1598.59 532.19C1619.8 539.711 1647.95 547.44 1669.83 554.065L1796.43 592.46C1822.36 600.287 1850.11 607.411 1874.81 618.13C1878.35 619.666 1881.44 627.447 1877.14 630.763C1861.09 643.141 1840.51 653.213 1822.83 663.009L1719.23 720.01L1550.14 813.447C1511.33 835.003 1473.02 857.271 1433.38 877.347C1427.94 879.801 1416.93 886.19 1410.94 885.787C1376.73 883.486 1337.76 866.974 1305.62 856.407C1258.85 841.36 1212.16 826.066 1165.54 810.527L706.654 658.103L315.869 526.836L224.963 496.13C207.705 490.398 190.37 484.834 173.206 478.837C166.699 476.564 159.911 471.241 159.848 463.804C166.426 454.059 233.441 425.053 246.369 419.079L353.239 369.58L463.788 318.971C479.391 311.824 497.738 302.271 513.208 295.942C509.623 287.476 499.421 269.773 494.55 259.812Z"/><path fill="#A5A9BD" d="M1235.55 687.462L1290.84 692.522C1298.34 693.24 1310.02 694.919 1317.15 695.116C1324.77 695.327 1334.11 691.515 1343.99 691.869C1357.16 692.341 1370.78 695.822 1383.27 696.448C1378.56 699.131 1372.81 702.171 1368.59 705.423C1397.44 712.906 1394.47 709.239 1420.44 703.63C1410.77 709.981 1408.46 711.386 1403.7 722.416C1410.39 727.032 1423.3 738.911 1414.83 746.447C1389.53 768.96 1335.27 767.505 1308.06 749.031C1298.99 742.874 1302.82 731.559 1309.35 725.343L1304.05 724.882L1303.36 724.912C1283.66 729.025 1267.1 718.514 1246.25 715.672C1241.2 715.345 1237.76 714.817 1232.83 714.001L1231.05 710.642C1227.75 708.354 1223.12 705.795 1220.09 709.622C1214.6 712.169 1205.04 712.48 1205.35 704.356C1207.58 702.57 1207.53 703.124 1210.81 703.036L1211.29 702.73C1221.37 696.162 1222.72 693.886 1235.55 687.462Z"/><path d="M1309.35 725.343C1312.07 723.724 1314.83 722.16 1317.62 720.652C1341.63 707.9 1379.06 715.012 1403.7 722.416C1410.39 727.032 1423.3 738.911 1414.83 746.447C1389.53 768.96 1335.27 767.505 1308.06 749.031C1298.99 742.874 1302.82 731.559 1309.35 725.343Z"/><path d="M1232.83 714.001C1236.23 703.982 1245.3 704.386 1248.55 712.327C1247.53 714.729 1248.07 714.476 1246.25 715.672C1241.2 715.345 1237.76 714.817 1232.83 714.001Z"/><path d="M1210.81 703.036C1215.54 704.223 1215.88 703.562 1219.03 706.47L1220.09 709.622C1214.6 712.169 1205.04 712.48 1205.35 704.356C1207.58 702.57 1207.53 703.124 1210.81 703.036Z"/><path d="M1303.36 724.912C1298.85 724.132 1293.58 724.055 1291.78 719.231C1294.19 714.571 1300.27 715.994 1304.15 717.988C1306.17 720.682 1305.81 719.416 1305.55 722.72L1304.05 724.882L1303.36 724.912Z"/><path d="M1261.9 710.762C1265.96 710.874 1271.51 710.574 1274.81 712.665C1277.57 715.298 1277.47 716.861 1277.94 720.666C1269.63 719.311 1263.61 720.111 1261.9 710.762Z"/><path fill="#A5A9BD" d="M1396.02 659.481L1400.46 661.943L1401.02 664.058C1400.02 665.974 1399.27 666.954 1399.17 669.054C1410.6 675.481 1437.08 685.711 1451.21 692.357C1451.41 696.629 1453.06 707.627 1449.4 709.869C1438.12 704.678 1425.67 701.452 1414.54 696.714C1404.1 692.268 1407.29 689.964 1405.64 683.308C1404.15 677.28 1392.72 672.505 1386.98 669.792C1390.29 666.45 1393.03 663.083 1396.02 659.481Z"/><path fill="#A5A9BD" d="M999.685 574.393C1011.15 572.737 1026.22 576.313 1037.38 578.742C1023.76 582.488 1009.98 585.455 996.2 588.551C987.313 590.645 970.088 595.456 962.509 588.273C962.019 577.328 991.836 575.412 999.685 574.393Z"/><path fill="#A5A9BD" d="M1313.77 629.988C1330.89 630.051 1347.84 632.198 1366.96 632.084C1362.27 634.6 1356.63 637.038 1351.73 639.294C1342.66 643.043 1334.29 645.324 1324.89 647.89C1318.63 645.033 1311.05 640.909 1304.8 637.732C1308.58 634.919 1310.39 633.293 1313.77 629.988Z"/><path fill="#A5A9BD" d="M1415.93 616.947L1418.93 616.885C1421.78 619.113 1422.48 623.347 1423.51 626.935L1413.5 624.92L1401.22 622.437C1406.11 620.955 1411.15 618.836 1415.93 616.947Z"/><path d="M1092.93 688.644C1097.42 688.611 1103.44 688.157 1107.05 690.741C1108.51 693.835 1108.05 692.983 1107.09 697.018C1103.41 696.881 1099.31 696.954 1095.86 695.767C1092.8 692.919 1093.71 693.647 1092.93 688.644Z"/><path d="M1148.92 695.759C1158.23 696.222 1162.09 694.541 1164.24 704.365C1154.49 704.188 1150.75 706.133 1148.92 695.759Z"/><path d="M849.588 471.472C853.697 471.464 855.214 471.868 857.947 474.47C859.297 478.054 858.882 479.832 858.513 483.637C858.083 483.616 857.652 483.584 857.223 483.543C853.818 483.202 851.891 482.643 849.731 480.068C848.276 476.435 848.779 475.292 849.588 471.472Z"/><path d="M849.424 494.686C852.671 494.858 854.965 494.562 857.357 496.572C858.951 499.327 857.72 503.323 857.108 506.623C853.663 505.879 851.109 505.757 849.047 502.967C847.916 500.051 848.748 497.72 849.424 494.686Z"/><path d="M1037.18 677.815C1043.13 677.738 1047.92 678.112 1051.49 683.02L1050.89 686.409C1043.65 688.114 1037.84 685.637 1037.18 677.815Z"/><path d="M1010.8 670.613C1014.36 670.853 1018.84 671.438 1021.82 673.381C1024.33 676.937 1023.7 675.568 1023.12 680.675C1019.1 680.343 1015.72 679.889 1012.56 677.427C1010.32 673.563 1010.86 675.102 1010.8 670.613Z"/><path d="M915.218 627.385C918.632 628.826 922.273 629.999 924.652 632.781C925.618 636.504 925.532 635.143 923.648 639.171C919.794 638.055 916.437 637.078 913.923 633.971C913.167 630.031 913.187 631.439 915.218 627.385Z"/><path d="M1180.31 699.263C1183.84 699.655 1187.66 699.653 1190.33 701.815C1191.29 705.473 1190.97 704.492 1189.65 708.56C1186.28 708.034 1182.26 707.71 1179.45 705.938C1178.19 702.716 1178.72 703.43 1180.31 699.263Z"/><path d="M986.609 661.822C990.231 662.602 993.87 663.481 996.622 665.94C998.243 669.351 997.917 668.038 996.917 672.22C993.226 671.724 987.932 670.611 985.599 667.596C984.856 664.183 984.796 665.623 986.609 661.822Z"/><path d="M1064.67 683.304C1072.08 684.079 1077.09 683.106 1079.05 691.181C1070.51 694.589 1066.72 691.078 1064.67 683.304Z"/><path d="M1121.19 691.778C1129.3 692.606 1134.35 691.34 1134.48 700.559C1126.21 701.867 1122.27 699.592 1121.19 691.778Z"/><path d="M769.399 387.536C772.744 387.989 777.433 388.851 779.732 391.338C780.857 395.253 780.541 394.069 778.809 398.542C775.029 397.204 772.341 396.571 769.453 393.788C767.947 390.173 768.134 391.638 769.399 387.536Z"/><path d="M746.293 376.386L747.796 376.842C751.86 378.086 756.429 378.843 758.408 382.57L756.941 386.026C749.165 389.038 745.823 383.68 746.293 376.386Z"/><path d="M961.035 652.709C968.961 653.409 972.441 654.732 972.433 662.922C968.331 662.39 964.269 661.534 961.21 658.692C959.749 655.195 959.888 656.755 961.035 652.709Z"/><path fill="#A5A9BD" d="M1391.6 635.918C1396.02 636.474 1404.66 637.127 1407.6 639.837L1405.78 641.005C1401.39 643.57 1400.12 644.657 1395.15 642.884C1392.75 640.036 1392.63 639.412 1391.6 635.918Z"/><path d="M893.504 612.762C899.763 615.07 903.94 617.16 902.033 624.409C898.01 623.779 894.535 622.375 892.169 618.952C891.644 615.074 891.544 616.493 893.504 612.762Z"/><path d="M874.743 598.504C876.215 597.377 878.188 597.153 879.875 597.92C881.562 598.688 882.689 600.323 882.807 602.173C882.925 604.023 882.013 605.787 880.437 606.762C878.161 608.169 875.181 607.545 873.662 605.342C872.143 603.139 872.618 600.131 874.743 598.504Z"/><path fill="#A5A9BD" d="M1305.64 759.266C1310.76 758.945 1316.2 757.401 1318.48 762.345L1317.38 765.282C1313.42 764.902 1305.24 765.198 1304.17 761.06L1305.64 759.266Z"/><path fill="#A5A9BD" d="M1108.72 405.986C1111.63 408.728 1110.68 408.628 1114.13 409.212C1117.72 406.675 1119 404.59 1122.94 405.669C1132.57 408.303 1142.22 411.589 1151.81 414.436L1218.84 434.276C1281.5 452.821 1344.44 470.358 1406.81 489.613C1411.98 500.601 1415.89 511.463 1421.22 522.543C1433.62 547.759 1447.89 572.017 1463.89 595.115C1459.79 596.486 1454.24 599.676 1450.29 601.777C1410.82 600.728 1404.3 602.3 1365.76 592.73C1361.82 597.951 1356.39 603.623 1351.91 608.536C1344.11 610.604 1324.53 613.219 1317.06 610.675C1314.25 606.801 1318.96 603.398 1315.86 599.339C1315.31 599.262 1314.21 599.132 1313.58 599.207C1297.69 601.112 1284.22 622.468 1279.47 635.966C1277.81 640.668 1293.32 645.833 1296.93 647.458C1321.57 658.546 1344.35 654.031 1369.97 651.619C1362.85 653.492 1355.58 654.889 1348.43 656.662C1325.64 662.312 1292.54 654.972 1273.01 642.549C1269.68 640.429 1264.28 635.294 1264.2 631.339C1264.1 626.389 1268.13 610.106 1271.07 606.415L1272.49 606.683C1274.64 610.334 1274.7 616.88 1275.08 621.323C1289.75 599.967 1295.34 597.328 1318.6 587.385C1311.73 583.771 1304.71 581.821 1297.32 579.507C1302.29 577.6 1311.43 575.086 1310.09 568.465C1304.23 563.263 1263.13 562.477 1253.39 563.607C1245.16 564.561 1221.27 572.458 1215.05 569.038C1213.94 560.238 1240.25 552.891 1243.09 544.526C1241.28 541.322 1238.11 542.749 1235.95 540.546C1232.55 537.067 1237.95 536.395 1237.04 530.623C1233.13 526.435 1224.56 525.199 1218.99 524.147C1213.12 517.234 1203.8 493.399 1194.21 505.019C1192.93 512.591 1202.81 524.713 1207.3 531.228C1177.27 528.141 1147.32 527.466 1117.41 524.557C1125.33 518.462 1150.9 496.865 1150.18 487.194L1148.53 486.693C1137.5 490.831 1112.71 517.632 1102.88 527.549C1117.63 530.935 1133.3 533.945 1148.18 537.05C1105.9 543.529 1065.95 542.822 1023.97 548.613C1011.11 550.387 1005.66 558.929 997.89 568.171C988.569 568.323 976.897 566.21 967.492 566.125C944.977 565.922 915.402 567.374 898.094 583.233C904.862 560.085 870.657 555.651 855.2 553.189C863.37 549.031 869.808 541.254 878.612 538.581C888.492 535.58 901.831 537.116 910.94 531.324C917.249 527.313 911.563 523.978 912.649 518.204C918.453 510.34 945.711 517.65 949.484 506.122C944.584 491.064 905.148 484.26 891.138 484.252C889.538 479.485 887.311 473.794 888.893 468.818C897.392 442.08 957.048 439.462 980.622 438.426C992.006 437.925 1016.32 441.56 1027.73 438.424C1030.45 437.677 1031.91 431.644 1032.69 428.806C1039.35 423.341 1061.12 430.742 1071.7 425.01L1072.11 423.362C1070.01 421.582 1069.3 420.995 1066.91 419.601L1066.38 419.298C1077.43 417.945 1082.29 423.375 1094.05 419.17C1098.22 417.209 1098.61 416.864 1100.83 412.837C1102.14 410.194 1106.15 407.815 1108.72 405.986Z"/><path d="M1100.83 412.837C1105.2 415.908 1105.55 415.041 1106.65 419.103C1105.08 424.776 1101.99 425.924 1096.3 424.426C1094.12 421.906 1094.81 422.979 1094.05 419.17C1098.22 417.209 1098.61 416.864 1100.83 412.837Z"/><path d="M1070.81 447.63C1073.64 448.349 1075.87 449.101 1077.26 451.604C1076.46 454.81 1072.26 458.28 1069.71 460.801C1067.82 460.53 1064.41 457.357 1062.61 455.927L1070.81 447.63Z"/><path d="M955.799 535.859C958.315 536.552 958.686 536.628 960.226 538.704L959.839 541.006C956.763 545.008 955.171 545.605 950.638 548.005C947.578 546.592 946.762 545.039 947.107 542.007C949.379 538.663 952.169 537.676 955.799 535.859Z"/><path d="M932.81 547.866C935.393 548.3 935.715 548.655 937.753 550.34L937.917 552.529C935.652 556.252 933.165 557.101 929.237 559.124C926.721 558.568 926.584 558.338 924.473 556.746L924.357 554.665C926.461 551.283 929.386 549.931 932.81 547.866Z"/><path d="M976.524 523.841C979.494 524.618 981.311 525.183 981.548 528.325C979.636 531.76 975.826 533.79 972.484 535.975C970.121 534.124 968.773 533.494 967.959 530.66C969.156 527.708 973.566 525.636 976.524 523.841Z"/><path d="M1086.55 430.507C1089.78 431.929 1090.64 432.425 1091.69 435.478C1091.08 438.92 1087.63 441.786 1085.09 444.389C1081.51 441.979 1081.91 442.974 1080.32 439.453C1080.75 435.89 1083.99 433.187 1086.55 430.507Z"/><path d="M1054.11 463.663C1058.01 465.666 1057.73 464.789 1059.58 468.073C1059.03 471.417 1056.2 473.407 1053.64 475.816C1051 476.241 1050.7 476.455 1048.43 475.317L1047.89 472.95C1049.35 468.307 1050.69 467.242 1054.11 463.663Z"/><path d="M911.517 558.996C913.875 561.163 914.24 562.454 913.52 565.279C911.199 568.07 906.903 569.461 903.457 570.912C901.198 568.58 900.994 567.942 901.328 565.086C903.528 562.061 907.978 560.565 911.517 558.996Z"/><path d="M1018.07 494.944C1020.81 496.829 1021.4 497.889 1021.51 500.84C1019.99 503.905 1015.94 506.053 1012.96 508.004C1010.04 505.43 1010.18 506.344 1009.54 503.139C1010.81 499.72 1015 497.217 1018.07 494.944Z"/><path d="M997.247 509.745C1000.02 511.053 1001.05 512.209 1001.69 514.981C1000.34 518.326 997.085 520.121 994.073 522.256C991.354 521.197 990.413 520.133 989.621 517.569C990.959 514.179 994.319 512.043 997.247 509.745Z"/><path d="M1036.61 479.565C1039.52 481.01 1040.39 481.556 1041.28 484.486C1040.14 487.844 1036.69 489.994 1033.81 492.246C1030.31 490.21 1030.68 491.141 1029.42 487.99C1030.45 484.515 1033.84 482.043 1036.61 479.565Z"/><path fill="#A5A9BD" d="M633.582 426.216C635.966 422.834 643.243 413.053 644.314 409.787C648.211 411.025 654.755 410.204 659.276 410.489C671.295 411.247 687.081 413.103 698.451 417.297C699.96 419.18 702.759 422.754 704.654 424.006C715.118 430.918 730.554 432.429 713.067 445.828C728.314 451.899 744.391 457.569 756.363 469.099C729.554 471.076 707.468 477.72 681.218 481.507C665.376 483.792 647.632 480.519 631.645 481.122C621.633 481.293 607.126 487.117 596.545 487.616C572.818 488.757 549.089 489.727 525.344 490.46C512.762 490.848 499.456 489.37 486.976 490.239C470.266 491.813 454.465 494.814 437.735 496.993C429.607 498.052 419.712 497.882 411.364 499.599C404.938 500.922 399.41 510.621 389.163 502.508C388.213 501.756 387.584 500.169 387.111 498.996C387.923 492.673 394.81 491.645 400.472 490.694C421.337 487.192 550.362 464.847 556.659 452.697L556.854 450.269C553.905 448.092 552.744 447.733 549.377 446.389C564.023 434.427 576.77 428.273 595.141 423.138C603.457 432.824 616.062 443.76 628.462 432.936C630.608 431.068 632.351 428.781 633.582 426.216Z"/><path fill="#A5A9BD" d="M1542.21 618.626C1555.27 620.98 1560.03 621.954 1572.84 621.964C1588.68 621.975 1601.71 611.028 1615.25 617.932L1616.53 619.973C1612.39 626.528 1605.44 623.829 1599.07 622.429C1571.81 634.569 1565.07 630.918 1537 625.717L1542.21 618.626Z"/><path fill="#A5A9BD" fill-opacity="0.98039216" d="M663.003 379.32C679.532 377.35 696.266 382.298 705.329 396.958C713.069 401.055 717.632 403.816 724.875 408.744C719.192 407.153 708.603 404.483 704.075 401.223C685.977 388.192 688.693 382.812 664.752 381.321L662.575 380.833L663.003 379.32Z"/><path fill="#F9FAFC" fill-opacity="0.023529412" d="M724.476 365.727C729.963 366.668 736.168 367.604 741.559 368.734C738.596 368.738 737.284 368.634 734.35 369.456L734.537 371.559C731.55 375.217 727.204 376.907 723.143 373.974C722.279 370.075 723.024 370.127 724.476 365.727Z"/><path d="M743.31 242.281L1244.49 390.175C1296.7 405.568 1350.02 422.204 1402.34 436.815C1411.31 400.655 1426.01 377.597 1458.28 357.435C1500.77 330.878 1549.43 336.162 1585.25 371.17C1591.6 378.257 1599.58 386.007 1605.29 393.297C1619.79 411.809 1625.73 435.739 1624.27 458.987C1623.64 469.005 1620.55 489.459 1615.16 497.861L1610.87 507.089C1607.06 516.288 1603.84 523.721 1598.59 532.19C1595.19 535.404 1594.74 536.26 1592.53 540.433L1566.04 581.984C1562.73 587.14 1553.35 600.974 1551.44 605.976C1549.27 610.544 1545.47 614.691 1542.21 618.626L1537 625.717C1533.65 630.458 1530.46 635.31 1527.44 640.263C1514.63 663.421 1498.76 643.669 1488.55 630.282C1479.88 618.928 1471.92 606.925 1463.89 595.115C1447.89 572.017 1433.62 547.759 1421.22 522.543C1415.89 511.463 1411.98 500.601 1406.81 489.613C1344.44 470.358 1281.5 452.821 1218.84 434.276L1151.81 414.436C1142.22 411.589 1132.57 408.303 1122.94 405.669C1119 404.59 1117.72 406.675 1114.13 409.212C1110.68 408.628 1111.63 408.728 1108.72 405.986C1109.4 404.399 1109.25 404.225 1109.08 402.534C1103.6 399.026 1072.66 390.712 1064.78 388.594C1014.08 374.983 963.923 357.593 913.256 344.265L919.027 358.814C923.657 361.744 927.395 364.096 932.299 366.624C902.963 367.138 921.856 378.954 906.042 381.253C895.642 382.765 882.942 361.308 867.471 370.143C865.911 372.415 866.134 373.262 866.23 376.071C861.935 378.253 848.175 375.609 842.741 374.954C820.58 372.279 798.258 376.408 776.031 374.593C764.405 373.643 752.974 371.049 741.559 368.734C736.168 367.604 729.963 366.668 724.476 365.727C719.501 364.924 714.235 363.848 709.232 364.066L707.514 367.306C703.017 370.671 698.863 371.017 694.654 367.186C694.295 363.726 694.246 364.905 696.506 361.493C689.311 359.807 682.366 361.16 676.151 357.781C678.046 353.332 687.819 337.638 691.042 334.517L691.787 334.318C708.572 329.714 745.139 313.092 711.031 299.22L718.501 286.459C720.431 282.553 722.098 279.167 726.129 277.405C723.788 274.033 736.381 255.276 738.927 251.675C739.538 249.92 742.381 244.258 743.31 242.281Z"/><path fill="#FDBE50" d="M1519.3 647.915C1486.75 615.484 1446 545.806 1428.23 502.761C1416.27 473.772 1414.99 446.769 1428.02 417.742C1440.15 390.532 1462.61 369.275 1490.45 358.674C1513.37 349.976 1537.36 349.462 1560.08 359.005C1568.83 362.68 1576.61 367.26 1585.25 371.17C1591.6 378.257 1599.58 386.007 1605.29 393.297C1619.79 411.809 1625.73 435.739 1624.27 458.987C1623.64 469.005 1620.55 489.459 1615.16 497.861L1610.87 507.089C1607.06 516.288 1603.84 523.721 1598.59 532.19C1595.19 535.404 1594.74 536.26 1592.53 540.433L1566.04 581.984C1562.73 587.14 1553.35 600.974 1551.44 605.976C1549.27 610.544 1545.47 614.691 1542.21 618.626L1537 625.717C1533.65 630.458 1530.46 635.31 1527.44 640.263C1524.13 641.795 1521.71 645.11 1519.3 647.915Z"/><path fill="#F9FAFC" d="M1524.74 404.656C1549 401.929 1567.47 426.715 1569.72 448.734C1571.09 463.252 1566.7 477.728 1557.48 489.03C1549.06 499.427 1536.8 505.987 1523.48 507.222C1510.83 508.332 1491.7 504.072 1485.85 491.475C1480.08 485.732 1471.15 471.474 1474.09 463.255L1473.22 462.015C1472.78 457.745 1472.82 457.196 1474.06 453.086C1471.86 430.063 1501.03 403.221 1524.74 404.656Z"/><path d="M1524.74 404.656C1549 401.929 1567.47 426.715 1569.72 448.734C1571.09 463.252 1566.7 477.728 1557.48 489.03C1549.06 499.427 1536.8 505.987 1523.48 507.222C1510.83 508.332 1491.7 504.072 1485.85 491.475C1480.08 485.732 1471.15 471.474 1474.09 463.255L1473.22 462.015C1472.78 457.745 1472.82 457.196 1474.06 453.086C1498.49 460.37 1525.35 467.114 1550.12 473.812C1550.34 473.392 1550.55 472.97 1550.75 472.546C1565.29 442.403 1554.14 418.097 1524.74 404.656Z"/><path fill="#F9FAFC" d="M1474.09 463.255C1493.87 469.514 1524.82 476.165 1542.46 483.392C1522.94 499.932 1508.86 500.07 1485.85 491.475C1480.08 485.732 1471.15 471.474 1474.09 463.255Z"/><path fill="#FDBE50" d="M1550.89 418.677C1560.63 423.441 1566.75 440.89 1567.16 451.147C1567.73 464.843 1562.85 478.207 1553.59 488.312C1543.28 499.428 1531.32 503.695 1516.66 504.343C1513.9 503.959 1513.44 503.923 1511.01 502.576C1512.34 501.005 1526.15 498.394 1530.18 496.374C1563.56 479.657 1564.77 448.574 1550.89 418.677Z"/><path fill="#F9FAFC" d="M738.927 251.675L1186.53 383.49L1327.64 424.996C1349.01 431.278 1382.84 440.064 1402.39 447.555L1403.02 478.728C1381.19 470.301 1352.15 462.738 1329.32 456.086L1215.98 422.667L890.24 326.124C837.73 310.557 777.687 294.328 726.129 277.405C723.788 274.033 736.381 255.276 738.927 251.675Z"/><path fill="#A5A9BD" d="M718.501 286.459C748.97 295.157 779.346 304.178 809.624 313.518C825.432 318.368 844.025 324.689 859.851 328.468C867.777 330.932 882.359 334.542 889.054 337.838L889.224 338.646C889.774 341.203 889.794 341.863 891.354 344.02L894.719 345.927C903.857 342.72 904.692 341.637 913.256 344.265L919.027 358.814C923.657 361.744 927.395 364.096 932.299 366.624C902.963 367.138 921.856 378.954 906.042 381.253C895.642 382.765 882.942 361.308 867.471 370.143C865.911 372.415 866.134 373.262 866.23 376.071C861.935 378.253 848.175 375.609 842.741 374.954C820.58 372.279 798.258 376.408 776.031 374.593C764.405 373.643 752.974 371.049 741.559 368.734C736.168 367.604 729.963 366.668 724.476 365.727C719.501 364.924 714.235 363.848 709.232 364.066L707.514 367.306C703.017 370.671 698.863 371.017 694.654 367.186C694.295 363.726 694.246 364.905 696.506 361.493C689.311 359.807 682.366 361.16 676.151 357.781C678.046 353.332 687.819 337.638 691.042 334.517L691.787 334.318C708.572 329.714 745.139 313.092 711.031 299.22L718.501 286.459Z"/><path fill="#F9FAFC" d="M859.851 328.468C867.777 330.932 882.359 334.542 889.054 337.838L889.224 338.646C889.774 341.203 889.794 341.863 891.354 344.02L894.719 345.927L896.651 346.334C889.79 350.953 854.505 355.586 847.525 348.719C847.5 344.433 851.296 343.712 851.853 341.004C853.746 331.794 851.026 333.561 859.851 328.468Z"/><path d="M696.506 361.493C701.686 362.115 704.199 362.328 709.232 364.066L707.514 367.306C703.017 370.671 698.863 371.017 694.654 367.186C694.295 363.726 694.246 364.905 696.506 361.493Z"/><path fill="#FDBE50" d="M1508.32 344.354C1520.42 342.446 1534.49 346.025 1545.59 350.619C1542.73 350.123 1539.86 349.694 1536.98 349.333C1478.25 342.263 1421.71 390.347 1416 447.306C1410.31 504.137 1465.55 587.075 1499.73 630.112C1505.35 637 1509.69 642.34 1514.58 649.722C1511.96 648.227 1509.4 646.658 1506.99 644.839C1485.33 628.475 1432.8 541.088 1420.4 513.4C1413.7 498.449 1408.23 482.698 1406.04 466.405C1402.36 439.155 1410.35 412.252 1427.04 390.547C1447.02 364.555 1476 348.645 1508.32 344.354Z"/><path fill="#969BF3" d="M621.733 433.472C617.75 429.126 613.164 423.523 609.598 418.365C561.09 348.199 510.786 268.488 490.166 184.797C487.692 174.756 489.039 154.494 490.577 144.797C496.646 104.57 518.518 68.4293 551.34 44.3937C594.72 13.068 646.878 7.80639 693.141 31.787C698.548 34.5897 708.691 42.4393 713.815 42.9117C746.517 71.4789 766.576 111.832 769.607 155.148C771.572 182.345 765.517 199.796 752.99 223.83C751.222 227.221 744.379 239.594 743.31 242.281C742.381 244.258 739.538 249.92 738.927 251.675C736.381 255.276 723.788 274.033 726.129 277.405C722.098 279.167 720.431 282.553 718.501 286.459L711.031 299.22C704.485 310.525 696.946 323.011 691.042 334.517C687.819 337.638 678.046 353.332 676.151 357.781C672.704 364.978 667.409 372.521 663.003 379.32L662.575 380.833L664.752 381.321C657.339 384.595 650.036 401.811 644.314 409.787C643.243 413.053 635.966 422.834 633.582 426.216C629.724 428.684 625.656 431.086 621.733 433.472ZM679.735 160.158C683.981 134.804 675.071 112.84 654.886 97.2868C620.918 81.2147 581.679 97.1501 565.905 130.636C557.762 147.667 556.811 167.257 563.266 184.997C566.18 193.095 576.636 211.297 585.074 213.724C594.166 206.597 612.944 197.445 623.865 191.582C642.742 181.565 661.371 171.087 679.735 160.158Z"/><path d="M654.886 97.2868C661.526 96.9341 670.731 103.995 675.677 108.411C689.708 120.926 698.18 138.51 699.223 157.283C700.151 176.076 693.536 194.461 680.849 208.356C668.333 222.085 650.888 230.297 632.333 231.195C618.787 231.789 598.621 227.375 588.797 217.601C586.48 216.652 586.355 216.502 584.428 214.855L585.074 213.724C594.166 206.597 612.944 197.445 623.865 191.582C642.742 181.565 661.371 171.087 679.735 160.158C683.981 134.804 675.071 112.84 654.886 97.2868Z"/><path fill="#F9FAFC" d="M585.074 213.724C594.166 206.597 612.944 197.445 623.865 191.582C642.742 181.565 661.371 171.087 679.735 160.158C677.558 168.168 675.842 173.874 672.36 181.356C658.134 211.919 621.352 230.357 588.797 217.601C586.48 216.652 586.355 216.502 584.428 214.855L585.074 213.724Z"/><path fill="#969BF3" d="M673.372 109.595C687.275 117.703 694.841 144.968 694.461 160.528C693.942 179.666 685.902 197.828 672.084 211.079C656.085 226.276 640.309 229.504 619.058 229.022C614.347 228.392 609.854 226.907 605.296 225.556C618.736 224.312 627.963 222.959 640.346 217.05C658.58 208.532 672.602 193.011 679.231 174.009C687.429 150.445 683.82 131.206 673.372 109.595Z"/><path fill="#A5A9BD" d="M1592.53 540.433L1792.82 601.834C1805.19 605.635 1854.39 622.566 1864.63 623.38L1866.45 625.682C1864.67 630.641 1853.26 634.655 1848.56 638.44L1841.85 636.162C1835.24 634.253 1823.23 632.312 1815.97 630.967C1797.25 627.494 1782.42 623.991 1764.8 616.542C1755.02 618.528 1701.38 626.096 1696.09 621.334L1696.46 619.376C1699.46 616.018 1705.35 613.772 1709.59 611.789C1726.85 613.23 1746.74 615.149 1764.15 615.79C1766.33 615.87 1770.97 613.848 1773.04 612.7L1773.06 611.437C1762.52 603.813 1733.67 607.124 1719.97 604.731C1707.59 602.57 1698.63 597.154 1687.34 594.075C1669.45 589.193 1647.33 588.209 1628.73 587.563C1641.13 597.214 1643.21 599.514 1658.55 601.839C1625.13 612.676 1595.91 606.081 1561.81 601.375C1557.48 603.832 1556.16 604.472 1551.44 605.976C1553.35 600.974 1562.73 587.14 1566.04 581.984L1592.53 540.433Z"/><path fill="#F9FAFC" d="M1864.63 623.38L1866.45 625.682C1864.67 630.641 1853.26 634.655 1848.56 638.44L1841.85 636.162C1845.87 634.61 1857.57 626.488 1864.63 623.38Z"/><path fill="#969BF3" d="M606.994 5.40834C623.737 3.3113 656.137 9.35791 670.668 17.8927C627.868 10.9207 595.351 11.2677 557.45 35.6339C522.686 57.8569 498.136 92.943 489.171 133.218C475.786 195.454 506.979 249.015 533.754 302.518C551.35 337.681 573.749 370.426 595.128 403.395L617.053 436.57C597.947 427.54 575.429 391.811 563.984 373.401C525.939 312.203 480.613 242.011 469.447 169.836C464.32 136.692 487.985 80.1185 510.475 55.9419C537.071 25.887 567.137 8.70781 606.994 5.40834Z"/><path d="M898.094 583.233C875.131 600.406 855.249 601.996 826.8 599.137C815.714 599.215 781.876 588.725 784.935 573.694C789.564 550.947 842.152 551.589 855.2 553.189C870.657 555.651 904.862 560.085 898.094 583.233Z"/></svg>