<?xml version="1.0" encoding="utf-8" ?><svg xmlns="http://www.w3.org/2000/svg" xmlns:xlink="http://www.w3.org/1999/xlink" width="1417" height="1417" viewBox="0 0 1417 1417"><path fill="#090909" transform="matrix(1.36993 0.0140979 -0.0140979 1.36993 14.4365 0)" d="M515.084 48.1377C520.375 42.2959 524.043 37.9553 530.948 33.9413C547.639 24.2393 569.162 26.9959 583.529 39.8701C592.655 48.1335 598.135 59.676 598.769 71.9706C599.79 91.7294 590.41 105.987 573.7 115.665L570.823 127.038C581.591 139.382 577.621 144.39 572.518 158.554C569.391 167.231 564.952 176.444 554.168 175.217C550.106 174.863 544.339 172.67 540.828 172.565L540.925 173.316C541.456 177.55 541.166 190.185 542.748 192.546C543.756 192.496 543.618 192.531 544.614 192.296C549.242 191.079 557.687 189.391 562 191.94C568.339 195.686 566.504 204.043 566.449 209.991C568.256 213.239 570.133 216.765 572.13 219.871C587.539 216.426 638.961 204.407 651.712 212.929C652.775 213.64 653.707 214.554 654.625 215.438C656.597 220.828 656.636 223.617 654.214 228.925C652.446 232.8 649.063 238.616 650.949 242.978C655.007 252.363 658.938 254.204 654.708 265.203C651.42 273.752 641.253 278.884 638.213 286.335C632.903 299.346 643.097 322.336 625.792 329.984C621.134 332.043 614.863 331.921 609.952 330.756C611.789 334.903 611.877 337.767 612.157 342.181C630.401 328.033 644.755 320.12 667.518 315.276C665.043 309.886 663.799 304.459 664.991 298.509C666.222 292.413 669.909 287.094 675.185 283.802C680.987 280.127 688.302 279.098 694.945 280.719C701.187 282.226 706.544 286.211 709.783 291.755C714.026 298.994 713.506 306.111 711.384 313.781C728.649 316.409 754.287 324.862 767.68 335.888C771.96 329.948 776.645 325.97 784.189 324.746C790.531 323.692 797.031 325.232 802.225 329.02C813.503 337.254 816.236 353.061 807.309 364.185C805.677 366.255 803.728 368.055 801.536 369.518C814.465 387.98 820.025 405.913 823.703 427.808C830.566 424.07 837.019 422.559 844.827 424.858C850.952 426.693 856.086 430.905 859.083 436.552C862.341 442.687 862.934 449.892 860.724 456.477C855.224 472.953 836.318 477.269 822.176 468.354C816.053 493.729 808.407 510.597 790.828 530.613C787.008 534.056 782.962 539.466 779.055 542.346C778.848 542.474 778.641 542.602 778.433 542.73C769.238 550.259 759.689 557.408 748.772 562.304C745.441 563.797 741.89 565.205 738.418 566.453C734.17 567.992 729.849 569.321 725.47 570.435C723.06 571.033 715.329 572.622 713.627 573.466C711.055 572.958 700.349 574.55 696.268 574.627C671.432 574.191 654.726 569.822 632.504 559.295C629.58 564.54 625.47 569.476 621.911 574.423C625.865 580.522 627.247 585.685 625.7 593.129C624.345 599.36 620.524 604.776 615.109 608.143C607.377 613.002 598.302 612.766 590.403 608.516C591.899 624.679 593.498 640.406 596.643 656.384C599.725 669.961 605.057 683.611 604.673 697.524C604.414 706.891 596.736 719.117 598.705 728.019C604.002 751.966 621.682 767.594 619.108 794.225C617.461 811.262 611.514 820.02 596.965 829.279C597.981 836.28 599.382 846.929 594.968 852.421C591.251 857.046 590.693 855.898 587.679 858.55C588.718 866.093 589.354 876.05 589.662 883.686C591.078 883.849 592.489 884.056 593.893 884.305C620.1 889.177 609.154 905.244 607.574 921.768C607.093 926.793 614.173 936.844 615.583 941.801C618.861 953.331 622.482 978.86 620.023 989.986C607.531 1005.04 563.67 999.572 546.026 1000.59C536.399 1001.15 535.828 999.277 533.08 990.857C527.041 991.542 502.827 991.579 501.449 993.818C494.816 1004.6 500.873 1004.57 480.643 1004.91C470.841 1005.06 461.037 1005 451.237 1004.73C446.236 1004.63 440.541 1004.7 435.595 1004.38C417.738 1003.2 386.293 1006.38 374.636 990.047C374.333 987.711 374.276 985.218 374.165 982.853C359.705 977.202 361.276 972.842 362.55 958.19C363.16 951.176 366.56 947.59 369.666 941.939C380.454 922.314 399.982 927.988 417.818 921.762C424.217 919.495 426.83 915.825 431.895 911.794C432.952 910.953 435.616 911.726 437.1 912.037L442.904 909.362C445.722 902.033 446.081 901.109 453.633 903.931C462.732 899.256 459.558 895.913 464.269 893.037C466.234 892.557 468.424 893.439 470.45 893.995C472.968 892.553 475.2 890.322 477.358 888.349C477.44 886.453 477.876 884.729 479.19 883.318C480.994 882.76 482.916 883.238 484.831 883.511C487.651 879.323 489.266 874.879 491.389 870.339C494.776 863.091 497.533 862.58 504.483 864.219C504.605 860.135 504.634 856.049 504.568 851.964C491.071 849.914 491.374 845.702 492.4 833.088C474.874 826.658 459.716 816.674 454.649 797.37C450.709 782.362 466.718 770.561 464.692 756.191C462.519 740.778 448.041 729.051 446.274 713.044C444.487 699.701 445.422 689.334 447.87 676.121C449.217 668.85 450.497 662.378 449.891 654.953C448.655 639.821 433.502 628.19 430.783 614.353C427.534 597.825 429.346 577.728 429.211 560.731C429.165 554.966 429.683 549.687 429.046 543.862L428.959 543.097C416.566 537.808 414.119 533.427 415.636 520.394C410.849 517.475 403.623 513.235 400.877 508.206C394.008 495.626 412.062 487.937 414.524 478.039C417.252 467.078 409.986 457.232 413.973 445.266C417.648 434.236 427.195 426.621 431.385 416.733C434.423 409.562 437.56 399.934 440.174 392.447L454.485 351.208C460.893 332.579 469.545 310.752 474.752 292.102C469.647 299.135 463.733 304.898 458.674 311.618C448.087 325.682 441.794 345 444.301 362.621C440.945 365.534 435.098 368.751 431.29 371.5C426.974 374.616 423.916 377.537 420.072 381.158C418.443 379.736 418.068 379.404 416.752 377.718C417.259 375.163 430.377 363.93 433.115 361.707C433.938 356.909 434.139 356.616 437.473 353.174C437.288 336.724 441.183 321.556 451.178 308.258C458.64 298.329 471.755 285.926 476.183 274.321C468.958 267.754 468.621 264.145 474.329 256.067C472.806 249.381 471.377 243.908 467.455 238.151C458.308 224.726 466.633 219.879 477.995 213.999C477.214 211.624 477.035 210.414 476.647 207.925C474.397 206.25 468.131 208.999 465.063 209.649C457.729 211.201 447.213 214.857 440.98 208.781C437.153 205.051 437.041 199.924 436.598 194.993C435.909 194.309 435.239 193.607 434.589 192.887C432.35 190.364 432.13 189.466 432.339 186.211C434.328 185.672 438.681 185.147 441.411 184.502L432.673 184.381C427.509 174.639 439.672 173.823 423.528 165.501C427.469 154.883 435.766 139.405 441.115 129.432C431.717 123.652 423.286 119.853 425.43 107.067C425.974 104.535 427.008 101.823 428.212 99.5246C434.28 87.9396 441.173 72.1125 457.225 78.5697C469.529 56.1553 490.042 46.6987 515.084 48.1377ZM587.731 565.361L588.147 567.592C589.041 567.572 590.897 566.621 591.718 566.203C598.347 562.834 601.856 562.573 609.023 564.47C611.708 559.286 614.731 555.031 618.102 550.331C613.73 547.179 609.144 543.002 605.176 539.346C599.799 546.049 594.475 546.511 586.623 547.721C587.14 553.591 587.509 559.473 587.731 565.361Z"/><path fill="#100239" transform="matrix(1.36993 0.0140979 -0.0140979 1.36993 14.4365 0)" d="M667.518 315.276C665.043 309.886 663.799 304.459 664.991 298.509C666.222 292.413 669.909 287.094 675.185 283.802C680.987 280.127 688.302 279.098 694.945 280.719C701.187 282.226 706.544 286.211 709.783 291.755C714.026 298.994 713.506 306.111 711.384 313.781C728.649 316.409 754.287 324.862 767.68 335.888C771.96 329.948 776.645 325.97 784.189 324.746C790.531 323.692 797.031 325.232 802.225 329.02C813.503 337.254 816.236 353.061 807.309 364.185C805.677 366.255 803.728 368.055 801.536 369.518C814.465 387.98 820.025 405.913 823.703 427.808C830.566 424.07 837.019 422.559 844.827 424.858C850.952 426.693 856.086 430.905 859.083 436.552C862.341 442.687 862.934 449.892 860.724 456.477C855.224 472.953 836.318 477.269 822.176 468.354C816.053 493.729 808.407 510.597 790.828 530.613C787.008 534.056 782.962 539.466 779.055 542.346C778.848 542.474 778.641 542.602 778.433 542.73C769.238 550.259 759.689 557.408 748.772 562.304C745.441 563.797 741.89 565.205 738.418 566.453C734.17 567.992 729.849 569.321 725.47 570.435C723.06 571.033 715.329 572.622 713.627 573.466C711.055 572.958 700.349 574.55 696.268 574.627C671.432 574.191 654.726 569.822 632.504 559.295C627.759 557.116 622.496 553.321 618.102 550.331C613.73 547.179 609.144 543.002 605.176 539.346C605.136 538.401 605.137 538.45 605.445 537.575C607.676 531.225 608.434 524.524 608.559 517.83C614.562 515.543 615.327 514.145 619.192 509.059C620.756 505.661 621.304 503.467 621.557 499.764C621.483 498.111 621.679 495.863 620.868 494.741L620.104 495.569C620.084 493.091 619.921 490.9 619.745 488.439C622.473 484.434 615.19 464.019 615.266 456.81C615.343 449.479 615.895 445.493 616.888 438.244C616.746 435.009 616.624 431.773 616.524 428.537C615.334 425.782 614.129 416.587 614.274 413.505C613.94 411.523 613.628 409.537 613.337 407.548C611.446 401.864 611.75 400.578 608.944 394.017L608.345 394.044C607.648 392.424 605.734 383.75 605.255 381.608L599.607 355.489C603.096 349.23 606.421 346.462 612.157 342.181C630.401 328.033 644.755 320.12 667.518 315.276Z"/><defs><linearGradient id="gradient_0" gradientUnits="userSpaceOnUse" x1="725.64325" y1="411.40378" x2="663.29437" y2="481.54108"><stop offset="0" stop-color="#6CD1B6"/><stop offset="1" stop-color="#9A82D9"/></linearGradient></defs><path fill="url(#gradient_0)" transform="matrix(1.36993 0.0140979 -0.0140979 1.36993 14.4365 0)" d="M616.524 428.537L746.354 428.519C755.895 438.275 768.455 450.91 777.134 461.129C763.002 461.578 748.262 461.553 734.09 461.41C702.438 461.091 670.456 462.032 638.848 461.391L616.888 438.244C616.746 435.009 616.624 431.773 616.524 428.537Z"/><defs><linearGradient id="gradient_1" gradientUnits="userSpaceOnUse" x1="711.10461" y1="368.3002" x2="657.63544" y2="442.75803"><stop offset="0" stop-color="#5DE8AE"/><stop offset="1" stop-color="#88A3CD"/></linearGradient></defs><path fill="url(#gradient_1)" transform="matrix(1.36993 0.0140979 -0.0140979 1.36993 14.4365 0)" d="M638.487 380.5C667.51 380.45 699.379 379.817 728.225 380.504C727.281 380.81 726.332 381.103 725.38 381.384L725.452 381.789L726.224 381.885C733.588 382.834 744.075 392.357 750.271 396.839C751.732 397.896 753.729 399.986 754.794 401.428C755.626 401.718 756.29 401.98 757.148 402.184L746.509 413.515C703.109 413.553 657.442 414.314 614.274 413.505C613.94 411.523 613.628 409.537 613.337 407.548C621.669 398.484 630.052 389.468 638.487 380.5Z"/><defs><linearGradient id="gradient_2" gradientUnits="userSpaceOnUse" x1="734.03882" y1="444.91986" x2="682.13806" y2="511.99777"><stop offset="0" stop-color="#74BBC2"/><stop offset="1" stop-color="#AD6BE5"/></linearGradient></defs><path fill="url(#gradient_2)" transform="matrix(1.36993 0.0140979 -0.0140979 1.36993 14.4365 0)" d="M642.142 475.981C652.768 476.568 667.366 476.09 678.348 476.09L745.719 476.216C755.643 476.243 768.897 475.925 778.581 476.611C776.516 479.261 774.298 481.66 771.966 484.074C763.989 492.327 756.239 500.95 748.117 509.056L675.544 509.069L677.321 508.423C675.328 501.411 660.967 495.32 655.144 490.867C650.501 487.317 646.828 483.185 642.582 479.186C641.468 478.137 641.903 477.5 642.142 475.981Z"/><path fill="#090909" transform="matrix(1.36993 0.0140979 -0.0140979 1.36993 14.4365 0)" d="M823.703 427.808C830.566 424.07 837.019 422.559 844.827 424.858C850.952 426.693 856.086 430.905 859.083 436.552C862.341 442.687 862.934 449.892 860.724 456.477C855.224 472.953 836.318 477.269 822.176 468.354C825.469 451.709 823.878 443.545 823.703 427.808Z"/><path fill="#090909" transform="matrix(1.36993 0.0140979 -0.0140979 1.36993 14.4365 0)" d="M667.518 315.276C665.043 309.886 663.799 304.459 664.991 298.509C666.222 292.413 669.909 287.094 675.185 283.802C680.987 280.127 688.302 279.098 694.945 280.719C701.187 282.226 706.544 286.211 709.783 291.755C714.026 298.994 713.506 306.111 711.384 313.781C698.875 312.228 679.633 312.379 667.518 315.276Z"/><path fill="#090909" transform="matrix(1.36993 0.0140979 -0.0140979 1.36993 14.4365 0)" d="M767.68 335.888C771.96 329.948 776.645 325.97 784.189 324.746C790.531 323.692 797.031 325.232 802.225 329.02C813.503 337.254 816.236 353.061 807.309 364.185C805.677 366.255 803.728 368.055 801.536 369.518C801.075 369.251 800.297 368.219 799.985 367.75C790.423 353.38 780.952 346.576 768.378 336.457L767.68 335.888Z"/><defs><linearGradient id="gradient_3" gradientUnits="userSpaceOnUse" x1="635.8783" y1="520.04938" x2="658.9165" y2="490.64642"><stop offset="0" stop-color="#CA44F7"/><stop offset="1" stop-color="#AA6DE2"/></linearGradient></defs><path fill="url(#gradient_3)" transform="matrix(1.36993 0.0140979 -0.0140979 1.36993 14.4365 0)" d="M621.557 499.764C621.893 496.6 622.503 494.558 624.863 492.336C628.679 488.742 637.364 476.4 642.142 475.981C641.903 477.5 641.468 478.137 642.582 479.186C646.828 483.185 650.501 487.317 655.144 490.867C660.967 495.32 675.328 501.411 677.321 508.423L675.544 509.069C657.395 509.043 637.111 509.685 619.192 509.059C620.756 505.661 621.304 503.467 621.557 499.764Z"/><path fill="#5AE8AF" transform="matrix(1.36993 0.0140979 -0.0140979 1.36993 14.4365 0)" d="M728.225 380.504C741.489 379.92 755.09 380.509 768.378 380.381C771.151 380.354 774.052 380.39 776.812 380.584C772.155 386.904 762.683 396.394 757.148 402.184C756.29 401.98 755.626 401.718 754.794 401.428C753.729 399.986 751.732 397.896 750.271 396.839C744.075 392.357 733.588 382.834 726.224 381.885L725.452 381.789L725.38 381.384C726.332 381.103 727.281 380.81 728.225 380.504Z"/><path fill="#F86E30" transform="matrix(1.36993 0.0140979 -0.0140979 1.36993 14.4365 0)" d="M534.539 260.897C542.963 261.858 554.519 266.246 561.863 270.539C582.015 282.32 584.779 296.058 590.26 317.035C592.817 326.308 598.121 346.23 599.607 355.489L605.255 381.608C605.734 383.75 607.648 392.424 608.345 394.044L608.944 394.017C611.75 400.578 611.446 401.864 613.337 407.548C613.628 409.537 613.94 411.523 614.274 413.505C614.129 416.587 615.334 425.782 616.524 428.537C616.624 431.773 616.746 435.009 616.888 438.244C615.895 445.493 615.343 449.479 615.266 456.81C615.19 464.019 622.473 484.434 619.745 488.439C619.921 490.9 620.084 493.091 620.104 495.569C619.602 505.137 617.294 514.396 606.342 516.056C594.82 514.921 578.891 515.69 567.042 516.018C565.644 510.77 559.579 500.69 559.81 497.173C561.041 478.441 583.44 474.063 586.362 453.967C589.258 434.05 577.595 424.113 576.553 405.59C575.768 391.657 587.002 378.88 587.287 364.905C587.762 351.998 583.595 339.697 575.05 330.079C564.525 318.234 549.791 314.26 534.575 313.391L534.539 260.897Z"/><path fill="#090909" transform="matrix(1.36993 0.0140979 -0.0140979 1.36993 14.4365 0)" d="M608.345 394.044L608.944 394.017C611.75 400.578 611.446 401.864 613.337 407.548C613.628 409.537 613.94 411.523 614.274 413.505C614.129 416.587 615.334 425.782 616.524 428.537C616.624 431.773 616.746 435.009 616.888 438.244C615.895 445.493 615.343 449.479 615.266 456.81C615.19 464.019 622.473 484.434 619.745 488.439C618.591 479.246 614.991 469.746 614.213 460.764C613.317 450.424 615.113 439.262 614.557 428.655C613.911 416.324 610.588 405.961 608.345 394.044Z"/><path fill="#5D86E5" transform="matrix(1.36993 0.0140979 -0.0140979 1.36993 14.4365 0)" d="M567.042 516.018C578.891 515.69 594.82 514.921 606.342 516.056C606.58 524.608 607.418 538.68 598.109 542.859C580.758 550.647 554.551 547.953 536.933 543.043L537.102 542.834C547.792 529.422 564.371 535.435 567.042 516.018Z"/><path fill="#5D86E5" transform="matrix(1.36993 0.0140979 -0.0140979 1.36993 14.4365 0)" d="M526.291 315.689C538.379 314.18 554.791 317.318 565.153 324.032C577.032 331.73 581.624 341.057 584.885 354.453C589.505 373.428 575.565 385.703 574.956 403.856C574.391 420.702 586.91 434.371 584.904 451.23C583.208 468.16 570.142 472.952 561.371 485.639C553.202 497.497 562.636 506.058 565.184 517.931C561.742 531.942 549.504 529.019 540.454 536.667C532.357 543.51 532.466 550.561 521.729 555.297L520.963 555.55C507.179 560.203 486.166 556.044 474.045 548.209C465.609 542.756 456.682 537.775 464.04 527.203C489.105 517.949 463.126 503.142 461.4 489.316C459.443 473.644 478.593 464.05 482.203 449.701C484.349 444.172 483.061 436.661 484.23 431.306C488.467 411.888 488.556 393.606 489.006 373.976C489.32 360.293 494.024 340.774 501.379 329.026C501.992 328.044 502.649 327.09 503.349 326.169C509.886 317.608 516.291 316.982 526.291 315.689Z"/><path fill="#FDB86A" transform="matrix(1.36993 0.0140979 -0.0140979 1.36993 14.4365 0)" d="M430.65 577.756C438.542 572.936 444.61 566.545 449.018 558.4C451.17 554.422 453.07 546.754 457.452 545.508C460.451 547.103 459.6 549.707 460.584 552.495C461.227 554.757 463.832 558.256 464.373 560.329C468.113 574.639 473.353 584.386 485.603 593.21C493.25 598.718 500.188 601.271 509.353 604.278C513.387 628.995 516.119 654.032 520.667 678.632C524.715 699.744 531.324 720.47 536.243 741.349C540.325 758.674 544.819 770.951 552.352 786.954L553.39 789.033C557.725 802.297 556.135 805.279 554.558 818.671C553.833 825.137 553.911 831.668 554.791 838.115C553.107 839.421 548.092 839.081 545.919 839.114C528.757 839.37 511.711 837.103 495.192 832.482L494.89 832.25L493.403 831.899C486.012 828.265 483.631 828.308 475.952 823.409C474.015 822.184 473.514 821.645 471.826 820.033C470.196 818.889 469.352 818.065 468.134 816.812C441.641 789.563 466.328 781.22 466.234 756.122C466.188 743.921 450.11 730.21 447.728 711.67C444.605 687.36 453.032 674.185 451.061 651.237C450.257 641.878 438.821 630.697 435.046 621.827C429.408 608.577 430.448 592.032 430.65 577.756Z"/><path fill="#FDB86A" transform="matrix(1.36993 0.0140979 -0.0140979 1.36993 14.4365 0)" d="M494.89 832.25C495.853 831.468 496.39 831.198 496.702 829.872C498.899 820.537 500.254 813.521 504.998 805.117C512.867 790.585 528.169 786.775 543.595 788.767C545.692 789.038 551.743 789.857 553.39 789.033C557.725 802.297 556.135 805.279 554.558 818.671C553.833 825.137 553.911 831.668 554.791 838.115C553.107 839.421 548.092 839.081 545.919 839.114C528.757 839.37 511.711 837.103 495.192 832.482L494.89 832.25Z"/><path fill="#F9F9F9" transform="matrix(1.36993 0.0140979 -0.0140979 1.36993 14.4365 0)" d="M518.247 813.868C520.236 813.973 520.355 813.844 521.342 814.928C520.02 818.969 514.955 817.544 511.991 827.897C511.515 828.93 511.899 828.532 510.772 829.019L509.919 828.31C507.442 822.89 514.171 816.529 518.247 813.868Z"/><path fill="#F9F9F9" transform="matrix(1.36993 0.0140979 -0.0140979 1.36993 14.4365 0)" d="M471.826 820.033C465.83 800.064 473 785.17 489.999 773.922C494.956 770.641 500.186 768.095 505.127 764.836C526.298 750.288 528.947 708.348 504.801 695.322C490.022 687.349 475.26 693.212 467.075 707.515C457.863 723.613 473.077 741.964 489.735 735.866C493.399 734.555 496.364 731.799 497.942 728.242C499.721 724.336 500.23 719.639 498.694 715.569C497.479 712.249 494.961 709.569 491.724 708.149C486.516 705.915 480.47 707.031 478.183 713.014C474.837 721.77 487.617 719.994 487.145 724.754C484.06 726.663 477.077 722.712 475.297 719.704C471.839 713.862 475.961 708.082 481.289 705.327C489.656 701.001 497.251 704.846 500.981 713.007C503.393 718.253 503.467 724.277 501.182 729.58C493.753 747.258 466.175 739.807 462.312 724.853C456.217 701.258 483.208 680.199 504.958 691.706C514.053 696.582 520.808 704.906 523.708 714.809C527.543 727.694 525.707 741.117 519.608 752.993C508.241 775.131 483.854 772.159 475.039 796.985C470.926 808.569 477.117 819.341 475.952 823.409C474.015 822.184 473.514 821.645 471.826 820.033Z"/><path fill="#F9F9F9" transform="matrix(1.36993 0.0140979 -0.0140979 1.36993 14.4365 0)" d="M493.403 831.899C493.64 816.526 502.322 797.071 516.217 789.553C527.303 783.554 540.534 783.6 552.352 786.954L553.39 789.033C551.743 789.857 545.692 789.038 543.595 788.767C528.169 786.775 512.867 790.585 504.998 805.117C500.254 813.521 498.899 820.537 496.702 829.872C496.39 831.198 495.853 831.468 494.89 832.25L493.403 831.899Z"/><path fill="#FDB86A" transform="matrix(1.36993 0.0140979 -0.0140979 1.36993 14.4365 0)" d="M535.636 544.731C553.226 549.077 566.925 550.97 585.174 548.349C585.516 554.199 585.709 562.461 586.567 568.035L586.357 569.502C584.436 570.404 543.162 569.92 537.667 570.03C540.916 585.825 544.053 601.643 547.08 617.482C548.956 627.336 550.868 636.394 553.193 646.094C557.6 664.477 589.664 653.433 595.467 657.607C596.35 667.669 602.917 679.802 603.041 691.036C603.148 700.778 602.085 705.587 598.485 714.628C592.647 729.293 604.242 748.386 611.069 761.693L612.403 764.575C616.312 774.507 616.905 778.854 617.965 789.393L617.86 794.055C616.664 802.516 614.456 813.056 607.694 819.047L604.561 821.931C601.666 824.292 599.245 826.473 595.837 828.054C581.788 834.367 571.259 836.666 555.983 838.628C556.473 831.325 555.336 824.761 556.202 816.175C560.183 793.851 556.199 790.153 546.475 769.102C545.716 767.239 544.982 765.367 544.272 763.486C541.368 756.846 536.331 734.798 534.248 726.511C533.654 724.594 533.095 721.979 532.602 719.978C531.91 716.121 530.777 711.873 529.643 708.109C522.283 683.681 519.432 658.742 515.729 633.6C512.611 613.48 509.723 593.325 507.066 573.138C515.63 570.355 516.914 567.125 519.105 558.824C528.868 554.535 530.122 553.684 535.636 544.731Z"/><path fill="#FDB86A" transform="matrix(1.36993 0.0140979 -0.0140979 1.36993 14.4365 0)" d="M532.602 719.978C535.537 710.364 540.595 697.922 549.854 693.097C566.196 684.579 592.012 699.883 592.118 718.418C592.188 730.625 583.561 737.407 572.926 740.478C584.293 754.299 594.085 758.847 611.069 761.693L612.403 764.575C616.312 774.507 616.905 778.854 617.965 789.393L617.86 794.055C616.664 802.516 614.456 813.056 607.694 819.047L604.561 821.931C601.666 824.292 599.245 826.473 595.837 828.054C581.788 834.367 571.259 836.666 555.983 838.628C556.473 831.325 555.336 824.761 556.202 816.175C560.183 793.851 556.199 790.153 546.475 769.102C545.716 767.239 544.982 765.367 544.272 763.486C541.368 756.846 536.331 734.798 534.248 726.511C533.654 724.594 533.095 721.979 532.602 719.978Z"/><path fill="#FDB86A" transform="matrix(1.36993 0.0140979 -0.0140979 1.36993 14.4365 0)" d="M546.475 769.102C554.595 774.649 560.082 779.32 569.573 782.175C584.282 786.599 599.766 780.056 612.401 790.333C613.677 791.371 616.503 793.976 617.86 794.055C616.664 802.516 614.456 813.056 607.694 819.047L604.561 821.931C601.666 824.292 599.245 826.473 595.837 828.054C581.788 834.367 571.259 836.666 555.983 838.628C556.473 831.325 555.336 824.761 556.202 816.175C560.183 793.851 556.199 790.153 546.475 769.102Z"/><path fill="#FDB86A" transform="matrix(1.36993 0.0140979 -0.0140979 1.36993 14.4365 0)" d="M556.202 816.175C556.503 818.601 556.072 818.103 557.451 819.593C562.159 821.425 568.113 819.294 573.459 817.153C580.79 814.218 596.929 801.127 603.743 811.509C605.177 813.693 603.266 818.901 604.561 821.931C601.666 824.292 599.245 826.473 595.837 828.054C581.788 834.367 571.259 836.666 555.983 838.628C556.473 831.325 555.336 824.761 556.202 816.175Z"/><path fill="#F9F9F9" transform="matrix(1.36993 0.0140979 -0.0140979 1.36993 14.4365 0)" d="M556.202 816.175C559.906 816.316 564.068 816.614 567.774 815.534C578.899 812.291 594.007 797.955 605.346 807.193C608.371 809.657 608.333 815.499 607.694 819.047L604.561 821.931C603.266 818.901 605.177 813.693 603.743 811.509C596.929 801.127 580.79 814.218 573.459 817.153C568.113 819.294 562.159 821.425 557.451 819.593C556.072 818.103 556.503 818.601 556.202 816.175Z"/><path fill="#F9F9F9" transform="matrix(1.36993 0.0140979 -0.0140979 1.36993 14.4365 0)" d="M532.602 719.978C535.537 710.364 540.595 697.922 549.854 693.097C566.196 684.579 592.012 699.883 592.118 718.418C592.188 730.625 583.561 737.407 572.926 740.478C584.293 754.299 594.085 758.847 611.069 761.693L612.403 764.575C610.774 765.112 605.903 764.73 604.093 764.404C590.221 761.905 577.432 751.708 569.13 740.955C565.209 739.622 562.098 738.647 559.372 735.223C553.214 727.488 557.271 715.024 564.434 709.395C565.973 708.186 567.416 707.514 569.38 707.821C570.325 711.186 557.936 718.138 559.892 728.356C562.548 742.228 578.981 737.382 585.266 728.457C587.995 724.57 589.047 719.748 588.185 715.077C585.726 701.736 568.39 691.782 555.382 694.499C547.052 696.238 540.928 705.812 538.556 713.451C537.384 717.225 536.462 723.281 534.248 726.511C533.654 724.594 533.095 721.979 532.602 719.978Z"/><path fill="#F9F9F9" transform="matrix(1.36993 0.0140979 -0.0140979 1.36993 14.4365 0)" d="M544.272 763.486C552.388 767.463 558.769 775.862 568.864 778.508C590.024 784.054 598.739 775.857 617.965 789.393L617.86 794.055C616.503 793.976 613.677 791.371 612.401 790.333C599.766 780.056 584.282 786.599 569.573 782.175C560.082 779.32 554.595 774.649 546.475 769.102C545.716 767.239 544.982 765.367 544.272 763.486Z"/><path fill="#5D86E5" transform="matrix(1.36993 0.0140979 -0.0140979 1.36993 14.4365 0)" d="M512.447 257.41C516.135 257.068 528.628 259.931 532.752 260.834C532.53 278.393 532.458 295.953 532.536 313.513C523.513 313.486 513.285 314.715 506.207 320.797C493.847 331.418 488.525 354.137 487.363 369.628C486.563 380.282 487.013 391.978 486.352 402.771C485.741 412.734 484.123 421.377 482.579 431.206C481.774 436.328 481.837 442.388 480.746 447.518C477.377 463.356 460.284 469.857 459.098 486.827C458.31 498.117 472.921 506.915 472.715 517.588C472.682 519.266 471.178 521.427 469.807 522.394C462.92 527.253 442.385 525.493 434.028 524.474C423.808 523.12 404.467 516.375 401.408 504.971C398.873 495.523 413.794 487.42 415.998 478.308C418.725 467.036 411.747 457.067 415.542 446.08C419.602 434.676 429.391 426.336 433.905 415.012C438.216 404.197 441.744 393.224 445.611 382.273L466.74 322.363C473.051 304.297 477.111 289.136 486.524 272.285L512.447 257.41Z"/><path fill="#F86E30" transform="matrix(1.36993 0.0140979 -0.0140979 1.36993 14.4365 0)" d="M516.386 50.0828C524.197 39.2621 533.199 32.6103 546.623 30.4965C557.936 28.6145 569.529 31.3974 578.755 38.2098C588.638 45.3591 595.209 56.2007 596.976 68.2694C598.606 79.8641 595.597 91.634 588.602 101.023C584.188 106.865 578.362 110.681 572.287 114.655C571.361 118.531 570.447 122.871 569.058 126.557C558.621 122.294 544.239 118.347 533.158 114.426C514.216 107.7 495.761 99.6763 477.924 90.411C473.852 88.3262 461.759 81.838 458.651 78.8685L458.948 78.5248C461.865 75.0932 464.199 71.0811 467.164 67.7411C480.538 52.6805 496.95 48.907 516.386 50.0828Z"/><path fill="#5D86E5" transform="matrix(1.36993 0.0140979 -0.0140979 1.36993 14.4365 0)" d="M515.681 255.741C538.194 246.247 555.512 241.488 579.374 236.473C591.573 233.909 635.971 225.564 643.912 217.643L644.283 216.4C639.169 209.71 592.611 220.783 583.309 221.671C580.899 221.901 574.89 223.429 572.79 222.756C573.884 218.469 626.29 211.71 634.286 211.521C662.903 210.843 654.279 224.013 648.137 239.915C651.65 248.554 657.314 254.644 653.445 264.446C650.442 272.053 639.529 278.438 637.107 284.957C630.131 303.731 645.494 332.75 610.816 329.291C603.569 326.905 594.417 323.277 591.829 315.63C586.381 293.321 583.254 281.872 562.904 269.109C545.084 257.933 532.798 260.237 515.681 255.741Z"/><path fill="#F86E30" transform="matrix(1.36993 0.0140979 -0.0140979 1.36993 14.4365 0)" d="M527.11 910.104C544.211 918.365 551.355 923.644 570.544 927.309C570.441 939.159 570.468 951.01 570.625 962.86C565.669 967.289 563.133 967.883 556.941 969.212C543.365 961.54 540.169 960.582 524.773 965.729C486.745 978.441 447.347 979.351 408.293 973.085C398.928 971.142 389.658 968.797 381.421 963.882C383.614 961.053 384.905 958.829 387.447 956.035C397.266 945.241 410.516 944.291 424.247 941.813C430.845 944.346 438.387 949.336 445.723 952.148C449.135 949.621 452.168 947.384 455.397 944.6C458.298 946.044 463.013 948.621 466.213 947.843C469.533 947.036 468.049 943.227 467.021 941.35L476.046 937.188C482.789 941.43 485.435 942.231 485.594 932.533L492.67 928.283L499.133 932.395C501.86 930.244 502.406 930.174 503.04 926.784C503.914 922.111 507.143 920.931 511.002 918.623C512.982 920.07 516.237 922.129 518.721 922.202C522.494 922.313 521.056 916.376 520.834 914.257C522.385 912.522 525.012 911.287 527.11 910.104Z"/><path fill="#090909" transform="matrix(1.36993 0.0140979 -0.0140979 1.36993 14.4365 0)" d="M534.242 930.764C538.319 929.637 542.687 930.787 545.68 933.777C548.672 936.767 549.827 941.135 548.702 945.213C547.578 949.291 544.348 952.45 540.246 953.484C534.004 955.057 527.658 951.316 526.014 945.092C524.369 938.869 528.037 932.481 534.242 930.764Z"/><path fill="#F9F9F9" transform="matrix(1.36993 0.0140979 -0.0140979 1.36993 14.4365 0)" d="M535.553 932.168C540.941 931.23 546.082 934.795 547.093 940.169C548.104 945.543 544.61 950.732 539.25 951.817C535.718 952.531 532.074 951.289 529.713 948.566C527.352 945.842 526.64 942.058 527.85 938.663C529.059 935.268 532.002 932.786 535.553 932.168Z"/><path fill="#090909" transform="matrix(1.36993 0.0140979 -0.0140979 1.36993 14.4365 0)" d="M499.56 943.769C505.868 942.897 511.706 947.26 512.657 953.558C513.608 959.855 509.319 965.747 503.034 966.777C498.897 967.455 494.716 965.856 492.087 962.59C489.459 959.325 488.791 954.898 490.337 951.002C491.884 947.105 495.407 944.343 499.56 943.769Z"/><path fill="#F9F9F9" transform="matrix(1.36993 0.0140979 -0.0140979 1.36993 14.4365 0)" d="M498.271 945.726C501.704 944.688 505.431 945.581 508.021 948.062C510.611 950.544 511.663 954.228 510.774 957.703C509.885 961.178 507.192 963.904 503.728 964.836C500.702 965.65 497.47 964.99 495.006 963.054C492.543 961.119 491.136 958.135 491.21 955.003C491.313 950.71 494.16 946.968 498.271 945.726Z"/><path fill="#090909" transform="matrix(1.36993 0.0140979 -0.0140979 1.36993 14.4365 0)" d="M467.681 954.784C471.794 953.343 476.295 955.508 477.738 959.62C479.181 963.732 477.019 968.235 472.908 969.681C468.794 971.128 464.285 968.963 462.841 964.848C461.397 960.732 463.564 956.225 467.681 954.784Z"/><path fill="#F9F9F9" transform="matrix(1.36993 0.0140979 -0.0140979 1.36993 14.4365 0)" d="M469.552 956.309C472.864 955.875 475.906 958.192 476.367 961.5C476.828 964.809 474.535 967.87 471.231 968.357C467.888 968.85 464.785 966.525 464.319 963.179C463.853 959.833 466.202 956.748 469.552 956.309Z"/><path fill="#F9F9F9" transform="matrix(1.36993 0.0140979 -0.0140979 1.36993 14.4365 0)" d="M608.014 957.281C610.647 956.958 614.636 956.959 617.408 956.885C618.568 964.157 621.357 987.553 616.757 990.945C601.522 1002.18 553.944 999.528 538.205 999.045C536.643 996.011 535.157 992.547 533.736 989.409C522.483 990.405 511.467 990.645 500.212 991.343C499.287 994.343 498.125 1000.32 495.041 1001.85C487.803 1005.47 421.551 1003.25 409.748 1002.09C402.522 1001.4 395.374 1000.06 388.393 998.071C374.057 993.467 375.514 987.8 376.923 975.001C387.051 980.717 404.694 983.872 416.379 985.587C442.299 989.394 470.092 990.81 496.058 986.707C508.552 984.733 521.643 980.947 533.807 977.6L563.217 969.68C567.339 968.537 570.842 964.93 574.898 962.968C585.269 957.949 596.782 957.754 608.014 957.281Z"/><path fill="#5D86E5" transform="matrix(1.36993 0.0140979 -0.0140979 1.36993 14.4365 0)" d="M602.417 890.999C610.121 890.725 610.957 898.421 609.526 904.285C608.495 908.508 606.958 913.01 606.546 917.34C605.592 927.368 611.667 936.253 614.937 945.289C616.008 948.235 616.508 951.979 616.995 955.128C599.516 956.153 589.518 954.431 572.475 962.012C572.482 952.317 572.693 936.438 572.175 926.306C571.915 925.996 571.655 925.685 571.395 925.374C562.711 923.926 540.128 917.101 534.519 910.976C534.709 910.134 534.874 909.288 535.015 908.437C535.687 904.202 532.747 904.895 530.191 901.38C534.374 896.988 548.298 905.014 553.011 907.058C560.549 910.327 566.751 912.781 575.098 912.776C592.787 912.767 585.793 897.227 602.417 890.999Z"/><path fill="#090909" transform="matrix(1.36993 0.0140979 -0.0140979 1.36993 14.4365 0)" d="M591.381 924.805C597.896 923.262 604.419 927.325 605.907 933.853C607.394 940.381 603.275 946.869 596.735 948.301C593.251 949.064 589.609 948.244 586.787 946.062C583.966 943.881 582.256 940.561 582.118 936.998C581.894 931.242 585.776 926.133 591.381 924.805Z"/><path fill="#F9F9F9" transform="matrix(1.36993 0.0140979 -0.0140979 1.36993 14.4365 0)" d="M591.139 926.82C594.208 925.903 597.529 926.484 600.105 928.389C602.68 930.293 604.208 933.299 604.231 936.501C604.261 940.923 601.434 944.859 597.234 946.241C593.748 947.388 589.914 946.569 587.201 944.099C584.487 941.629 583.313 937.888 584.129 934.31C584.944 930.732 587.623 927.87 591.139 926.82Z"/><path fill="#F9F9F9" transform="matrix(1.36993 0.0140979 -0.0140979 1.36993 14.4365 0)" d="M535.618 862.83L536.065 861.005C537.288 860.376 550.065 861.679 552.93 861.778C557.577 861.908 562.227 861.846 566.869 861.59C573.212 861.272 579.987 859.247 585.617 859.172C586.792 860.209 586.538 860.804 586.945 862.734C587.266 868.793 587.857 874.639 588.197 880.878C588.831 892.555 592.231 910.651 574.998 910.977C567.705 911.115 557.793 908.686 551.875 904.354C555.345 889.238 547.996 880.04 535.439 873.34L535.618 862.83Z"/><path fill="#5D86E5" transform="matrix(1.36993 0.0140979 -0.0140979 1.36993 14.4365 0)" d="M496.146 248.218C508.581 243.841 522.568 238.154 535.207 234.525C565.91 225.709 611.433 216.73 643.166 215.914C629.914 225.32 595.405 230.985 578.876 234.737C564.137 238.082 549.409 241.128 534.83 245.858C517.681 251.421 501.897 260.756 486.617 270.172C487.827 266.685 489.767 260.988 485.573 258.555C479.526 258.581 478.651 268.324 476.692 272.853C465.456 262.053 477.755 256.877 487.108 252.313C489.299 251.613 494.189 249.393 496.146 248.218Z"/><path fill="#F9F9F9" transform="matrix(1.36993 0.0140979 -0.0140979 1.36993 14.4365 0)" d="M536.579 964.631C543.435 963.578 548.516 966.444 554.258 969.537C546.799 972.938 537.878 974.448 530.229 976.818C495.481 987.581 463.117 989.747 427.043 985.068C414.247 983.408 403.253 982.219 390.543 978.337C385.929 976.741 380.962 975.246 376.82 972.738C377.729 969.343 378.044 968.535 379.585 965.368C408.467 981.191 465.162 980.889 497.228 974.662C504.337 973.258 511.391 971.586 518.374 969.649C523.777 968.099 530.48 965.792 535.862 964.764L536.579 964.631Z"/><path fill="#F86E30" transform="matrix(1.36993 0.0140979 -0.0140979 1.36993 14.4365 0)" d="M405.305 926.21C415.729 925.603 423.939 930.404 432.484 935.627C429.009 937.592 425.539 939.526 421.64 940.513C409.306 943.636 403.2 942.334 392.365 949.395C390.197 951.028 387.624 953.3 385.499 955.077C379.54 952.839 374.082 951.117 369.036 947.209C376.254 930.398 388.332 927.55 405.305 926.21Z"/><path fill="#FDB86A" transform="matrix(1.36993 0.0140979 -0.0140979 1.36993 14.4365 0)" d="M466.921 562.2C480.835 569.883 488.248 574.792 504.97 573.52C506.582 582.344 507.805 592.452 509.041 601.38C505.649 602.291 493.408 595.873 490.169 593.942C477.457 586.364 470.438 576.46 466.921 562.2Z"/><path fill="#F86E30" transform="matrix(1.36993 0.0140979 -0.0140979 1.36993 14.4365 0)" d="M489.474 98.3124L502.589 104.507C495.933 119.798 488.864 134.688 482.457 150.074C478.043 148.109 471.183 145.383 467.661 142.372C470.364 138.793 474.698 129.399 476.815 124.992C481.104 116.132 485.323 107.238 489.474 98.3124Z"/><path fill="#F86E30" transform="matrix(1.36993 0.0140979 -0.0140979 1.36993 14.4365 0)" d="M504.332 105.688C507.722 106.7 513.484 109.117 516.973 110.45C514.946 116.231 500.354 154.132 497.615 156.273C492.869 154.353 488.597 152.612 483.955 150.404C490.755 136.674 497.78 119.88 504.332 105.688Z"/><path fill="#F86E30" transform="matrix(1.36993 0.0140979 -0.0140979 1.36993 14.4365 0)" d="M460.712 82.749C465.308 85.6453 469.128 87.7534 473.889 90.3041C469.661 96.7506 466.797 103.256 463.281 110.056C459.26 117.835 455.094 125.413 451.278 133.312L438.303 125.085C445.883 112.251 452.649 96.4142 460.712 82.749Z"/><path fill="#F86E30" transform="matrix(1.36993 0.0140979 -0.0140979 1.36993 14.4365 0)" d="M475.166 91.2639C479.622 93.2778 483.558 95.386 487.86 97.6766L473.379 127.913C472.042 130.685 467.154 140.354 466.658 142.359C461.656 139.69 457.727 137.127 452.978 134.052C460.707 119.965 468.105 105.698 475.166 91.2639Z"/><path fill="#F86E30" transform="matrix(1.36993 0.0140979 -0.0140979 1.36993 14.4365 0)" d="M534.634 117.175L547.917 121.452C544.155 130.206 540.829 139.649 537.282 148.496C535.514 152.904 532.024 163.75 529.515 167.367C525.264 165.869 519.863 164.342 515.472 162.933C520.932 148.697 528.209 130.751 534.634 117.175Z"/><path fill="#F86E30" transform="matrix(1.36993 0.0140979 -0.0140979 1.36993 14.4365 0)" d="M519.01 110.832C521.461 112.174 529.414 115.216 532.473 116.473C526.757 129.823 519.76 150.261 513.584 162.409C508.753 160.636 504.664 158.962 499.956 156.943C507.017 141.304 513.177 126.946 519.01 110.832Z"/><path fill="#F86E30" transform="matrix(1.36993 0.0140979 -0.0140979 1.36993 14.4365 0)" d="M549.962 122.182C553.993 123.56 558.401 124.966 562.362 126.452C558.306 140.983 551.849 157.625 546.88 172.156C544.696 171.421 542.496 170.87 540.27 170.275L531.964 167.78C536.449 155.921 544.592 133.092 549.962 122.182Z"/><path fill="#F86E30" transform="matrix(1.36993 0.0140979 -0.0140979 1.36993 14.4365 0)" d="M428.05 104.387C429.748 100.764 431.829 97.329 433.652 93.7854C437.844 85.6405 442.331 77.9951 452.829 78.8984C455.022 79.7834 456.741 80.4544 458.852 81.5591C451.969 95.5729 444.094 110.161 436.929 124.339C428.202 118.649 425.259 114.872 428.05 104.387Z"/><path fill="#F86E30" transform="matrix(1.36993 0.0140979 -0.0140979 1.36993 14.4365 0)" d="M564.484 126.72C567.218 127.779 568.543 128.401 571.119 129.742C573.806 132.59 576.584 135.922 576.168 140.244C575.216 150.141 570.151 163.138 563.783 170.734C560.545 174.596 553.847 173.74 549.454 173.354C549.031 172.321 549.009 172.313 549.412 171.158C554.576 156.361 560.165 141.808 564.484 126.72Z"/><path fill="#5D86E5" transform="matrix(1.36993 0.0140979 -0.0140979 1.36993 14.4365 0)" d="M417.097 521.645C431.62 528.573 445.881 527.663 461.56 526.876C458.182 533.26 458.309 534.196 461.468 540.468C461.031 541.332 460.505 542.216 460.025 543.063C457.672 544.144 450.714 543.818 447.942 543.672C438.539 543.18 426.097 542.609 419.235 535.184C416.257 531.963 416.924 525.73 417.097 521.645Z"/><path fill="#5D86E5" transform="matrix(1.36993 0.0140979 -0.0140979 1.36993 14.4365 0)" d="M462.967 542.248C482.627 557.677 492.493 560.413 516.882 559.394C515.755 563.575 515.332 565.057 512.433 568.43C496.906 578.258 454.683 562.909 462.967 542.248Z"/><path fill="#5D86E5" transform="matrix(1.36993 0.0140979 -0.0140979 1.36993 14.4365 0)" d="M527.467 874.441C538.472 873.806 547.878 882.548 550.227 892.893C551.198 897.171 550.831 899.332 550.281 903.572C547.455 901.984 544.211 900.582 541.246 899.219C535.045 897.024 532.865 897.313 527.255 900.142C522.9 897.833 519.931 896.36 515.878 893.563C519.675 887.773 522.003 878.487 527.467 874.441Z"/><path fill="#5D86E5" transform="matrix(1.36993 0.0140979 -0.0140979 1.36993 14.4365 0)" d="M497.363 864.871C507.056 864.979 515.965 871.125 519.371 880.236C517.624 884.837 516.435 887.832 514.055 892.1C511.252 890.041 510.309 889.346 506.872 889.012C502.938 889.749 501.87 890.498 498.623 892.62C494.222 889.979 489.851 887.288 485.511 884.549C490.03 878.454 492.686 870.452 497.363 864.871Z"/><path fill="#F86E30" transform="matrix(1.36993 0.0140979 -0.0140979 1.36993 14.4365 0)" d="M516.253 202.692C522.435 200.137 526.811 198.784 533.328 197.254C536.113 208.254 539.223 219.168 542.654 229.984C537.267 231.623 531.688 233.203 526.457 235.254C525.208 232.988 523.406 225.765 522.707 223.091C520.745 215.577 519.315 209.847 516.253 202.692Z"/><path fill="#F86E30" transform="matrix(1.36993 0.0140979 -0.0140979 1.36993 14.4365 0)" d="M546.123 193.563C548.229 193.135 547.456 192.864 548.874 193.636C551.307 198.078 557.634 220.426 559.001 226.058C554.346 227.144 549.155 228.238 544.598 229.545C542.104 221.627 537.658 204.88 534.942 198.082L535.175 197.311C537.061 195.106 543.211 194.195 546.123 193.563Z"/><path fill="#F86E30" transform="matrix(1.36993 0.0140979 -0.0140979 1.36993 14.4365 0)" d="M500.069 208.065C501.654 205.749 511.434 203.813 514.487 203.18C515.968 206.897 524.548 233.16 523.544 235.848L522.842 236.431C519.224 237.215 514.673 239.176 511.241 240.584C507.887 233.446 502.849 216.323 500.069 208.065Z"/><path fill="#F86E30" transform="matrix(1.36993 0.0140979 -0.0140979 1.36993 14.4365 0)" d="M484.919 213.124C487.731 211.976 495.367 208.603 497.941 208.904L498.716 210.082C503.059 220.508 505.685 230.976 509.325 241.472C505.227 242.948 501.145 244.468 497.081 246.033C493.809 235.941 488.664 223.29 484.919 213.124Z"/><path fill="#F9F9F9" transform="matrix(1.36993 0.0140979 -0.0140979 1.36993 14.4365 0)" d="M505.878 852.503C508.089 851.192 516.328 852.301 519.292 852.565C525.017 860.759 533.218 858.526 534.406 861.958C533.896 864.369 533.685 870.111 533.517 872.826C525.331 872 524.405 872.051 520.923 879.571C520.687 878.909 520.438 878.252 520.177 877.6C517.191 870.198 512.858 867.853 505.914 864.919C505.982 860.667 506.012 856.749 505.878 852.503Z"/><path fill="#FCDD77" transform="matrix(1.36993 0.0140979 -0.0140979 1.36993 14.4365 0)" d="M483.609 261.692C484.982 261.995 484.953 261.913 486.059 262.744C487.021 266.268 482.057 276.578 480.433 279.848C472.725 295.37 458.801 305.178 450.695 320.685C444.817 331.929 444.093 341.294 441.392 353.381L440.69 353.893L440.008 353.533C438.885 349.916 440.128 341.744 440.606 337.906C443.558 314.239 462.648 299.806 475.02 281.042C478.724 275.423 480.181 265.762 483.609 261.692Z"/><path fill="#F86E30" transform="matrix(1.36993 0.0140979 -0.0140979 1.36993 14.4365 0)" d="M478.454 215.85L482.791 214.023C487.902 224.04 491.529 235.839 495.145 246.576L485.035 251.459C480.547 241.009 476.485 229.811 472.144 219.187L478.454 215.85Z"/><path fill="#FDB86A" transform="matrix(1.36993 0.0140979 -0.0140979 1.36993 14.4365 0)" d="M447.735 547.17C448.599 547.016 449.788 547.032 450.696 547.004L451.36 547.635C451.672 555.218 439.534 568.66 433.784 573.426C432.635 574.46 432.684 574.502 431.288 575.104C430.404 572.789 430.947 554.242 431.017 550.35C435.298 548.929 443.068 547.848 447.735 547.17Z"/><path fill="#F86E30" transform="matrix(1.36993 0.0140979 -0.0140979 1.36993 14.4365 0)" d="M550.59 192.66C554.294 192.425 556.418 192.349 560.108 192.543C560.469 192.76 560.827 192.984 561.181 193.213C568.635 198.079 564.019 204.807 566.262 212.451C567.449 216.495 569.079 217.71 570.116 221.305C570.524 222.722 570.235 222.714 569.583 223.575C566.933 224.456 563.627 225.212 560.866 225.917C558.392 215.942 554.084 202.267 550.59 192.66Z"/><path fill="#5D86E5" transform="matrix(1.36993 0.0140979 -0.0140979 1.36993 14.4365 0)" d="M477.957 890.52C483.843 893.326 488.674 896.382 494.108 899.993C492.662 901.394 490.839 902.977 489.789 904.647L492.356 907.497C498.018 910.777 503.785 914.028 509.287 917.561C505.512 919.592 503.821 920.48 500.506 923.108L484.789 913.412L484.968 912.964L485.771 912.624C488.848 911.305 489.456 911.007 491.967 908.7C490.464 907.329 489.871 906.958 488.923 905.216C485.041 902.213 476.013 898.157 471.042 895.191C473.118 893.81 476.041 891.977 477.957 890.52Z"/><path fill="#F86E30" transform="matrix(1.36993 0.0140979 -0.0140979 1.36993 14.4365 0)" d="M470.67 220.403C474.858 228.476 479.949 243.08 483.294 252.017C481.43 253.107 478.682 254.301 476.672 255.247L475.88 255.257C474.43 252.336 474.732 247.728 473.342 244.553C468.788 234.155 459.088 230.189 470.67 220.403Z"/><path fill="#5D86E5" transform="matrix(1.36993 0.0140979 -0.0140979 1.36993 14.4365 0)" d="M441.412 930.044L441.704 930.291L439.606 934.143C443.597 937.726 449.247 940.661 453.985 943.316C451.788 945.577 447.058 949.961 443.751 948.995C438.055 946.355 432.394 943.641 426.77 940.852C432.631 938.119 435.877 933.935 441.412 930.044Z"/><path fill="#F9F9F9" transform="matrix(1.36993 0.0140979 -0.0140979 1.36993 14.4365 0)" d="M364.895 958.744C369.503 960.563 373.708 962.215 378.206 964.335C375.03 970.369 374.981 973.302 374.368 980.064L374.324 980.657L373.684 981.111C361.505 977.298 362.057 969.539 364.895 958.744Z"/><path fill="#5D86E5" transform="matrix(1.36993 0.0140979 -0.0140979 1.36993 14.4365 0)" d="M428.528 918.502C432.537 920.539 438.817 924.608 442.827 927.059C439.815 928.859 436.557 931.703 433.376 933.109C432.663 933.424 432.28 932.975 431.321 932.514C426.063 929.644 420.015 927.785 414.398 924.885C418.411 922.652 424.063 920.618 428.528 918.502Z"/><path fill="#F9F9F9" transform="matrix(1.36993 0.0140979 -0.0140979 1.36993 14.4365 0)" d="M495.839 901.443C499.766 903.422 518.918 914.435 520.214 917.381C519.769 919.374 519.67 918.969 518.126 920.729C515.19 919.897 495.6 907.583 493.55 905.137C493.669 903.533 494.725 902.709 495.839 901.443Z"/><path fill="#5D86E5" transform="matrix(1.36993 0.0140979 -0.0140979 1.36993 14.4365 0)" d="M462.823 899.926C467.062 901.981 472.935 906.128 476.91 908.885C475.464 910.93 475.104 912.198 473.173 914.044C471.438 914.619 472.367 914.564 470.284 913.648L454.214 904.881C457.818 903.1 459.492 902.162 462.823 899.926Z"/><path fill="#F9F9F9" transform="matrix(1.36993 0.0140979 -0.0140979 1.36993 14.4365 0)" d="M367.547 948.687C368.868 949.14 381.913 955.598 384.212 956.638C383.142 958.565 381.761 960.326 380.456 962.11C378.752 963.127 365.934 958.306 364.588 956.278C364.488 953.119 365.811 951.291 367.547 948.687Z"/><path fill="#5D86E5" transform="matrix(1.36993 0.0140979 -0.0140979 1.36993 14.4365 0)" d="M455.967 925.106C461.265 928.533 468.646 932.834 474.268 935.815C470.295 937.369 468.595 938.132 464.919 940.248C462.356 938.741 452.655 933.734 451.67 931.304L452.296 931.099C453.867 930.575 454.712 930.487 455.744 929.229C456.304 927.646 456.04 926.941 455.779 925.288L455.967 925.106Z"/><path fill="#5D86E5" transform="matrix(1.36993 0.0140979 -0.0140979 1.36993 14.4365 0)" d="M445.249 909.424C450.653 912.121 455.418 915.108 460.549 918.267C457.657 920.664 457.462 921.735 455.967 925.106L455.779 925.288C452.154 921.049 443.581 917.175 438.282 913.809C441.132 912.251 442.604 911.295 445.249 909.424Z"/><path fill="#F9F9F9" transform="matrix(1.36993 0.0140979 -0.0140979 1.36993 14.4365 0)" d="M477.552 911.261C481.953 913.343 498.714 923.168 501.46 926.908C501.052 928.547 500.693 928.358 499.062 929.724C495.394 928.199 479.223 918.098 475.075 915.598L477.552 911.261Z"/><path fill="#F9F9F9" transform="matrix(1.36993 0.0140979 -0.0140979 1.36993 14.4365 0)" d="M461.273 920.778C463.997 921.224 483.314 932.648 484.334 934.618C484.128 936.533 483.334 937.252 482.171 938.8C479.039 936.936 460.744 925.977 459.097 924.113C459.419 922.388 459.913 922.346 461.273 920.778Z"/><path fill="#F9F9F9" transform="matrix(1.36993 0.0140979 -0.0140979 1.36993 14.4365 0)" d="M431.254 912.068C434.068 912.837 451.884 923.826 453.447 925.916C453.965 927.717 453.733 927.841 453.103 929.598C448.155 928.41 433.313 920.219 429.837 916.402C429.607 914.923 430.561 913.514 431.254 912.068Z"/><path fill="#F9F9F9" transform="matrix(1.36993 0.0140979 -0.0140979 1.36993 14.4365 0)" d="M446.774 903.738C452.59 904.74 465.989 913.426 471.531 916.811C470.901 917.931 469.689 919.677 468.951 920.808C467 920.693 447.933 908.822 445.89 906.912C445.667 905.266 445.889 905.549 446.774 903.738Z"/><path fill="#F9F9F9" transform="matrix(1.36993 0.0140979 -0.0140979 1.36993 14.4365 0)" d="M479.238 884.193C482.265 884.432 501.025 895.286 502.847 897.884C503.209 899.739 502.632 900.44 501.805 902.164C498.554 901.154 481.738 890.274 478.88 887.845C478.329 885.903 478.521 886.469 479.238 884.193Z"/><path fill="#F9F9F9" transform="matrix(1.36993 0.0140979 -0.0140979 1.36993 14.4365 0)" d="M462.756 894.225C467.72 894.226 482.672 903.014 486.677 906.764C487.648 907.672 487.071 909.18 486.821 910.291C481.456 910.468 467.609 901.113 463.187 897.37C462.302 896.622 462.684 895.31 462.756 894.225Z"/><path fill="#F9F9F9" transform="matrix(1.36993 0.0140979 -0.0140979 1.36993 14.4365 0)" d="M510.767 893.672C514.225 893.967 531.378 903.805 533.856 906.449C534.073 908.33 534.011 907.729 532.803 909.739C527.898 908.886 512.812 900.461 509.967 896.726C509.622 894.703 509.502 895.709 510.767 893.672Z"/><path fill="#5D86E5" transform="matrix(1.36993 0.0140979 -0.0140979 1.36993 14.4365 0)" d="M506.761 899.878C511.827 900.459 520.194 906.104 525.342 908.776L521.334 910.955C520.865 911.279 519.53 912.226 519.01 912.262C514.926 912.549 506.388 906.025 503.19 903.856C504.407 902.633 505.615 901.185 506.761 899.878Z"/><path fill="#5D86E5" transform="matrix(1.36993 0.0140979 -0.0140979 1.36993 14.4365 0)" d="M473.545 917.379C478.646 919.636 486.054 924.248 491.247 927.125L485.739 929.794L483.763 930.281C479.674 929.395 473.538 925.127 469.838 922.747C471.26 921.046 472.344 919.241 473.545 917.379Z"/><path fill="#F9F9F9" transform="matrix(1.36993 0.0140979 -0.0140979 1.36993 14.4365 0)" d="M444.966 929.501C449.03 932.368 464.215 941.449 466.246 943.637C466.009 945.673 465.874 945.263 464.47 947.175C460.598 944.547 443.578 936.031 442.546 933.356C442.856 931.686 443.848 930.828 444.966 929.501Z"/><path fill="#D2D3D6" transform="matrix(1.36993 0.0140979 -0.0140979 1.36993 14.4365 0)" d="M509.431 168.943C509.779 169.329 509.553 169.033 509.845 169.981C509.177 171.761 508.69 172.524 507.595 174.028C496.55 189.198 486.638 195.665 468.616 198.941L468.091 198.3C469.271 197.336 474.556 196.566 476.598 195.98C493.086 191.247 500.184 182.013 509.431 168.943Z"/><path fill="#5D86E5" transform="matrix(1.36993 0.0140979 -0.0140979 1.36993 14.4365 0)" d="M590.479 885.408C593.242 885.528 599.062 885.838 600.462 888.393C599.489 890.071 599.057 889.841 596.968 890.916C594.693 892.515 593.154 894.144 591.193 896.08C590.766 892.205 590.589 889.312 590.479 885.408Z"/><path fill="#FCDD77" transform="matrix(1.36993 0.0140979 -0.0140979 1.36993 14.4365 0)" d="M437.821 355.311C440.414 356.272 442.62 357.67 443.272 360.479C442.72 362.497 443.245 361.628 441.414 363.024C434.083 363.168 433.78 360.907 437.821 355.311Z"/><path fill="#D2D3D6" transform="matrix(1.36993 0.0140979 -0.0140979 1.36993 14.4365 0)" d="M504.138 891.491C505.762 891.282 508.128 891.037 509.412 892.007C508.231 893.589 507.193 894.435 506.982 896.179L508.624 897.845C507.331 898.008 507.724 897.957 506.378 897.682C504.556 895.266 503.03 894.966 501.339 893.061L504.138 891.491Z"/><path fill="#FCDD77" transform="matrix(1.36993 0.0140979 -0.0140979 1.36993 14.4365 0)" d="M434.406 363.039C436.01 363.866 436.246 363.71 436.637 365.239C435.873 366.931 433.764 368.049 432.154 369.156C430.946 369.102 430.421 368.815 429.616 368.059L429.656 367.034C431.02 365.06 432.407 364.369 434.406 363.039Z"/><path fill="#5D86E5" transform="matrix(1.36993 0.0140979 -0.0140979 1.36993 14.4365 0)" d="M427.029 369.45C427.722 370.007 427.491 369.85 427.916 370.747C427.268 373.329 422.361 376.473 420.106 378.164L419.449 377.64C419.691 375.653 425.201 371.118 427.029 369.45Z"/><path fill="#090909" transform="matrix(1.36993 0.0140979 -0.0140979 1.36993 14.4365 0)" d="M179.58 749.131C186.889 748.44 195.199 748.761 201.773 752.359C207.922 755.764 212.443 761.499 214.319 768.273C216.222 775.005 215.362 782.219 211.927 788.315C207.359 796.305 200.559 799.285 192.225 801.47C183.754 802.129 175.056 801.88 167.518 797.424C161.57 793.857 157.342 788.01 155.818 781.244C151.874 763.67 162.785 751.955 179.58 749.131ZM188.316 791.434C210.677 786.292 207.738 758.658 182.134 758.657C176.868 759.874 172.52 762.007 169.641 766.836C167.422 770.604 166.798 775.102 167.906 779.333C169.062 783.635 171.89 787.296 175.761 789.5C180.226 792.036 183.505 791.802 188.316 791.434Z"/><path fill="#090909" transform="matrix(1.36993 0.0140979 -0.0140979 1.36993 14.4365 0)" d="M696.268 574.627C700.349 574.55 711.055 572.958 713.627 573.466C714.619 578.333 715.089 583.471 715.646 588.421C723.005 591.253 728.479 594.075 731.88 601.788C734.677 608.132 735.154 615.077 732.501 621.561C730.102 627.508 725.397 632.231 719.459 634.654C713.209 637.141 705.699 636.775 699.626 633.939C693.772 631.264 689.299 626.268 687.287 620.155C683.47 608.28 687.938 597.172 698.375 590.502C697.59 585.224 696.736 579.941 696.268 574.627Z"/><path fill="#090909" transform="matrix(1.36993 0.0140979 -0.0140979 1.36993 14.4365 0)" d="M779.055 542.346C782.962 539.466 787.008 534.056 790.828 530.613L791.327 531.112C792.462 532.235 793.017 533.086 794.525 533.364C798.094 532.762 801.893 531.302 805.369 531.132C817.394 530.546 828.218 540.378 829.937 552.013C830.944 558.429 829.34 564.982 825.482 570.207C821.62 575.398 815.789 579.025 809.345 579.875C802.964 580.751 796.5 579.001 791.433 575.024C781.775 567.528 779.989 557.621 783.15 546.421C781.805 545.071 780.433 543.653 779.055 542.346Z"/><path fill="#090909" transform="matrix(1.36993 0.0140979 -0.0140979 1.36993 14.4365 0)" d="M115.364 749.199C121.391 748.283 133.534 748.26 138.819 751.327C145.549 755.234 146.946 759.471 149.106 766.147C145.153 766.429 141.702 766.463 137.732 766.481C124.672 745.154 89.9345 767.4 121.83 770.325C131.205 771.13 148.336 770.422 149.886 783.075C151.533 796.506 141.282 800.081 130.554 801.512C113.661 801.82 99.8751 803.146 95.9782 782.918L107.178 783.073C116.522 805.242 163.232 783.008 122.024 780.024C114.082 779.449 98.2466 778.362 97.3358 767.669C96.1621 753.889 103.682 750.649 115.364 749.199Z"/><path fill="#090909" transform="matrix(1.36993 0.0140979 -0.0140979 1.36993 14.4365 0)" d="M222.128 749.843C225.042 750.051 230.274 749.818 233.363 749.768C232.548 760.041 233.239 780.082 233.351 790.96C242.868 790.508 256.153 790.978 265.968 791.024L265.939 800.881C263.857 801.292 256.004 801.219 253.4 801.225C242.929 801.265 232.458 801.142 221.991 800.856L222.128 749.843Z"/><path fill="#090909" transform="matrix(1.36993 0.0140979 -0.0140979 1.36993 14.4365 0)" d="M150.91 845.094C159.788 843.774 168.083 849.821 169.544 858.677C171.005 867.532 165.091 875.923 156.26 877.525C150.421 878.584 144.463 876.413 140.674 871.845C136.886 867.277 135.854 861.021 137.974 855.478C140.095 849.935 145.04 845.966 150.91 845.094ZM155.933 872.361C168.719 867.276 165.616 849.313 151.411 850.018C144.386 852.183 140.972 858.406 143.331 865.47C144.198 868.009 146.034 870.102 148.439 871.292C150.686 872.383 153.475 872.487 155.933 872.361Z"/><path fill="#090909" transform="matrix(1.36993 0.0140979 -0.0140979 1.36993 14.4365 0)" d="M284.39 845.702C302.805 846.088 298.119 855.775 299.491 869.687C299.671 871.51 300.283 874.243 299.714 875.923C298.047 876.605 298.103 876.675 296.222 876.499C293.939 874.792 295.428 875.394 293.755 872.761C285.111 878.333 270.657 881.08 268.234 867.767C270.833 852.775 288.439 860.84 293.62 856.864L293.736 855.477C288.104 840.763 276.55 854.937 272.336 854.953C270.798 854.216 271.384 854.761 270.555 853.22C270.568 846.873 279.817 846.017 284.39 845.702ZM286.333 872.379C289.074 871.176 295.474 868.325 292.654 864.324C290.444 861.19 284.258 861.926 281.012 862.095C278.697 862.562 274.066 864.01 273.947 866.57C273.628 873.398 282.914 872.72 286.333 872.379Z"/><path fill="#090909" transform="matrix(1.36993 0.0140979 -0.0140979 1.36993 14.4365 0)" d="M206.122 845.693C227.065 846.077 220.124 860.034 221.737 875.053C221.842 876.024 220.657 876.715 220.053 877.187C216.956 876.972 216.656 874.466 216.458 871.898C208.392 878.273 193.058 880.947 190.092 868.338C193.058 855.327 206.002 857.489 216.373 858.306C216.278 857.787 216.177 857.269 216.07 856.752C214.74 850.44 209.705 848.455 203.63 849.531C198.7 850.404 198.781 857.944 192.849 853.797C192.167 847.681 201.773 846.064 206.122 845.693ZM208.931 872.453C210.978 871.606 214.657 869.782 215.181 867.524C216.798 860.558 206.762 861.829 203.658 862.084C191.002 864.871 195.313 874.448 208.931 872.453Z"/><path fill="#090909" transform="matrix(1.36993 0.0140979 -0.0140979 1.36993 14.4365 0)" d="M111.309 834.68C117.953 834.445 122.152 835.715 127.3 839.393C134.982 844.879 127.577 851.758 123.814 844.921C122.432 842.126 121.345 841.107 118.33 840.362C102.642 836.485 94.242 852.198 115.12 853.017C122.065 853.289 126.932 854.888 131.432 860.37C131.686 862.928 131.754 865.207 131.841 867.766C127.853 874.614 124.582 875.82 117.138 877.163C112.008 877.242 107.16 877.047 102.467 874.553C99.1442 872.787 95.5126 867.112 97.7646 863.62L98.4981 863.527C100.536 864.317 102.108 866.178 103.816 867.736C107.252 871.049 111.264 872.805 116.088 872.534C119.967 872.316 126.705 868.421 126.399 864.009C122.697 855.719 99.8099 860.917 97.1073 850.239C94.5102 839.977 103.065 835.563 111.309 834.68Z"/><path fill="#090909" transform="matrix(1.36993 0.0140979 -0.0140979 1.36993 14.4365 0)" d="M247.46 845.643C266.289 846.543 261.131 861.209 261.624 875.397C261.696 877.495 258.503 876.578 257.302 875.879C253.08 868.914 262.591 845.207 242.3 850.777C232.9 855.509 238.665 871.537 235.614 876.338C233.686 876.657 233.751 876.677 231.837 876.363C230.083 874.478 231.929 851.322 231.695 847.448C231.916 847.202 232.138 846.956 232.359 846.71C233.97 846.486 234.353 846.249 235.799 846.943C236.745 848.375 236.478 850.363 236.462 852.173C240.363 847.482 241.4 846.688 247.46 845.643Z"/><path fill="#090909" transform="matrix(1.36993 0.0140979 -0.0140979 1.36993 14.4365 0)" d="M177.498 833.674C179.251 833.698 181.121 833.473 182.464 834.458C182.843 836.828 182.79 839.262 182.758 841.661C182.601 853.222 183.209 864.971 182.584 876.508C180.684 876.586 178.86 876.838 177.403 875.717C176.969 871.294 176.463 836.321 177.498 833.674Z"/><path fill="#D2D3D6" fill-opacity="0.98823529" transform="matrix(1.36993 0.0140979 -0.0140979 1.36993 14.4365 0)" d="M432.673 184.381L441.411 184.502C438.681 185.147 434.328 185.672 432.339 186.211L432.673 184.381Z"/></svg>