<?xml version="1.0" encoding="utf-8" ?><svg xmlns="http://www.w3.org/2000/svg" xmlns:xlink="http://www.w3.org/1999/xlink" width="1983" height="991" viewBox="0 0 1983 991"><path fill="#E8E7E7" transform="scale(1.29094 1.29094)" d="M333.446 43.9855C331.46 36.1115 331.541 28.0906 335.458 20.807C339.131 14.0329 345.404 9.04649 352.832 6.99647C360.169 4.94173 368.025 5.92314 374.632 9.71996C385.12 15.7863 386.883 22.4931 389.79 33.0582L391.045 33.9938C389.356 37.2356 388.33 39.3438 387.024 42.7496C400.285 37.66 407.693 39.8551 418.819 37.1064C451.134 29.1231 473.169 26.7426 504.548 41.0808C525.916 50.8445 544.843 65.1724 556.615 86.8945C567.838 105.258 574.597 121.706 589.173 138.153C602.536 153.233 616.726 161.719 630.996 174.717C655.318 196.873 669.751 234.921 661.142 267.455C659.026 275.451 657.233 279.836 653.797 287.424C660.348 295.754 664.97 301.77 668.013 312.095L667.316 313.682C670.701 326.253 668.912 339.656 662.349 350.9C655.494 362.706 645.566 371.198 632.173 374.653C618.479 378.273 603.906 376.265 591.701 369.075C582.172 363.36 571.723 354.155 563.156 346.857L519.587 309.686C511.837 303.078 500.001 292.528 491.863 287.13C481.047 308.345 465.746 338.035 453.65 358.283C450.242 354.276 433.06 333.595 429.006 332.861C406.05 318.551 388.175 312.95 360.387 319.359C349.584 321.836 339.322 326.259 330.103 332.41C328.8 333.273 324.991 336.16 324.001 336.712C306.724 346.34 212.454 448.734 205.824 449.708C215.411 438.079 230.739 425.865 241.227 413.472C230.935 415.025 216.885 417.409 206.625 417.21L206.901 416.174C203.416 416.338 200.122 417.251 197.95 414.412L198.642 411.815L198.057 411.331C197.171 411.444 196.821 411.381 196.003 411.078C172.139 402.243 151.793 381.821 140.453 359.733C119.684 320.752 128.555 270.163 162.116 241.27C182.192 223.986 206.304 213.696 207.412 183.617C207.892 170.566 208.563 154.996 212.695 142.456C220.613 119.077 237.397 99.7425 259.433 88.6188C288.894 73.8994 313.243 76.7051 342.945 86.6463L343.763 86.3182C344.457 86.2896 345.535 86.0362 346.255 85.8976C354.099 79.7207 359.659 69.3918 364.482 60.7655C350.398 61.0843 348.276 59.1804 337.257 50.9515C336.999 52.888 336.631 56.2661 335.536 57.7332C335.496 54.4254 335.696 49.3477 334.71 46.3568C332.36 46.114 328.404 48.4699 326.045 49.6197C327.707 47.2975 330.96 45.5545 333.446 43.9855Z"/><path fill="#FE5D2A" transform="scale(1.29094 1.29094)" d="M198.057 411.331C197.171 411.444 196.821 411.381 196.003 411.078C172.139 402.243 151.793 381.821 140.453 359.733C119.684 320.752 128.555 270.163 162.116 241.27C182.192 223.986 206.304 213.696 207.412 183.617C207.892 170.566 208.563 154.996 212.695 142.456C220.613 119.077 237.397 99.7425 259.433 88.6188C288.894 73.8994 313.243 76.7051 342.945 86.6463C345.422 90.5388 341.893 93.479 338.885 96.5118C313.949 121.65 273.157 123.896 287.164 171.089C280.679 173.629 276.03 175.667 270.016 179.271L270.815 180.073C289.501 169.015 309.597 166.664 330.835 168.474L332.136 167.954C336.255 168.036 341.558 168.002 345.564 168.3C353.999 186.33 363.44 191.077 383.293 190.632L383.251 189.367C383.89 189.241 384.528 189.107 385.164 188.965C398.028 186.071 404.029 180.27 410.709 169.661L411.577 169.961C412.977 168.357 413.652 168.228 415.584 167.397C419.276 166.973 424.564 166.339 427.988 168.001C441.072 166.348 451.736 168.572 464.302 172.494L455.855 189.759C423.395 189.637 409.304 207.687 386.915 228.266C382.045 232.743 368.482 243.083 365.379 247.384C363.932 249.141 358.362 252.516 356.276 253.535L349.892 256.806C353.419 279.35 357.795 291.146 366.887 311.807C377.438 306.72 391.76 299.234 402.206 294.821L402.413 295.81C396.277 298.791 379.781 305.766 377.246 311.55C378.453 316.181 391.796 316.174 396.251 316.976C406.074 318.747 422.94 324.732 429.006 332.861C406.05 318.551 388.175 312.95 360.387 319.359C349.584 321.836 339.322 326.259 330.103 332.41C328.8 333.273 324.991 336.16 324.001 336.712C306.724 346.34 212.454 448.734 205.824 449.708C215.411 438.079 230.739 425.865 241.227 413.472C230.935 415.025 216.885 417.409 206.625 417.21L206.901 416.174C203.416 416.338 200.122 417.251 197.95 414.412L198.642 411.815L198.057 411.331Z"/><path fill="#E8E7E7" transform="scale(1.29094 1.29094)" d="M198.057 411.331C197.171 411.444 196.821 411.381 196.003 411.078C172.139 402.243 151.793 381.821 140.453 359.733C119.684 320.752 128.555 270.163 162.116 241.27C182.192 223.986 206.304 213.696 207.412 183.617C207.892 170.566 208.563 154.996 212.695 142.456C220.613 119.077 237.397 99.7425 259.433 88.6188C288.894 73.8994 313.243 76.7051 342.945 86.6463C345.422 90.5388 341.893 93.479 338.885 96.5118C313.949 121.65 273.157 123.896 287.164 171.089C280.679 173.629 276.03 175.667 270.016 179.271C260.25 184.916 251.472 192.121 244.03 200.598C230.63 215.719 219.325 235.049 207.929 251.876C191.994 275.405 173.403 298.908 160.823 324.402C154.184 337.855 156.566 357.519 164.358 370.039C173.456 385.003 186.375 391.106 202.862 395.866C201.33 400.933 199.788 406.362 198.057 411.331Z"/><path fill="#331311" transform="scale(1.29094 1.29094)" d="M266.461 276.026C291.748 268.09 322.741 255.866 348.26 246.634C350.677 249.04 353.302 251.983 356.276 253.535L349.892 256.806C353.419 279.35 357.795 291.146 366.887 311.807C377.438 306.72 391.76 299.234 402.206 294.821L402.413 295.81C396.277 298.791 379.781 305.766 377.246 311.55C378.453 316.181 391.796 316.174 396.251 316.976C406.074 318.747 422.94 324.732 429.006 332.861C406.05 318.551 388.175 312.95 360.387 319.359C349.584 321.836 339.322 326.259 330.103 332.41C328.8 333.273 324.991 336.16 324.001 336.712C306.724 346.34 212.454 448.734 205.824 449.708C215.411 438.079 230.739 425.865 241.227 413.472C230.935 415.025 216.885 417.409 206.625 417.21L206.901 416.174C203.416 416.338 200.122 417.251 197.95 414.412L198.642 411.815C201.171 408.521 203.281 400.185 204.476 396.045C229.71 396.055 248.236 385.18 271.68 375.34L271.447 374.096L279.42 370.715C295.875 362.31 309.333 345.423 324.956 333.448C314.679 310.386 310.588 286.857 310.344 261.78C295.537 267.342 280.258 273.33 265.107 277.746L266.461 276.026Z"/><path fill="#FE5D2A" transform="scale(1.29094 1.29094)" d="M279.42 370.715L280.662 371.266L283.287 370.657L283.648 371.18C274.025 383.314 255.34 400.371 243.289 410.435C240.043 413.145 212.979 415.41 206.901 416.174C203.416 416.338 200.122 417.251 197.95 414.412L198.642 411.815C201.171 408.521 203.281 400.185 204.476 396.045C229.71 396.055 248.236 385.18 271.68 375.34L271.447 374.096L279.42 370.715Z"/><path fill="#662413" transform="scale(1.29094 1.29094)" d="M279.42 370.715L280.662 371.266C277.249 373.182 275.355 373.946 271.68 375.34L271.447 374.096L279.42 370.715Z"/><path fill="#FE5D2A" transform="scale(1.29094 1.29094)" d="M343.868 249.675L346.081 249.789C348.385 252.287 349.661 268.344 350.918 273.054C354.866 287.846 360.944 302.025 367.233 315.946C352.205 319.635 345.603 321.981 332.086 329.316L326.17 332.693C315.716 307.928 312.873 287.866 311.997 261.366C322.569 257.331 333.194 253.434 343.868 249.675Z"/><path fill="#FE5D2A" transform="scale(1.29094 1.29094)" d="M372.285 310.164C374.878 310.326 375.478 310.646 376.663 312.762C375.752 315.518 376.317 314.613 373.42 316.309C370.338 315.616 370.306 316.133 368.514 314.202C369.383 311.695 369.746 312.073 372.285 310.164Z"/><path fill="#FE5D2A" transform="scale(1.29094 1.29094)" d="M415.584 167.397C419.276 166.973 424.564 166.339 427.988 168.001C426.44 172.853 424.964 177.407 422.126 181.684C399.405 215.936 340.499 211.405 330.835 168.474L332.136 167.954C336.255 168.036 341.558 168.002 345.564 168.3C353.999 186.33 363.44 191.077 383.293 190.632L383.251 189.367C383.89 189.241 384.528 189.107 385.164 188.965C398.028 186.071 404.029 180.27 410.709 169.661L411.577 169.961C412.977 168.357 413.652 168.228 415.584 167.397Z"/><path fill="#331311" transform="scale(1.29094 1.29094)" d="M415.584 167.397C419.276 166.973 424.564 166.339 427.988 168.001C426.44 172.853 424.964 177.407 422.126 181.684C399.405 215.936 340.499 211.405 330.835 168.474L332.136 167.954C345.292 215.401 411.035 213.726 426.485 167.735C423.55 167.679 418.324 167.738 415.584 167.397Z"/><path fill="#331311" transform="scale(1.29094 1.29094)" d="M410.709 169.661L411.577 169.961C408.36 182.255 395.367 189.745 383.293 190.632L383.251 189.367C383.89 189.241 384.528 189.107 385.164 188.965C398.028 186.071 404.029 180.27 410.709 169.661Z"/><path fill="#331311" transform="scale(1.29094 1.29094)" d="M202.862 395.866C186.375 391.106 173.456 385.003 164.358 370.039C156.566 357.519 154.184 337.855 160.823 324.402C173.403 298.908 191.994 275.405 207.929 251.876C219.325 235.049 230.63 215.719 244.03 200.598C251.472 192.121 260.25 184.916 270.016 179.271L270.815 180.073C262.501 185.672 250.904 193.898 244.722 202.042C217.246 238.239 192.117 277.426 166.926 315.302C163.905 319.843 160.442 328.233 159.43 333.326C156.756 346.592 159.558 360.376 167.2 371.545C174.953 383.107 186.969 391.126 200.621 393.85C220.359 397.626 234.69 388.478 252.286 381.112C258.334 378.58 265.211 376.235 271.447 374.096L271.68 375.34C248.236 385.18 229.71 396.055 204.476 396.045C203.281 400.185 201.171 408.521 198.642 411.815L198.057 411.331C199.788 406.362 201.33 400.933 202.862 395.866Z"/><path fill="#E8E7E7" transform="scale(1.29094 1.29094)" d="M263.782 276.389C271.913 265.306 277.911 251.04 286.81 240.874C281.661 251.642 272.79 265.458 266.461 276.026L265.107 277.746C253.043 282.397 217.369 295.54 205.901 297.887C208.539 295.581 256.762 278.893 263.782 276.389Z"/><path transform="scale(1.29094 1.29094)" d="M333.446 43.9855C331.46 36.1115 331.541 28.0906 335.458 20.807C339.131 14.0329 345.404 9.04649 352.832 6.99647C360.169 4.94173 368.025 5.92314 374.632 9.71996C385.12 15.7863 386.883 22.4931 389.79 33.0582L391.045 33.9938C389.356 37.2356 388.33 39.3438 387.024 42.7496C400.285 37.66 407.693 39.8551 418.819 37.1064C451.134 29.1231 473.169 26.7426 504.548 41.0808C525.916 50.8445 544.843 65.1724 556.615 86.8945L555.791 87.7184C529.547 45.0035 469.227 18.096 421.612 39.066C444.498 47.3332 455.304 56.9728 458.698 81.8424L457.581 84.2013L456.074 84.5868C458.842 88.5927 457.769 101.508 456.828 106.355C454.521 118.235 449.997 126.615 441.966 135.507C413.966 152.299 400.2 149.36 376.653 128.332C383.282 146.598 389.151 154.663 409.239 158.355C408.317 161.111 406.924 164.144 407.702 166.855C408.868 168.427 409.034 168.664 410.709 169.661C404.029 180.27 398.028 186.071 385.164 188.965C384.528 189.107 383.89 189.241 383.251 189.367L383.293 190.632C363.44 191.077 353.999 186.33 345.564 168.3C341.558 168.002 336.255 168.036 332.136 167.954L330.835 168.474C309.597 166.664 289.501 169.015 270.815 180.073L270.016 179.271C276.03 175.667 280.679 173.629 287.164 171.089C273.157 123.896 313.949 121.65 338.885 96.5118C341.893 93.479 345.422 90.5388 342.945 86.6463L343.763 86.3182C344.457 86.2896 345.535 86.0362 346.255 85.8976C354.099 79.7207 359.659 69.3918 364.482 60.7655C350.398 61.0843 348.276 59.1804 337.257 50.9515C336.999 52.888 336.631 56.2661 335.536 57.7332C335.496 54.4254 335.696 49.3477 334.71 46.3568C332.36 46.114 328.404 48.4699 326.045 49.6197C327.707 47.2975 330.96 45.5545 333.446 43.9855Z"/><path fill="#E8E7E7" transform="scale(1.29094 1.29094)" d="M433.434 71.9505C434.46 70.0057 434.413 69.1655 436.056 68.6299C443.063 78.0004 444.989 79.9342 456.074 84.5868C458.842 88.5927 457.769 101.508 456.828 106.355C454.521 118.235 449.997 126.615 441.966 135.507C413.966 152.299 400.2 149.36 376.653 128.332C383.282 146.598 389.151 154.663 409.239 158.355C408.317 161.111 406.924 164.144 407.702 166.855C408.868 168.427 409.034 168.664 410.709 169.661C404.029 180.27 398.028 186.071 385.164 188.965C384.528 189.107 383.89 189.241 383.251 189.367C371.998 191.39 356.155 184.961 350.097 175.152C345.588 167.851 353.5 169.137 355.005 165.285C360.926 150.13 365.271 134.184 369.64 118.519C359.875 116.119 351.783 111.883 351.054 100.421C350.763 95.8424 352.89 90.6062 356.111 87.331C359.373 83.9933 363.853 82.128 368.52 82.165C376.928 82.2843 381.362 86.6757 386.737 92.1386L387.758 90.3342C404.825 100.022 422.99 85.0636 432.298 71.4891L433.434 71.9505Z"/><path fill="#2F2F2F" transform="scale(1.29094 1.29094)" d="M432.298 71.4891L433.434 71.9505C422.114 89.4584 408.347 98.6671 386.737 92.1386L387.758 90.3342C404.825 100.022 422.99 85.0636 432.298 71.4891Z"/><path fill="#211F1F" transform="scale(1.29094 1.29094)" d="M437.368 93.5539C440.241 95.3229 442.476 112.897 442.228 116.775C440.451 118.279 438.208 118.028 435.729 118.155L434.82 117.644C435.374 115.324 437.621 117.625 440.215 114.69C440.358 108.878 438.375 99.5565 437.368 93.5539Z"/><path transform="scale(1.29094 1.29094)" d="M422.918 95.614C424.889 95.0547 426.939 96.2093 427.483 98.1854C428.026 100.162 426.856 102.202 424.875 102.73C422.917 103.252 420.904 102.097 420.367 100.143C419.829 98.189 420.968 96.1671 422.918 95.614Z"/><path transform="scale(1.29094 1.29094)" d="M447.994 95.6394C449.813 95.1795 451.682 96.1879 452.296 97.961C452.91 99.734 452.065 101.682 450.351 102.446C449.104 103.002 447.65 102.807 446.593 101.943C445.535 101.079 445.055 99.6924 445.352 98.3594C445.648 97.0264 446.67 95.9742 447.994 95.6394Z"/><path fill="#211F1F" transform="scale(1.29094 1.29094)" d="M417.908 119.18C422.061 121.087 424.063 122.533 427.775 125.096C422.417 124.389 420.47 123.912 417.908 119.18Z"/><path fill="#E8E7E7" transform="scale(1.29094 1.29094)" d="M387.758 90.3342C403.712 87.3444 414.798 85.196 425.87 72.4334C429.165 68.6349 432.62 64.2177 436.335 60.9428C435.117 65.1262 434.04 67.5471 432.298 71.4891C422.99 85.0636 404.825 100.022 387.758 90.3342Z"/><path fill="#919294" transform="scale(1.29094 1.29094)" d="M341.909 110.187L342.513 111.072C340.72 118.13 321.422 127.763 315.289 133.693C304.14 144.474 303.418 152.257 302.617 166.606C301.665 165.067 301.48 165.176 301.477 163.334C301.413 131.413 325.701 128.506 341.909 110.187Z"/><path fill="#FE5D2A" transform="scale(1.29094 1.29094)" d="M501.263 224.052C508.481 227.515 515.871 231.18 523.15 234.466C522.127 236.458 517.608 244.759 518.894 246.385C522.378 250.788 545.605 279.02 548.707 279.753L549.711 280.304L542.047 283.013L540.014 283.997C539.604 287.739 553.966 307.676 557.086 311.915C566.005 308.836 571.574 306.398 579.746 301.583L580.915 302.835C601.774 289.413 611.695 277.431 622.786 254.923C636.943 270.93 661.517 294.773 667.316 313.682C670.701 326.253 668.912 339.656 662.349 350.9C655.494 362.706 645.566 371.198 632.173 374.653C618.479 378.273 603.906 376.265 591.701 369.075C582.172 363.36 571.723 354.155 563.156 346.857L519.587 309.686C511.837 303.078 500.001 292.528 491.863 287.13C481.047 308.345 465.746 338.035 453.65 358.283C450.242 354.276 433.06 333.595 429.006 332.861C422.94 324.732 406.074 318.747 396.251 316.976C391.796 316.174 378.453 316.181 377.246 311.55C379.781 305.766 396.277 298.791 402.413 295.81C409.686 292.285 418.731 287.564 427.029 285.842C434.053 283.794 456.396 286.687 461.577 283.047C473.125 274.935 470.258 284.788 481.656 279.766C488.616 273.808 483.693 269.183 488.222 265.317L488.063 264.944C498.986 255.602 497.387 250.386 487.385 241.618L488.384 240.316C501.71 248.324 509.138 235.246 499.593 224.712L501.263 224.052Z"/><path transform="scale(1.29094 1.29094)" d="M501.263 224.052C508.481 227.515 515.871 231.18 523.15 234.466C522.127 236.458 517.608 244.759 518.894 246.385C522.378 250.788 545.605 279.02 548.707 279.753L549.711 280.304L542.047 283.013L543.122 281.43C539.827 282.147 538.781 282.132 536.194 280.528L534.647 276.319C535.122 274.829 535.628 270.126 535.862 268.32C529.714 261.273 523.481 254.3 517.164 247.404C513.28 256.165 511.885 260.568 503.356 265.488L502.709 265.537C497.879 265.562 493.049 265.489 488.222 265.317L488.063 264.944C498.986 255.602 497.387 250.386 487.385 241.618L488.384 240.316C501.71 248.324 509.138 235.246 499.593 224.712L501.263 224.052Z"/><path fill="#FE5D2A" transform="scale(1.29094 1.29094)" d="M535.862 268.32C536.09 268.888 536.798 270.744 537.051 271.165C539.969 272.309 543.332 276.448 544.625 279.402L544.375 280.703L543.122 281.43C539.827 282.147 538.781 282.132 536.194 280.528L534.647 276.319C535.122 274.829 535.628 270.126 535.862 268.32Z"/><path fill="#662413" transform="scale(1.29094 1.29094)" d="M535.862 268.32C536.09 268.888 536.798 270.744 537.051 271.165C536.709 274.065 536.173 277.667 536.194 280.528L534.647 276.319C535.122 274.829 535.628 270.126 535.862 268.32Z"/><path fill="#331311" transform="scale(1.29094 1.29094)" d="M534.647 276.319L536.194 280.528C538.781 282.132 539.827 282.147 543.122 281.43L542.047 283.013L540.014 283.997C539.604 287.739 553.966 307.676 557.086 311.915C566.005 308.836 571.574 306.398 579.746 301.583L580.915 302.835C576.655 305.793 561.851 311.793 556.648 313.919C549.786 304.029 540.655 291.498 534.783 280.863C534.344 280.067 534.551 277.341 534.647 276.319Z"/><path fill="#E8E7E7" transform="scale(1.29094 1.29094)" d="M502.709 265.537L503.356 265.488C503.736 270.028 496.329 280.458 493.666 284.773C493.334 282.075 500.959 268.697 502.709 265.537Z"/><path fill="#E8E7E7" transform="scale(1.29094 1.29094)" d="M485.253 131.839C500.651 123.818 531.112 126.107 548.303 126.567C575.468 127.294 564.716 141.357 560.486 155.851L559.311 157.072C548.881 153.63 514.581 140.039 505.821 144.647C504.074 145.566 502.8 147.014 502.231 148.929C501.168 152.501 502.455 155.928 503.948 159.15L503.84 160.428C490.028 161.701 490.356 175.845 501.471 179.815L498.601 180.935C490.673 182.453 489.666 192.617 494.665 198.209L493.946 198.897C491.045 199.122 490.181 199.078 487.5 200.282C478.191 213.183 491.25 219.044 501.263 224.052L499.593 224.712C509.138 235.246 501.71 248.324 488.384 240.316L487.385 241.618C497.387 250.386 498.986 255.602 488.063 264.944L488.222 265.317C483.693 269.183 488.616 273.808 481.656 279.766C470.258 284.788 473.125 274.935 461.577 283.047C456.396 286.687 434.053 283.794 427.029 285.842C418.731 287.564 409.686 292.285 402.413 295.81L402.206 294.821C391.76 299.234 377.438 306.72 366.887 311.807C357.795 291.146 353.419 279.35 349.892 256.806L356.276 253.535C358.362 252.516 363.932 249.141 365.379 247.384C368.482 243.083 382.045 232.743 386.915 228.266C409.304 207.687 423.395 189.637 455.855 189.759L464.302 172.494C451.736 168.572 441.072 166.348 427.988 168.001C424.564 166.339 419.276 166.973 415.584 167.397C413.652 168.228 412.977 168.357 411.577 169.961L410.709 169.661C409.034 168.664 408.868 168.427 407.702 166.855C406.924 164.144 408.317 161.111 409.239 158.355C389.151 154.663 383.282 146.598 376.653 128.332C400.2 149.36 413.966 152.299 441.966 135.507L443.24 135.467C461.891 152.794 453.336 163.269 457.211 168.462L459.845 169.651L461.485 170.006L463.78 170.017C471.746 165.512 477.907 141.707 485.253 131.839Z"/><path transform="scale(1.29094 1.29094)" d="M485.253 131.839C500.651 123.818 531.112 126.107 548.303 126.567C575.468 127.294 564.716 141.357 560.486 155.851L559.311 157.072C548.881 153.63 514.581 140.039 505.821 144.647C504.074 145.566 502.8 147.014 502.231 148.929C501.168 152.501 502.455 155.928 503.948 159.15L503.84 160.428C490.028 161.701 490.356 175.845 501.471 179.815L498.601 180.935C490.673 182.453 489.666 192.617 494.665 198.209L493.946 198.897C491.045 199.122 490.181 199.078 487.5 200.282L486.788 199.186L486.719 198.037C482.91 196.506 478.929 196.14 474.95 195.072C458.946 190.779 445.713 189.274 429.932 195.644C409.013 204.088 383.022 237.993 365.379 247.384C368.482 243.083 382.045 232.743 386.915 228.266C409.304 207.687 423.395 189.637 455.855 189.759L464.302 172.494C451.736 168.572 441.072 166.348 427.988 168.001C424.564 166.339 419.276 166.973 415.584 167.397C413.652 168.228 412.977 168.357 411.577 169.961L410.709 169.661C409.034 168.664 408.868 168.427 407.702 166.855C406.924 164.144 408.317 161.111 409.239 158.355C389.151 154.663 383.282 146.598 376.653 128.332C400.2 149.36 413.966 152.299 441.966 135.507L443.24 135.467C461.891 152.794 453.336 163.269 457.211 168.462L459.845 169.651L461.485 170.006L463.78 170.017C471.746 165.512 477.907 141.707 485.253 131.839Z"/><path fill="#919294" transform="scale(1.29094 1.29094)" d="M509.36 130.825C514.204 130.045 557.836 129.806 559.455 131.573C555.499 134.511 517.288 131.28 509.458 132.092C502.27 132.837 500.129 132.429 492.322 135.076C488.554 139.506 483.867 148.386 480.864 153.725C476.42 162.828 468.917 179.325 463.199 187.157C463.148 186.04 477.593 157.787 479.669 152.952C487.792 134.035 489.837 131.668 509.36 130.825Z"/><path transform="scale(1.29094 1.29094)" d="M458.52 270.364C466.755 275.536 469.946 281.401 480.595 279.028L481.656 279.766C470.258 284.788 473.125 274.935 461.577 283.047C456.396 286.687 434.053 283.794 427.029 285.842C418.731 287.564 409.686 292.285 402.413 295.81L402.206 294.821C415.715 288.311 425.018 285.185 435.093 274.024C443.049 272.937 450.631 271.942 458.52 270.364Z"/><path fill="#2F2F2F" transform="scale(1.29094 1.29094)" d="M486.788 199.186L487.5 200.282C478.191 213.183 491.25 219.044 501.263 224.052L499.593 224.712C486.589 218.741 472.071 211.84 457.248 211.99C451.4 212.049 443.892 213.871 438.143 213.348L438.623 212.6C451.045 207.285 472.9 212.655 485.383 216.109C481.972 208.378 481.911 205.97 486.788 199.186Z"/><path fill="#211F1F" transform="scale(1.29094 1.29094)" d="M480.595 279.028C485.55 274.756 486.717 268.259 482.16 263.175C473.439 253.444 460.386 250.389 447.804 251.62C442.866 252.103 436.997 253.625 432.145 253.244L432.492 252.729C442.058 249.968 456.008 248.575 465.911 250.715C474.733 252.622 481.031 262.713 488.063 264.944L488.222 265.317C483.693 269.183 488.616 273.808 481.656 279.766L480.595 279.028Z"/><path fill="#211F1F" transform="scale(1.29094 1.29094)" d="M431.549 233.345C432.106 233.175 432.666 233.015 433.228 232.865C456.122 226.713 468.747 228.987 488.384 240.316L487.385 241.618C461.066 225.497 457.796 233.803 431.549 233.345Z"/><path fill="#E8E7E7" transform="scale(1.29094 1.29094)" d="M503.948 159.15C502.455 155.928 501.168 152.501 502.231 148.929C502.8 147.014 504.074 145.566 505.821 144.647C514.581 140.039 548.881 153.63 559.311 157.072L560.486 155.851C573.869 158.279 594.333 160.408 589.044 181.052C587.58 186.762 588.312 192.173 587.732 197.871C585.864 203.037 580.101 210.059 578.215 216.012L576.95 218.323C582.249 223.55 586.239 228.5 590.941 234.216C583.715 252.402 577.497 263.318 560.104 273.798C556.445 276.003 551.752 277.932 548.707 279.753C545.605 279.02 522.378 250.788 518.894 246.385C517.608 244.759 522.127 236.458 523.15 234.466C515.871 231.18 508.481 227.515 501.263 224.052C491.25 219.044 478.191 213.183 487.5 200.282C490.181 199.078 491.045 199.122 493.946 198.897L494.665 198.209C489.666 192.617 490.673 182.453 498.601 180.935L501.471 179.815C490.356 175.845 490.028 161.701 503.84 160.428L503.948 159.15Z"/><path fill="#211F1F" transform="scale(1.29094 1.29094)" d="M560.486 155.851C573.869 158.279 594.333 160.408 589.044 181.052C587.58 186.762 588.312 192.173 587.732 197.871C585.864 203.037 580.101 210.059 578.215 216.012L576.95 218.323L576.308 216.765C578.233 210.201 582.633 204.243 586.446 198.588C585.378 165.326 598.498 166.983 559.311 157.072L560.486 155.851Z"/><path fill="#211F1F" transform="scale(1.29094 1.29094)" d="M503.948 159.15C524.921 166.146 553.468 173.446 573.124 181.578C562.116 179.17 513.711 165.223 503.84 160.428L503.948 159.15Z"/><path fill="#2F2F2F" transform="scale(1.29094 1.29094)" d="M501.471 179.815C519.174 185.46 542.295 192.382 559.33 199.134C545.035 198.027 515.922 184.387 498.601 180.935L501.471 179.815Z"/><path fill="#211F1F" transform="scale(1.29094 1.29094)" d="M494.665 198.209C500.92 200.081 539.377 214.791 542.112 217.858C534.692 215.873 500.123 202.609 493.946 198.897L494.665 198.209Z"/><path fill="#FE5D2A" transform="scale(1.29094 1.29094)" d="M594.598 223.169C603.694 232.435 613.033 243.745 621.401 253.743C612.355 274.424 599.469 290.002 579.746 301.583C571.574 306.398 566.005 308.836 557.086 311.915C553.966 307.676 539.604 287.739 540.014 283.997L542.047 283.013L549.711 280.304C577.709 269.254 588.355 251.734 594.598 223.169Z"/><path fill="#331311" transform="scale(1.29094 1.29094)" d="M556.615 86.8945C567.838 105.258 574.597 121.706 589.173 138.153C602.536 153.233 616.726 161.719 630.996 174.717C655.318 196.873 669.751 234.921 661.142 267.455C659.026 275.451 657.233 279.836 653.797 287.424C660.348 295.754 664.97 301.77 668.013 312.095L667.316 313.682C661.517 294.773 636.943 270.93 622.786 254.923C611.695 277.431 601.774 289.413 580.915 302.835L579.746 301.583C599.469 290.002 612.355 274.424 621.401 253.743C613.033 243.745 603.694 232.435 594.598 223.169C588.355 251.734 577.709 269.254 549.711 280.304L548.707 279.753C551.752 277.932 556.445 276.003 560.104 273.798C577.497 263.318 583.715 252.402 590.941 234.216C586.239 228.5 582.249 223.55 576.95 218.323L578.215 216.012C582.701 215.924 588.1 215.404 591.682 218.5C599.962 225.655 607.004 234.536 614.209 242.798C626.847 257.44 639.627 271.958 652.548 286.351C655.215 281.337 657.364 276.063 658.96 270.612C668.346 237.823 654.93 197.956 630.137 175.312C617.212 163.507 602.363 155.223 590.174 141.884C575.178 125.472 566.522 106.926 555.791 87.7184L556.615 86.8945Z"/><path fill="#FE5D2A" transform="scale(1.29094 1.29094)" d="M579.622 217.686C592.22 216.978 593.197 218.611 591.471 230.482L590.955 230.526C587.778 228.949 581.852 220.743 579.622 217.686Z"/><path fill="#E8E7E7" transform="scale(1.29094 1.29094)" d="M443.24 135.467C457.692 126.193 463.873 152.385 461.349 163.831C460.934 165.793 460.433 167.734 459.845 169.651L457.211 168.462C453.336 163.269 461.891 152.794 443.24 135.467Z"/><path fill="#2F2F2F" transform="scale(1.29094 1.29094)" d="M458.698 81.8424C459.408 101.005 460.034 115.018 448.097 131.134C466.196 142.788 466.291 149.812 461.485 170.006L459.845 169.651C460.433 167.734 460.934 165.793 461.349 163.831C463.873 152.385 457.692 126.193 443.24 135.467L441.966 135.507C449.997 126.615 454.521 118.235 456.828 106.355C457.769 101.508 458.842 88.5927 456.074 84.5868L457.581 84.2013L458.698 81.8424Z"/><path fill="#8D6EFD" transform="scale(1.29094 1.29094)" d="M241.227 413.472C230.739 425.865 215.411 438.079 205.824 449.708C212.454 448.734 306.724 346.34 324.001 336.712C324.991 336.16 328.8 333.273 330.103 332.41C339.322 326.259 349.584 321.836 360.387 319.359C388.175 312.95 406.05 318.551 429.006 332.861C430.208 334.838 431.32 335.559 432.805 337.175C461.123 367.978 487.36 401.389 514.78 432.957C530.979 451.416 547.535 469.56 564.437 487.378C566.976 490.085 580.241 504.612 582.477 505.781L583.195 508.089C581.187 509.986 576.767 510.349 574 510.811C548.825 515.015 523.1 525.244 505.139 543.929C501.169 548.059 498.173 552.917 493.712 556.632L492.936 557.313C492.019 566.54 489.903 571.844 489.425 583.034C487.809 583.703 488.43 583.545 486.516 583.213L479.778 577.587L476.954 577.293C468.378 583.019 456.333 593.075 446.677 591.923C441.168 591.266 437.804 588.179 433.79 587.315C430.314 584.748 419.526 574.333 415.864 570.931C405.747 576.084 391.574 581.838 381.001 586.331C362.637 594.079 360.549 595.2 348.718 611.932L347.619 611.607C333.435 630.61 324.705 645.503 316.375 667.932C315.341 667.741 315.739 668.015 315.074 667.27L313.488 666.851C313.782 673.322 313.642 676.621 312.713 683.103L313.123 684.2C311.072 693.367 308.234 702.424 304.493 711.021C292.28 739.086 261.812 754.92 233.614 739.155L233.915 738.097C220.401 729.874 220.453 716.708 223.105 702.972C210.781 688.546 211.572 679.875 218.822 663.216C215.25 659.734 212.377 655.601 210.358 651.039C205.857 641.116 210.504 631.929 213.884 623.184C219.455 618.449 224.96 613.993 228.443 607.591C240.131 586.103 219.853 578.322 214.61 560.789C211.885 551.675 216.17 543.114 220.579 535.483C219.447 534.104 217.958 532.286 216.97 530.807C212.658 524.375 211.125 516.475 212.716 508.897C214.356 501.245 219.04 494.591 225.689 490.466C238.013 482.767 247.16 485.766 259.726 488.678L260.554 488.143C246.3 483.362 235.068 481.739 221.722 491.675C212.614 498.456 211.21 506.728 209.763 517.263C171.121 489.437 183.527 455.307 196.786 417.202C200.785 417.506 202.627 417.515 206.625 417.21C216.885 417.409 230.935 415.025 241.227 413.472Z"/><path fill="#FEBA16" transform="scale(1.29094 1.29094)" d="M220.579 535.483C219.447 534.104 217.958 532.286 216.97 530.807C212.658 524.375 211.125 516.475 212.716 508.897C214.356 501.245 219.04 494.591 225.689 490.466C238.013 482.767 247.16 485.766 259.726 488.678L260.554 488.143C265.603 489.298 317.705 503.527 316.53 503.66L317.721 504.436C321.901 505.509 337.049 508.703 339.173 511.312L339.529 511.271L354.471 515.902L347.295 520.364L347.687 521.445C357.177 515.443 371.583 510.406 382.39 506.222L383.609 505.53C388.827 508.592 392.423 510.962 397.105 514.87C413.47 530.024 423.696 546.888 429.489 568.828C431.209 575.341 429.628 581.919 433.79 587.315C430.314 584.748 419.526 574.333 415.864 570.931C405.747 576.084 391.574 581.838 381.001 586.331C362.637 594.079 360.549 595.2 348.718 611.932L347.619 611.607C333.435 630.61 324.705 645.503 316.375 667.932C315.341 667.741 315.739 668.015 315.074 667.27L313.488 666.851C313.782 673.322 313.642 676.621 312.713 683.103L313.123 684.2C311.072 693.367 308.234 702.424 304.493 711.021C292.28 739.086 261.812 754.92 233.614 739.155L233.915 738.097C220.401 729.874 220.453 716.708 223.105 702.972C210.781 688.546 211.572 679.875 218.822 663.216C215.25 659.734 212.377 655.601 210.358 651.039C205.857 641.116 210.504 631.929 213.884 623.184C219.455 618.449 224.96 613.993 228.443 607.591C240.131 586.103 219.853 578.322 214.61 560.789C211.885 551.675 216.17 543.114 220.579 535.483Z"/><path fill="#FEBA16" transform="scale(1.29094 1.29094)" d="M220.579 535.483C219.447 534.104 217.958 532.286 216.97 530.807C212.658 524.375 211.125 516.475 212.716 508.897C214.356 501.245 219.04 494.591 225.689 490.466C238.013 482.767 247.16 485.766 259.726 488.678C267.1 490.77 277.042 493.308 283.936 496.119C253.854 517.679 270.323 535.868 270.774 564.734C270.987 578.38 264.933 595.248 263.453 609.021C260.545 645.138 262.062 706.721 278.174 738.568C264.981 743.222 250.899 746.446 237.477 739.995C236.267 739.405 235.079 738.772 233.915 738.097C220.401 729.874 220.453 716.708 223.105 702.972C210.781 688.546 211.572 679.875 218.822 663.216C215.25 659.734 212.377 655.601 210.358 651.039C205.857 641.116 210.504 631.929 213.884 623.184C219.455 618.449 224.96 613.993 228.443 607.591C240.131 586.103 219.853 578.322 214.61 560.789C211.885 551.675 216.17 543.114 220.579 535.483Z"/><path fill="#E8E7E7" transform="scale(1.29094 1.29094)" d="M382.39 506.222L383.609 505.53C388.827 508.592 392.423 510.962 397.105 514.87C413.47 530.024 423.696 546.888 429.489 568.828C431.209 575.341 429.628 581.919 433.79 587.315C430.314 584.748 419.526 574.333 415.864 570.931C405.747 576.084 391.574 581.838 381.001 586.331C362.637 594.079 360.549 595.2 348.718 611.932L347.619 611.607C333.435 630.61 324.705 645.503 316.375 667.932C315.341 667.741 315.739 668.015 315.074 667.27L313.488 666.851C311.244 655.205 307.528 649.761 299.887 641.297L301.622 640.388C299.693 613.386 303.974 592.135 322.018 570.927L320.666 569.834C327.432 564.853 330.532 562.443 337.95 558.105C330.964 541.861 333.252 531.312 347.295 520.364L347.687 521.445C357.177 515.443 371.583 510.406 382.39 506.222Z"/><path fill="#E8E7E7" transform="scale(1.29094 1.29094)" d="M322.018 570.927C330.095 564.633 337.934 557.346 348.932 558.722C354.25 559.402 359.062 562.22 362.257 566.525C365.671 571.122 367.072 576.909 366.136 582.558C364.515 592.622 353.875 602.362 347.619 611.607C333.435 630.61 324.705 645.503 316.375 667.932C315.341 667.741 315.739 668.015 315.074 667.27L313.488 666.851C311.244 655.205 307.528 649.761 299.887 641.297L301.622 640.388C299.693 613.386 303.974 592.135 322.018 570.927Z"/><path fill="#5D462E" transform="scale(1.29094 1.29094)" d="M301.622 640.388C309.955 649.764 312.376 654.924 315.074 667.27L313.488 666.851C311.244 655.205 307.528 649.761 299.887 641.297L301.622 640.388Z"/><path transform="scale(1.29094 1.29094)" d="M397.105 514.87C413.47 530.024 423.696 546.888 429.489 568.828C431.209 575.341 429.628 581.919 433.79 587.315C430.314 584.748 419.526 574.333 415.864 570.931C405.747 576.084 391.574 581.838 381.001 586.331L381 584.875C391.201 579.828 404.086 574.576 414.67 569.934C413.287 546.756 411.906 534.063 395.905 516.317L397.105 514.87Z"/><path fill="#2F2F2F" transform="scale(1.29094 1.29094)" d="M347.295 520.364L347.687 521.445C340.051 527.739 336.93 532.851 335.761 543.19C335.074 549.262 336.192 556.951 344.099 557.221C366.898 557.999 371.12 573.562 364.907 591.813C369.514 589.887 376.765 587.094 381 584.875L381.001 586.331C362.637 594.079 360.549 595.2 348.718 611.932L347.619 611.607C353.875 602.362 364.515 592.622 366.136 582.558C367.072 576.909 365.671 571.122 362.257 566.525C359.062 562.22 354.25 559.402 348.932 558.722C337.934 557.346 330.095 564.633 322.018 570.927L320.666 569.834C327.432 564.853 330.532 562.443 337.95 558.105C330.964 541.861 333.252 531.312 347.295 520.364Z"/><path fill="#211F1F" transform="scale(1.29094 1.29094)" d="M382.39 506.222L383.609 505.53C388.827 508.592 392.423 510.962 397.105 514.87L395.905 516.317C390.934 512.093 387.836 509.842 382.39 506.222Z"/><path transform="scale(1.29094 1.29094)" d="M260.554 488.143C265.603 489.298 317.705 503.527 316.53 503.66L317.721 504.436C321.901 505.509 337.049 508.703 339.173 511.312L339.529 511.271L354.471 515.902L347.295 520.364C333.252 531.312 330.964 541.861 337.95 558.105C330.532 562.443 327.432 564.853 320.666 569.834L322.018 570.927C303.974 592.135 299.693 613.386 301.622 640.388L299.887 641.297C295.558 637.14 285.983 630.513 279.985 630.707L278.966 630.139C278.85 611.899 278.305 600.108 284.244 582.809C288.497 570.421 286.289 554.01 283.392 541.426C278.518 520.249 282.91 513.346 299.123 500.435C295.362 499.194 289.236 496.943 285.551 496.535L283.936 496.119C277.042 493.308 267.1 490.77 259.726 488.678L260.554 488.143Z"/><path fill="#E8E7E7" transform="scale(1.29094 1.29094)" d="M339.529 511.271L354.471 515.902L347.295 520.364C333.252 531.312 330.964 541.861 337.95 558.105C330.532 562.443 327.432 564.853 320.666 569.834L320.007 569.288C318.74 566.058 320.542 561.388 319.928 558.405C314.349 531.333 312.933 524.859 339.173 511.312L339.529 511.271Z"/><path fill="#E8E7E7" transform="scale(1.29094 1.29094)" d="M279.985 630.707C285.983 630.513 295.558 637.14 299.887 641.297C307.528 649.761 311.244 655.205 313.488 666.851C313.782 673.322 313.642 676.621 312.713 683.103C308.62 698.038 302.594 713.915 293.451 726.443C282.113 701.99 283.775 682.197 282.531 655.863C282.161 648.023 281.882 638.194 279.985 630.707Z"/><path fill="#302105" transform="scale(1.29094 1.29094)" d="M283.936 496.119L285.551 496.535C253.718 520.913 273.613 535.388 272.314 566.844C271.508 586.366 264.016 603.908 263.845 625.082C263.937 630.554 264.116 636.219 263.842 641.666C263.861 668.065 266.888 714.994 279.728 737.582C284.923 734.052 287.867 731.592 292.624 727.447C282.895 710.87 283.089 695.838 281.91 677.197C280.922 661.564 280.243 645.735 278.966 630.139L279.985 630.707C281.882 638.194 282.161 648.023 282.531 655.863C283.775 682.197 282.113 701.99 293.451 726.443C302.594 713.915 308.62 698.038 312.713 683.103L313.123 684.2C311.072 693.367 308.234 702.424 304.493 711.021C292.28 739.086 261.812 754.92 233.614 739.155L233.915 738.097C235.079 738.772 236.267 739.405 237.477 739.995C250.899 746.446 264.981 743.222 278.174 738.568C262.062 706.721 260.545 645.138 263.453 609.021C264.933 595.248 270.987 578.38 270.774 564.734C270.323 535.868 253.854 517.679 283.936 496.119Z"/><path fill="#7B570B" transform="scale(1.29094 1.29094)" d="M263.842 641.666C262.718 636.92 262.907 629.864 263.845 625.082C263.937 630.554 264.116 636.219 263.842 641.666Z"/><path fill="#8D6EFD" transform="scale(1.29094 1.29094)" d="M376.011 497.818C383.253 495.576 393.361 490.913 400.554 487.841L460.568 559.804C462.556 562.156 476.999 577.419 476.954 577.293C468.378 583.019 456.333 593.075 446.677 591.923C441.168 591.266 437.804 588.179 433.79 587.315C429.628 581.919 431.209 575.341 429.489 568.828C423.696 546.888 413.47 530.024 397.105 514.87C392.423 510.962 388.827 508.592 383.609 505.53C380.635 503.118 376.364 502.298 374.524 499.252L376.011 497.818Z"/><path fill="#8D6EFD" transform="scale(1.29094 1.29094)" d="M317.721 504.436C322.229 500.525 335.16 492.817 340.581 489.452C354.087 481.175 367.495 472.737 380.8 464.14C386.791 470.642 393.958 479.738 399.749 486.672C391.694 490.176 383.617 493.634 375.522 497.045L376.011 497.818L374.524 499.252C376.364 502.298 380.635 503.118 383.609 505.53L382.39 506.222C371.583 510.406 357.177 515.443 347.687 521.445L347.295 520.364L354.471 515.902L339.529 511.271L339.173 511.312C337.049 508.703 321.901 505.509 317.721 504.436Z"/><path transform="scale(1.29094 1.29094)" d="M375.522 497.045L376.011 497.818L374.524 499.252C376.364 502.298 380.635 503.118 383.609 505.53L382.39 506.222C371.583 510.406 357.177 515.443 347.687 521.445L347.295 520.364L354.471 515.902L339.529 511.271C342.525 510.593 352.217 514.293 355.689 515.46C359.671 513.822 363.681 511.958 367.616 510.189C369.117 503.339 368.603 499.696 375.522 497.045Z"/><path fill="#1E2135" transform="scale(1.29094 1.29094)" d="M380.111 463.327L350.608 427.706C346.472 422.701 336.994 411.611 333.93 406.414C339.103 410.288 361.115 438.041 366.917 444.966L427.292 517.61C445.958 540.152 459.178 557.042 479.778 577.587L476.954 577.293C476.999 577.419 462.556 562.156 460.568 559.804L400.554 487.841C393.361 490.913 383.253 495.576 376.011 497.818L375.522 497.045C383.617 493.634 391.694 490.176 399.749 486.672C393.958 479.738 386.791 470.642 380.8 464.14C367.495 472.737 354.087 481.175 340.581 489.452C335.16 492.817 322.229 500.525 317.721 504.436L316.53 503.66C328.345 495.399 342.058 487.115 354.338 479.352C361.535 474.802 372.867 467.198 380.111 463.327Z"/><path fill="#1E2135" transform="scale(1.29094 1.29094)" d="M492.936 557.313C489.493 554.129 476.808 538.295 472.859 533.695L424.136 476.813L376.051 420.448C368.611 411.764 355.01 396.782 348.937 387.77L349.155 387.415C357.217 394.996 368.604 409.282 376.125 418.164L421.105 471.145L466.436 524.132C474.458 533.436 486.985 547.053 493.712 556.632L492.936 557.313Z"/><path fill="#E8E7E7" transform="scale(1.29094 1.29094)" d="M582.811 504.445C592.069 514.728 589.61 531.652 587.208 544.285C592.96 541.942 600.395 537.26 605.895 533.982L606.802 534.716C601.35 537.866 595.093 541.686 589.559 544.521C595.481 549.824 601.453 555.07 607.474 560.26L606.686 561.099L617.248 570.006C614.64 571.311 610.863 573.057 608.535 574.645C614.777 572.697 621.903 569.604 627.785 572.792C641.655 580.309 656.72 598.155 669.359 605.977C684.736 615.494 701.297 622.48 716.999 632.705L718.558 633.184C729.257 637.558 760.637 650.904 769.24 659.947C770.045 660.792 769.8 665.558 769.646 667.073C771.107 665.345 771.45 663.417 772.043 661.247C774.881 664.142 781.687 670.383 782.13 674.252L783.357 675.326C788.888 681.801 791.07 692.629 790.471 700.902C789.605 711.943 784.444 722.204 776.096 729.482C768.022 736.444 762.106 736.124 752.569 739.128C747.674 740.67 742.475 744.055 737.324 745.594C735.048 746.28 732.666 746.541 730.296 746.366C724.625 745.93 716.858 741.463 712.177 738.227C696.432 749.577 686.318 748.911 670.6 737.761C633.456 760.745 627.247 720.903 606.893 715.163C582.8 708.368 576.999 741.415 544.194 714.078C536.532 716.544 534.074 716.852 525.902 716.406L523.093 715.248C509.327 711.706 507.982 691.064 509.724 679.601C511.724 666.448 518.145 655.899 523.117 643.78C523.446 642.526 523.629 639.552 523.761 638.121L524.143 636.675C525.805 624.096 526.762 603.232 528.028 589.528C513.928 591.955 497.865 594.496 486.516 583.213C488.43 583.545 487.809 583.703 489.425 583.034C489.903 571.844 492.019 566.54 492.936 557.313L493.712 556.632C498.173 552.917 501.169 548.059 505.139 543.929C523.1 525.244 548.825 515.015 574 510.811C576.767 510.349 581.187 509.986 583.195 508.089L582.477 505.781L582.811 504.445Z"/><path fill="#FEBA16" transform="scale(1.29094 1.29094)" d="M523.723 643.909L524.803 641.042C527.263 641.319 534.247 654.483 544.259 657.412C560.241 662.087 577.01 656.122 591.744 660.238C611.91 665.871 624.03 676.593 645.86 680.875C665.434 685.945 761.01 690.707 767.34 671.188L769.646 667.073C771.107 665.345 771.45 663.417 772.043 661.247C774.881 664.142 781.687 670.383 782.13 674.252L783.357 675.326C788.888 681.801 791.07 692.629 790.471 700.902C789.605 711.943 784.444 722.204 776.096 729.482C768.022 736.444 762.106 736.124 752.569 739.128C747.674 740.67 742.475 744.055 737.324 745.594C735.048 746.28 732.666 746.541 730.296 746.366C724.625 745.93 716.858 741.463 712.177 738.227C696.432 749.577 686.318 748.911 670.6 737.761C633.456 760.745 627.247 720.903 606.893 715.163C582.8 708.368 576.999 741.415 544.194 714.078C536.532 716.544 534.074 716.852 525.902 716.406L523.093 715.248C509.327 711.706 507.982 691.064 509.724 679.601C511.724 666.448 518.145 655.899 523.117 643.78L523.723 643.909Z"/><path fill="#FEBA16" transform="scale(1.29094 1.29094)" d="M523.723 643.909L524.803 641.042C527.263 641.319 534.247 654.483 544.259 657.412C560.241 662.087 577.01 656.122 591.744 660.238C611.91 665.871 624.03 676.593 645.86 680.875C665.434 685.945 761.01 690.707 767.34 671.188L769.646 667.073C771.107 665.345 771.45 663.417 772.043 661.247C774.881 664.142 781.687 670.383 782.13 674.252C780.695 677.46 776.781 685.652 773.941 687.723C739.509 710.582 674.35 706.388 635.204 696.962C608.349 690.496 594.99 672.157 561.517 676.022C540.135 678.491 522.654 668.564 523.723 643.909Z"/><path fill="#302105" transform="scale(1.29094 1.29094)" d="M523.117 643.78L523.723 643.909C522.654 668.564 540.135 678.491 561.517 676.022C594.99 672.157 608.349 690.496 635.204 696.962C674.35 706.388 739.509 710.582 773.941 687.723C776.781 685.652 780.695 677.46 782.13 674.252L783.357 675.326C777.817 687.15 772.816 693.663 759.341 698.023C724.325 709.353 655.469 708.591 622.156 693.852C603.324 685.521 598.869 680.116 575.5 677.925C569.135 678.015 556.904 678.46 551.162 677.382C535.847 675.273 526.594 668.877 521.411 653.938C515.742 663.468 510.791 673.077 510.484 684.524C510.237 693.741 511.926 705.697 519.367 712.043C520.053 712.628 522.7 714.714 523.093 715.248C509.327 711.706 507.982 691.064 509.724 679.601C511.724 666.448 518.145 655.899 523.117 643.78Z"/><path fill="#7B570B" transform="scale(1.29094 1.29094)" d="M551.162 677.382C556.98 677.2 570.462 676.463 575.5 677.925C569.135 678.015 556.904 678.46 551.162 677.382Z"/><path transform="scale(1.29094 1.29094)" d="M582.811 504.445C592.069 514.728 589.61 531.652 587.208 544.285C592.96 541.942 600.395 537.26 605.895 533.982L606.802 534.716C601.35 537.866 595.093 541.686 589.559 544.521C595.481 549.824 601.453 555.07 607.474 560.26L606.686 561.099C589.246 546.41 571.988 531.507 554.916 516.392C530.673 528.599 517.474 538.948 501.265 560.948C511.54 570.035 522.043 580.318 532.412 589.023L529.427 589.565C528.233 591.888 527.944 602.361 527.356 606.361C534.462 614.458 555.953 631.372 566.758 631.54C581.088 631.762 586.526 624.459 601.869 629.671C602.32 629.412 602.77 629.153 603.221 628.894C607.528 633.758 652.627 654.494 662.052 659.07L666.962 656.99C683.729 649.078 700.409 640.982 716.999 632.705L718.558 633.184C729.257 637.558 760.637 650.904 769.24 659.947C770.045 660.792 769.8 665.558 769.646 667.073L767.34 671.188C761.01 690.707 665.434 685.945 645.86 680.875C624.03 676.593 611.91 665.871 591.744 660.238C577.01 656.122 560.241 662.087 544.259 657.412C534.247 654.483 527.263 641.319 524.803 641.042L523.723 643.909L523.117 643.78C523.446 642.526 523.629 639.552 523.761 638.121L524.143 636.675C525.805 624.096 526.762 603.232 528.028 589.528C513.928 591.955 497.865 594.496 486.516 583.213C488.43 583.545 487.809 583.703 489.425 583.034C489.903 571.844 492.019 566.54 492.936 557.313L493.712 556.632C498.173 552.917 501.169 548.059 505.139 543.929C523.1 525.244 548.825 515.015 574 510.811C576.767 510.349 581.187 509.986 583.195 508.089L582.477 505.781L582.811 504.445Z"/><path fill="#E8E7E7" transform="scale(1.29094 1.29094)" d="M716.999 632.705L718.558 633.184C729.257 637.558 760.637 650.904 769.24 659.947C770.045 660.792 769.8 665.558 769.646 667.073L767.34 671.188C742.278 689.983 677.166 683.91 646.208 679.997C650.021 670.979 659.194 662.055 668.2 658.403L666.962 656.99C683.729 649.078 700.409 640.982 716.999 632.705Z"/><path fill="#2F2F2F" transform="scale(1.29094 1.29094)" d="M716.999 632.705L718.558 633.184C705.787 640.124 681.772 653.332 668.2 658.403L666.962 656.99C683.729 649.078 700.409 640.982 716.999 632.705Z"/><path fill="#E8E7E7" transform="scale(1.29094 1.29094)" d="M529.427 589.565C532.387 590.859 535.767 593.694 538.07 595.997C558.411 616.34 570.051 622.972 595.536 603.499C597.844 611.182 601.408 621.917 601.869 629.671C586.526 624.459 581.088 631.762 566.758 631.54C555.953 631.372 534.462 614.458 527.356 606.361C527.944 602.361 528.233 591.888 529.427 589.565Z"/><path fill="#2F2F2F" transform="scale(1.29094 1.29094)" d="M595.361 601.396C595.806 592.624 596.877 584.701 603.592 578.016L603.958 578.368C602.296 581.969 600.418 585.619 598.544 589.131C592.674 600.133 604.132 619.906 603.221 628.894C602.77 629.153 602.32 629.412 601.869 629.671C601.408 621.917 597.844 611.182 595.536 603.499C570.051 622.972 558.411 616.34 538.07 595.997C535.767 593.694 532.387 590.859 529.427 589.565L532.412 589.023C555.304 609.81 566.499 624.754 595.361 601.396Z"/><path fill="#8D6EFD" transform="scale(1.29094 1.29094)" d="M469.374 377.338C506.522 377.761 543.673 377.807 580.822 377.476C598.489 377.367 616.195 377.282 633.83 377.289C644.84 377.293 656.852 377.06 667.488 379.659C700.233 387.766 718.069 424.913 705.695 455.977C696.714 478.52 673.979 490.72 654.344 502.686C637.905 512.705 622.092 523.592 605.895 533.982C600.395 537.26 592.96 541.942 587.208 544.285C589.61 531.652 592.069 514.728 582.811 504.445C569.566 491.421 557.383 477.44 544.785 463.791C535.161 453.364 524.297 442.615 515.798 431.236C527.477 426.389 581.389 406.126 589.758 399.738C566.34 407.36 537.627 420.28 514.684 430.243C499.743 412.47 484.639 394.834 469.374 377.338Z"/><path fill="#1E2135" fill-opacity="0.98431373" transform="scale(1.29094 1.29094)" d="M491.863 287.13C500.001 292.528 511.837 303.078 519.587 309.686L563.156 346.857C571.723 354.155 582.172 363.36 591.701 369.075C603.906 376.265 618.479 378.273 632.173 374.653C645.566 371.198 655.494 362.706 662.349 350.9C668.912 339.656 670.701 326.253 667.316 313.682L668.013 312.095C678.24 355.03 645.808 365.104 645.472 374.728C649.952 376.11 656.956 375.604 661.957 376.38C693.417 381.261 716.628 413.726 710.335 445.061C708.973 451.842 707.137 456.724 704.45 463.092C707.184 463.603 709.947 464.183 712.678 464.677C800.685 480.619 830.87 610.866 729.427 636.027C751.726 646.485 779.91 657.008 788.971 682.136C793.157 693.56 792.636 706.179 787.521 717.219C779.293 734.588 769.788 734.377 755.022 740.03C736.424 747.15 730.831 753.048 712.294 739.877C696.479 750.564 686.657 750.054 670.845 739.737C661.594 744.377 651.908 748.278 641.707 744.636C620.706 737.139 614.928 704.355 587.377 719.348C569.078 729.306 560.125 729.032 543.678 715.474C537.863 717.074 531.801 718.937 525.902 716.406C534.074 716.852 536.532 716.544 544.194 714.078C576.999 741.415 582.8 708.368 606.893 715.163C627.247 720.903 633.456 760.745 670.6 737.761C686.318 748.911 696.432 749.577 712.177 738.227C716.858 741.463 724.625 745.93 730.296 746.366C732.666 746.541 735.048 746.28 737.324 745.594C742.475 744.055 747.674 740.67 752.569 739.128C762.106 736.124 768.022 736.444 776.096 729.482C784.444 722.204 789.605 711.943 790.471 700.902C791.07 692.629 788.888 681.801 783.357 675.326L782.13 674.252C781.687 670.383 774.881 664.142 772.043 661.247C771.45 663.417 771.107 665.345 769.646 667.073C769.8 665.558 770.045 660.792 769.24 659.947C760.637 650.904 729.257 637.558 718.558 633.184L716.999 632.705C701.297 622.48 684.736 615.494 669.359 605.977C656.72 598.155 641.655 580.309 627.785 572.792C621.903 569.604 614.777 572.697 608.535 574.645C610.863 573.057 614.64 571.311 617.248 570.006L606.686 561.099L607.474 560.26C609.565 562.11 614.834 566.673 617.203 567.645C622.326 569.746 627.177 569.573 631.889 573.102C642.82 581.289 652.694 591.444 663.827 599.408C682.931 613.075 705.305 623.748 726.306 634.412L727.057 634.308C739.522 632.53 749.102 629.115 759.554 621.814C775.908 610.229 787.014 592.644 790.448 572.898C798.148 527.947 764.362 480.763 721.633 468.378C715.783 466.683 709.837 465.722 703.84 464.728C688.553 484.257 676.803 490.222 656.101 503.278C639.569 513.602 623.135 524.082 606.802 534.716L605.895 533.982C622.092 523.592 637.905 512.705 654.344 502.686C673.979 490.72 696.714 478.52 705.695 455.977C718.069 424.913 700.233 387.766 667.488 379.659C656.852 377.06 644.84 377.293 633.83 377.289C616.195 377.282 598.489 377.367 580.822 377.476C543.673 377.807 506.522 377.761 469.374 377.338C484.639 394.834 499.743 412.47 514.684 430.243C537.627 420.28 566.34 407.36 589.758 399.738C581.389 406.126 527.477 426.389 515.798 431.236C524.297 442.615 535.161 453.364 544.785 463.791C557.383 477.44 569.566 491.421 582.811 504.445L582.477 505.781C580.241 504.612 566.976 490.085 564.437 487.378C547.535 469.56 530.979 451.416 514.78 432.957C487.36 401.389 461.123 367.978 432.805 337.175C431.32 335.559 430.208 334.838 429.006 332.861C433.06 333.595 450.242 354.276 453.65 358.283C465.746 338.035 481.047 308.345 491.863 287.13Z"/><path fill="#E8E7E7" transform="scale(1.29094 1.29094)" d="M492.283 289.092C522.072 312.345 549.614 338.502 579.209 362.027C587.47 368.594 592.548 371.725 602.25 375.724L563.625 375.815L468.293 375.847C464.073 371.529 458.661 364.464 454.731 359.626L492.283 289.092Z"/><path fill="#03EEA3" transform="scale(1.29094 1.29094)" d="M811.384 310.462C825.23 309.698 846.178 310.309 860.409 310.323C888.635 310.351 917.911 310.115 946.066 310.795C941.08 316.513 910.16 348.85 904.586 351.117L768.888 351.03C782.648 338.594 797.962 321.585 811.384 310.462Z"/><path fill="#03EEA3" transform="scale(1.29094 1.29094)" d="M812.553 415.092L946.406 415.337C940.447 422.007 910.311 453.364 904.545 455.773C859.873 456.3 814.545 455.343 769.704 455.764C776.31 449.878 807.424 415.33 812.553 415.092Z"/><path fill="#1E2135" transform="scale(1.29094 1.29094)" d="M1407.34 357.211C1423.1 355.085 1425.05 362.751 1433.71 363.668C1433.98 361.633 1433.93 360.761 1435.43 359.283C1439.46 357.368 1447.24 358.268 1451.93 358.449C1452.08 382.665 1452.1 406.881 1451.99 431.097C1447.29 431.14 1441.74 431.687 1437.26 430.503C1434.27 429.712 1434.49 428.295 1433.91 425.749L1432.92 425.438L1428.19 428.687C1416.44 434.837 1402.08 434.627 1391.06 426.972C1382.61 421.001 1376.94 411.869 1375.33 401.651C1371.61 379.035 1384.69 360.68 1407.34 357.211ZM1417.45 415.811C1429 413.611 1436.58 402.473 1434.39 390.926C1432.19 379.38 1421.06 371.794 1409.51 373.978C1397.95 376.164 1390.36 387.31 1392.55 398.868C1394.75 410.426 1405.9 418.013 1417.45 415.811Z"/><path fill="#1E2135" transform="scale(1.29094 1.29094)" d="M1232.05 357.144C1242.99 356.306 1245.19 356.758 1255.08 361.748C1256.77 362.604 1260.15 364.077 1262.04 363.385C1262.09 361.465 1262.08 360.55 1262.52 358.642C1264.71 358.127 1276.02 358.274 1278.97 358.265C1278.24 380.842 1278.9 408.447 1279.14 431.192C1275.32 431.216 1264.85 431.879 1262.12 430.089C1261.95 428.452 1261.75 426.819 1261.51 425.191C1259.43 425.34 1258.56 426.479 1256.61 427.865C1224.31 450.088 1187.94 406.423 1206.86 375.152C1213.6 364.019 1220.06 360.539 1232.05 357.144ZM1243.88 416.334C1255.52 414.653 1263.63 403.903 1262.06 392.247C1260.48 380.59 1249.81 372.382 1238.13 373.854C1226.32 375.344 1217.98 386.187 1219.58 397.993C1221.17 409.799 1232.09 418.037 1243.88 416.334Z"/><path fill="#1E2135" transform="scale(1.29094 1.29094)" d="M1121.72 356.566C1142.91 355.936 1160.59 372.62 1161.18 393.808C1161.78 414.995 1145.06 432.643 1123.87 433.201C1102.74 433.758 1085.14 417.093 1084.55 395.956C1083.95 374.819 1100.59 357.195 1121.72 356.566ZM1127.15 415.122C1138.32 412.822 1145.51 401.908 1143.22 390.74C1140.92 379.571 1130.01 372.373 1118.84 374.659C1107.66 376.947 1100.46 387.868 1102.75 399.046C1105.05 410.225 1115.97 417.424 1127.15 415.122Z"/><path fill="#1E2135" transform="scale(1.29094 1.29094)" d="M1022.92 339.349L1069.05 339.662C1068.89 345.104 1068.95 350.872 1068.91 356.344C1052.22 356.351 1034.99 356.587 1018.31 356.191C1002.91 355.825 1001.5 372.472 1013.4 376.061C1029.49 380.916 1051.26 371.524 1065.36 384.1C1075.42 393.079 1075.93 412.449 1066.67 422.066C1057.61 431.648 1046.01 430.851 1034.16 431.189C1020.63 431.25 1002.45 431.789 989.278 430.893L989.069 413.932L1028.93 413.988C1032.74 413.98 1051.08 414.952 1052.94 411.573C1065.76 388.853 1032.26 393.783 1019.12 393.878C992.768 394.067 977.63 369.463 995.66 348.186C1002.68 339.899 1012.12 339.602 1022.92 339.349Z"/><path fill="#03EEA3" transform="scale(1.29094 1.29094)" d="M768.787 367.482C813.272 366.592 861.866 367.232 906.514 367.5C911.161 370.597 944.327 396.022 945.155 399.058C900.354 399.45 855.551 399.439 810.75 399.026C800.063 392.394 779.416 375.7 768.787 367.482Z"/><path fill="#1E2135" transform="scale(1.29094 1.29094)" d="M1328.94 357.123C1365.23 354.64 1362.97 381.058 1362.29 407.873C1362.12 415.554 1362.03 423.235 1362.01 430.917C1356.36 430.904 1350.72 430.804 1345.07 430.617C1345.63 415.875 1352.03 367.242 1326.95 372.75C1324.2 373.598 1320.99 374.962 1319.08 377.12C1309.72 387.721 1312.46 416.889 1312.87 430.743L1295.98 430.644C1295.68 406.914 1296.08 382.292 1296.05 358.471L1312.52 358.416C1314.3 361.208 1311.87 362.053 1313.66 364.748C1319.61 360.916 1321.98 358.866 1328.94 357.123Z"/><path fill="#1E2135" transform="scale(1.29094 1.29094)" d="M1173.6 335.99L1191 335.956L1190.94 399.346C1190.92 406.643 1191.3 424.221 1190.45 430.865C1184.55 430.718 1179.88 430.716 1173.99 431.02C1173.41 399.631 1173.68 367.439 1173.6 335.99Z"/><path fill="#1E2135" fill-opacity="0.95294118" transform="scale(1.29094 1.29094)" d="M196.37 414.354C188.957 410.305 179.534 405.034 172.664 400.169C149.638 383.6 134.01 358.677 129.125 330.733C123.55 297.448 135.352 262.301 161.096 240.067C175.119 227.956 193.5 218.157 201.821 200.709C208.663 186.364 205.238 168.579 208.308 153.306C210.931 139.885 215.632 128.494 223.603 117.353C238.617 96.3021 261.41 82.1123 286.926 77.9309C302.421 75.3944 330.644 76.8273 343.763 86.3182L342.945 86.6463C313.243 76.7051 288.894 73.8994 259.433 88.6188C237.397 99.7425 220.613 119.077 212.695 142.456C208.563 154.996 207.892 170.566 207.412 183.617C206.304 213.696 182.192 223.986 162.116 241.27C128.555 270.163 119.684 320.752 140.453 359.733C151.793 381.821 172.139 402.243 196.003 411.078C196.821 411.381 197.171 411.444 198.057 411.331L198.642 411.815L197.95 414.412C200.122 417.251 203.416 416.338 206.901 416.174L206.625 417.21C202.627 417.515 200.785 417.506 196.786 417.202C183.527 455.307 171.121 489.437 209.763 517.263C211.21 506.728 212.614 498.456 221.722 491.675C235.068 481.739 246.3 483.362 260.554 488.143L259.726 488.678C247.16 485.766 238.013 482.767 225.689 490.466C219.04 494.591 214.356 501.245 212.716 508.897C211.125 516.475 212.658 524.375 216.97 530.807C217.958 532.286 219.447 534.104 220.579 535.483C216.17 543.114 211.885 551.675 214.61 560.789C219.853 578.322 240.131 586.103 228.443 607.591C224.96 613.993 219.455 618.449 213.884 623.184C216.841 617.401 225.263 610.875 227.995 604.784C237.068 584.561 219.026 579.213 213.519 563.763C209.936 553.712 214.21 544.207 218.619 535.584C213.777 529.309 212.876 526.787 210.5 519.525C188.859 505.709 183.359 489.452 181.477 465.043C152.133 464.199 131.814 469.976 108.876 488.424L107.294 487.703C130.694 467.062 152.197 463.427 181.973 463.477C183.551 447.32 190.037 429.302 196.37 414.354Z"/><path fill="#1E2135" fill-opacity="0.96078432" transform="scale(1.29094 1.29094)" d="M101.314 493.25L102.119 495.145C69.8513 530.915 65.1639 584.332 101.751 618.513C127.333 642.413 174.326 637.531 206.863 636.743C207.986 633.477 210.838 624.746 213.884 623.184C210.504 631.929 205.857 641.116 210.358 651.039C212.377 655.601 215.25 659.734 218.822 663.216C211.572 679.875 210.781 688.546 223.105 702.972C220.453 716.708 220.401 729.874 233.915 738.097L233.614 739.155C220.158 730.55 217.304 717.891 221.905 703.216C209.949 689.747 210.018 679.014 217.196 663.348C209.273 654.589 208.248 649.649 206.961 638.367C170.93 636.26 129.463 646.725 100.749 619.633C61.8096 582.894 68.4419 530.994 101.314 493.25Z"/><path fill="#1E2135" fill-opacity="0.97254902" transform="scale(1.29094 1.29094)" d="M347.619 611.607L348.718 611.932C343.641 619.321 336.857 628.71 332.505 636.401C368.654 637.417 406.387 636.438 442.646 636.286C469.686 636.173 497.307 636.965 524.143 636.675L523.761 638.121C500.802 638.833 475.969 638.02 452.747 638.008L331.713 638.304C323.15 653.516 318.173 667.709 313.123 684.2L312.713 683.103C313.642 676.621 313.782 673.322 313.488 666.851L315.074 667.27C315.739 668.015 315.341 667.741 316.375 667.932C324.705 645.503 333.435 630.61 347.619 611.607Z"/><path fill="#1E2135" fill-opacity="0.90196079" transform="scale(1.29094 1.29094)" d="M389.79 33.0582C393.774 27.0754 392.57 22.268 395.079 19.9397C395.428 24.8036 393.972 30.0824 391.045 33.9938L389.79 33.0582Z"/><path fill="#021548" fill-opacity="0.81176472" transform="scale(1.29094 1.29094)" d="M101.314 493.25C103.159 491.323 105.294 489.488 107.294 487.703L108.876 488.424L102.119 495.145L101.314 493.25Z"/></svg>