<?xml version="1.0" encoding="utf-8" ?><svg xmlns="http://www.w3.org/2000/svg" xmlns:xlink="http://www.w3.org/1999/xlink" width="1024" height="1024" viewBox="0 0 1024 1024"><path fill="#030202" d="M278.269 131.524C287.88 123.075 310.73 113.516 322.56 108.083C393.574 75.4714 472.387 60.311 550.693 65.2531C674.089 72.6892 789.303 129.461 870.38 222.78C915.938 274.155 948.444 335.753 965.146 402.356C971.593 429.106 974.745 453.263 977.107 480.431C987.719 481.467 1001.29 481.639 1008.47 490.449C1014.85 498.276 1014.72 508.677 1013.56 518.105C1010.45 543.458 1006.68 568.734 1003.12 594.017L987.371 706.912L978.583 770.928C976.887 783.476 975.499 795.734 972.936 808.149C968.409 830.084 952.318 826.558 937.002 832.136C941.747 837.66 943.809 846.475 938.239 852.188C928.646 862.027 916.886 871.52 906.144 880.132L874.49 905.317C864.654 913.264 824.12 948.141 815.038 950.589C805.688 953.108 793.722 950.829 784.278 949.783C758.885 946.74 733.468 943.896 708.03 941.249C692.601 939.584 676.597 938.192 661.286 936.305C652.482 942.949 631.89 945.426 620.35 946.977C587.013 951.459 552.411 956.496 518.603 956.207C384.881 955.062 236.629 920.289 136.307 827.127C93.0692 785.878 64.4765 713.685 58.8456 655.569C56.8129 634.59 56.95 612.594 56.803 591.35C44.1014 587.965 17.084 589.457 4.92796 582.849C1.49543 580.983 0.673927 578.443 0 574.889L0 568.952L0 568.067L0 566.78C0.433502 564.972 0.862016 563.704 2.22386 562.389C8.3187 556.502 15.4632 550.768 21.9198 545.253C36.315 533.04 50.6302 520.733 64.8644 508.333C64.6348 489.896 66.0851 474.509 68.7415 456.245C76.1399 405.376 91.562 356.748 114.784 310.927C118.736 303.129 125.293 287.608 132.306 282.428C134.227 273.23 135.805 257.366 137.211 247.457L148.087 170.078C149.771 158.068 151.03 143.843 153.877 132.212C157.632 116.875 172.948 119.123 185.146 120.546C216.05 124.15 247.212 128.52 278.269 131.524Z"/><path fill="#ECEDF5" d="M278.269 131.524C287.88 123.075 310.73 113.516 322.56 108.083C393.574 75.4714 472.387 60.311 550.693 65.2531C674.089 72.6892 789.303 129.461 870.38 222.78C915.938 274.155 948.444 335.753 965.146 402.356C971.593 429.106 974.745 453.263 977.107 480.431C969.67 478.838 949.218 476.914 940.947 475.904L866.034 466.844L603.239 436.839C606.397 416.768 608.749 396.254 611.314 376.075L623.362 281.244L630.069 228.414C631.291 218.779 633.036 208.274 633.231 198.657C633.459 187.448 624.9 175.236 613.69 173.021C601.988 170.708 590.166 169.578 578.386 168.199L517.454 160.939L362.725 141.999C335.199 138.624 305.571 135.524 278.269 131.524Z"/><path fill="#030202" d="M688.174 148.675C694.249 150.109 711.266 162.3 716.666 166.14C750.402 190.137 778.518 221.182 799.064 257.124C805.779 269.13 810.077 278.949 815.408 291.587C828.726 291.252 851.07 288.259 864.161 286.67C858.236 295.657 851.131 305.208 844.889 314.041C838.841 322.598 832.231 332.199 825.757 340.336L820.743 337.147C803.063 325.407 784.653 314.647 766.639 303.435C763.584 301.534 760.413 299.688 757.581 297.469C774.652 295.516 791.703 294.395 809.019 292.303C793.872 258.03 778.069 232.378 751.666 205.274C737.723 190.927 722.291 178.106 705.631 167.029C701.412 164.23 688.117 156.945 686.67 153.012C686.539 151.102 687.215 150.352 688.174 148.675Z"/><path fill="#ECEDF5" d="M56.803 591.35C68.3575 593.318 82.2257 594.749 94.0268 596.243L161.407 604.779L361.502 630.05L432.778 639.123C443.889 640.588 458.901 642.173 469.701 644.188L458.743 721.803C456.679 735.821 453.982 749.967 453.474 764.129C453.281 769.528 457.386 773.724 460.956 777.283C451.704 782.914 442.215 792.088 433.903 799.415L398.448 830.602L365.861 859.281C360.057 864.399 352.474 870.448 347.514 875.949C340.314 883.935 345.093 899.539 356.729 901.099C366.014 902.343 374.702 903.345 383.802 904.359L432.67 909.887L583.449 927.217L633.013 932.897C642.084 933.936 652.343 934.874 661.286 936.305C652.482 942.949 631.89 945.426 620.35 946.977C587.013 951.459 552.411 956.496 518.603 956.207C384.881 955.062 236.629 920.289 136.307 827.127C93.0692 785.878 64.4765 713.685 58.8456 655.569C56.8129 634.59 56.95 612.594 56.803 591.35Z"/><path fill="#030202" d="M198.362 682.817C203.833 686.949 215.706 693.443 222.244 697.391C236.881 706.213 251.402 715.226 265.803 724.428C262.901 724.45 259.888 724.806 256.996 725.126C242.827 726.695 228.482 727.424 214.337 729.099C230.978 780.297 272.094 823.354 315.269 853.778C314.933 855.602 314.571 856.684 313.169 857.897C312.205 858.073 311.428 858.367 310.487 857.754C261.758 826.029 229.117 783.504 207.763 729.867C190.884 731.776 173.488 732.521 156.299 734.572C168.026 718.216 185.389 699.571 198.362 682.817Z"/><path fill="#ECEDF5" d="M132.306 282.428L117.23 398.539C115.867 408.834 114.444 419.121 112.959 429.399C110.946 443.32 106.77 453.746 118.104 464.663C97.773 478.227 83.6629 493.903 64.8644 508.333C64.6348 489.896 66.0851 474.509 68.7415 456.245C76.1399 405.376 91.562 356.748 114.784 310.927C118.736 303.129 125.293 287.608 132.306 282.428Z"/><path fill="#FEFEFE" d="M0 568.067L0.788774 567.894C2.30355 569.364 5.97317 572.263 8.1389 572.605C22.4986 574.874 36.9955 576.503 51.4258 578.297L136.011 588.9L354.266 616.669C392.699 621.552 433.595 625.923 471.698 631.75C471.254 634.823 470.614 638.577 470.341 641.61C443.878 639.201 416.998 634.825 390.512 631.484L227.342 610.945L82.3929 592.565L39.3379 587.207C28.4476 585.894 12.3081 585.743 3.3833 579.496C1.39211 575.617 1.09883 573.118 0 568.952L0 568.067Z"/><path fill="#FEFEFE" d="M514.69 446.914C537.126 448.373 559.538 451.588 581.899 454.159L693.604 466.919C788.396 476.866 883.101 487.628 977.708 499.203C976.517 509.853 974.095 522.169 972.403 532.921C969.314 552.841 966.341 572.779 963.484 592.733L933.119 809.358C931.379 810.419 929.069 811.547 927.024 811.379C921.014 810.886 914.877 810.093 908.895 809.388L875.773 805.482L769.015 792.913L580.18 770.881C544.195 766.944 508.255 762.602 472.367 757.857C473.114 746.706 476.561 726.986 478.196 715.425L489.518 634.55C494.215 601.67 498.719 568.763 503.029 535.83C506.8 506.545 510.266 476.022 514.69 446.914Z"/><path fill="#030202" d="M531.644 463.447C537.3 463.551 543.555 464.593 549.227 465.289L578.284 468.836L673.273 480.572C722.243 486.464 770.385 490.57 819.192 495.909L906.105 505.76C922.489 507.697 939.322 510.011 955.687 511.675C953.224 523.789 951.667 537.202 950.073 549.488C948.22 563.741 946.29 577.985 944.284 592.218L927.015 716.751C923.455 742.738 920.402 768.094 916.267 794.053C898.603 793.167 880.427 790.128 862.847 787.995L772.188 777.32L492.98 744.823L511.769 610.701C517.152 573.257 522.237 535.772 527.023 498.247C528.511 486.692 530.315 474.979 531.644 463.447Z"/><path fill="#FEFEFE" d="M533.195 464.866C541.113 466.371 554.606 467.432 563.057 468.488C582.938 471.158 602.858 473.536 622.809 475.619C621.497 487.942 619.68 500.843 618.055 513.158C611.843 512.067 604.941 511.173 598.665 510.225C596.493 529.862 593.298 553.833 590.367 573.328C595.684 574.705 604.053 575.471 609.695 576.145C609.272 582.228 607.671 591.818 606.807 598.119L601.252 639.443C600.557 644.838 598.708 658.399 598.989 663.56C600.733 658.39 602.8 641.944 603.667 635.745L611.676 576.305C618.002 577.239 626.089 578.251 632.391 578.549C633.623 572.79 634.574 562.749 635.338 556.508L640.229 515.593C634.235 515.302 625.91 514.08 619.904 513.292C621.818 501.489 622.929 488.195 624.713 476.012C651.872 480.582 682.644 483.226 710.132 486.187L843.099 500.648C841.362 514.773 840.205 528.683 838.318 542.927C852.545 543.654 866.024 545.638 880.145 547.281L947.639 555.199C946.357 561.567 945.377 571.354 944.434 578.134L937.627 627.633C930.098 682.319 922.912 737.927 914.798 792.464C899.831 790.133 880.994 788.43 865.65 786.642L771.106 775.63C752.172 773.76 732.38 771.071 713.424 768.787C715.267 760.212 716.493 749.158 717.664 740.324C723.86 740.795 731.546 741.923 737.828 742.673C742.353 713.258 744.981 684.003 749.147 654.688C742.831 653.507 735.805 652.914 729.28 651.831C730.497 645.826 732.64 633.493 732.057 627.798C729.653 634.241 728.833 644.469 727.87 651.585C721.571 651.343 713.488 650.381 707.295 649.314C705.072 660.049 703.795 675.394 702.447 686.516L695.826 737.302C701.669 738.574 709.711 739.261 715.828 740.028C715.123 749.041 713.219 759.557 711.748 768.585C653.689 760.748 594.054 756.262 535.796 747.823L539.246 725.417C544.822 725.404 553.474 726.876 559.126 727.795C562.342 707.779 564.8 686.889 567.729 666.724C563.312 665.538 553.859 664.575 548.717 663.696C551.796 642.047 556.442 614.366 557.696 592.809C555.957 598.181 554.939 605.658 554.091 611.331C552.445 622.721 550.868 634.12 549.358 645.528C548.66 650.677 547.794 658.731 546.687 663.566C540.5 662.545 533.169 661.574 526.924 661.436C523.646 681.835 521.457 702.024 518.248 722.294C523.459 723.453 532.196 724.371 537.704 725.102L534.123 747.653C521.678 747.017 507.424 744.517 494.766 743.289C498.454 722.409 501.082 698.465 504.026 677.217L522.638 543.472C526.213 517.018 528.876 491.276 533.195 464.866Z"/><path fill="#030202" d="M804.451 585.256C806.126 588.737 802.078 609.009 801.255 613.85C807.42 614.628 815.121 615.321 821.028 616.746L812.323 681.925C810.851 693.529 809.668 706.8 807.625 718.16C801.275 717.599 794.71 716.632 788.37 715.798C787.269 724.444 786.095 733.155 784.853 741.781C784.325 745.448 783.461 755.569 781.046 757.772C782.015 744.821 784.796 728.747 786.73 715.668L765.843 713.015C766.461 707.396 767.234 701.463 768.138 695.888C772.653 668.043 774.547 638.954 779.695 611.292C786.371 612.473 793.112 613.248 799.881 613.613C800.544 607.271 802.291 590.566 804.451 585.256Z"/><path fill="#FEBE51" d="M780.845 613.445C790.11 613.787 810.067 616.478 819.2 618.097C817.572 633.441 815.06 649.233 812.949 664.531L806.266 716.614C793.207 714.126 781.001 713.147 767.788 711.844C771.815 679.002 776.167 646.2 780.845 613.445Z"/><path fill="#030202" d="M684.609 507.833L685.114 508.394C686.186 512.16 683.078 529.122 682.278 533.789C689.095 534.582 696.994 535.281 703.604 536.662L692.327 617.242C686.147 616.359 679.828 615.614 673.619 614.77C672.906 627.685 669.785 646.646 668.251 660.181L667.234 659.654C665.906 655.569 671.01 621.6 671.838 614.752C666.739 613.35 656.92 612.666 651.404 612.186C651.613 604.911 653.96 592.669 655.029 585.04C657.514 567.309 660.662 549.49 662.663 531.679C668.75 532.191 674.821 532.87 680.871 533.715C681.421 527.339 682.871 513.729 684.609 507.833Z"/><path fill="#FEBE51" d="M664.205 533.348C676.584 535.242 689.352 536.298 701.85 538.128C697.325 563.821 694.859 589.763 690.814 615.635C679.11 613.321 664.763 611.974 652.918 610.868L664.205 533.348Z"/><path fill="#030202" d="M844.668 573.652C846.231 573.619 848.522 573.824 850.757 574.068C873.356 576.536 896.515 578.473 918.918 582.123C919.231 582.499 919.544 582.875 919.857 583.251C911.784 582.696 848.923 576.496 845.123 574.887L844.668 573.652Z"/><path fill="#030202" d="M840.741 614.221C842.773 614.245 845.16 614.334 847.169 614.55C869.358 616.942 891.604 619.137 913.726 622.056C914.814 622.199 915.402 622.551 916.115 623.378C911.719 623.691 888.216 620.92 882.861 620.179C871.1 618.552 852.234 617.679 841.178 615.278L840.741 614.221Z"/><path fill="#030202" d="M832.216 694.663C843.021 694.613 860.083 697.801 871.467 698.759C881.207 699.579 892.55 701.378 902.396 702.565C903.604 702.711 904.119 703.108 905 703.846C904.522 703.896 904.043 703.945 903.565 703.995C880.771 702.117 857.965 698.962 835.231 696.343C833.504 696.144 833.437 695.818 832.216 694.663Z"/><path fill="#030202" d="M837.213 654.654C839.821 654.629 852.713 655.795 855.07 656.302C863.406 658.092 905.399 660.332 910.044 663.898C903.389 664.377 887.812 661.813 880.35 660.972L852.327 657.763C848.83 657.343 839.653 656.887 837.213 654.654Z"/><path fill="#9B9FF9" d="M845.098 500.445C880.198 505.513 918.377 509.335 953.76 513.158C952.849 519.1 951.844 525.084 951.298 531.065C950.926 533.416 950.489 535.861 950.259 538.222C949.488 543.397 948.681 548.566 947.837 553.729C937.411 553.056 924.75 551.095 914.253 549.906C889.675 547.121 864.968 543.558 840.333 541.259C841.195 536.113 841.773 530.111 842.4 524.874L843.188 518.7C843.727 513.313 844.269 505.629 845.098 500.445Z"/><path fill="#9B9FF9" d="M842.4 524.874C854.168 526.818 867.629 528.15 879.524 529.508C894.803 531.22 910.067 533.061 925.315 535.033C933.453 536.041 942.263 536.802 950.259 538.222C949.488 543.397 948.681 548.566 947.837 553.729C937.411 553.056 924.75 551.095 914.253 549.906C889.675 547.121 864.968 543.558 840.333 541.259C841.195 536.113 841.773 530.111 842.4 524.874Z"/><path fill="#FEFEFE" d="M843.188 518.7C848.512 518.603 857.474 519.877 862.966 520.535L893.318 524.157L931.717 528.659C937.256 529.309 946.081 530.05 951.298 531.065C950.926 533.416 950.489 535.861 950.259 538.222C942.263 536.802 933.453 536.041 925.315 535.033C910.067 533.061 894.803 531.22 879.524 529.508C867.629 528.15 854.168 526.818 842.4 524.874L843.188 518.7Z"/><path fill="#FEBE51" d="M708.687 651.502C714.089 652.886 740.653 655.104 747.657 655.855C745.42 665.852 743.716 681.558 742.461 691.957C740.537 708.334 738.507 724.699 736.369 741.049C726.123 738.753 708.425 737.447 697.315 735.956C699.024 728.938 699.583 719.762 700.729 712.464C703.804 692.88 705.155 670.756 708.687 651.502Z"/><path fill="#FEBE51" d="M600.251 512.419C611.394 513.169 627.389 515.55 638.667 517.182C637.005 528.691 635.552 540.23 634.309 551.792C633.907 555.26 631.823 574.595 630.842 576.818C617.943 575.417 605.056 573.915 592.181 572.313C594.891 552.957 596.584 531.232 600.251 512.419Z"/><path fill="#FEBE51" d="M528.3 662.866C539 664.975 554.974 666.55 566.056 667.674C562.781 685.896 560.598 707.08 557.824 725.697C546.313 724.74 531.704 722.47 520.003 720.999C523.594 703.214 525.991 680.99 528.3 662.866Z"/><path fill="#FEFEFE" d="M189.015 159.448C197.393 159.574 211.653 161.886 220.501 162.979L274.983 169.577L458.182 191.993C456.724 205.642 453.585 220.751 453.445 234.316C490.093 239.726 528.719 243.504 565.641 248.14L542.867 430.115C502.339 426.261 497.638 421.821 493.049 468.46C492.739 471.614 492.197 475.399 491.806 478.617C481.992 478.155 463.886 474.927 453.494 473.568L375.548 463.64L327.248 457.295C328.387 449.99 329.387 442.664 330.246 435.321C336.887 436.534 343.599 437.318 350.341 437.669C352.872 425.804 355.052 402.593 356.722 389.662C349.731 388.872 342.753 387.978 335.789 386.981C336.956 378.164 341.605 346.424 341.054 338.742C339.052 342.271 334.798 380.022 333.909 386.621C327.924 386.298 320.814 385.303 314.757 384.587C312.467 396.774 309.974 420.295 308.799 432.798C315.408 433.506 322.008 434.299 328.596 435.18C328.168 441.785 326.722 450.438 325.767 457.157C309.745 454.071 285.554 451.955 268.739 449.713C230.135 444.294 191.47 439.323 152.751 434.8C155.929 412.941 158.372 390.677 161.274 368.728L179.155 234.325C182.387 209.534 185.199 184.106 189.015 159.448Z"/><path fill="#030202" d="M291.532 186.323L292.124 186.952C292.876 190.565 290.851 202.19 290.245 206.301C296.993 207.157 303.814 208.143 310.555 209.088C307.987 231.504 304.436 254.137 301.833 276.628C298.434 306.003 295.333 335.395 290.73 364.607C285.063 363.361 276.931 362.714 271.106 362.395C270.393 370.696 269.327 378.691 268.246 386.942C267.408 386.662 267.795 386.82 267.105 385.992C266.572 381.189 268.882 367.565 269.702 361.991C263.091 361.012 256.467 360.124 249.831 359.327C252.015 343.825 253.673 327.383 255.571 311.775L264.052 245.186C265.807 231.344 266.992 217.732 269.318 203.942C275.658 204.538 282.222 205.432 288.565 206.218C289.324 200.329 290.195 191.803 291.532 186.323Z"/><path fill="#FEBE51" d="M270.65 205.85C282.349 206.372 296.788 208.688 308.684 210.115C307.964 219.805 306.357 230.408 304.955 240.116C299.089 280.703 295.903 322.059 289.458 362.519C276.705 361.263 263.977 359.765 251.281 358.028C253.461 346.652 254.908 331.269 256.369 319.511L265.214 248.205C266.846 234.861 268.404 218.968 270.65 205.85Z"/><path fill="#030202" d="M419.123 211.329C420.346 215.13 417.485 231.324 416.73 236.337C423.112 237.151 429.499 237.924 435.891 238.655C434.803 255.032 431.472 272.422 429.467 288.916C427.464 305.798 425.354 322.667 423.136 339.522C421.842 349.49 420.611 360.406 418.747 370.207C412.535 369.295 405.619 368.658 399.31 367.891C398.244 376.931 397.242 388.429 395.634 397.19L394.94 397.025C394.074 394.383 397.157 372.055 397.698 367.631L378.834 365.406C379.85 350.806 382.558 333.292 384.387 318.475C387.709 290.409 391.313 262.377 395.199 234.383C400.877 234.449 409.484 235.587 415.362 236.21C415.638 230.616 417.289 216.359 419.123 211.329Z"/><path fill="#FEBE51" d="M396.623 235.921C408.575 237.596 422.137 238.942 434.178 240.143C433.087 253.606 430.636 268.307 428.926 281.827C425.392 310.709 421.615 339.56 417.595 368.378C414.991 368.439 407.242 367.334 404.355 366.973L380.359 363.922C380.799 357.706 381.774 350.721 382.59 344.513C387.324 308.49 390.71 271.723 396.623 235.921Z"/><path fill="#030202" d="M215.578 287.243L216.103 287.671C217.348 290.772 212.308 323.04 211.345 328.325C216.984 329.495 225.309 330.216 231.233 330.873C229.206 352 226.078 376.347 223.342 397.546C217.471 397.551 209.637 396.318 203.696 395.536C202.451 403.808 201.671 411.65 200.13 419.956C198.228 415.291 200.894 401.171 201.728 395.527C195.739 394.399 187.607 393.616 181.408 392.859C181.597 385.252 183.31 374.714 184.305 366.993C185.993 353.306 187.789 339.632 189.692 325.974C196.422 326.596 203.139 327.353 209.839 328.244C211.604 316.635 212.95 298.152 215.578 287.243Z"/><path fill="#FEBE51" d="M191.235 327.444C194.566 327.56 200.763 328.527 204.25 328.957L229.675 332.119C229.443 335.853 228.829 340.207 228.27 343.917C225.668 361.187 224.453 378.925 221.756 396.13C208.887 394.33 195.831 393.043 182.893 391.325C186.73 370.334 187.511 348.358 191.235 327.444Z"/><path fill="#030202" d="M443.917 387.649C459.301 388.323 478.951 391.793 494.451 393.26C499.738 393.761 523.574 396.739 527.207 398.304C524.884 398.645 519.063 398.46 516.901 397.966C506.709 395.635 448.941 391.694 443.917 387.649Z"/><path fill="#030202" d="M458.568 270.112C461.953 269.595 492.52 273.652 497.988 274.251C509.517 275.515 524.793 277.394 536.627 278.935C537.987 279.112 538.854 279.612 539.967 280.357C536.425 280.735 517.02 278.142 512.954 277.42C505.06 276.017 462.503 273.761 458.568 270.112Z"/><path fill="#030202" d="M454.933 309.669C458.134 309.392 475.197 311.425 479.154 312.256C491.484 314.848 525.459 315.022 535.342 319.792C531.02 320.172 509.272 317.315 503.924 316.694L473.267 313.051C468.976 312.511 457.986 311.589 454.933 309.669Z"/><path fill="#030202" d="M449.155 348.626C455.254 348.659 528.479 357.498 531.296 359.305C525.072 359.946 505.812 356.805 498.649 355.953L468.491 352.333C464.414 351.835 451.551 350.906 449.155 348.626Z"/><path fill="#FEFEFE" d="M460.888 778.971C466.548 778.496 495.048 782.328 502.068 783.158L584.229 792.583L797.76 816.944C839.39 821.694 880.977 826.722 922.612 831.398C926.421 831.826 936.521 832.917 937.388 837.253C934.781 841.321 919.533 852.453 914.713 856.324L862.381 898.465C854.132 905.175 845.926 911.938 837.763 918.754C832.494 923.154 825.989 928.973 820.347 932.62C806.167 939.811 791.627 936.107 776.381 934.297L739.649 929.987L625.155 917.042L441.035 896.107L387.805 890.212C377.943 889.156 368.065 888.153 358.215 887.009C353.386 886.448 347.351 884.435 347.959 878.565C351.82 873.374 365.742 861.799 371.11 857.104L411.882 821.393L439.874 796.817C446.274 791.112 453.98 783.611 460.888 778.971Z"/><path fill="#030202" d="M498.146 793.491C504.373 793.347 513.958 794.642 520.335 795.374L552.759 799.112L664.278 811.898L831.896 831.158L873.386 836.016C881.844 836.993 894.567 837.976 902.347 840.461C897.248 848.808 874.452 864.848 866.526 872.709C862.492 876.708 846.556 890.726 842.673 892.802C829.457 891.943 812.413 889.13 798.948 887.272L724.104 877.061C651.93 867.69 579.683 858.876 507.373 850.619C498.775 849.604 441.012 843.521 438.016 840.667L438.116 839.453C440.789 836.019 459.413 822.128 463.755 818.967C473.802 811.653 487.727 799.554 498.146 793.491Z"/><path fill="#ECEDF5" d="M528.319 863.589C531.907 863.446 535.501 863.478 539.086 863.685C561.726 865.141 588.742 869.323 611.924 871.668C631.155 873.545 650.368 875.599 669.561 877.831C679.185 878.978 689.499 880.104 698.976 882.205C701.751 882.821 703.221 884.904 705.077 887.017C698.946 893.231 682.98 905.546 675.597 910.197C663.731 913.452 635.388 908.796 622.312 907.184L586.14 902.858L522.64 895.799C516.295 895.075 504.328 894.358 500.5 889.533C498.506 882.152 520.774 865.835 528.319 863.589Z"/><path fill="#FEFEFE" d="M119.403 466.098C126.44 467.852 140.902 469.193 148.685 470.166L200.437 476.888C263.652 485.352 326.916 493.447 390.227 501.17L446.579 508.159C459.931 509.763 474.511 511.139 487.61 513.802C486.946 517.288 486.651 520.073 486.293 523.611C458.864 521.733 423.586 516.091 395.746 512.522L229.981 491.291L182.182 485.15C175.358 484.271 155.51 480.736 149.497 482.606C143.127 485.486 134.07 492.838 128.989 497.235C122.327 503 95.5703 521.012 92.885 527.301C93.1202 530.201 94.5629 530.643 97.2665 531.125C102.768 532.107 108.352 532.776 113.894 533.523L145.633 537.641L237.62 549.141L478.69 579.878L471.823 629.845C456.387 626.804 437.969 625.021 422.176 623.085L346.919 613.664L99.3869 582.056C86.4413 580.43 10.7722 572.699 4.9033 568.882C3.58026 568.022 2.89105 567.054 2.52643 565.504C3.02992 563.973 5.06339 562.206 6.31543 561.153C41.0302 531.933 75.0829 501.923 109.72 472.614C112.664 470.123 116.081 468.043 119.403 466.098Z"/><path fill="#ECEDF5" d="M188.095 549.137C192.874 549.304 198.379 549.749 203.129 550.424C251.124 557.242 299.542 562.152 347.204 570.991C350.16 571.539 353.82 572.825 356.206 574.568C357.431 579.424 330.636 596.608 325.783 597.983C312.492 597.866 283.493 593.109 268.86 591.268L207.326 583.293C195.481 581.725 183.623 580.34 171.781 578.388C167.684 577.712 158.511 576.748 157.296 571.419C157.149 570.777 157.767 568.951 158.232 568.505C165.073 561.941 178.942 550.824 188.095 549.137Z"/><path fill="#FEFEFE" d="M170.042 138.931C179.177 139.414 194.131 141.691 203.735 142.866L269.794 151.006L477.545 176.162C514.024 180.582 557.704 187.291 593.889 189.646C592.725 203.856 590.473 218.799 588.758 233.034L578.555 315.962L569.951 384.123C567.995 400.155 566.311 416.702 563.766 432.629L544.224 430.329C546.064 420.645 547.082 408.087 548.275 398.105L555.426 340.002C561.08 294.42 567.899 249.394 572.157 203.646C561.739 202.881 547.333 200.605 536.544 199.292L469.189 191.508C375.275 180.72 281.432 169.318 187.667 157.304C187.466 159.854 186.911 163.277 186.559 165.885C185.726 175.173 183.82 186.99 182.577 196.391L174.917 254.522L151.034 436.367L491.505 480.153C490.749 484.694 490.296 490.07 489.794 494.703C478.856 492.47 464.241 491.114 452.833 489.606L382.438 480.459L227.324 460.295C194.757 456.07 161.726 452.404 129.336 447.288C129.597 438.99 132.799 419.246 133.986 410.348L143.656 337.124C149.764 289.023 156.12 240.954 162.722 192.918C165.16 175.145 167.187 156.567 170.042 138.931Z"/><path fill="#FEFEFE" d="M938.539 839.344L939.355 839.993C940.558 846.009 938.528 850.267 934.142 854.262C927.234 860.552 919.791 866.309 912.518 872.185L873.522 903.746L840.126 930.8C813.257 952.538 816.277 951.557 781.535 947.592L743.352 943.212L620.234 929.165L445.727 909.27L389.352 902.881C378.851 901.692 368.21 900.554 357.744 899.094C353.55 898.51 351.851 897.096 348.975 894.188C347.632 892.116 345.137 886.18 347.387 884.213C349.104 884.57 350.244 886.254 351.48 887.638C361.429 890.816 384.98 892.178 396.306 893.408L485.96 903.437L700.286 927.672L762.462 934.714C776.265 936.324 803.734 941.414 816.592 936.3C824.209 933.27 838.863 920.161 845.805 914.495L878.544 887.888L916.109 857.565C923.627 851.536 931.396 845.776 938.539 839.344Z"/><path fill="#FEFEFE" d="M999.127 485.662C1018.65 495.784 1012.14 517.731 1009.65 535.515L1004.62 571.646L988.686 684.695L977.402 766.579C975.475 780.814 973.981 795.871 970.997 809.893C969.481 817.018 964.306 821.047 958.355 824.562C954.476 826.227 950.764 827.083 946.672 828.031C948.904 824.634 951.148 821.005 951.874 816.994C953.906 805.761 955.274 794.153 956.788 782.838L964.956 722.673L980.593 610.258C986.237 568.984 991.854 526.643 999.127 485.662Z"/><path fill="#FEFEFE" d="M616.702 175.341C626.565 180.491 632.305 189.669 631.422 201.029C630.337 215 628.255 229.009 626.487 242.923L616.299 322.948L607.034 396.252C605.722 406.819 604.029 425.9 601.816 435.713C600.619 436.736 601.006 436.408 598.881 436.288C593.694 435.779 588.513 435.212 583.339 434.588C584.505 421.492 586.826 405.884 588.476 392.644L599.485 306.583L609.725 227.52C611.927 210.348 613.942 192.37 616.702 175.341Z"/><path fill="#9B9FF9" d="M459.664 191.774C483.744 194.986 508.111 197.562 532.287 199.954C543.33 201.046 560.309 204.277 570.643 204.611C570.413 207.475 569.487 219.147 568.765 221.373L567.977 228.012L565.833 246.9C554.834 245.797 543.045 243.999 531.96 242.641L454.874 233.168C455.395 227.211 456.034 221.266 456.792 215.335L457.669 208.488C458.244 203.882 459.412 196.21 459.664 191.774Z"/><path fill="#9B9FF9" d="M459.664 191.774C483.744 194.986 508.111 197.562 532.287 199.954C543.33 201.046 560.309 204.277 570.643 204.611C570.413 207.475 569.487 219.147 568.765 221.373C567.652 220.912 460.312 207.942 457.669 208.488C458.244 203.882 459.412 196.21 459.664 191.774Z"/><path fill="#FEFEFE" d="M457.669 208.488C460.312 207.942 567.652 220.912 568.765 221.373L567.977 228.012C558.707 227.517 548.105 225.942 538.774 224.982C511.426 222.168 484.156 217.915 456.792 215.335L457.669 208.488Z"/><path fill="#FEBE51" d="M316.008 386.441C328.909 387.775 341.796 389.237 354.668 390.828C353.775 405.174 350.75 421.6 349.296 436.189C336.305 434.439 323.295 432.821 310.271 431.335C312.519 416.553 313.702 401.319 316.008 386.441Z"/></svg>