<?xml version="1.0" encoding="utf-8" ?><svg xmlns="http://www.w3.org/2000/svg" xmlns:xlink="http://www.w3.org/1999/xlink" width="2048" height="1024" viewBox="0 0 2048 1024"><path d="M450.559 269.502C448.708 242.441 450.254 197.928 450.233 169.191L450.214 113.577C450.219 102.522 450.029 91.6047 450.781 80.5566C451.421 71.1548 459.074 65.5735 468.13 65.3274C484.221 64.8901 500.43 65.08 516.547 65.0848L608.545 65.139L891.852 65.2069L1311.1 65.1664L1450.06 64.9865C1475.8 64.9466 1501.6 64.8047 1527.34 65.0825C1531.3 64.9149 1541.92 66.361 1544.58 69.8374C1549.21 75.9034 1549.56 91.4911 1549.53 98.7306C1549.47 117.57 1549.23 136.225 1549.05 154.97C1548.81 191.747 1548.88 228.527 1549.26 265.303L1548.77 437.008L1767.47 436.996L1832.5 436.906C1844.48 436.877 1857.1 436.094 1869.01 437.36C1872.99 437.782 1876.06 438.68 1878.81 441.75C1884.94 448.584 1881.07 583.453 1882.12 603.837C1881.65 624.742 1881.54 646.519 1881.89 667.457C1882.95 732.112 1880.38 797.809 1882.49 862.349C1881.72 865.748 1880.8 867.043 1881.8 869.898C1891.14 872.803 1931.16 870.934 1943.98 871.544L1944.13 896.606C1938.71 905.006 1934.82 906.518 1924.89 906.994C1915.21 907.459 1905.54 907.268 1895.86 907.223L1837.03 906.981L1695.22 906.97C1661.5 906.928 1626.67 906.436 1593.04 907.348C1558.14 917.644 1519.07 926.06 1483.45 933.872C1312.63 971.338 1131.28 988.082 959.649 946.248C924.365 937.647 879.459 924.338 847.317 907.225C842.774 907.201 835.662 907.939 832.535 904.38L833.096 901.914C829.378 896.714 812.122 890.368 805.677 887.226C739.099 854.764 680.316 837.722 607.896 824.623C607.285 842.11 612.895 892.841 601.554 904.413C593.987 907.695 579.976 907.984 571.777 908.023L254.999 907.977L148.203 908.066C129.844 908.081 111.424 908.35 93.0667 907.8C81.4122 907.339 75.6724 899.887 75.3838 888.643C74.224 843.445 75.0719 797.786 75.4861 752.625C72.41 751.722 69.3511 750.761 66.3111 749.743C36.0786 739.448 16.6493 719.579 5.59538 689.874C3.12972 683.248 3.31592 672.843 0 666.863L0 622.157C3.04167 616.238 6.44911 593.661 8.49996 585.914C51.6194 422.897 199.798 282.496 370.642 267.171C395.802 264.914 425.46 267.098 450.559 269.502Z"/><path fill="#F7F8FA" d="M0 622.157C3.04167 616.238 6.44911 593.661 8.49996 585.914C51.6194 422.897 199.798 282.496 370.642 267.171C395.802 264.914 425.46 267.098 450.559 269.502C451.49 314.893 450.48 363.096 450.844 408.931L295.838 408.82C269.717 408.772 206.995 406.143 184.768 412.487C178.274 436.397 180.942 493.292 181.007 520.51L181.046 662.837C162.873 662.82 144.684 662.925 126.514 662.647C114.999 662.471 102.426 660.888 91.0412 662.69C87.4372 663.26 83.8772 664.552 81.213 667.128C71.1742 676.835 76.3046 735.199 75.4861 752.625C72.41 751.722 69.3511 750.761 66.3111 749.743C36.0786 739.448 16.6493 719.579 5.59538 689.874C3.12972 683.248 3.31592 672.843 0 666.863L0 622.157Z"/><path fill="#F7F8FA" d="M1111.95 782.832C1162.96 782.198 1213.97 782.019 1264.99 782.297L1264.93 872.703L1205.05 872.837C1203.39 914.558 1216.3 906.972 1252.33 906.992L1313.12 907.015L1486.3 906.963C1520.88 906.854 1558.8 905.494 1593.04 907.348C1558.14 917.644 1519.07 926.06 1483.45 933.872C1312.63 971.338 1131.28 988.082 959.649 946.248C924.365 937.647 879.459 924.338 847.317 907.225C851.25 906.619 868.618 906.608 873.064 906.556C893.018 906.336 912.973 906.289 932.927 906.416C991.397 906.886 1049.87 906.99 1108.34 906.728C1126.67 906.659 1158.65 908.237 1175.31 905.19C1156.64 900.046 1131.82 902.043 1111.91 902.544L1111.95 782.832Z"/><path fill="#F7F8FA" d="M608.001 782.834C701.168 782.262 794.339 782.261 887.507 782.832C887.76 822.789 887.69 862.747 887.295 902.702C879.269 902.733 837.696 903.19 833.096 901.914C829.378 896.714 812.122 890.368 805.677 887.226C739.099 854.764 680.316 837.722 607.896 824.623L608.001 782.834Z"/><path fill="#F7F8FA" d="M525.896 138.069L1166.99 137.993L1370.57 137.963L1435.81 137.942C1447.77 137.946 1459.99 137.822 1471.94 138.3C1474.91 138.419 1476.41 139.843 1478.46 141.792C1480.56 150.797 1480.3 205.801 1480.39 219.693C1480.64 292.104 1480.53 364.516 1480.04 436.926L1352.87 436.883C1331.23 436.783 1291.07 435.374 1271.36 438.773C1269.19 440.93 1267.38 443.542 1265.53 446.001C1264.3 467.419 1264.97 492.869 1264.97 514.656L1265 631.072L608.106 631L608.153 554.997L622.172 555.067L622.08 461L607.915 461C607.59 416.414 618.367 408.269 564.481 408.74L522.976 408.928L522.946 234.741C522.939 216.426 520.681 151.263 525.896 138.069Z"/><path fill="#FDBE50" d="M581.279 170.575C610.772 169.072 652.191 171.366 682.357 170.46C697.288 170.012 763.967 169.766 775.577 172.643C783.331 179.221 781.999 248.898 776.676 260.269C772.608 264.002 761.163 263.694 755.458 263.991L636.622 264.058C620.948 264.057 574.885 264.773 562.495 261.662C551.284 254.169 555.056 185.597 560.153 172.418C567.024 171.129 574.284 170.943 581.279 170.575Z"/><path d="M935.141 304.412L936.723 305.367C939.733 309.816 938.424 326.947 938.197 333.167C944.479 333.167 950.876 333.303 957.17 333.374L957.17 424.929L938.073 424.929L938.073 443.997L936.877 445.07L935.504 444.005C934.332 438.514 934.82 430.7 934.922 424.929L916.927 424.929L916.927 333.167L934.999 333.167L935.141 304.412Z"/><path fill="#ADD0AA" d="M920.057 336.176C931.382 336.07 942.707 336.202 954.026 336.571C954.383 364.32 955.24 394.258 953.762 421.807L920.001 421.801L920.057 336.176Z"/><path d="M780.268 441.507C785.295 443.548 783.415 459.171 783.253 463.927L802.073 463.927L802.073 553.833L783.073 553.833L782.899 577.555C778.02 575.11 779.812 559.238 779.955 553.833L760.949 553.833C760.57 524.068 760.847 493.736 760.83 463.927L779.962 463.898L780.268 441.507Z"/><path fill="#ADD0AA" d="M763.702 466.929L799.298 466.932C799.418 494.815 799.355 522.698 799.108 550.58C788.099 551.099 774.909 550.796 763.702 550.786L763.702 466.929Z"/><path d="M860.439 375.711C864.793 379.402 863.15 394.019 862.967 399.925L882.075 399.925L882.275 488.172L862.163 488.357C862.689 493.803 862.163 503.893 862.009 509.725L860.663 510.5C857.873 507.133 858.95 493.513 859.038 488.303L840.925 488.303L840.925 399.803L859.788 399.925C859.672 391.269 859.52 384.371 860.439 375.711Z"/><path fill="#ADD0AA" d="M843.957 402.941L879.121 402.9L879.15 485.083L843.921 485.101L843.957 402.941Z"/><path d="M678.591 368.391L680.076 369.729C682.784 375.783 681.647 391.757 681.406 399.071L700.17 399.071L700.074 488.17L681.303 488.17C681.361 496.866 681.397 503.522 680.562 512.14C676.182 504.241 677.521 497.17 677.942 488.074L659.932 488.074L659.49 399.071L678.032 399.071C677.882 389.995 677.566 377.12 678.591 368.391Z"/><path fill="#ADD0AA" d="M663.089 402.25L696.994 402.25C697.158 429.819 697.075 457.39 696.746 484.958L662.988 484.979L663.089 402.25Z"/><path d="M1044.23 317.498C1049.26 320.564 1047.31 333.636 1047.03 338.831L1065.97 338.831C1065.64 368.454 1065.59 398.078 1065.83 427.702L1047.06 427.702C1047.14 435.552 1047.21 441.845 1046.51 449.643L1045.57 449.281C1042.44 444.963 1043.76 433.489 1043.95 427.702L1025.49 427.702L1025.3 338.701L1043.78 338.678C1043.77 331.615 1043.92 324.554 1044.23 317.498Z"/><path fill="#ADD0AA" d="M1028.35 341.95L1062.75 341.961C1063.01 369.349 1063.03 396.739 1062.79 424.127L1028.21 424.123L1028.35 341.95Z"/><path d="M1341.69 140.454C1346.44 144.621 1344.54 162.484 1344.18 168.882L1363.51 168.693C1363.5 198.074 1363.64 227.454 1363.93 256.833L1344.6 256.631C1344.91 264.351 1344.78 273.001 1344.83 280.798L1344.32 281.517L1342.78 281.659C1340.06 277.594 1341.04 262.606 1341.15 256.846C1335.63 256.513 1329.41 256.578 1323.83 256.508L1323.83 168.758L1341.24 168.668C1341.03 159.952 1340.73 148.949 1341.69 140.454Z"/><path fill="#ADD0AA" d="M1326.83 172.001L1360.6 172.001C1361.31 198.532 1360.91 226.473 1360.88 253.126L1326.83 253.168L1326.83 172.001Z"/><path d="M1264.98 170.638C1268.4 174.124 1267.09 187.007 1266.96 191.927L1284.07 191.927L1284 280.51L1266.88 280.51C1267.07 287.819 1268.59 300.287 1264.35 305.478C1262.89 302.177 1263.46 285.389 1263.49 280.703L1245.08 280.703L1245 191.927L1263.83 191.927C1263.78 185.923 1263.39 176.099 1264.98 170.638Z"/><path fill="#ADD0AA" d="M1248.03 195.022L1280.97 195.022L1280.87 277.196L1247.99 277.259L1248.03 195.022Z"/><path d="M1422.39 209.739C1426.82 212.627 1425.18 229.636 1425.01 235.166L1442.05 235.164L1442.3 323.249L1424.95 323.072C1425.17 331.421 1425.88 341.806 1423.37 349.687C1420 341.498 1421.06 331.811 1421.38 322.967L1403.49 323.076L1403.3 235.071L1421.93 235.071C1421.8 226.624 1421.95 218.175 1422.39 209.739Z"/><path fill="#ADD0AA" d="M1406.07 238.875C1416.95 238.635 1428.25 238.815 1439.17 238.837L1439.17 319.708C1428.72 320.07 1416.64 319.842 1406.07 319.89L1406.07 238.875Z"/><path d="M1188.26 224.476L1190.02 225.351C1193.29 229.656 1192 241.228 1191.81 246.831L1210.07 246.803L1210.07 332L1191.05 332L1191.17 354.002L1189.55 355.004C1186.89 351.705 1187.93 337.161 1188.02 332L1171 332L1171 246.701L1188.31 246.628L1188.26 224.476Z"/><path fill="#ADD0AA" d="M1174 250.001L1207.07 250.001C1207.29 276.544 1207.75 301.755 1206.82 328.3L1174 328.509L1174 250.001Z"/><path d="M1117.36 269.709C1121.77 273.261 1120.1 286.446 1119.95 291.925L1137 291.925L1137 377.303L1119.46 377.303C1119.7 386.565 1119.65 393.085 1119.03 402.311L1117.95 402.349C1114.6 397.715 1115.89 384.058 1116.06 377.49L1098.93 377.49L1098.93 291.925L1116.82 291.925C1116.73 284.516 1116.91 277.105 1117.36 269.709Z"/><path fill="#ADD0AA" d="M1101.86 295.034L1133.94 295.048L1133.99 374.029L1101.73 374.042L1101.86 295.034Z"/><path fill="#F7F8FA" d="M1288.83 452.069L1671.6 451.955L1791.73 451.85C1812.57 451.826 1834.12 451.519 1854.96 452.252C1859.02 452.395 1861.22 454.056 1864.08 456.764C1867.7 477.36 1866.24 522.781 1866.1 545.411L1865.97 676.317L1866.04 790.788C1866.07 806.805 1867 838.823 1865.08 853.241C1862.7 855.955 1859.17 858.332 1856.22 860.505C1825.92 861.883 1790.61 860.792 1759.99 860.586L1621.85 860.353L1415.83 860.435C1377.89 860.494 1339.93 860.77 1302 860.43C1286.13 860.288 1281.2 861.233 1280.51 843.723C1279.16 809.488 1280.1 775.256 1280.18 740.998L1280.38 571.832L1280.34 500.833C1280.31 487.786 1279.79 472.34 1281.43 459.43C1281.86 456.047 1285.86 453.986 1288.83 452.069Z"/><path d="M1353 494.456C1379.32 493.903 1406.75 494.789 1433.25 494.793L1603.1 494.403L1744.6 494.075C1761.39 494.076 1815.29 493.384 1828.11 497.072C1832.38 505.202 1830.24 558.101 1830.24 570.132L1830.24 700.503L1830.36 773.119C1830.39 784.073 1831.4 812.796 1828.88 822.117C1824.44 825.398 1805.91 824.735 1799.47 824.815L1503.36 825.007L1401.65 825.086C1385.44 825.129 1331.2 826.695 1319.12 821.924C1314.87 812.096 1316.97 669.812 1316.95 644.109L1316.88 556.676C1316.88 546.222 1315.27 502.432 1320.12 497.266C1326.98 494.055 1344.72 494.591 1353 494.456Z"/><path fill="#F7F8FA" d="M1674.74 498.497C1725.38 497.929 1776.03 498.075 1826.68 498.933C1827.54 528.683 1826.1 561.277 1826.18 591.471L1826.82 820.891C1711.43 822.485 1592.21 820.922 1476.5 820.928C1426.76 821.047 1372.12 822.224 1322.8 819.822C1319.7 803.783 1320.68 778.078 1320.85 761.348L1320.97 702.289L1321 581.039C1320.98 563.657 1318.95 514.39 1323 500.123C1330.96 497.957 1410.42 498.895 1423.12 498.898L1674.74 498.497Z"/><path fill="#FDBE50" d="M1347.72 521.299C1365.79 521.333 1479.19 518.187 1487.21 524.525C1488.99 525.933 1489.78 529.136 1490.08 531.309C1490.8 536.542 1491.04 564.182 1490.07 568.819C1489.41 572.01 1487.72 574.466 1485.82 577.047C1444.92 576.488 1403.89 577.278 1362.98 576.918C1358.59 576.879 1347.74 576.942 1344.8 573.886C1340.85 565.532 1342.61 537.145 1343.29 526.82C1343.42 524.763 1346.07 522.619 1347.72 521.299Z"/><path fill="#7478BF" d="M1413.76 671.548C1413.71 667.069 1413.25 662.232 1414.96 658.166L1416 658.199C1417.69 662.268 1417.18 667.287 1417.08 671.778L1430.88 671.778C1430.72 693.175 1430.29 715.163 1430.75 736.51L1417.02 736.51C1417.03 740.807 1417.38 747.143 1416.11 751.05L1415.01 751.944C1411.1 748.353 1414.59 740.187 1411.74 736.761C1408.76 736.497 1403.48 736.193 1400.82 735.42C1400.28 720.189 1398.92 686.4 1401.36 672.44C1406.01 671.892 1409.1 671.562 1413.76 671.548Z"/><path d="M1413.76 671.548C1413.71 667.069 1413.25 662.232 1414.96 658.166L1416 658.199C1417.69 662.268 1417.18 667.287 1417.08 671.778L1430.88 671.778C1430.72 693.175 1430.29 715.163 1430.75 736.51L1417.02 736.51C1417.03 740.807 1417.38 747.143 1416.11 751.05L1415.01 751.944C1411.1 748.353 1414.59 740.187 1411.74 736.761C1408.76 736.497 1403.48 736.193 1400.82 735.42L1403.89 733.507C1409.19 732.8 1422.11 733.007 1428 732.951L1427.95 675L1402.98 674.933L1401.36 672.44C1406.01 671.892 1409.1 671.562 1413.76 671.548Z"/><path fill="#0D0A3D" d="M1401.36 672.44L1402.98 674.933C1402.99 681.975 1402.18 729.261 1403.89 733.507L1400.82 735.42C1400.28 720.189 1398.92 686.4 1401.36 672.44Z"/><path d="M1362.26 697.623L1364.31 699.73C1365.68 704.185 1365.13 709.747 1364.97 714.497L1378.01 714.197L1377.93 776.072L1364.73 776.079C1364.7 783.007 1364.86 788.071 1363.57 794.907C1359.72 790.361 1360.92 782.284 1361.09 776.178L1347.68 776.17C1346.73 755.794 1347.16 734.617 1347.3 714.161L1361.64 714.16C1361.59 708.657 1361.96 703.123 1362.26 697.623Z"/><path fill="#7478BF" d="M1350.01 717.941L1375.02 717.941C1375.28 735.962 1375.02 754.606 1375 772.677C1367.35 773.092 1357.8 772.862 1350.01 772.879L1350.01 717.941Z"/><path fill="#7478BF" d="M1460.85 704.769C1466.43 701.05 1469.45 704.551 1473.63 701.903C1473.87 697.923 1473.57 690.669 1475.54 688.096C1477.88 691.176 1477.31 698.849 1477.23 703.045L1491.01 703.046C1490.27 723.99 1490.13 744.95 1490.58 765.902C1487.04 765.767 1481.4 765.011 1478.81 767.016C1476.69 771.768 1479.13 774.653 1476.73 779.443C1471.75 777.829 1475.93 770.467 1473.01 766.403C1468.56 766.117 1463.98 766.362 1460.34 764.045C1462.04 753.852 1460.78 717.182 1460.85 704.769Z"/><path d="M1460.85 704.769C1466.43 701.05 1469.45 704.551 1473.63 701.903C1473.87 697.923 1473.57 690.669 1475.54 688.096C1477.88 691.176 1477.31 698.849 1477.23 703.045L1491.01 703.046C1490.27 723.99 1490.13 744.95 1490.58 765.902C1487.04 765.767 1481.4 765.011 1478.81 767.016C1476.69 771.768 1479.13 774.653 1476.73 779.443C1471.75 777.829 1475.93 770.467 1473.01 766.403C1468.56 766.117 1463.98 766.362 1460.34 764.045L1463.13 762.111L1487.92 762.298L1487.97 706.014C1479.89 706.302 1471.4 706.095 1463.29 706.019L1460.85 704.769Z"/><path fill="#0D0A3D" d="M1460.85 704.769L1463.29 706.019L1463.13 762.111L1460.34 764.045C1462.04 753.852 1460.78 717.182 1460.85 704.769Z"/><path d="M1737.36 559.577L1739.37 561.113C1740.8 565.198 1740.23 571.029 1740.1 575.5L1754.01 575.51L1753.98 636.833L1741.03 637.027C1741.08 642.448 1740.82 647.414 1740.55 652.813L1738.53 651.554C1737.28 647.725 1737.79 641.301 1737.89 637.069L1724.78 636.925C1725.01 617.698 1725.73 594.327 1724.09 575.298L1736.98 575.295C1736.94 570.17 1737.2 564.724 1737.36 559.577Z"/><path fill="#ADD0AA" d="M1727.38 578.979L1750.96 578.979L1750.87 633.39L1727.37 633.319L1727.38 578.979Z"/><path d="M1681.98 538.452L1683.73 540.15C1684.96 544.696 1684.53 550.275 1684.43 555.065L1698.01 555.067L1698.01 615.935L1684.01 615.935C1684.03 621.421 1683.88 627.138 1683.81 632.644L1681.57 631.265C1680.05 626.8 1680.62 620.81 1680.75 615.967L1668.2 615.882C1669.96 601.941 1669.01 570.21 1668.91 555.073L1681.2 555.048C1681.05 548.756 1680.74 544.675 1681.98 538.452Z"/><path fill="#ADD0AA" d="M1671.52 558.938L1694.95 558.938C1695.22 576.71 1695.19 594.486 1694.83 612.257L1671.52 612.286L1671.52 558.938Z"/><path d="M1525.22 643.745C1528.03 646.524 1527.14 656.01 1527.09 660.034L1540.01 659.943C1539.47 679.401 1539.82 699.474 1539.93 718.983L1527 719.001C1527.02 725.288 1527.53 733.465 1525.83 739.303C1522.48 734.962 1523.68 724.882 1523.8 718.957L1511.07 718.927L1511.07 659.946L1523.91 659.856C1523.88 654.533 1523.46 648.69 1525.22 643.745Z"/><path fill="#ADD0AA" d="M1514.1 663.117L1536.85 663.118C1537.08 680.624 1537.01 698.132 1536.65 715.636L1514.03 715.541L1514.1 663.117Z"/><path d="M1630.08 580.664C1633.09 583.174 1632.25 592.175 1632.22 596.036L1644.12 596.156C1643.95 616.104 1643.91 636.053 1644.01 656.002L1630.98 656.008C1631.02 662.001 1630.78 666.611 1630.36 672.573L1628.5 670.653C1627.09 666.312 1627.57 660.767 1627.68 656.104L1615.99 655.813L1615.92 596.064L1628.9 596.047C1628.89 590.855 1628.56 585.606 1630.08 580.664Z"/><path fill="#ADD0AA" d="M1618.72 599.722L1641.82 599.716C1642.05 617.342 1641.98 634.97 1641.64 652.594C1635.69 653.089 1625.02 652.77 1618.72 652.773L1618.72 599.722Z"/><path d="M1788.31 522.732C1792.22 526.341 1788.78 531.899 1791.44 536.222C1794.64 537.806 1799.31 537.143 1803.01 536.95L1803.01 597.426L1790.11 597.727L1789.8 612.496L1787.66 610.75C1786.23 606.856 1786.75 601.617 1786.87 597.356L1774.69 597.127L1774.82 537.344C1778.58 537.243 1783.24 537.486 1787.07 537.575C1787.16 532.024 1787.63 528.174 1788.31 522.732Z"/><path fill="#ADD0AA" d="M1795.88 540.449C1798.14 540.715 1797.3 540.413 1799.16 542.227C1801.37 551.204 1800.38 582.77 1800.23 593.988L1780.9 593.99C1780.07 593.807 1779.29 593.202 1778.52 592.729C1775.76 584.986 1777 551.184 1777.11 540.907L1795.88 540.449Z"/><path d="M1579.12 615.64C1583.14 620.061 1581.92 625.796 1581.65 631.993L1595.16 632.003C1593.54 651.356 1594.05 670.667 1594.41 690.072L1581 690.076L1581 705.648C1579.31 705.813 1580.17 705.929 1578.45 704.836C1577.25 700.76 1577.8 694.619 1577.95 690.208L1565.7 689.993L1565.7 632.149L1578.05 631.956C1578.02 625.836 1577.78 621.663 1579.12 615.64Z"/><path fill="#ADD0AA" d="M1568.3 635.51L1591.89 635.51L1591.91 686.708C1584.52 686.99 1575.79 686.789 1568.3 686.81L1568.3 635.51Z"/><path fill="#F7F8FA" d="M225.264 458.072L560.168 458.072L560.097 826.998L520.5 826.998L274.005 826.929L273.979 778.928L291.776 778.928C291.935 764.26 293.244 721.056 291.267 708.58C288.917 705.593 288.265 706.825 283.138 705.378C279.728 700.528 284.968 689.76 280.033 686.223C277.144 690.68 281.664 699.699 277.606 705.188C274.666 706.178 275.853 706.22 273.122 705.177C265.098 688.008 282.003 680.044 257.911 662.934C247.456 662.475 236.024 662.789 225.49 662.876L225.264 458.072Z"/><path fill="#FDBE50" d="M253.767 485.322C269.891 484.471 362.127 483.917 372.118 488.148C378.393 495.191 376.342 518.507 374.876 527.687C374.149 532.239 369.907 533.758 365.985 534.894C327.077 534.12 286.141 537.611 247.938 532.317C244.033 531.776 235.298 489.937 253.767 485.322Z"/><path d="M475.216 499.731C478.527 503.695 477.395 511.7 477.224 517.161L490.299 517.231L490.299 582.928L476.912 582.937C477.309 590.853 478.163 596.08 474.488 603.23C472.395 597.325 473.003 589.3 473.099 582.929L459.299 582.928L459.49 517.168L474.018 517.168C473.845 511.66 473.519 504.9 475.216 499.731Z"/><path fill="#7478BF" d="M462.833 520.697L487.49 520.697L487.303 579.082C480.688 579.742 469.789 579.47 462.833 579.49L462.833 520.697Z"/><path d="M527.188 472.702C530.681 477.17 529.478 485.227 529.138 490.993L543.169 491.002L543.169 557.055L529.355 557.284C529.397 561.967 529.097 564.714 528.525 569.386L526.669 568.745C525.365 565.91 526.1 560.542 526.323 557.194L512 557.012L512 491L526.044 491C525.86 485.021 525.59 478.425 527.188 472.702Z"/><path fill="#7478BF" d="M515.05 494.017L539.831 494.022C540.02 513.964 540.001 533.907 539.776 553.848L515.186 553.891L515.05 494.017Z"/><path d="M330.083 613.693C333.306 617.546 332.099 629.746 331.956 635.069L345.497 635.07C345.768 656.739 345.88 678.409 345.834 700.079L331.302 699.963C331.396 706.868 331.148 712.664 330.762 719.563C330.143 719.188 329.115 718.224 328.522 717.709C327.304 712.654 327.87 705.406 328.029 700.04L314.998 700.002L314.998 635.141L328.913 635.066C328.763 628.932 328.274 619.343 330.083 613.693Z"/><path fill="#7478BF" d="M318.18 638.257L342.26 638.137L342.667 696.969L318.05 696.853L318.18 638.257Z"/><path d="M428.061 578.44L430.335 580.572C431.678 585.784 431.073 592.676 430.886 598.189L444.929 598.067L444.929 660.51L430.878 660.51C431.089 667.064 431.401 674.934 429.848 681.22C425.458 677.102 426.943 666.704 427.089 660.845C422.57 660.665 417.91 660.613 413.375 660.503C413.177 639.725 413.108 618.946 413.168 598.168L427.757 598.168L428.061 578.44Z"/><path fill="#ADD0AA" d="M417.304 601.506L441.89 601.302C442.033 618.308 442.671 640.398 441.427 657.072C433.293 657.037 425.073 657.172 416.932 657.246C416.374 637.778 415.664 620.96 417.304 601.506Z"/><path d="M379.492 560.576C383.406 564.672 382.113 571.821 381.983 577.994L394.301 578.066L394.49 645.001L380.001 645.001C380.045 650.854 380.435 660.041 379.241 665.465C374.993 661.504 376.448 650.726 376.637 645.134L364.887 644.953L364.999 578.001L378.347 577.956C378.192 570.391 377.985 568.059 379.492 560.576Z"/><path fill="#7478BF" d="M368.01 580.951L391.301 581.001L391.211 641.689C383.821 641.938 375.529 641.798 368.062 641.842L368.01 580.951Z"/><path fill="#F7F8FA" d="M471.924 84.9278L1527 84.999L1527.07 437.006L1484.08 436.929L1484.03 201.75C1484.32 182.534 1485.91 154.023 1481.26 136.395C1466.41 134.191 1445.89 133.95 1430.88 133.713C1403.63 133.388 1376.37 133.39 1349.11 133.718L1163.14 133.954L743.639 133.938C676.535 133.949 609.308 133.955 542.195 133.874C536.746 133.868 526.29 134.293 521.994 137.418C516.454 146.931 518.917 231.771 518.949 247.848L519.014 408.836L471.991 408.705L471.924 84.9278Z"/><path fill="#F7F8FA" d="M608.016 701.036L1264.97 700.635L1264.88 778.764L608.048 778.952L608.016 701.036Z"/><path fill="#F7F8FA" d="M100.854 674.007L190.686 673.907C206.064 673.89 222.328 673.342 237.626 674.439C249.299 675.276 259.963 678.908 260.704 692.343C261.836 712.861 261.033 733.696 261.013 754.357L260.989 884.774C256.515 892.189 255.638 893.655 247.83 897.15C219.986 897.577 192.141 897.808 164.294 897.843C141.934 897.901 121.005 898.636 98.7526 895.661C86.8255 887.206 86.7653 881.806 86.9436 867.95C87.7257 807.16 84.5069 745.58 87.9494 684.867C92.3157 679.564 95.3018 677.665 100.854 674.007Z"/><path d="M154.181 687.503C171.563 687.241 233.793 683.661 245.545 695.141C249.145 698.658 251.415 703.561 252.364 708.457C255.719 725.75 253.444 748.624 253.211 766.374C252.949 786.392 253.374 806.395 253.571 826.411C253.691 838.678 256.077 867.937 247.022 876.878C236.345 887.42 217.061 884.772 203.25 884.831C175.723 884.628 145.863 884.348 118.264 883.335C101.386 882.716 98.3839 872.074 98.1512 857.051C97.7676 822.706 97.6665 788.358 97.8479 754.012C97.8419 738.457 97.2948 719.852 98.3479 704.553C99.8158 683.228 139.492 687.723 154.181 687.503Z"/><path fill="#F7F8FA" d="M129.544 691.443C140.472 690.453 158.892 691.451 170.074 691.47C188.193 691.833 206.729 691.862 224.805 692.409C232.022 693.131 240.459 692.257 244.585 699.383C250.977 710.424 249.575 726.388 249.549 738.935C249.466 778.451 249.753 817.963 249.75 857.472C249.749 868.651 245.399 872.649 237.723 879.594L221.749 880.356C206.017 881.354 186.966 880.74 171.049 880.523C151.731 880.259 131.471 880.211 112.273 879.227C107.223 876.03 102.137 871.958 102.053 865.394C101.554 825.929 101.665 786.371 101.736 746.889C101.764 731.807 101.662 715.356 102.87 700.422C107.043 696.324 109.259 695.073 114.122 692.051L129.544 691.443Z"/><path fill="#FDBE50" d="M116.48 715.417C126.513 715.053 160.521 711.709 163.821 723.292C162.994 726.726 161.502 727.547 158.738 729.783C149.301 730.043 112.762 733.906 111.216 721.672C112.322 718.219 113.589 717.615 116.48 715.417Z"/><path fill="#3A2FB7" d="M229.545 741.892C234.493 741.995 234.949 741.193 238.424 743.514C242.326 750.668 240.336 766.06 240.136 775.271C235.422 775.196 234.418 775.805 231.12 773.468C227.016 766.436 229.331 751.085 229.545 741.892Z"/><path fill="#3A2FB7" d="M129.894 764.975C143.337 764.451 141.375 771.994 141.324 782.861C141.305 787.021 140.694 791.195 139.942 795.296C136.424 796.123 134.929 796.292 131.938 795.084C127.697 789.393 129.644 773.1 129.894 764.975Z"/><path fill="#3A2FB7" d="M171.091 772.736C186.075 772.033 182.605 782.726 181.943 794.226C167.115 794.96 170.521 784.112 171.091 772.736Z"/><path fill="#3A2FB7" d="M111.06 787.685C125.437 788.039 121.655 799.562 120.815 810.687C116.376 810.893 114.817 810.687 111.709 807.648C109.625 802.471 110.803 793.742 111.06 787.685Z"/><path fill="#3A2FB7" d="M151.184 780.626C165.719 780.727 162.311 790.8 161.593 802.129L160.671 802.125C147.403 802.016 150.675 790.657 151.184 780.626Z"/><path fill="#3A2FB7" d="M209.078 752.924C210.173 752.863 211.269 752.829 212.366 752.822C216.224 752.831 216.696 753.682 218.985 755.982C220.745 760.047 219.832 766.324 219.546 770.946C218.411 771.037 217.273 771.102 216.135 771.141C212.637 771.231 212.147 770.525 210.008 768.499C208.065 764.445 208.89 757.659 209.078 752.924Z"/><path fill="#3A2FB7" d="M191.914 761.981L192.591 761.959C197.539 761.845 198.113 761.96 201.24 764.972C202.987 769.049 202.167 775.731 201.955 780.389C201.174 780.384 200.393 780.366 199.612 780.336C188.748 779.877 191.41 769.913 191.914 761.981Z"/><path fill="#F7F8FA" d="M216.027 428.302L446.519 428.081C486.084 428.041 526.187 427.73 565.773 428.241C571.205 428.731 579.279 428.878 583.767 431.968C587.322 434.415 587.814 446.096 587.85 450.397C588.077 477.822 587.971 505.266 587.96 532.694L588.024 687.737L588.068 800.853C588.071 819.894 588.304 839.376 587.781 858.421C587.678 862.154 586.46 863.926 584.018 866.551C574.987 870.37 487.07 868.524 470.793 868.52L273.989 868.7L273.989 830.831L438.5 830.831L563.939 830.833C564.861 801.247 564.237 770.884 564.21 741.183L564.237 589.896L564.52 511.389C564.609 495.657 565.356 470.147 562.756 455.029C552.561 453.429 533.144 453.974 522.135 453.991L455.077 454.103L221.13 454.073L221.195 662.832L199.752 662.832L199.779 528.44C199.674 503.848 196.873 464.481 201.797 439.231C202.805 434.062 211.119 430.173 216.027 428.302Z"/><path fill="#F7F8FA" d="M608.047 634.969L1265 635.004L1264.93 679.066L608.076 678.909L608.047 634.969Z"/><path fill="#F7F8FA" d="M891.802 782.736L1107.91 782.948L1107.67 902.57L891.361 902.69L891.802 782.736Z"/><path fill="#F7F8FA" d="M1648.41 876.001L1939.98 875.503C1940.58 888.976 1942.34 902.597 1923.89 902.713C1887.99 902.938 1852.08 902.855 1816.18 902.872L1599.09 902.898L1343.86 902.844L1262.49 902.86C1250.37 902.882 1238.14 903.277 1226.03 903.121C1207.14 902.878 1208.78 891.017 1209.12 876.828L1501.68 876.001L1648.41 876.001Z"/><path fill="#979797" d="M1501.68 876.001L1648.41 876.001C1645.69 888.102 1643.11 889.871 1630.86 889.891C1592.52 889.954 1554.15 890.203 1515.82 890.122C1506.59 890.103 1503.11 884.168 1501.68 876.001Z"/><path fill="#ADD0AA" d="M273.377 709.275L288.918 709.225L288.789 775.161L273.679 775.173L273.377 709.275Z"/><path fill="#ADD0AA" d="M608.059 463.933C611.55 463.988 615.006 463.569 617.688 465.6C621.48 472.507 619.136 540.147 619 551.991C615.55 552.082 613.017 552.44 609.909 550.958C606.266 545.103 607.973 474.881 608.059 463.933Z"/><defs><linearGradient id="gradient_0" gradientUnits="userSpaceOnUse" x1="1839.4631" y1="209.76352" x2="1712.3619" y2="710.1488"><stop offset="0" stop-color="#ECEEF8" stop-opacity="0"/><stop offset="1" stop-color="#ECEEF8" stop-opacity="0.26274511"/></linearGradient></defs><path fill="url(#gradient_0)" d="M1549.26 265.303C1552.25 248.559 1550.94 141.594 1553.99 137.594C1610.88 156.155 1664.1 176.347 1716.49 205.461C1730.07 213.008 1737.43 218.751 1752.54 223.437C1753.16 225.025 1754.64 228.553 1756.07 229.41C1794.79 252.647 1830.18 279.596 1864.92 308.391C1883.65 323.914 1901.03 341.482 1919.95 356.832C1929.73 364.725 1938.04 378.608 1947.14 384.688C1960.08 393.334 1969.7 413.027 1979.55 425.546C1982.74 429.6 1982.31 424.888 1985.19 428.751L1984.71 431.909C1994.9 441.88 2000.59 447.997 2009.22 459.834C2009.22 462.634 2008.53 463.553 2007.24 465.954C2009.49 470.506 2021.74 492.255 2024.7 495.59C2033.73 505.771 2043.91 553.702 2048 558.845L2048 608.925C2040.59 624.346 2035.59 656.563 2019.28 670.133C2021.62 663.657 2030.73 653.729 2030.69 648.266C2025.46 653.548 2017.3 669.84 2010.98 677.65C1987.54 706.566 1964.08 725.331 1930.09 740.646C1913.33 748.203 1904.02 752.176 1885.49 754.093C1885.46 714.429 1886.39 674.652 1884.66 635.049C1884.4 628.937 1885.66 607.509 1882.12 603.837C1881.07 583.453 1884.94 448.584 1878.81 441.75C1876.06 438.68 1872.99 437.782 1869.01 437.36C1857.1 436.094 1844.48 436.877 1832.5 436.906L1767.47 436.996L1548.77 437.008L1549.26 265.303Z"/><defs><linearGradient id="gradient_1" gradientUnits="userSpaceOnUse" x1="1918.4097" y1="741.08844" x2="1923.5903" y2="754.91156"><stop offset="0" stop-color="#ECEEF8" stop-opacity="0.46666667"/><stop offset="1" stop-color="#ECEEF8" stop-opacity="0.49803922"/></linearGradient></defs><path fill="url(#gradient_1)" d="M1882.12 603.837C1885.66 607.509 1884.4 628.937 1884.66 635.049C1886.39 674.652 1885.46 714.429 1885.49 754.093C1904.02 752.176 1913.33 748.203 1930.09 740.646C1964.08 725.331 1987.54 706.566 2010.98 677.65C2017.3 669.84 2025.46 653.548 2030.69 648.266C2030.73 653.729 2021.62 663.657 2019.28 670.133C1982.96 719.618 1937.09 746.917 1883.06 773.867C1883.14 798.952 1884.36 838.008 1882.49 862.349C1880.38 797.809 1882.95 732.112 1881.89 667.457C1881.54 646.519 1881.65 624.742 1882.12 603.837Z"/></svg>