<?xml version="1.0" encoding="utf-8" ?><svg xmlns="http://www.w3.org/2000/svg" xmlns:xlink="http://www.w3.org/1999/xlink" width="2048" height="1024" viewBox="0 0 2048 1024"><path d="M1480.46 534.936C1486.73 536.536 1550.65 535.841 1562.71 535.821L1785.05 535.28L1865.44 535.133C1873.6 535.123 1898.58 535.577 1905.37 534.653C1912.69 538.131 1914.19 539.431 1917.97 546.584C1919.18 623.078 1918 700.869 1918.36 777.437C1918.44 793.53 1919.19 866.041 1916.19 876.913C1926.07 876.117 1943.95 872.876 1949.05 883.811C1952.45 891.09 1949.98 906.044 1947.41 913.39C1938.37 916.043 1926.86 916.383 1917.43 916.351C1886.1 916.242 1854.73 916.305 1823.41 916.308L1623.96 916.305L1472.34 916.253C1445.93 916.233 1419.19 916.379 1392.78 915.901C1388.13 915.524 1379.9 915.255 1376.69 911.699C1370.15 904.524 1369.71 887.515 1376.78 880.628C1383.61 873.989 1399.72 875.936 1408.93 876.078C1403.47 861.427 1405.75 817.291 1405.85 800.252L1405.85 711.501L1405.63 611.055C1405.59 597.036 1403.94 550.612 1408.12 540.542C1417.88 532.35 1462.92 537.082 1480.46 534.936Z"/><path fill="#F1F2F8" d="M1465.15 539.517C1563.69 538.072 1666.54 540.003 1765.49 539.969L1856.37 539.858C1869.42 539.839 1897.95 539.122 1909.19 541.21C1912.46 544.087 1912.76 544.974 1913.09 549.355C1914.51 568.328 1914.06 587.593 1913.93 606.609L1913.82 677.569L1913.93 792.818C1913.96 804.908 1915.57 867.931 1911.38 872.949C1902.99 878.132 1869.49 876.173 1857.5 876.065L1417.06 876.026C1414.63 874.191 1412.38 872.027 1410.13 869.971C1405.86 794.642 1410.8 715.417 1409.2 639.733C1408.56 609.625 1408.11 575.649 1409.41 545.75C1411.09 543.841 1413.73 541.714 1415.69 540.009L1465.15 539.517Z"/><path d="M1434.02 564.339L1888.05 563.959L1887.99 842.983L1433.99 843.004L1434.02 564.339Z"/><path fill="#89C882" d="M1702.83 665.757C1707.88 669.375 1710.66 672.845 1714.76 677.447C1689.92 699.922 1665.63 725.164 1642.12 749.091C1636.93 742.977 1627.87 734.397 1622 728.5L1608.35 714.851L1620.45 703.071C1627.7 709.305 1636.01 718.027 1642.9 724.895C1662.35 705.388 1682.79 684.489 1702.83 665.757Z"/><path d="M1658.12 544.535C1660.44 543.18 1663.31 543.177 1665.63 544.525C1667.95 545.874 1669.36 548.366 1669.33 551.05C1669.31 553.734 1667.84 556.195 1665.49 557.493C1661.91 559.466 1657.42 558.2 1655.4 554.652C1653.39 551.104 1654.6 546.594 1658.12 544.535Z"/><path fill="#F1F2F8" d="M1377.02 890.929L1946 890.833C1946.05 898.398 1946.14 903.453 1945.13 910.92C1939.25 911.552 1932.45 911.796 1926.53 911.898C1812.11 912.803 1697.68 912.854 1583.25 912.051L1452.02 912.096C1434.71 912.112 1417.17 912.182 1399.88 912.228C1378.73 912.284 1376.17 912.557 1377.02 890.929Z"/><path fill="#F1F2F8" d="M1383.16 880.071C1505.53 878.462 1631.93 879.94 1754.53 880.045L1879.17 880.139C1890.86 880.143 1938.88 877.261 1944.84 884.512L1944.19 885.817L1941.25 886.296C1817.59 887.793 1693.92 888.368 1570.26 888.02C1526 888.075 1481.75 887.876 1437.5 887.423C1429.37 887.336 1383.05 888.207 1379.78 885.326C1379.94 882.113 1380.07 882.958 1383.16 880.071Z"/><path fill="#F1F2F8" d="M1189.73 458.146C1198.99 452.215 1203.39 443.81 1211.53 436.969C1294.62 367.096 1372.31 284.864 1469.12 233.781C1527.94 202.743 1586.99 194.79 1651.97 202.872C1653.1 203.013 1654.17 202.428 1655.06 201.811C1658.73 201.078 1661.39 200.244 1665.03 201.134C1666.69 202.855 1666.31 201.88 1666.54 203.994C1666.72 204.135 1668.6 205.646 1668.6 205.647C1686.81 208.776 1706.93 211.31 1724.61 216.764C1813.43 244.162 1921.43 300.609 1934.97 402.574C1939.28 437.84 1927.39 475.775 1914.92 508.155C1913.19 512.657 1905.63 531.01 1905.37 534.653C1898.58 535.577 1873.6 535.123 1865.44 535.133L1785.05 535.28L1562.71 535.821C1550.65 535.841 1486.73 536.536 1480.46 534.936C1465.13 532.542 1449.1 531.625 1433.93 529.142C1389.12 521.813 1347.18 522.048 1301.95 521.983L1189.67 521.877C1189.88 500.634 1189.9 479.389 1189.73 458.146Z"/><path d="M1655.06 201.811C1658.73 201.078 1661.39 200.244 1665.03 201.134C1666.69 202.855 1666.31 201.88 1666.54 203.994C1665.51 207.18 1665.19 209.246 1662.31 211.033C1658.87 211.535 1660.23 211.799 1657.19 209.999C1654.86 207.061 1655.11 205.577 1655.06 201.811Z"/><path d="M1655.12 318.962C1658.38 318.972 1661.6 318.598 1664.33 320.252C1666.61 324.172 1665.86 323.937 1666 329.066C1662.53 329.036 1659.32 329.447 1656.59 327.445C1654.65 324.654 1655.05 322.395 1655.12 318.962Z"/><path d="M1654.71 482.989C1658.05 482.931 1661.15 482.477 1663.9 484.24C1666.09 486.732 1665.74 489.363 1665.82 492.731C1662.58 492.932 1659.31 493.556 1656.68 491.774C1654.45 489.266 1654.8 486.399 1654.71 482.989Z"/><path d="M1655.13 247.976C1658.58 247.994 1661.69 247.594 1664.45 249.549C1666.45 252.344 1665.93 254.604 1665.7 258.079C1662.43 258.083 1659.34 258.491 1656.7 256.698C1654.65 254.258 1655.1 251.204 1655.13 247.976Z"/><path d="M1655.2 458.871C1658.44 458.906 1661.72 458.525 1664.22 460.493C1666.1 463.009 1665.72 466.043 1665.71 469.217C1662.39 469.224 1659.32 469.658 1656.72 467.733C1654.7 465.194 1655.17 462.208 1655.2 458.871Z"/><path d="M1655.62 411.978C1658.74 411.985 1661.71 411.65 1664.29 413.377C1666.37 415.771 1665.97 418.978 1666.01 422.21C1662.49 422.161 1659.29 422.567 1656.58 420.462C1654.75 417.633 1655.32 415.371 1655.62 411.978Z"/><path d="M1655.6 295.014C1659 295.235 1662.15 294.973 1664.68 297.162C1666.49 299.838 1665.94 302.064 1665.64 305.258C1661.59 305.192 1658.66 305.544 1655.7 302.739C1654.49 299.464 1654.93 298.339 1655.6 295.014Z"/><path d="M1655.21 224.931C1658.42 224.937 1662.14 224.498 1664.61 226.359C1666.52 228.77 1665.99 231.737 1665.86 234.86C1662.35 234.887 1659.84 235.257 1656.91 233.367C1654.91 230.989 1655.25 228.062 1655.21 224.931Z"/><path d="M1654.71 435.852C1658.19 435.663 1661.2 435.113 1664.18 436.848C1666.29 439.22 1666.1 441.954 1666.3 445.119C1662.8 445.328 1659.8 445.897 1656.8 444.153C1654.69 441.788 1654.89 439.02 1654.71 435.852Z"/><path d="M1655.62 271.024C1658.94 271.252 1661.72 271.081 1664.33 273.092C1666.23 275.849 1665.75 278.043 1665.55 281.424C1660.52 281.322 1659.29 281.66 1655.53 278.717C1654.5 275.449 1654.94 274.286 1655.62 271.024Z"/><path d="M1655.06 506.881L1655.49 506.885C1658.85 506.952 1662.19 506.46 1664.68 508.637C1666.35 511.351 1665.9 513.678 1665.71 516.834C1662.39 516.767 1659.45 517.082 1656.75 515.225C1654.66 512.746 1655.05 510.121 1655.06 506.881Z"/><path d="M1655.1 365.887C1658.32 365.867 1661.17 365.533 1663.98 367.046C1666.22 369.297 1665.9 372.433 1666.03 375.67C1662.46 375.633 1659.85 375.923 1656.74 374.178C1654.65 371.775 1655.07 369.078 1655.1 365.887Z"/><path d="M1654.59 342.843C1658.16 342.652 1660.59 342.217 1663.82 343.74C1666.1 346.044 1665.84 348.621 1665.99 351.853C1662.6 352.12 1659.83 352.692 1656.85 351.13C1654.62 348.805 1654.81 346.051 1654.59 342.843Z"/><path d="M1654.57 389.9C1658.07 389.704 1661.17 389.138 1664.18 390.838C1666.37 393.256 1666.14 395.641 1666.3 398.882C1663.03 398.98 1659.9 399.438 1657.08 397.919C1654.77 395.747 1654.88 393.059 1654.57 389.9Z"/><path d="M770.873 542.606C779.622 533.722 796.373 535.494 809.006 535.397L1090.32 535.23L1190.63 535.131C1204.84 535.103 1269.41 533.424 1277.62 539.45C1279.24 543.526 1279.66 547.828 1279.94 552.168C1280.7 563.532 1282.31 661.164 1280.95 664.149C1280.24 665.687 1278.46 666.029 1277.01 666.659C1277.09 685.939 1276.12 716.346 1277.17 734.729L1276.98 819.156C1276.97 834.538 1277.21 849.8 1276.4 865.167C1275.65 879.473 1265.53 875.748 1255.13 876.371C1253.64 867.543 1254.46 848.578 1252.01 842.796C1250.84 842.85 1249.66 842.89 1248.49 842.917C1166.04 844.402 1078.71 843.025 995.891 843.102L883.709 843.315C871.074 843.386 803.745 845.684 798.143 840.291C797.249 778.37 797.999 714.806 798.003 652.794L797.974 600.143C797.974 590.429 797.416 574.501 799.3 565.557C794.745 558.576 790.431 546.153 785.318 539.78C780.97 540.423 777.638 540.633 774.839 544.294C774 545.405 773.252 546.581 772.599 547.811L771.563 549.802L772.263 549.071L771.149 549.486C771.452 546.87 771.152 545.192 770.873 542.606Z"/><path fill="#F1F2F8" d="M770.873 542.606C779.622 533.722 796.373 535.494 809.006 535.397L1090.32 535.23L1190.63 535.131C1204.84 535.103 1269.41 533.424 1277.62 539.45C1279.24 543.526 1279.66 547.828 1279.94 552.168C1280.7 563.532 1282.31 661.164 1280.95 664.149C1280.24 665.687 1278.46 666.029 1277.01 666.659C1277.09 685.939 1276.12 716.346 1277.17 734.729L1276.98 819.156C1276.97 834.538 1277.21 849.8 1276.4 865.167C1275.65 879.473 1265.53 875.748 1255.13 876.371C1253.64 867.543 1254.46 848.578 1252.01 842.796L1252.05 659.37C1252.05 646.415 1253.81 574.003 1249.98 567.116C1243.73 563.504 1211.06 564.358 1201.82 564.373C1182.1 564.389 1162.37 564.303 1142.65 564.116L870.848 564.558C862.352 564.493 802.849 562.981 799.3 565.557C794.745 558.576 790.431 546.153 785.318 539.78C780.97 540.423 777.638 540.633 774.839 544.294C774 545.405 773.252 546.581 772.599 547.811L771.563 549.802L772.263 549.071L771.149 549.486C771.452 546.87 771.152 545.192 770.873 542.606Z"/><path d="M770.873 542.606C779.622 533.722 796.373 535.494 809.006 535.397L1090.32 535.23L1190.63 535.131C1204.84 535.103 1269.41 533.424 1277.62 539.45C1279.24 543.526 1279.66 547.828 1279.94 552.168C1280.7 563.532 1282.31 661.164 1280.95 664.149C1280.24 665.687 1278.46 666.029 1277.01 666.659C1276.46 649.065 1279.12 553.646 1274.18 542.98C1264.56 538.03 1192.4 539.861 1177.19 539.874L1026.9 539.926L866.099 539.871C839.798 539.845 811.34 539.014 785.318 539.78C780.97 540.423 777.638 540.633 774.839 544.294C774 545.405 773.252 546.581 772.599 547.811L771.563 549.802L772.263 549.071L771.149 549.486C771.452 546.87 771.152 545.192 770.873 542.606Z"/><path d="M1024.1 543.484C1027.87 542.567 1031.71 544.735 1032.87 548.441C1034.04 552.147 1032.13 556.121 1028.51 557.526C1025.94 558.521 1023.04 558.006 1020.97 556.19C1018.9 554.374 1018.02 551.559 1018.68 548.888C1019.33 546.217 1021.42 544.134 1024.1 543.484Z"/><path d="M150.438 585.068L151.458 580.983L153.136 580.162C154.297 583.454 155.139 586.939 158.474 588.649C165.735 592.372 442.313 590.217 476.629 590.34C489.092 590.385 545.756 592.469 553.81 589.774C553.94 589.73 554.065 589.672 554.192 589.621L557.112 591.288C546.771 596.677 513.716 594.02 500.251 594.109C500.359 600.235 500.275 608.286 500.715 614.242C515.376 614.325 570.022 617.852 579.139 607.91L580.434 607.969L581.183 612.862C579.635 613.686 579.476 614.067 578.735 615.555C580.79 617.337 582.423 617.081 582.409 620.506C582.203 668.271 584.75 716.829 583.434 764.502L579.355 766.733L579.303 768.213C580.788 769.196 583.081 770.171 582.881 772.003C580.976 789.468 585.321 908.576 581.134 916.071C572.733 919.128 494.856 917.95 480.679 917.939L303.249 917.799L196.529 918C187.231 918.019 126.994 920.75 126.359 912.986C122.749 868.894 127.437 823.493 124.173 779.17C123.426 769.021 132.531 771.387 126.382 761.152L127.48 756.991L128.761 757.471C134.409 764.71 139.213 763.814 148.073 764.102C147.938 757.4 146.782 740.84 150.043 735.952L149.923 735.602C145.792 723.892 150.702 671.412 150.206 656.244C150.104 653.126 152.345 645.46 153.876 642.627C162.625 637.652 245.199 639.325 261.829 639.324L428.481 639.339L509.862 639.344C521.061 639.353 545.977 638.814 555.791 640.669C563.73 644.326 570.4 644.679 578.481 647.214C578.511 638.404 578.322 629.595 577.914 620.795C562.899 616.219 491.631 617.883 471.195 617.888L283.012 617.922L187.625 617.835C172.557 617.807 149.168 617.089 134.596 618.199C131.735 619.275 130.599 622.131 129.073 624.841L127.694 624.57C126.356 620.157 126.861 611.657 127.429 607.063L128.665 606.659C129.534 608.02 130.458 609.53 131.673 610.609C139.214 617.306 195.418 614.15 209.315 614.091L209.288 594.135C192.479 594.373 160.9 600.083 150.438 585.068ZM240.48 613.964L392.811 614.045C409.464 614.051 451.922 615.194 467.17 613.677L471.084 613.742C478.639 614.549 487.982 614.259 495.722 614.214C495.286 608.22 495.408 600.344 495.344 594.194C489.084 593.927 481.801 594.132 475.444 594.176L470.855 593.837L466.261 594.156C398.348 592.817 329.903 594.799 261.943 594.041C254.92 593.963 247.739 593.986 240.715 594.079L240.48 613.964Z"/><path fill="#F1F2F8" d="M555.791 640.669C563.73 644.326 570.4 644.679 578.481 647.214C580.517 652.79 579.075 753.009 577.915 761.325C559.523 765.474 520.243 764.108 499.803 763.923L499.817 742.942C510.826 743.203 546.36 745.169 555.142 741.092C562.886 732.559 558.539 660.554 558.563 646.121C558.566 644.607 556.769 641.95 555.791 640.669Z"/><path fill="#F1F2F8" d="M150.043 735.952C158.761 744.388 164.665 743.545 176.756 743.58C187.257 743.611 197.977 742.957 208.551 742.996C208.756 749.974 209.021 756.969 208.979 763.949C188.266 764.363 168.803 764.934 148.073 764.102C147.938 757.4 146.782 740.84 150.043 735.952Z"/><path fill="#F1F2F8" d="M135.459 768L461.566 767.978C490.843 767.964 538.88 767.439 569.419 768.457C572.746 770.892 575.571 772.961 577.896 774.664C579.076 776.973 579.184 780.055 579.213 782.72C579.68 824.897 579.508 867.199 578.966 909.337C578.932 911.967 577.818 912.666 575.94 913.927L296.404 913.948C245.832 914.011 179.67 916.007 130.487 912.539C126.477 891.579 129.981 857.251 129.101 834.219C128.491 818.238 128.438 791.776 129.83 775.426C129.98 773.67 134.021 769.487 135.459 768Z"/><path d="M157.368 789.007C240.48 787.644 327.405 789.073 410.847 789.029L497.655 788.856C516.401 788.81 538.313 788.108 556.629 790.205C560.783 809.909 559.851 865.543 558.44 887.569C558.244 890.63 556.024 891.669 553.866 893L301.866 893.025C258.57 893.026 214.798 893.28 171.494 892.699C168.257 892.33 155.63 892.352 153.899 889.382C146.166 876.117 150.385 849.831 150.183 834.848C149.949 817.394 144.233 801.349 157.368 789.007Z"/><path fill="#F1F2F8" d="M157.654 793.009C204.383 792.655 251.114 792.646 297.842 792.98L554.917 793C555.118 822.401 555.762 853.831 554.749 883.342C554.64 886.513 553.684 887.665 551.08 888.929L276.775 888.955L202.82 888.994C191.335 888.993 168.058 889.644 157.624 887.418C155.428 885.391 154.182 880.386 154.036 877.313C152.823 851.781 152.965 824.205 154.619 798.704C154.73 796.985 156.675 794.296 157.654 793.009Z"/><path d="M329.335 815L534 815.001C534.062 822.849 535.086 862.474 532.822 866.732L530.25 867.17C463.182 867.901 396.109 867.941 329.04 867.288C328.747 850.39 328.54 831.769 329.335 815Z"/><path fill="#9498FD" d="M333.103 819.173L529.937 819.178L529.958 863.342L332.982 863.231L333.103 819.173Z"/><path d="M250.844 815.106C269.076 814.809 287.889 815.023 306.168 815C306.317 829.716 307.07 853.406 305.327 867.701C287.022 867.754 268.718 867.68 250.414 867.478C249.711 854.318 249.331 827.783 250.844 815.106Z"/><path fill="#9498FD" d="M254.138 819.162L301.997 819.164L301.884 863.659L254.046 863.626L254.138 819.162Z"/><path d="M176.037 814.999L228.972 814.999C229.192 832.896 229.406 850.017 228.808 867.931L175.024 867.832C174.779 854.006 173.737 827.451 176.037 814.999Z"/><path fill="#FDBE50" d="M178.982 819.006L225.11 818.967L225.126 863.844L178.882 863.867L178.982 819.006Z"/><path fill="#F1F2F8" d="M158.408 643.927C290.005 644.008 423.539 642.692 554.964 644.159C555.191 657.245 556.321 730.749 553.375 738.1L551.182 738.998L292.714 738.983C264.904 739.151 237.093 739.166 209.282 739.029C196.005 738.972 167.462 739.12 154.942 736.687C151.75 721.914 153.001 703.651 153.153 688.315C153.282 675.332 149.673 653.255 158.408 643.927Z"/><path d="M329.109 665.176L534.024 665.126L533.99 716.97L329.011 716.337L329.109 665.176Z"/><path fill="#9498FD" d="M333.123 669.086L529.95 669.012L529.868 712.745L333.016 712.455L333.123 669.086Z"/><path d="M250.332 665.031C268.912 665.012 287.493 665.117 306.072 665.345C306.309 682.507 306.232 699.672 305.84 716.831L250.935 716.939C249.204 703.187 250.094 679.652 250.332 665.031Z"/><path fill="#9498FD" d="M253.948 669.029L301.993 669.066C302.048 677.563 302.634 705.6 301.44 712.694L254.218 712.852C254.152 704.075 254.883 675.758 253.948 669.029Z"/><path d="M175.039 664.963L228.996 664.886C229.05 680.659 229.667 701.676 228.64 717.093L174.967 716.949C174.311 698.513 174.573 683.373 175.039 664.963Z"/><path fill="#FDBE50" d="M178.875 668.995L225.18 668.977L225.108 713.148L178.887 713.041L178.875 668.995Z"/><path fill="#F1F2F8" d="M242.176 742.976L466.085 742.996L466.081 763.864L242.225 763.965L242.176 742.976Z"/><path fill="#F1F2F8" fill-opacity="0.0078431377" d="M240.715 594.079C247.739 593.986 254.92 593.963 261.943 594.041C329.903 594.799 398.348 592.817 466.261 594.156C466.181 599.246 465.56 609.231 467.17 613.677C451.922 615.194 409.464 614.051 392.811 614.045L240.48 613.964L240.715 594.079Z"/><path fill="#F1F2F8" d="M470.072 743.033C478.55 743.043 487.027 742.996 495.504 742.891C495.773 749.03 496.404 758.275 494.772 764.085L470.072 763.881L470.072 743.033Z"/><path fill="#F1F2F8" d="M495.504 742.891C495.773 749.03 496.404 758.275 494.772 764.085L490.294 761.776C491.393 755.806 491.585 751.541 489.707 745.765C490.912 744.113 493.452 743.588 495.504 742.891Z"/><path fill="#57515A" d="M490.294 761.776C486.833 757.704 486.807 750.179 489.707 745.765C491.585 751.541 491.393 755.806 490.294 761.776Z"/><path d="M473.251 745.439L475.346 746.965C476.591 751.632 475.87 756.93 475.53 761.808C475.08 761.598 473.979 760.617 473.528 760.242C472.376 755.779 473.005 750.14 473.251 745.439Z"/><path fill="#F1F2F8" d="M225.139 742.93C228.118 742.876 235.074 742.575 237.73 742.899C238.214 748.387 237.953 758.122 237.96 763.94L213.716 763.973L213.35 742.892L225.139 742.93Z"/><path fill="#F1F2F8" d="M225.139 742.93C228.118 742.876 235.074 742.575 237.73 742.899C236.933 747.41 236.077 756.348 233.951 759.499C231.275 760.684 228.968 760.582 226.143 759.385C224.378 753.616 224.31 749.875 225.929 744.101L225.139 742.93Z"/><path fill="#57515A" d="M225.929 744.101C228.956 747.911 229.157 755.602 226.143 759.385C224.378 753.616 224.31 749.875 225.929 744.101Z"/><path d="M216.931 744.725L219.202 746.94C220.677 751.067 219.879 755.654 219.494 760.073C215.778 756.563 216.307 749.457 216.931 744.725Z"/><path fill="#F1F2F8" d="M213.672 594.06L236.079 594.081L236.061 614.073L213.672 614.021L213.672 594.06Z"/><path fill="#57515A" d="M225.177 598.687C228.189 601.527 226.907 608.331 226.537 612.254C223.742 607.728 224.487 603.677 225.177 598.687Z"/><path d="M217.355 598.801L218.485 600.015C219.799 603.532 219.102 607.501 218.76 611.283C215.904 608.878 217.05 602.221 217.355 598.801Z"/><path fill="#F1F2F8" fill-opacity="0.0078431377" d="M475.444 594.176C481.801 594.132 489.084 593.927 495.344 594.194C495.408 600.344 495.286 608.22 495.722 614.214C487.982 614.259 478.639 614.549 471.084 613.742L471.209 613.272L474.458 612.638C475.506 608.288 470.563 601.571 475.444 594.176Z"/><path d="M466.261 594.156L470.855 593.837C470.838 598.464 470.567 609.258 471.209 613.272L471.084 613.742L467.17 613.677C465.56 609.231 466.181 599.246 466.261 594.156Z"/><path fill="#F1F2F8" fill-opacity="0.72549021" d="M470.855 593.837L475.444 594.176C470.563 601.571 475.506 608.288 474.458 612.638L471.209 613.272C470.567 609.258 470.838 598.464 470.855 593.837Z"/><path d="M572.389 316.285C576.108 316.202 580.459 315.659 583.533 317.539L583.454 318.237C582.125 330.604 582.756 349.237 582.762 362.226L582.92 440.72C582.94 449.506 582.913 458.294 582.645 467.078C582.62 467.92 579.355 470.113 578.591 470.557L581.35 472.989L580.645 477.269L579.156 477.587C576.601 474.886 573.374 471.6 569.574 471.333C558.23 470.537 546.476 470.92 535.112 470.988L473.486 471.181L311.844 471.198C282.556 471.198 251.865 471.661 222.663 470.942C218.627 468.752 217.372 471.414 212.569 469.552L212.899 467.423L228.905 467.36L230.613 467.965C233.069 467.743 233.405 467.873 235.145 466.317C236.957 460.507 236.087 453.247 235.895 446.932L235.113 446.463C226.444 450.152 218.709 443.72 212.854 447.074C209.285 450.898 213.174 461.39 210.399 466.671C209.367 463.448 208.261 450.383 207.818 446.227C193.078 445.836 158.383 451.604 151.034 437.436C149.902 435.23 149.238 432.814 149.084 430.339C148.489 419.989 148.759 354.618 150.956 348.071C152.005 344.942 154.576 342.711 157.593 341.394C160.688 340.043 164.707 340.129 168.056 340.064C241.689 338.642 315.611 340.111 389.274 340.087L488.934 339.992C503.453 339.978 544.828 338.31 556.936 342.708C559.972 349.38 559.856 437.388 556.485 442.396C548.455 448.839 511.749 446.357 499.437 446.218L499.463 466.981C513.899 467.032 565.471 469.897 574.899 464.12C584.355 458.327 574.217 340.673 579.214 320.495C579.271 320.264 579.334 320.035 579.395 319.805L580.599 319.391L580.579 318.051C577.762 317.353 575.229 316.836 572.389 316.285ZM555.045 344.113L294.318 344.069C251.026 344.061 200.188 342.73 157.436 344.09C156.439 345.414 154.321 348.311 154.217 349.96C152.748 373.106 153.65 396.524 153.422 419.731C153.363 425.78 153.936 433.972 157.08 439.134C164.408 444.169 292.834 442.062 311.957 442.053L551.619 441.974C556.645 436.642 555.14 413.436 555.16 405.365C555.263 384.948 555.225 364.53 555.045 344.113ZM240.593 466.81L464.991 466.45C465.347 459.421 465.33 453.112 465.265 446.071L240.42 446.143L240.593 466.81Z"/><path d="M329.566 367.189L534.703 366.987L534.553 420.024L328.902 420.06C328.838 409.196 328.036 376.913 329.566 367.189Z"/><path fill="#9498FD" d="M333.814 371.756L530.2 371.521L530.214 415.87L333.73 415.881L333.814 371.756Z"/><path d="M251.583 367.405C269.69 367.356 287.797 367.461 305.902 367.721C306.774 375.982 307.543 412.969 305.608 419.917L250.765 419.936C249.8 408.896 250 378.117 251.583 367.405Z"/><path fill="#9498FD" d="M254.442 371.866L302.027 371.905L301.957 415.879L254.362 415.84L254.442 371.866Z"/><path d="M174.194 367.432C191.593 366.914 211.109 367.319 228.68 367.285C229.176 384.361 228.851 402.785 228.859 419.961L174.017 419.96C174.049 403.284 173.333 383.698 174.194 367.432Z"/><path fill="#FDBE50" d="M194.669 371.499C204.858 371.36 215.048 371.565 225.223 372.113C225.551 386.74 225.71 401.37 225.7 416L211.5 415.928L178 415.928L178.19 371.763L194.669 371.499Z"/><path fill="#F1F2F8" d="M469.701 446.001L495.331 446C495.332 451.216 496.261 463.423 493.315 466.98C487.313 466.934 481.949 466.866 475.94 467.299C471.378 466.708 472.054 467.548 469.823 464.76C468.275 458.472 469.905 452.892 469.701 446.001Z"/><path fill="#F1F2F8" d="M469.701 446.001L495.331 446C495.332 451.216 496.261 463.423 493.315 466.98C492.257 464.273 495.022 454.157 492.702 448.455C492.405 452.402 492.449 456.93 490.413 460.356C490.527 456.272 490.579 452.044 490.915 447.984L471.969 447.982C471.932 453.017 471.34 460.779 473.742 465.052L475.94 467.299C471.378 466.708 472.054 467.548 469.823 464.76C468.275 458.472 469.905 452.892 469.701 446.001Z"/><path fill="#57515A" d="M471.969 447.982L490.915 447.984C490.579 452.044 490.527 456.272 490.413 460.356L489.261 461.891C486.119 459.073 490.4 450.261 484.64 450.419C482.531 453.013 482.254 454.86 481.38 458.077C479.102 456.441 481.563 454.12 477.928 450.089L476.379 450.533C473.892 455.658 475.605 459.887 473.742 465.052C471.34 460.779 471.932 453.017 471.969 447.982Z"/><path d="M328.951 517.12L533.64 517.163L533.807 568.797C512.023 569.741 483.757 568.94 461.556 568.941L328.85 568.807C328.345 551.755 328.753 534.217 328.951 517.12Z"/><path fill="#9498FD" d="M333.279 520.978L529.962 520.995L529.989 564.968L333.476 564.912L333.279 520.978Z"/><path d="M176.254 517.149C192.449 516.446 212.661 517.021 229.161 517.031C229.464 530.68 231.097 557.157 227.599 568.932C209.758 569.199 193.883 569.678 176.133 567.627C172.547 552.699 174.689 532.345 176.254 517.149Z"/><path fill="#FDBE50" d="M179.029 521.002L225.969 520.968L225.942 565.18L179.012 565.135L179.029 521.002Z"/><path d="M251.492 517.113L306.011 517.074C306.108 534.272 305.98 551.471 305.628 568.666C288.491 569.39 269.086 568.922 251.778 568.863L251.492 517.113Z"/><path fill="#9498FD" d="M255.312 520.98L302.06 520.961L301.963 564.87L255.275 564.949L255.312 520.98Z"/><path d="M737.711 884.42L742.629 884.12C750.857 887.641 849.667 886.062 865.358 886.088L1097.43 886.424L1236.13 886.489C1256.27 886.493 1289.58 887.519 1308.3 886.072L1313.31 886.164C1314.08 891.788 1315.54 911.048 1309.98 912.219C1277.09 919.148 1220.74 916.064 1188.62 916.08L987.456 916.216L834.626 916.305C814.655 916.311 762.326 917.857 741.282 914.058C734.295 912.796 737.098 892.093 737.711 884.42Z"/><path fill="#F1F2F8" d="M766.17 890.49L1310.09 891C1310.51 912.346 1307.01 912.218 1286.76 912.089C1286.4 912.094 1286.04 912.098 1285.68 912.1L934.682 912.067L814.446 912.115C793.348 912.154 772.254 912.26 751.159 912.09C738.414 911.986 740.785 899.949 741.094 890.835L766.17 890.49Z"/><path fill="#FDBE50" d="M932.02 108.085C934.478 105.172 935.44 103.624 939.001 102.266C943.433 107.223 949.443 111.658 954.778 115.693C972.505 129.096 990.865 141.235 1007.74 155.746C1008.34 159.514 1009.1 164.348 1008.66 167.883C1006.02 188.754 993.708 216.129 1025.47 219.597C1046.6 221.905 1046.13 199.017 1042.27 184.379C1040.74 178.579 1037.22 165.12 1039.22 159.679C1050.24 146.642 1092.82 114.782 1108.48 102.74C1111.56 103.914 1112.99 103.875 1114.84 106.137C1115.63 117.168 1115.15 132.12 1115.1 143.422L1114.78 205.748C1101.23 212.751 1033.5 246.578 1025.98 253.841C1023.87 252.784 1021.3 253.316 1019.79 255.125C1003.6 236.813 945.336 221.837 932.042 202.029L932.02 108.085Z"/><path d="M939.001 102.266C943.115 98.4105 947.254 93.9811 951.069 89.8297C967.047 72.4399 989.076 59.6264 1012.82 57.1475C1051.66 53.0931 1086.04 72.0347 1108.48 102.74C1092.82 114.782 1050.24 146.642 1039.22 159.679C1037.22 165.12 1040.74 178.579 1042.27 184.379C1046.13 199.017 1046.6 221.905 1025.47 219.597C993.708 216.129 1006.02 188.754 1008.66 167.883C1009.1 164.348 1008.34 159.514 1007.74 155.746C990.865 141.235 972.505 129.096 954.778 115.693C949.443 111.658 943.433 107.223 939.001 102.266ZM944.368 102.61L961.228 115.323C971.432 98.7433 988.131 85.8312 1007.2 81.3288C1015.4 79.398 1023.89 78.9775 1032.25 80.0881C1058.29 84.9765 1070.1 93.7054 1085.9 114.686L1101.68 102.015C1088.5 83.1093 1061.04 65.9269 1038.31 61.8915C1030.66 60.592 1022.87 60.3996 1015.17 61.3203C981.814 66.3172 966.17 78.3674 944.368 102.61ZM964.382 117.301C969.871 121.091 975.336 124.916 980.776 128.776C990.262 110.799 1009.04 102.113 1028.94 103.039C1047.74 106.658 1055.66 113.515 1067.42 128.335L1081.47 118.088C1067.48 95.1256 1044.89 82.8088 1017.98 84.3266C991.559 87.8353 980.942 97.2395 964.382 117.301ZM1021.17 107.31C1001.73 109.929 995.516 116.003 983.422 130.664L1008.87 150.289L1010.68 139.952C1015.62 134.027 1018.99 130.09 1027.24 129.294C1029.11 129.103 1030.98 129.025 1032.86 129.063C1047.59 134.105 1043.34 142.878 1038.18 153.93C1046.62 145.802 1056.89 138.564 1063.83 131.789C1052.67 117.466 1041.04 105.948 1021.17 107.31ZM1028.41 133.004C1022.97 138.522 1017.53 148.339 1013.05 155.228C1013.09 159.324 1013.43 166.441 1012.71 170.274C1009.4 188.008 998.869 213.771 1027.34 215.397C1051.81 207.048 1035.14 174.506 1032.39 154.866C1034.91 149.046 1040.01 141.617 1038.19 136.017C1034.84 132.465 1033.11 132.432 1028.41 133.004Z"/><path fill="#F1F2F8" fill-opacity="0.0078431377" d="M1017.98 84.3266C1044.89 82.8088 1067.48 95.1256 1081.47 118.088L1067.42 128.335C1055.66 113.515 1047.74 106.658 1028.94 103.039C1009.04 102.113 990.262 110.799 980.776 128.776C975.336 124.916 969.871 121.091 964.382 117.301C980.942 97.2395 991.559 87.8353 1017.98 84.3266Z"/><path fill="#F1F2F8" fill-opacity="0.027450981" d="M742.629 884.12C748.233 880.985 752.838 880.934 759.231 880.901C803.254 880.672 847.387 880.658 891.409 880.554L1169.37 880.278C1207.8 880.259 1262.46 879.781 1302.27 880.785C1304.06 880.83 1307.13 884.427 1308.3 886.072C1289.58 887.519 1256.27 886.493 1236.13 886.489L1097.43 886.424L865.358 886.088C849.667 886.062 750.857 887.641 742.629 884.12Z"/><defs><linearGradient id="gradient_0" gradientUnits="userSpaceOnUse" x1="1025.0018" y1="883.51135" x2="1024.9821" y2="872.54626"><stop offset="0" stop-color="black" stop-opacity="0.96078432"/><stop offset="1" stop-color="black"/></linearGradient></defs><path fill="url(#gradient_0)" d="M1277.17 734.729C1279.15 749.557 1279.18 776.564 1279.22 792.466C1279.28 819.583 1281.75 849.723 1277.25 876.082C1290.02 875.962 1306.74 873.059 1313.31 886.164L1308.3 886.072C1307.13 884.427 1304.06 880.83 1302.27 880.785C1262.46 879.781 1207.8 880.259 1169.37 880.278L891.409 880.554C847.387 880.658 803.254 880.672 759.231 880.901C752.838 880.934 748.233 880.985 742.629 884.12L737.711 884.42C744.162 872.897 758.418 876.017 769.91 876.552C770.065 876.431 773.036 873.141 773.985 872.272C776.371 873.69 780.062 876.07 782.743 876.126C809.134 876.676 836.4 876.556 862.727 876.582L1026.42 876.615L1181.12 876.602C1199.19 876.6 1239.47 877.793 1255.13 876.371C1265.53 875.748 1275.65 879.473 1276.4 865.167C1277.21 849.8 1276.97 834.538 1276.98 819.156L1277.17 734.729Z"/><path d="M150.438 585.068C148.653 576.767 148.733 503.763 152.286 495.43C164.458 488.876 245.265 490.764 264.303 490.869L362.785 490.956L486.208 490.95C506.152 490.947 526.306 490.87 546.264 490.948C550.283 490.963 553.135 491.928 556.67 493.748L554.836 494.889C449.911 496.534 344.434 494.283 239.465 494.784C224.149 494.857 166.593 493.031 156.483 496.922C153.306 501.121 152.869 511.064 153.113 516.392C154.078 537.469 152.413 559.173 153.136 580.162L151.458 580.983L150.438 585.068Z"/><path d="M130.974 316.054C168.114 316.939 208.156 316.121 245.512 316.111L467.815 316.099C501.35 316.099 539.227 315.258 572.389 316.285C575.229 316.836 577.762 317.353 580.579 318.051L580.599 319.391L579.395 319.805C563.674 320.639 542.588 320.05 526.58 320.052L428.579 320.053L128.676 319.974L127.126 319.328L127.298 317.929L130.974 316.054Z"/><path d="M126.382 761.152C123.976 757.447 124.978 730.977 125.005 724.605L125.094 653.107L125.16 387.023C125.136 377.791 123.99 319.732 126.375 316.531L130.974 316.054L127.298 317.929L127.126 319.328L128.676 319.974C129.603 323.398 130.159 452.806 128.702 459.354C125.794 462.978 126.735 470.999 127.209 475.652L128.058 476.711L129.179 475.641C129.618 478.009 127.928 608.481 128.665 606.659L127.429 607.063C126.861 611.657 126.356 620.157 127.694 624.57L129.073 624.841C128.17 655.975 129.875 689.004 129.441 720.258C129.348 726.897 130.238 752.603 128.761 757.471L127.48 756.991L126.382 761.152Z"/><path d="M770.873 542.606C771.152 545.192 771.452 546.87 771.149 549.486L772.263 549.071L771.563 549.802L772.599 547.811C775.322 556.797 773.489 631.201 773.485 647.37L773.985 872.272C773.036 873.141 770.065 876.431 769.91 876.552C768.792 869.879 769.324 851.768 769.335 844.187L769.352 780.953C769.295 753.617 766.852 553.03 770.873 542.606Z"/><path d="M581.35 472.989L582.668 474C583.63 488.188 584.599 606.157 582.238 612.482L581.183 612.862L580.434 607.969L579.139 607.91C578.589 605.355 578.338 481.298 579.156 477.587L580.645 477.269L581.35 472.989Z"/><path d="M210.399 466.671C213.174 461.39 209.285 450.898 212.854 447.074L213.121 449.571C213.092 453.847 213.285 463.576 212.899 467.423L212.569 469.552C217.372 471.414 218.627 468.752 222.663 470.942C211.848 471.375 201.241 470.975 190.362 471.064C172.193 471.214 153.692 470.104 135.579 471.443C132.563 471.666 130.865 473.245 129.179 475.641L128.058 476.711L127.209 475.652C126.735 470.999 125.794 462.978 128.702 459.354C129.669 460.92 132.669 466.039 134.083 466.128C156.465 467.539 188.454 466.713 210.399 466.671Z"/><path fill="#57515A" d="M212.854 447.074C218.709 443.72 226.444 450.152 235.113 446.463L235.895 446.932C236.087 453.247 236.957 460.507 235.145 466.317C233.405 467.873 233.069 467.743 230.613 467.965L228.905 467.36L212.899 467.423C213.285 463.576 213.092 453.847 213.121 449.571L212.854 447.074Z"/><path fill="#F1F2F8" d="M213.121 449.571C221.054 455.188 214.291 457.058 217.971 463.285C219.278 459.503 219.825 451.256 221.244 450.017C224.7 453.861 222.372 460.117 224.14 465.078L228.905 467.36L212.899 467.423C213.285 463.576 213.092 453.847 213.121 449.571Z"/><path fill="#F1F2F8" d="M224.14 465.078C225.53 458.644 224.451 457.561 227.148 451.567L228.199 451.828C229.379 455.359 230.85 463.92 231.684 465.156L230.613 467.965L228.905 467.36L224.14 465.078Z"/><path fill="#F1F2F8" d="M235.895 446.932C236.087 453.247 236.957 460.507 235.145 466.317C233.405 467.873 233.069 467.743 230.613 467.965L231.684 465.156C234.589 456.66 230.272 452.564 235.895 446.932Z"/><path d="M556.67 493.748C557.345 494.619 558.438 496.49 558.426 497.542C558.162 519.723 560.746 565.591 558.077 586.182C557.855 587.901 557.532 589.606 557.112 591.288L554.192 589.621C556.56 578.682 554.989 510.12 554.836 494.889L556.67 493.748Z"/><path d="M367.511 150.586C368.819 150.856 370.118 151.323 371.4 151.732C375.144 157.49 373.053 160.608 368.113 164.359C363.772 162.77 362.96 162.353 362.064 158.113C363.236 154.371 364.696 153.314 367.511 150.586Z"/><path d="M1521.63 150.028C1522.7 149.988 1523.78 149.975 1524.85 149.988C1528.68 150.071 1529.17 150.896 1531.41 153.189C1532.34 156.986 1532.2 157.73 1531.8 161.623C1523.57 161.342 1519.34 159.494 1521.63 150.028Z"/><path d="M1498.09 149.947C1501.69 149.975 1503.56 149.718 1506.68 151.526C1509.16 154.026 1509.18 157.655 1509.71 161.275C1505.69 161.193 1502.58 161.624 1499.56 159.138C1497.67 156.169 1498.06 153.494 1498.09 149.947Z"/><path d="M1611.63 149.943C1615.12 150.028 1617.1 149.778 1620 151.706C1622.22 154.391 1621.92 157.899 1622.11 161.506C1618.4 161.433 1614.8 161.571 1612.12 158.949C1610.53 156.105 1611.26 153.236 1611.63 149.943Z"/><path d="M1363.29 150.25C1368.04 150.045 1370.33 149.462 1373.5 153.309C1374.03 156.57 1373.75 157.807 1373.32 160.983L1367.45 160.776C1364.68 159.371 1364.27 159.192 1362.84 156.469C1362.51 153.757 1362.13 152.708 1363.29 150.25Z"/><path d="M1657.67 150.746C1662.7 151.642 1664.73 151.461 1666.61 156.632C1666.4 159.922 1666.53 160.992 1664.42 163.659C1659.68 162.571 1657.26 162.364 1655.52 157.292C1655.81 154.394 1655.7 152.971 1657.67 150.746Z"/><path d="M1589.69 149.898C1595.06 150.369 1597.5 149.87 1599.82 155.158C1599.5 158.247 1599.59 159.452 1597.62 161.962C1593.04 161.214 1590.77 160.785 1588.6 156.213C1588.32 153.125 1588.16 152.543 1589.69 149.898Z"/><path d="M1429.87 150.128C1433.32 150.079 1434.41 150.121 1437.83 150.704C1440.6 153.586 1440.31 156.617 1441.23 161.204C1437.61 161.123 1434.8 161.443 1431.86 159.381C1429.7 156.742 1430.01 153.616 1429.87 150.128Z"/><path d="M1453.51 150.107C1456.72 150.067 1459.13 149.746 1461.95 151.251C1464.28 153.756 1463.87 157.109 1463.99 160.67C1460.77 160.99 1457.76 161.709 1455.13 159.899C1453.09 157.148 1453.54 153.657 1453.51 150.107Z"/><path d="M1475.68 150.042C1478.86 150.066 1482.2 149.717 1484.81 151.438C1486.73 153.778 1486.48 157.886 1486.63 161.082C1483.5 161.105 1480.77 161.467 1478.23 159.631C1475.95 157.188 1476.06 153.521 1475.68 150.042Z"/><path d="M1634.8 150.049C1638.16 150.27 1641.25 150.024 1643.67 152.217C1645.36 154.815 1644.63 158.063 1644.33 161.229C1639.62 161.072 1636.87 161.423 1634.36 156.874C1634.07 154.176 1633.65 152.557 1634.8 150.049Z"/><path d="M1226.75 150.957C1229.88 150.667 1233.19 149.931 1235.76 151.578C1237.79 154.122 1237.68 157.411 1238.04 160.823C1234.89 160.989 1231.81 161.508 1229.11 159.932C1226.92 157.665 1227.05 154.194 1226.75 150.957Z"/><path d="M1409.21 150.104C1413.53 150.063 1415.3 149.892 1418.17 153.29C1418.66 157.01 1418.48 157.673 1417.8 161.28C1412.48 161.179 1411.24 161.844 1408.24 157.342C1408.2 153.933 1408.19 153.405 1409.21 150.104Z"/><path d="M1566.78 150.029C1570.35 150.064 1572.09 149.815 1575.14 151.674C1577.19 154.197 1576.72 157.908 1576.73 161.276C1573.56 161.356 1571.32 161.715 1568.64 159.959C1566.43 157.25 1566.86 153.67 1566.78 150.029Z"/><path d="M1271.6 150.882C1274.82 150.682 1277.68 150.132 1280.43 151.724C1282.59 154.238 1282.28 157.433 1282.43 160.852C1279.2 160.96 1276.32 161.417 1273.58 159.802C1271.51 157.365 1271.81 154.277 1271.6 150.882Z"/><path d="M1207.09 150.17C1209.91 150.719 1212.1 150.479 1213.59 152.817C1216.17 156.878 1216.08 159.282 1212.64 161.876C1206.86 160.276 1203.2 158.251 1204.55 151.553L1207.09 150.17Z"/><path d="M1297.16 150.075C1302.06 150.573 1302.64 150.435 1305.26 154.657C1305.28 157.929 1305.48 158.958 1303.56 161.736L1298.48 160.731C1296.08 158.684 1295.48 158.314 1294.68 155.191C1295.4 151.356 1294.67 152.636 1297.16 150.075Z"/><path d="M1018.26 298.759C1023.05 298.571 1025 298.179 1028.61 300.516C1029.79 303.363 1029.15 305.75 1028.7 308.78C1024.99 308.636 1023.42 308.816 1020.29 306.812C1018.16 304.173 1018.4 302.178 1018.26 298.759Z"/><path d="M1249.54 150.755C1252.99 150.54 1253.63 150.495 1257.1 151.223C1259.99 154.661 1259.44 155.824 1260.39 160.661C1257.15 160.856 1253.8 161.487 1251.18 159.7C1249.24 157.229 1249.6 153.959 1249.54 150.755Z"/><path d="M1342.07 149.985C1346.99 150.62 1348.59 150.295 1350.72 155.165C1350.76 157.958 1351.06 159.184 1349.58 161.528L1344.48 160.681C1341.87 158.698 1341.37 158.389 1340.23 155.209C1340.5 151.37 1339.92 152.664 1342.07 149.985Z"/><path d="M568.126 150.827C572.947 150.694 574.643 150.521 577.917 154.326C578.421 157.577 577.94 158.153 576.341 160.951C572.432 160.587 569.503 160.579 566.931 157.527C566.41 153.566 566.505 154.804 568.126 150.827Z"/><path d="M1019.44 505.91C1022.43 505.917 1025.23 505.653 1027.87 507.077C1029.93 509.561 1029.56 512.383 1029.69 515.791C1026.6 516.031 1023.77 516.594 1021.11 515.016C1019.06 512.691 1019.48 509.131 1019.44 505.91Z"/><path d="M1139.06 149.652L1143.5 151.091C1145.68 153.011 1145.76 153.454 1146.56 156.269C1145.72 160.553 1146.57 159.22 1143.53 162.14C1139.43 160.833 1137.29 160.144 1135.9 155.653C1136.85 151.221 1135.98 152.787 1139.06 149.652Z"/><path d="M500.881 151.657C503.039 149.659 506.4 149.762 508.431 151.888C510.462 154.015 510.411 157.377 508.316 159.441C506.932 160.804 504.92 161.316 503.053 160.78C501.186 160.244 499.752 158.743 499.302 156.853C498.852 154.963 499.456 152.977 500.881 151.657Z"/><path d="M1655.1 177.757C1658.51 177.68 1660.53 177.422 1663.73 178.621C1666.33 182.135 1665.54 182.014 1665.97 187.078C1662.41 187.194 1660.48 187.433 1657.05 186.415C1654.6 182.969 1655.38 182.716 1655.1 177.757Z"/><path d="M431.087 150.856C434.43 150.802 437.162 150.437 440.08 152.027C442.216 155.587 441.532 155.348 441.717 160.034C438.644 160.267 435.341 160.892 432.704 159.443C430.563 155.882 431.267 155.588 431.087 150.856Z"/><path d="M590.96 151.025C595.34 150.769 597.453 150.562 600.711 153.108C601.773 156.03 600.911 157.515 599.884 160.402C595.562 160.435 593.855 160.352 590.652 157.918C589.633 154.948 590.127 153.961 590.96 151.025Z"/><path d="M680.836 150.964C682.038 150.879 683.242 150.836 684.447 150.833C687.355 150.851 688.568 151.162 690.574 153.149C691.599 156.265 691.585 156.661 690.985 159.893C686.18 160.369 684.345 160.589 680.664 157.729C679.633 154.944 680.148 153.781 680.836 150.964Z"/><path d="M635.22 151.129C636.248 151.043 637.278 150.983 638.309 150.949C641.357 150.861 643.385 150.881 645.631 153.002C646.704 156.054 646.083 157.136 645.081 160.129C641.236 160.23 638.491 160.275 635.606 157.707C634.27 154.747 634.403 154.307 635.22 151.129Z"/><path d="M387.183 150.396C390.954 150.756 394.517 151.351 396.16 155.285C395.597 159.237 396.258 157.758 393.56 160.838C389.514 160.691 387.793 160.55 385.122 157.568C384.662 154.383 385.661 153.163 387.183 150.396Z"/><path d="M748.1 150.981C751.231 150.879 753.631 150.544 756.475 151.927C758.984 155.531 758.235 155.692 758.693 160.703C754.996 160.849 753.503 161.113 750.11 159.607C747.614 155.818 748.396 156.155 748.1 150.981Z"/><path d="M887.66 150.289L892.023 151.182C894.093 152.885 894.191 153.205 894.771 155.838C893.673 160.099 894.573 158.634 891.532 161.529C887.312 159.948 883.848 158.775 883.6 153.435C885.041 150.63 884.074 151.538 887.66 150.289Z"/><path d="M1020.85 390.078C1025.66 390.462 1026.91 390.437 1029.43 394.709C1029.38 397.804 1029.33 398.175 1027.68 400.782L1022.96 400.121C1020.31 398.367 1019.82 398.13 1018.52 395.264C1019.05 391.335 1018.36 392.642 1020.85 390.078Z"/><path d="M1317.51 151.024C1320.96 150.813 1323.05 150.443 1326.29 151.67C1328.8 155.095 1328.1 155.56 1328.68 160.387C1325.45 160.992 1324.93 161.107 1321.58 160.386C1318.86 158.462 1318.36 154.414 1317.51 151.024Z"/><path d="M522.297 150.866C522.744 150.84 523.191 150.82 523.638 150.804C527.999 150.646 528.969 150.627 531.911 153.377C532.751 156.441 532.686 157.555 532.719 160.625C529.163 160.67 527.328 160.963 524.233 159.218C521.933 156.573 522.308 154.417 522.297 150.866Z"/><path d="M612.246 151.177C615.603 151.064 619.089 150.511 621.869 152.18C624.04 155.618 623.341 156.092 623.575 160.752C621.158 160.568 618.744 160.257 616.334 159.974C612.839 156.872 613.686 156.549 612.246 151.177Z"/><path d="M658.156 151.091C661.473 150.786 664.964 150.346 667.655 152.294C669.489 154.843 668.954 157.013 668.676 160.121C664.908 160.075 662.417 160.418 659.364 158.258C657.411 154.5 657.96 155.667 658.156 151.091Z"/><path d="M837.32 151.043C840.687 150.83 843.67 150.328 846.75 151.651C849.007 155.05 848.326 155.599 848.687 160.257C845.189 160.291 844.014 160.451 840.676 159.304C838.196 157.332 837.973 154.195 837.32 151.043Z"/><path d="M772.585 151.538C774.1 150.264 776.204 149.955 778.021 150.739C779.838 151.524 781.056 153.267 781.168 155.243C781.28 157.219 780.266 159.088 778.55 160.073C776.202 161.419 773.215 160.751 771.664 158.533C770.114 156.314 770.514 153.279 772.585 151.538Z"/><path d="M1158.14 151.133C1161.13 150.95 1164.19 150.417 1166.76 151.858C1168.77 154.27 1168.31 158.039 1168.33 161.314C1165.22 161.146 1164.02 161.217 1161.06 159.959C1158.23 156.429 1158.99 156.233 1158.14 151.133Z"/><path d="M1018.08 414.164C1021.31 414.039 1024.62 413.556 1027.46 414.924C1029.49 417.206 1029.01 420.297 1028.97 423.424C1025.35 423.44 1024 423.656 1020.68 422.167C1018.29 419.739 1018.43 417.591 1018.08 414.164Z"/><path d="M793.586 150.853C796.822 150.746 798.519 150.487 801.606 151.674C804.115 153.801 804.013 156.723 804.429 160.074C800.898 160.312 798.963 160.674 795.638 159.438C793.299 155.921 793.998 155.642 793.586 150.853Z"/><path d="M1018.68 483.031C1022.04 482.865 1024.06 482.533 1027.2 483.754C1029.42 487.046 1028.72 487.548 1029.02 492.13C1025.48 492.357 1024.02 492.654 1020.64 491.519C1018.28 487.922 1019.01 487.939 1018.68 483.031Z"/><path d="M546.932 151.432C549.142 149.702 552.325 150.036 554.128 152.186C555.93 154.337 555.703 157.53 553.614 159.403C552.199 160.672 550.205 161.069 548.412 160.438C546.619 159.807 545.313 158.249 545.005 156.373C544.697 154.498 545.435 152.603 546.932 151.432Z"/><path d="M454.122 150.909C458.404 150.81 460.425 150.644 463.634 153.024C464.607 156.046 463.891 157.317 462.889 160.261C459.616 160.137 456.886 160.429 454.393 158.295C452.936 154.406 453.394 155.442 454.122 150.909Z"/><path d="M817.733 151.81C819.758 149.903 822.928 149.935 824.914 151.883C826.9 153.831 826.993 157 825.125 159.061C823.849 160.469 821.905 161.066 820.059 160.616C818.213 160.166 816.762 158.742 816.276 156.905C815.791 155.068 816.35 153.113 817.733 151.81Z"/><path d="M1018.96 368.147C1022.1 368.202 1025.55 367.896 1028.15 369.545C1030.01 371.749 1029.58 374.573 1029.54 377.503C1026.06 377.457 1024.93 377.483 1021.49 376.699C1018.87 373.53 1019.59 372.944 1018.96 368.147Z"/><path d="M861.184 150.919C864.678 150.717 865.547 150.616 869.039 151.314C872.033 154.514 871.268 154.858 872.269 159.9C868.768 160.226 867.536 160.527 864.165 159.452C861.633 157.316 861.67 154.295 861.184 150.919Z"/><path d="M705.487 151.452C707.675 149.631 710.924 149.931 712.743 152.12C714.561 154.31 714.258 157.559 712.066 159.375C709.878 161.188 706.635 160.885 704.82 158.699C703.005 156.513 703.303 153.27 705.487 151.452Z"/><path d="M410.255 150.745C410.986 150.772 411.716 150.815 412.445 150.875C416.049 151.187 416.987 151.91 419.03 154.329C419.126 158.449 419.323 156.998 417.352 160.724C412.918 160.213 411.251 160.028 408.367 157.069C408.347 153.034 408.166 154.412 410.255 150.745Z"/><path d="M478.569 150.829C482.562 150.947 483.805 151.052 486.443 153.411C487.221 156.595 486.48 157.747 485.276 160.715C481.254 160.429 479.279 160.442 476.504 157.977C475.887 154.987 477.11 153.476 478.569 150.829Z"/><path d="M1018.13 275.931C1021.46 275.734 1024.18 275.236 1027.11 276.783C1029.14 279.111 1028.76 282.197 1028.81 285.34C1025.09 285.189 1024 285.315 1020.64 283.642C1018.24 281.173 1018.4 279.316 1018.13 275.931Z"/><path d="M727.654 151.581C729.046 150.386 730.973 150.031 732.7 150.652C734.426 151.272 735.687 152.772 736.001 154.58C736.315 156.387 735.634 158.224 734.217 159.39C732.058 161.168 728.87 160.875 727.07 158.734C725.271 156.593 725.531 153.402 727.654 151.581Z"/><path d="M1019.79 255.125C1021.3 253.316 1023.87 252.784 1025.98 253.841C1027.92 254.812 1029.04 256.908 1028.76 259.062C1028.47 261.217 1026.86 262.957 1024.73 263.398C1022.61 263.84 1020.43 262.886 1019.32 261.021C1018.2 259.156 1018.39 256.79 1019.79 255.125Z"/><path d="M1018.15 436.826C1021.38 436.77 1024.2 436.397 1027.01 437.956C1029 440.174 1028.6 442.919 1028.59 445.923C1025.19 446.057 1024.44 446.13 1021.07 445.333C1018.24 442.021 1018.99 441.809 1018.15 436.826Z"/><path d="M1021.24 322.525C1022.67 321.294 1024.66 320.956 1026.41 321.648C1028.16 322.34 1029.38 323.947 1029.58 325.819C1029.78 327.692 1028.92 329.52 1027.36 330.563C1025.13 332.043 1022.14 331.54 1020.52 329.414C1018.91 327.288 1019.22 324.271 1021.24 322.525Z"/><path d="M1019.09 460.257C1022.63 460.18 1023.5 460.066 1026.94 461.114C1029.32 464.658 1028.57 464.711 1028.85 469.641C1025.48 469.544 1023.42 469.745 1020.46 468.124C1018.38 464.45 1019.06 465.035 1019.09 460.257Z"/><path d="M908.022 151.789C909.388 150.48 911.387 150.077 913.153 150.754C914.92 151.432 916.136 153.069 916.276 154.956C916.415 156.842 915.453 158.64 913.805 159.57C911.661 160.781 908.951 160.206 907.482 158.23C906.013 156.254 906.245 153.493 908.022 151.789Z"/></svg>