<?xml version="1.0" encoding="utf-8" ?><svg xmlns="http://www.w3.org/2000/svg" xmlns:xlink="http://www.w3.org/1999/xlink" width="1024" height="1024" viewBox="0 0 1024 1024"><path d="M820.876 0L821.292 0C824.962 3.73145 861.202 21.6381 868.038 25.1643L923.726 54.3411C939.82 62.6634 956.003 70.5639 971.939 79.2299C972.849 178.235 973.028 277.245 972.474 376.252L972.515 468.924C972.61 492.942 973.454 515.696 971.066 539.657C964.188 546.998 940.619 558.465 930.989 563.852L863.198 601.663L815.179 628.684C802.816 635.632 791.774 642.296 778.712 647.881C772.244 646.248 748.427 632.089 740.969 628.008C718.201 615.658 695.519 603.151 672.925 590.486C658.325 582.357 643.58 573.825 628.806 566.108C628.193 557.25 628.426 545.831 628.342 536.712C628.115 518.735 628.003 500.757 628.007 482.779L627.903 328.249C590.319 327.211 549.837 328.167 511.959 328.143L464.527 328.091C452.976 328.082 440.968 327.829 429.477 328.888C410.574 330.466 393.095 339.567 380.963 354.148C372.026 364.817 366.206 377.744 364.143 391.507C362.769 401.081 363.053 411.139 363.033 420.827L362.996 458.212L362.994 579.781L363.046 706.644L363.024 747.466C363.024 755.54 362.75 765.699 363.5 773.525C377.312 773.453 391.124 773.479 404.935 773.603L406.808 746.563C407.376 737.285 407.014 722.137 412.365 714.547C419.934 710.635 434.067 711.757 442.886 711.809L476.434 711.939C513.972 712.034 551.511 711.921 589.048 711.602C596.983 711.531 605.233 711.38 613.128 712.036C623.704 712.915 623.863 723.493 623.322 731.533C622.376 745.607 620.861 759.604 619.901 773.641C628.704 774.135 637.729 773.382 646.517 773.558C658.892 773.807 671.005 773.958 683.374 773.881C691.094 773.833 701.499 773.257 708.964 773.84C710.071 755.826 710.592 734.639 714.436 717.191C716.171 709.32 754.335 711.901 761.349 711.969L808.431 711.994C844.524 711.968 880.684 711.452 916.753 712.366C920.498 712.461 927.43 713.105 927.799 718.225C928.925 733.879 927.217 750.439 926.313 766.197L922.637 833.722C922.286 840.3 921.902 879.77 919.858 883.029C908.331 901.407 892.15 920.409 878.788 937.923C872.975 945.542 867.492 953.948 861.189 961.155C856.297 966.502 836.517 965.187 829.336 965.185L790.773 965.117L675.834 965.555C668.006 965.636 649.228 966.521 643.674 960.812C640.217 957.257 640.94 950.81 641.046 946.103C646.498 938.933 652.871 928.854 658.348 921.122L687.927 879.521C690.097 876.474 703.111 858.917 703.358 856.934C705.921 836.369 707.778 808.795 708.481 788.376C694.009 787.227 673.213 788.416 658.261 787.879C651.657 787.641 624.318 787.525 619.031 788.592C618.436 790.831 617.468 805.104 617.246 808.408C616.173 824.419 614.373 840.977 613.941 856.982C613.723 865.059 614.757 873.317 614.424 882.014C594.168 907.406 576.746 935.201 556.129 960.289C554.74 961.978 552.931 963.554 550.712 963.896C540.607 965.453 530.211 965.063 519.997 965.065L476.627 965.097L395.112 965.215C380.375 965.216 365.677 965.139 350.942 964.955C337.811 964.79 338.311 957.463 337.182 946.085C342.93 935.636 355.035 919.744 362.211 909.777C373.991 893.416 386.245 876.1 398.487 860.106C398.444 851.207 399.826 839.851 400.566 830.778C401.638 816.688 402.635 802.593 403.557 788.493C392.44 787.441 371.311 787.842 359.712 787.847C345.367 787.853 324.487 787.054 310.542 788.088C310.406 809.579 305.591 832.046 305.858 853.736C305.696 861.509 311.231 872.4 306.807 879.545C291.21 904.731 271.154 928.084 252.942 951.491C249.483 955.937 242.283 963.997 236.514 964.098C224.845 964.302 213.107 964.26 201.427 964.286C179.461 964.477 157.495 964.551 135.529 964.506L73.7701 964.523C61.8096 964.512 49.8903 964.456 37.9393 963.997C24.5751 963.485 26.4077 954.211 26.1828 944C34.3082 931.303 47.7333 915.182 57.0234 902.665C67.499 888.552 78.0419 873.853 88.9221 860.191L95.6445 760.213L97.4896 736.328C97.942 730.207 97.9853 720.108 101.305 715.025C112.085 707.678 175.626 713.4 192.648 712.072C198.564 711.611 212.618 712.099 219.21 712.105C235.352 712.158 251.494 712.127 267.636 712.012C280.358 711.908 293.693 711.69 306.402 713.079C310.704 713.549 311.654 715.451 313.984 718.704C315.674 732.341 311.752 758.73 310.913 773.455C320.26 773.924 339.836 774.47 348.97 773.452C349.712 762.732 349.307 748.044 349.28 737.101L349.137 674.427L349.231 497.096C349.227 466.858 348.906 436.476 349.193 406.254C349.444 379.775 357.61 356.472 377.208 338.04C388.813 327.066 403.158 319.42 418.737 315.903C432.626 312.903 448.794 313.456 463.094 313.474L505.815 313.495C546.009 313.489 587.978 312.587 628.016 313.769L627.81 177.546C627.864 159.208 627.838 140.857 627.916 122.518C627.939 116.926 627.895 110.951 627.468 105.4L775.416 24.8478C784.293 19.9402 793.203 15.0933 802.145 10.3076C806.342 8.09978 817.598 2.60497 820.876 0Z"/><path fill="#F0EFF2" d="M955.786 88.0272C960.121 85.5053 964.108 83.462 968.861 81.7789C970.125 116.843 969.549 151.644 969.487 186.691L969.012 365.538L969.041 472.599C969.168 491.34 970.576 517.145 968.812 535.388C966.436 540.141 958.807 543.309 954.054 546.012L931.196 558.964L858.034 600.129L807.884 628.673C801.326 632.439 787.563 640.939 781.293 643.501C781.326 635.359 781.405 627.218 781.531 619.077L781.495 181.488C801.364 171.777 820.75 160.399 840.265 149.912L955.786 88.0272Z"/><path d="M928.864 503.284C933.651 500.888 953.24 487.227 956.708 492.885C956.194 500.971 955.043 519.774 956.927 527.338C960.616 528.321 964.243 533.145 968.812 535.388C966.436 540.141 958.807 543.309 954.054 546.012L931.196 558.964L858.034 600.129L807.884 628.673C801.326 632.439 787.563 640.939 781.293 643.501C781.326 635.359 781.405 627.218 781.531 619.077C787.4 617.415 793.8 611.814 797.527 607.095C797.149 600.163 796.856 582.848 802.87 578.06C817.502 566.414 834.966 557.439 851.232 548.207C877.309 533.407 903.416 519.169 928.864 503.284Z"/><path fill="#BCBFFD" d="M956.927 527.338C960.616 528.321 964.243 533.145 968.812 535.388C966.436 540.141 958.807 543.309 954.054 546.012L931.196 558.964L858.034 600.129L807.884 628.673C801.326 632.439 787.563 640.939 781.293 643.501C781.326 635.359 781.405 627.218 781.531 619.077C787.4 617.415 793.8 611.814 797.527 607.095C798.149 608.707 798.864 610.658 800.095 611.917C800.908 612.747 801.913 613.395 803.126 613.268C809.097 612.64 898.469 560.977 913.723 552.443C925.312 545.959 937.207 540.013 948.605 533.186C951.416 531.503 954.731 529.785 956.927 527.338Z"/><path fill="#D2D6FD" d="M950.182 496.404L951.12 496.719C953.264 501.762 952.574 519.53 952.524 526.115C926.692 540.995 900.66 554.231 874.845 568.755C850.854 582.252 828.766 595.628 804.244 608.557C803.675 608.441 803.527 608.281 802.993 607.986C799.495 601.483 801.966 583.578 808.456 578.912C822.81 568.593 838.866 560.999 854.177 552.185L950.182 496.404Z"/><path d="M854.359 557.295C866.593 559.447 857.099 569.828 853.025 574.672C840.474 573.869 850.869 561.62 854.359 557.295Z"/><path d="M882.541 542.349C885.48 543.355 887.581 546.247 886.859 549.461C885.709 554.582 882.777 556.675 878.725 559.43C869.097 554.007 877.251 546.888 882.541 542.349Z"/><path d="M826.575 572.983C837.985 576.091 831.187 583.731 826.727 589.744C815.357 586.864 822.231 578.708 826.575 572.983Z"/><path d="M928.539 515.755C939.383 518.389 935.146 524.65 930.538 531.003C919.896 528.898 924.9 521.935 928.539 515.755Z"/><path d="M904.752 528.962C914.708 532.509 911.268 537.52 906.545 543.961C895.573 542.091 900.841 535.271 904.752 528.962Z"/><path d="M797.533 546.876C796.861 531.839 794.995 517.765 809.52 508.625C818.484 502.985 827.432 497.845 836.632 492.602L882.479 466.514L924.788 442.445C932.619 437.996 946.191 429.956 954.377 426.941C956.021 434.963 956.015 441.186 955.913 449.36C955.87 452.796 955.692 458.493 956.232 461.724C955.894 470.655 946.437 469.526 941.336 474.453C938.338 476.268 932.347 479.165 929.005 480.95L899.586 496.667C866.914 514.154 835.231 531.1 803.659 550.524L797.533 546.876Z"/><path fill="#F0EFF2" d="M950.393 433.475C953.166 436.987 952.082 457.71 951.967 463.54C901.517 490.984 853.226 516.506 803.278 545.478C799.636 538.61 801.525 521.1 807.661 515.968C820.435 505.284 836.658 497.931 851.208 489.57C884.109 470.589 917.172 451.89 950.393 433.475Z"/><path d="M882.673 478.383C883.369 478.621 885.665 479.976 886.232 480.454C887.226 481.293 887.786 482.538 887.755 483.838C887.682 488.129 882.639 492.765 879.831 495.646C878.941 495.808 876.674 494.04 876.045 493.45C870.92 488.645 879.375 481.425 882.673 478.383Z"/><path d="M826.071 509.327C838.281 509.834 829.956 520.901 826.634 525.701C814.897 524.059 821.905 514.81 826.071 509.327Z"/><path d="M854.378 493.378C864.239 499.5 858.989 503.958 852.821 510.659L852.397 510.733C841.87 506.772 850.249 498.369 854.378 493.378Z"/><path d="M929.266 452.278C939.464 454.686 933.642 463.453 929.722 468.569C929.4 468.408 929.08 468.242 928.763 468.072C920.027 463.338 924.846 458.104 929.266 452.278Z"/><path d="M904.377 465.846C914.746 468.35 910.925 474.087 906.822 480.528C895.605 480.707 900.854 471.351 904.377 465.846Z"/><path d="M953.997 298.84C957.134 312.015 955.781 326.67 955.407 340.22C922.043 355.954 885.724 377 852.962 394.969L824.677 410.495C818.984 413.622 808.86 418.988 803.97 422.966C800.576 421.956 800.141 421.693 797.151 419.946C797.686 412.324 797.497 402.942 797.513 395.212C805.593 381.296 813.624 378.363 827.162 370.769L856.582 354.263C889.217 336.077 921.69 317.602 953.997 298.84Z"/><path fill="#F0EFF2" d="M950.567 306.028C952.836 308.83 952.035 331.264 951.989 336.427L803.202 417.665C799.926 414.964 801.303 402.107 802.075 398.164C804.357 386.502 818.8 380.853 828.41 375.545C836.535 371.051 844.634 366.51 852.708 361.923L950.567 306.028Z"/><path d="M827.399 380.807C838.379 384.562 830.619 392.473 825.947 397.577C814.272 397.049 824.131 384.718 827.399 380.807Z"/><path d="M880.417 351.846C891.779 354.069 885.112 362.063 881.002 367.435C868.667 367.999 877.062 356.618 880.417 351.846Z"/><path d="M853.688 366.279C863.826 371.385 859.009 376.112 853.4 382.666C842.483 379.398 849.247 372.224 853.688 366.279Z"/><path d="M904.689 338.858C915.971 340.599 909.172 349.24 904.902 354.172C903.336 354.697 902.154 354.813 900.588 354.376C896.552 350.316 901.949 342.501 904.689 338.858Z"/><path d="M929.303 325.766C940.009 328.837 934.438 335.94 929.915 341.297C927.723 341.714 924.498 340.212 924.29 337.561C923.894 332.506 926.377 329.435 929.303 325.766Z"/><path d="M797.098 228.613C798.514 212.686 793.474 200.395 809.916 191.016C818.854 185.918 827.886 180.944 836.939 176.02L882.494 150.967C899.617 141.41 916.82 131.998 934.102 122.73C937.698 120.804 951.148 113.343 954.223 112.341C955.613 118.506 955.751 120.706 955.813 126.918C955.876 133.181 954.347 145.578 956.145 151.2L802.856 232.746L797.098 228.613Z"/><path fill="#F0EFF2" d="M949.998 118.902L950.718 119.353C952.443 122.815 951.934 143.38 951.901 148.097L803.013 227.515C797.962 222.553 802.635 201.181 809.104 196.94C815.348 192.846 820.739 189.915 827.313 186.416C835.353 182.137 843.364 177.805 851.346 173.419L949.998 118.902Z"/><path d="M826.306 191.275C837.854 193.443 831.216 201.462 827.093 207.406C816.07 203.3 820.786 198.174 826.306 191.275Z"/><path d="M904.486 149.222C916.004 150.086 909.294 159.863 905.405 164.861C903.875 165.626 902.488 165.668 900.862 165.117C896.753 161.173 901.78 152.758 904.486 149.222Z"/><path d="M853.253 176.804C864.999 178.938 858.65 187.196 854.045 192.627C842.279 192.594 850.063 181.483 853.253 176.804Z"/><path d="M928.446 137.16C940.101 138.747 934.676 146.536 930.375 152.664C918.743 152.062 925.041 142.738 928.446 137.16Z"/><path d="M880.354 162.057C890.264 166.465 884.859 172.63 880.061 178.857C868.687 177.055 876.602 167.409 880.354 162.057Z"/><path d="M953.527 173.922C956.379 182.354 955.802 204.644 955.358 214.229L868.499 260.126C846.041 272.2 824.787 283.511 802.923 296.733L797.495 292.631L797.505 268.232C806.26 254.065 812.96 251.997 827.232 244.223C836.543 239.165 845.821 234.045 855.064 228.864C886.966 210.862 921.035 190.639 953.527 173.922Z"/><path fill="#F0EFF2" d="M950.374 180.456C952.542 183.209 951.571 205.718 951.507 210.744C922.819 225.701 894.291 240.963 865.928 256.528C844.626 268.252 824.48 280.123 802.723 291.089C798.654 285.409 802.459 265.615 808.223 261.066C815.387 255.413 822.237 252.007 830.174 247.68C837.913 243.439 845.63 239.158 853.325 234.837L950.374 180.456Z"/><path d="M827.141 254.857C837.949 258.725 830.467 266.451 825.533 271.533C815.865 266.371 821.666 260.277 827.141 254.857Z"/><path d="M853.871 239.928C864.41 242.745 858.408 250.654 854.082 256.078C843.072 252.742 848.696 245.583 853.871 239.928Z"/><path d="M879.941 226.033C890.935 229.188 885.063 236.26 880.416 241.818C868.584 240.988 876.152 231.441 879.941 226.033Z"/><path d="M928.691 198.714C939.032 202.887 934.998 208.231 930.481 215.017C930.321 214.975 930.161 214.933 930.001 214.891L929.205 214.668C919.115 211.897 925.045 204.396 928.691 198.714Z"/><path d="M904.769 211.891C915.582 214.496 909.106 222.644 904.826 227.827C893.707 226.805 901.251 216.658 904.769 211.891Z"/><path fill="#FEFEFE" d="M955.786 88.0272C960.121 85.5053 964.108 83.462 968.861 81.7789C970.125 116.843 969.549 151.644 969.487 186.691L969.012 365.538L969.041 472.599C969.168 491.34 970.576 517.145 968.812 535.388C964.243 533.145 960.616 528.321 956.927 527.338C955.043 519.774 956.194 500.971 956.708 492.885C957.51 488.636 959.251 482.669 960.367 478.357C957.922 471.905 956.903 468.571 956.232 461.724C955.692 458.493 955.87 452.796 955.913 449.36C956.015 441.186 956.021 434.963 954.377 426.941C955.216 419.242 955.583 411.498 955.475 403.753C955.567 391.09 956.384 374.763 954.123 362.715C954.677 355.439 955.263 347.454 955.407 340.22C955.781 326.67 957.134 312.015 953.997 298.84L955.362 277.451C955.957 265.789 955.707 248.878 953.94 237.399C954.769 231.279 955.39 220.397 955.358 214.229C955.802 204.644 956.379 182.354 953.527 173.922C952.846 167.067 957.438 162.59 956.145 151.2C954.347 145.578 955.876 133.181 955.813 126.918C955.751 120.706 955.613 118.506 954.223 112.341C955.703 105.351 957.811 94.9936 955.786 88.0272Z"/><path d="M954.123 362.715C956.384 374.763 955.567 391.09 955.475 403.753C938.121 410.45 917.608 422.704 900.925 431.847L803.422 486.519L797.629 483.097C793.096 451.912 804.422 447.205 828.889 433.561L859.372 416.526C891.38 398.345 921.527 380.094 954.123 362.715Z"/><path fill="#F0EFF2" d="M950.239 369.917L950.758 370.038C952.728 372.265 951.966 394.752 951.902 399.481C929.914 411.596 907.643 422.989 885.765 435.323C858.46 450.717 831.108 465.95 803.386 480.586L802.691 480.181C801.259 475.18 801.061 465.787 802.547 460.681C805.949 448.985 821.919 442.503 831.989 436.94L860.007 421.269C890.342 404.12 919.498 386.686 950.239 369.917Z"/><path d="M826.877 444.811C838 447.827 830.861 455.945 826.407 461.184C823.786 462.328 819.909 460.408 820.228 457.247C820.701 452.559 824.068 448.392 826.877 444.811Z"/><path d="M880.245 414.904C891.694 418.038 885.619 424.975 880.856 431.193C869.024 430.501 876.606 419.768 880.245 414.904Z"/><path d="M853.645 429.964C864.594 433.693 858.374 440.074 853.645 446.242C842.325 443.446 849.4 435.493 853.645 429.964Z"/><path d="M905.537 401.308C916.215 403.41 908.205 413.123 904.76 417.656C895.303 412.547 899.729 407.425 905.537 401.308Z"/><path d="M929.286 388.235C940.19 390.623 933.658 399.096 929.433 404.199C919.717 399.747 924.556 394.49 929.286 388.235Z"/><path d="M953.94 237.399C955.707 248.878 955.957 265.789 955.362 277.451C922.597 293.392 893.268 309.206 861.346 326.566C848.139 333.694 835.039 341.019 822.051 348.539C816.478 351.759 808.538 356.125 803.338 359.63L797.259 355.425C797.936 350.577 797.558 336.72 797.512 331.103C799.686 327.634 802.919 322.267 806.238 319.982C814.024 314.62 822.861 309.994 831.134 305.451L870.272 283.841C884.608 275.766 898.898 267.609 913.141 259.373C927.804 250.887 938.507 244.294 953.94 237.399Z"/><path fill="#F0EFF2" d="M950.436 243.972C952.897 246.571 951.984 268.753 951.908 273.951L849.583 328.148C833.982 336.564 819.007 345.912 803.179 354.195C799.856 349.643 801.699 338.206 802.873 332.944C805.334 321.913 820.287 316.268 829.665 311.291C838.018 306.847 846.333 302.334 854.609 297.751L950.436 243.972Z"/><path d="M826.865 317.864C837.782 321.325 831.615 328.344 826.431 333.83C814.13 334.726 823.035 322.088 826.865 317.864Z"/><path d="M854.374 303.343C866.242 304.781 857.162 314.886 853.269 319.169C853.159 319.216 853.049 319.263 852.939 319.31C840.429 318.714 852.607 305.405 854.374 303.343Z"/><path d="M881.558 288.382C893 289.977 883.028 300.623 879.576 304.618C877.157 304.434 874.042 302.954 874.084 300.135C874.156 295.3 878.398 291.53 881.558 288.382Z"/><path d="M929.206 262.267C940.453 264.544 933.911 272.854 930.002 278.65C919.143 277.252 925.593 267.371 929.206 262.267Z"/><path d="M905.372 275.866C916.332 277.449 908.363 286.797 904.589 291.206C903.063 291.654 902.135 291.298 900.692 290.872C896.687 286.595 902.147 279.124 905.372 275.866Z"/><path fill="#BCBFFD" d="M956.232 461.724C956.903 468.571 957.922 471.905 960.367 478.357C959.251 482.669 957.51 488.636 956.708 492.885C953.24 487.227 933.651 500.888 928.864 503.284C931.776 493.064 946.322 488.627 941.336 474.453C946.437 469.526 955.894 470.655 956.232 461.724Z"/><path fill="#FEFEFE" d="M797.495 292.631L802.923 296.733C802.031 299.838 800.271 303.519 797.029 304.726C795.309 305.364 793.399 305.248 791.769 304.405C788.941 302.949 787.377 299.409 789.304 296.595C791.135 293.921 794.546 293.249 797.495 292.631Z"/><path fill="#FEFEFE" d="M797.151 419.946C800.141 421.693 800.576 421.956 803.97 422.966L804.002 423.611C804.196 428.377 801.596 433.181 797.025 432.208C785.999 429.861 792.949 423.056 797.151 419.946Z"/><path fill="#FEFEFE" d="M797.629 483.097L803.422 486.519C807.003 498.31 789.828 496.393 791.014 488.437C791.355 486.155 795.59 484.142 797.629 483.097Z"/><path fill="#FEFEFE" d="M797.259 355.425L803.338 359.63C798.373 377.533 783.367 363.613 797.259 355.425Z"/><path fill="#BCBFFD" d="M819.92 5.43418C837.525 13.2771 858.336 24.6617 875.542 33.645L963.101 79.3897C944.142 88.4108 926.724 98.4174 908.323 108.428L829.345 150.778C812.207 159.985 795.202 169.762 777.716 178.282C771.54 177.822 731.006 155.543 721.907 150.842C692.988 135.934 663.967 121.224 634.845 106.714C696.768 73.3779 758.461 39.6171 819.92 5.43418Z"/><path fill="#FEBE53" d="M113.607 726.738L298.509 727.048C298.652 740.93 296.331 763.264 295.732 777.397C295.403 785.169 292.516 844.917 290.851 847.397C229.544 848.089 166.944 847.424 105.505 847.4C105.328 834.346 107.048 817.053 107.983 803.679L113.607 726.738Z"/><path fill="#FEBE53" d="M423.576 726.153L607.971 726.154C606.303 739.955 605.456 755.017 604.436 768.949C602.426 794.976 600.781 821.031 599.502 847.105L415.467 847.224C415.429 833.926 417.187 817 418.229 803.438C420.306 777.698 422.088 751.934 423.576 726.153Z"/><path fill="#FEBE53" d="M728.515 726.504C790.01 726.907 851.507 726.94 913.002 726.604C909.197 763.943 907.624 809.187 905.919 847.001L720.933 846.994C723.763 806.85 726.29 766.686 728.515 726.504Z"/><path fill="#D2D6FD" d="M783.363 861.748L911.082 861.509L916.072 866.407C910.032 874.514 860.452 946.848 852.601 948.356C839.554 950.862 796.255 949.56 779.75 949.496L699.749 949.493C681.987 949.524 662.179 950.654 644.826 947.908L682.656 894.709C690.442 883.631 697.592 872.802 705.749 861.885L783.363 861.748Z"/><path fill="#9290DC" d="M738.714 920.474C748.963 921.273 759.765 921.04 770.088 921.041L814.404 921.038C811.776 924.902 807.776 931.083 804.413 933.991L728.233 934.495C731.492 929.21 734.793 925.198 738.714 920.474Z"/><path fill="#494994" d="M710.807 888.572C715.258 888.371 719.283 888.728 723.276 888.596L721.84 889.346C721.765 890.806 722.191 890.741 723.426 892.261C723.165 894.638 722.638 895.204 721.413 897.354L721.755 897.934C721.119 900.482 721.104 900.403 723.157 902.374L723.062 903.053C721.756 903.474 719.941 903.962 718.815 904.614C716.316 906.235 715.036 907.692 712.956 909.786L712.643 909.655C703.448 921.15 677.542 919.842 696.02 904.32L696.601 901.002L698.368 898.19L700.494 896.407C703.175 891.302 705.894 889.99 711.548 890.141C712.812 889.924 714.009 889.59 715.253 889.277C714.733 888.784 711.784 888.67 710.807 888.572Z"/><path d="M696.02 904.32C700.322 904.117 710.199 902.669 713.148 903.793C715.031 906.036 713.779 907.157 712.643 909.655C703.448 921.15 677.542 919.842 696.02 904.32Z"/><path fill="#494994" d="M706.319 905.7C707.272 905.505 711.628 905.277 712.844 905.187C711.177 908.969 710.195 910.457 707.615 913.478L697.274 913.501C695.051 913.55 692.257 914.241 691.674 911.824C692.694 909.717 694.641 908.247 696.413 906.624C699.549 906.456 703.153 906.016 706.319 905.7Z"/><path fill="#BCBFFD" d="M721.413 897.354L721.755 897.934C721.119 900.482 721.104 900.403 723.157 902.374L723.062 903.053C721.756 903.474 719.941 903.962 718.815 904.614C716.316 906.235 715.036 907.692 712.956 909.786L712.643 909.655C713.779 907.157 715.031 906.036 713.148 903.793C710.199 902.669 700.322 904.117 696.02 904.32L696.601 901.002C700.622 902.434 713.04 902.525 717.384 901.866C718.775 900.445 720.104 898.859 721.413 897.354Z"/><path d="M698.368 898.19C699.31 898.395 700.257 898.581 701.206 898.749C705.457 899.493 716.075 901.143 719.343 897.42C720.886 895.662 720.992 893.697 723.426 892.261C723.165 894.638 722.638 895.204 721.413 897.354C720.104 898.859 718.775 900.445 717.384 901.866C713.04 902.525 700.622 902.434 696.601 901.002L698.368 898.19Z"/><path fill="#9290DC" d="M700.494 896.407C703.175 891.302 705.894 889.99 711.548 890.141C707.311 891.879 705.628 894.75 700.494 896.407Z"/><path d="M816.444 876.526C822.647 876.443 828.603 876.362 834.808 876.535L837.877 880.422L841.172 877.219C847.005 876.155 857.752 876.233 863.832 876.97C860.637 882.623 859.743 884.3 854.729 888.436C846.365 888.996 842.284 889.278 833.848 888.306L836.093 882.439C833.757 884.564 830.701 887.993 827.674 888.195C827.082 889.174 827.01 888.897 826.997 889.792C822.423 889.864 817.25 889.578 812.633 889.425L813.075 888.532C809.03 884.097 813.39 880.28 816.444 876.526Z"/><path fill="#BCBFFD" d="M813.075 888.532C817.916 888.466 822.846 888.459 827.674 888.195C827.082 889.174 827.01 888.897 826.997 889.792C822.423 889.864 817.25 889.578 812.633 889.425L813.075 888.532Z"/><path fill="#494994" d="M842.956 878.606C848.671 878.396 855.29 878.524 861.074 878.508C858.955 882.481 858.071 884.255 853.889 885.865C847.16 886.729 842.573 886.517 835.823 885.863C838.193 882.148 839.276 881.005 842.956 878.606Z"/><path fill="#494994" d="M826.301 878.208C829.19 877.991 832.261 877.467 833.881 880.258C832.673 885.073 827.241 885.423 823.125 885.485L812.461 885.478C814.056 883.138 815.791 880.828 817.465 878.539C820.362 878.481 823.393 878.319 826.301 878.208Z"/><path d="M761.817 877.926C768.563 875.615 780.446 875.555 787.244 877.127L789.101 877.834C787.195 880.305 784.245 885.079 782.564 886.877L780.519 886.803C774.249 888.437 761.167 890.455 755.899 885.939L755.287 884.092C756.831 881.806 758.52 879.586 759.518 877.041L761.817 877.926Z"/><path fill="#BCBFFD" d="M787.244 877.127L789.101 877.834C787.195 880.305 784.245 885.079 782.564 886.877L780.519 886.803C782.732 883.558 784.974 880.332 787.244 877.127Z"/><path fill="#BCBFFD" d="M759.518 877.041L761.817 877.926C759.514 880.798 757.872 882.847 755.899 885.939L755.287 884.092C756.831 881.806 758.52 879.586 759.518 877.041Z"/><path fill="#494994" d="M772.582 878.25C776.695 877.979 781.375 878.027 785.538 877.976C785.226 878.376 784.91 878.772 784.589 879.164C780.189 884.524 777.363 885.611 770.866 886.234L758.04 885.547L764.077 878.493L772.582 878.25Z"/><path fill="#494994" d="M752.927 891.675C757.388 889.149 769.806 890.07 774.983 890.327C776.613 896.739 769.351 901.151 764.085 902.578L764.019 904.133C759.234 903.631 754.77 904.171 749.959 903.51L749.636 902.502C745.008 897.435 748.303 894.511 752.927 891.675Z"/><path d="M767.21 899.474C770.767 896.578 772.339 894.048 774.983 890.327C776.613 896.739 769.351 901.151 764.085 902.578L764.019 904.133C759.234 903.631 754.77 904.171 749.959 903.51L749.636 902.502C745.008 897.435 748.303 894.511 752.927 891.675C752.559 894.179 749.39 897.427 747.657 899.486L767.21 899.474Z"/><path fill="#9290DC" d="M749.636 902.502C754.438 902.419 759.299 902.245 764.085 902.578L764.019 904.133C759.234 903.631 754.77 904.171 749.959 903.51L749.636 902.502Z"/><path fill="#494994" d="M796.253 903.554C802.386 902.86 809.196 902.246 814.948 904.772L816.225 905.675C817.031 910.344 813.988 912.679 810.968 915.776C804.174 916.324 794.063 915.991 787.005 915.922C790.241 911.947 793.237 907.706 796.253 903.554Z"/><path d="M796.253 903.554C802.386 902.86 809.196 902.246 814.948 904.772C811.763 906.016 801.935 905.566 797.968 905.509C795.091 908.466 793.223 910.565 790.634 913.771C796.931 913.646 803.23 913.716 809.523 913.978C813.159 910.238 813.249 909.514 816.225 905.675C817.031 910.344 813.988 912.679 810.968 915.776C804.174 916.324 794.063 915.991 787.005 915.922C790.241 911.947 793.237 907.706 796.253 903.554Z"/><path d="M856.1 892.747L857.038 892.492C862.526 891.008 870.427 888.839 875.572 891.802C877.377 896.092 873.137 900.307 870.368 903.481C863.342 903.69 855.32 904.554 848.944 901.543L847.906 900.495C849.903 897.62 852.007 894.742 854.049 891.892L856.1 892.747Z"/><path fill="#494994" d="M852.177 900.396C852.308 899.339 854.251 897.035 854.989 896.224C859.285 891.502 869.315 892.017 875.572 891.802C873.657 894.704 871.695 897.576 869.687 900.415C863.019 900.782 858.781 900.712 852.177 900.396Z"/><path fill="#BCBFFD" d="M854.049 891.892L856.1 892.747C853.806 895.552 851.108 898.689 848.944 901.543L847.906 900.495C849.903 897.62 852.007 894.742 854.049 891.892Z"/><path fill="#494994" d="M770.193 903.518C775.834 903.346 783.106 902.824 788.431 904.326L790.116 905.406L790.214 906.132C788.989 910.328 787.511 912.736 784.377 915.877C778.807 916.541 770.191 917.259 765.002 914.672L763.767 913.628C764.211 908.072 766.106 906.895 770.193 903.518Z"/><path d="M783.804 913.863C785.2 911.933 788.396 907.025 790.214 906.132C788.989 910.328 787.511 912.736 784.377 915.877C778.807 916.541 770.191 917.259 765.002 914.672C767.383 913.472 780.107 913.844 783.804 913.863Z"/><path d="M770.193 903.518C775.834 903.346 783.106 902.824 788.431 904.326C785.837 905.776 774.885 905.328 771.317 905.135C769.441 907.275 765.721 911.785 763.767 913.628C764.211 908.072 766.106 906.895 770.193 903.518Z"/><path fill="#494994" d="M744.952 904.233C747.179 903.277 747.452 903.401 749.959 903.51C754.77 904.171 759.234 903.631 764.019 904.133L764.027 904.397C764.146 909.671 761.708 912.38 758.518 916.302C755.689 916.512 752.84 916.768 750.008 916.801C738.471 916.937 733.01 911.956 744.952 904.233Z"/><path d="M758.298 913.48C759.467 911.427 762.514 905.66 764.027 904.397C764.146 909.671 761.708 912.38 758.518 916.302C755.689 916.512 752.84 916.768 750.008 916.801C738.471 916.937 733.01 911.956 744.952 904.233C744.478 906.765 740.29 911.422 738.532 913.514L758.298 913.48Z"/><path fill="#494994" d="M723.062 903.053C726.841 903.936 733.972 902.948 738.379 903.021L738.753 905.502C737.673 909.912 736.422 911.688 733.78 915.242C728.896 916.153 710.632 919.394 712.956 909.786C715.036 907.692 716.316 906.235 718.815 904.614C719.941 903.962 721.756 903.474 723.062 903.053Z"/><path d="M718.815 904.614C717.699 907.653 715.554 910.866 713.66 913.486L732.538 913.494C734.455 910.027 735.4 907.689 738.753 905.502C737.673 909.912 736.422 911.688 733.78 915.242C728.896 916.153 710.632 919.394 712.956 909.786C715.036 907.692 716.316 906.235 718.815 904.614Z"/><path fill="#494994" d="M727.267 892.262C727.776 891.937 728.319 891.666 728.885 891.455C731.957 890.282 744.3 889.721 746.964 890.92C747.541 896.333 746.457 899.912 741.17 902.079C740.414 902.283 738.77 902.567 738.379 903.021C733.972 902.948 726.841 903.936 723.062 903.053L723.157 902.374C721.104 900.403 721.119 900.482 721.755 897.934C723.598 895.649 724.792 893.836 727.267 892.262Z"/><path d="M722.994 898.748C728.114 899.51 735.209 900.716 740.15 898.847C744.49 897.205 745.332 894.765 746.964 890.92C747.541 896.333 746.457 899.912 741.17 902.079C740.414 902.283 738.77 902.567 738.379 903.021C733.972 902.948 726.841 903.936 723.062 903.053L723.157 902.374C721.104 900.403 721.119 900.482 721.755 897.934C723.598 895.649 724.792 893.836 727.267 892.262C726.8 894.17 724.296 897.044 722.994 898.748Z"/><path fill="#9290DC" d="M723.157 902.374C729.194 902.193 735.127 901.973 741.17 902.079C740.414 902.283 738.77 902.567 738.379 903.021C733.972 902.948 726.841 903.936 723.062 903.053L723.157 902.374Z"/><path d="M872.817 876.214C884.343 874.894 891.802 879.793 880.028 888.958L872.375 889.047L858.899 888.882C861.068 884.278 864.109 880.579 867.211 876.593L872.817 876.214Z"/><path fill="#494994" d="M867.995 878.493L885.702 878.554C883.439 881.951 882.491 883.245 879.74 886.235C873.46 886.292 868.091 886.286 861.818 885.954C863.896 883.212 865.724 881.079 867.995 878.493Z"/><path fill="#494994" d="M737.919 876.501C744.575 876.395 753.075 876.122 759.518 877.041C758.52 879.586 756.831 881.806 755.287 884.092L751.799 888.47C745.747 888.707 736.463 890.169 731.933 886.263L732.24 884.546C733.38 881.029 735.435 879.136 737.919 876.501Z"/><path d="M737.919 876.501C744.575 876.395 753.075 876.122 759.518 877.041C758.52 879.586 756.831 881.806 755.287 884.092L751.799 888.47C745.747 888.707 736.463 890.169 731.933 886.263C736.16 885.726 746.023 885.947 750.698 885.947C753.962 883.079 754.945 881.517 757.538 877.989C751.446 877.953 745.354 878.064 739.267 878.322C737.239 880.401 735.231 882.5 733.243 884.616L732.24 884.546C733.38 881.029 735.435 879.136 737.919 876.501Z"/><path d="M831.223 890.539C839.639 890.056 845.882 889.418 854.049 891.892C852.007 894.742 849.903 897.62 847.906 900.495C846.797 900.943 845.666 901.334 844.517 901.667C834.129 904.643 821.499 904.299 831.223 890.539Z"/><path fill="#494994" d="M836.32 891.705C841.403 891.631 846.119 891.5 851.205 891.89C849.127 896.111 848.171 898.859 843.234 899.968C838.386 900.023 832.474 899.636 827.558 899.448C830.007 894.222 830.237 892.365 836.32 891.705Z"/><path d="M812.633 889.425C817.25 889.578 822.423 889.864 826.997 889.792C827.144 890.066 827.242 890.646 827.32 890.982C821.183 905.352 812.423 901.622 798.687 901.501C802.167 893.673 803.78 890.778 812.633 889.425Z"/><path fill="#494994" d="M822.367 890.698C824.004 890.2 823.26 890.104 824.689 890.536L824.88 891.249C824.002 894.575 821.887 896.65 819.478 898.946L806.125 899.288C804.218 899.22 803.76 899.255 803.168 897.561C803.773 894.874 805.796 893.248 807.824 891.497C813.533 891.613 816.723 891.437 822.367 890.698Z"/><path d="M781.316 890.05C788.735 889.917 796.157 889.902 803.577 890.005C800.605 894.166 798.1 897.66 794.802 901.601L772.202 901.505C775.216 897.442 778.098 893.924 781.316 890.05Z"/><path fill="#494994" d="M799.562 891.254L800.185 891.744C799.157 894.387 796.264 896.9 794.148 898.79C787.914 899.785 785.399 899.663 779.035 899.028L777.738 898.714L777.675 897.672C779.015 895.06 780.536 893.669 782.524 891.528C788.149 891.547 793.927 891.364 799.562 891.254Z"/><path d="M823.224 903.775C827.556 903.559 835.506 903.1 839.494 904.695C844.142 906.554 838.947 914.82 835.381 915.807C810.787 920.187 817.392 905.282 823.224 903.775Z"/><path fill="#494994" d="M838.268 905.297L839.229 905.042L839.818 905.647C839.734 908.899 837.673 911.305 835.778 913.857C831.012 913.989 825.877 913.899 821.081 913.904C819.837 913.518 819.935 913.516 819.15 912.456C818.977 909.717 821.339 907.553 823.119 905.506C828.276 905.523 833.1 905.523 838.268 905.297Z"/><path d="M789.101 877.834C797.677 875.406 804.744 876.106 813.542 876.539C810.415 881.094 808.468 883.829 804.271 887.426C796.905 887.875 789.876 888.413 782.564 886.877C784.245 885.079 787.195 880.305 789.101 877.834Z"/><path fill="#494994" d="M802.807 878.221L811.099 877.975C808.465 881.021 806.835 882.752 803.894 885.491L796.125 885.492L786.209 885.501L791.148 878.462C795 878.441 798.947 878.307 802.807 878.221Z"/><path d="M855.243 905.197C866.626 904.451 870.876 905.842 862.204 916.304L854.116 917.378C851.236 917.592 847.824 918.05 845.086 916.687C841.994 915.147 841.722 912.02 843.898 909.455C846.878 905.945 850.921 905.587 855.243 905.197Z"/><path fill="#494994" d="M852.052 906.646L865.711 906.499C863.881 909.801 862.436 912.925 858.995 914.504C854.847 914.693 848.119 915.463 844.805 913.2C842.886 908.787 848.978 907.452 852.052 906.646Z"/><path d="M710.807 888.572C708.756 888.14 709.565 888.619 708.176 887.307C707.808 884.392 709.597 882.47 711.76 880.707C718.279 875.391 726.758 875.312 734.311 877.97C731.613 883.634 730.223 888.427 723.276 888.596C719.283 888.728 715.258 888.371 710.807 888.572Z"/><path fill="#494994" d="M725.374 877.702C727.647 877.504 728.905 877.086 730.305 879.095C730.55 882.13 728.989 883.669 727.146 885.978L720.25 885.992L713.592 885.961C714.405 883.549 715.368 881.401 716.372 879.071C718.741 878.521 722.824 878.058 725.374 877.702Z"/><path fill="#D2D6FD" d="M111.103 861.72C129.468 860.841 151.878 862.349 170.599 862.417L303.181 862.518C294.243 876.431 282.551 890.815 272.457 904.12C263.304 916.185 248.089 939.973 236.178 948.777L235.352 948.891C230.66 949.564 227.1 949.574 222.375 949.674C212.209 950.144 197.917 949.572 187.276 949.555L113.103 949.491L65.2593 949.533C56.3988 949.545 47.1197 949.745 38.2865 949.04C35.2858 948.8 33.6871 947.196 31.3791 945.307C38.5633 933.027 49.157 921.246 57.526 909.764C69.189 893.762 80.1356 878.043 92.54 862.574L111.103 861.72Z"/><path fill="#9290DC" d="M121.835 923.095C143.995 922.705 166.161 922.854 188.313 923.542C185.797 927.478 181.007 934.402 177.38 937.097C172.148 937.753 161.403 937.758 155.713 937.799C140.864 937.8 126.016 937.695 111.169 937.485C114.623 932.533 118.178 927.896 121.835 923.095Z"/><path d="M167.336 889.461C172.274 888.955 183.105 887.243 185.003 893.349C184.747 898.125 179.35 900.799 175.427 902.487C175.199 903.021 174.471 904.603 174.397 905.071C172.277 910.487 170.388 912.791 166.771 917.395C160.872 917.972 153.612 919.088 148.677 915.293L148.244 914.934C147.718 910.098 152.45 907.261 155.866 904.737L158.044 901.352C160.847 897.139 163.642 892.965 167.336 889.461Z"/><path d="M167.336 889.461C172.274 888.955 183.105 887.243 185.003 893.349C184.747 898.125 179.35 900.799 175.427 902.487C169.917 902.545 163.164 903.092 158.044 901.352C160.847 897.139 163.642 892.965 167.336 889.461Z"/><path fill="#494994" d="M167.724 891.519L184.961 891.543C182.649 894.362 180.562 897.132 177.766 899.472C172.045 899.46 166.371 899.702 160.656 899.909C163.275 896.409 164.673 894.594 167.724 891.519Z"/><path fill="#494994" d="M156.245 906.512C161.295 906.485 166.499 906.517 171.535 906.416C169.17 909.92 167.689 912.112 164.924 915.258C161.916 915.233 150.853 914.855 148.677 915.293L148.244 914.934C151.25 911.928 152.945 909.232 156.245 906.512Z"/><path fill="#BCBFFD" d="M155.866 904.737L158.044 901.352C163.164 903.092 169.917 902.545 175.427 902.487C175.199 903.021 174.471 904.603 174.397 905.071C168.596 904.369 161.746 904.566 155.866 904.737Z"/><path fill="#494994" d="M107.974 904.682C113.04 904.024 118.988 904.014 124.114 903.94C124.953 905.263 125.531 905.592 125.108 907.234C124.185 910.817 119.826 914.896 117.305 917.441C113.252 917.724 98.6893 919.519 97.9289 914.396L96.9041 912.682C97.9364 911.192 99.0483 909.325 100.035 907.767L101.483 908.637C103.9 906.653 105.077 905.771 107.974 904.682Z"/><path d="M124.114 903.94C124.953 905.263 125.531 905.592 125.108 907.234C124.185 910.817 119.826 914.896 117.305 917.441C113.252 917.724 98.6893 919.519 97.9289 914.396L96.9041 912.682C97.9364 911.192 99.0483 909.325 100.035 907.767L101.483 908.637C103.9 906.653 105.077 905.771 107.974 904.682C107.222 905.925 100.981 913.162 99.5387 914.958L115.75 914.984C120.34 910.901 121.855 909.425 124.114 903.94Z"/><path fill="#BCBFFD" d="M100.035 907.767L101.483 908.637C99.8911 910.817 99.0277 911.87 97.9289 914.396L96.9041 912.682C97.9364 911.192 99.0483 909.325 100.035 907.767Z"/><path fill="#494994" d="M95.4476 889.384C98.7351 889.464 110.323 889.064 112.251 890.417L112.24 890.875C111.384 895.961 108.005 899.538 103.995 902.54C100.339 902.914 82.2732 905.075 86.736 895.284C87.5058 893.595 93.4351 890.019 95.4476 889.384Z"/><path d="M103.995 902.54C100.339 902.914 82.2732 905.075 86.736 895.284C87.5058 893.595 93.4351 890.019 95.4476 889.384C95.2131 891.404 88.7163 897.123 86.5745 899.969C92.0354 899.994 97.4964 899.984 102.957 899.939C104.662 898.639 109.814 893.219 111.223 890.726C111.363 890.478 112.227 890.869 112.24 890.875C111.384 895.961 108.005 899.538 103.995 902.54Z"/><path d="M246.521 889.633C269.31 887.323 260.449 900.831 248.125 902.501C242.836 902.326 237.032 902.402 231.698 902.378C234.879 897 236.788 895.047 241.357 890.704L246.521 889.633Z"/><path fill="#494994" d="M243.333 891.531L260.233 891.38C257.311 894.911 255.683 896.819 252.221 899.771C248.527 900.139 239.398 899.619 235.254 899.471C238.097 896.227 240.087 894.427 243.333 891.531Z"/><path fill="#494994" d="M172.298 914.086C175.54 902.442 190.791 903.878 200.42 904.979C194.026 915.576 186.672 923.045 173.495 915.736L172.298 914.086Z"/><path d="M172.298 914.086C175.54 902.442 190.791 903.878 200.42 904.979C194.026 915.576 186.672 923.045 173.495 915.736C176.646 914.712 186.669 914.53 190.458 914.356C193.557 911.701 194.692 909.844 196.824 906.493C190.774 906.514 186.15 906.769 180.143 907.245C177.411 909.183 175.402 911.828 172.298 914.086Z"/><path d="M248.866 878.188C258.114 875.142 278.759 872.075 264.335 887.47C257.028 887.566 249.772 887.792 242.507 886.869L240.131 885.329C243.074 882.612 244.646 880.538 246.99 877.336L248.866 878.188Z"/><path fill="#BCBFFD" d="M246.99 877.336L248.866 878.188C246.945 880.315 243.23 884.171 242.507 886.869L240.131 885.329C243.074 882.612 244.646 880.538 246.99 877.336Z"/><path fill="#494994" d="M253.218 878.141C258.019 877.907 263.659 878.03 268.523 878.018C265.898 882.111 264.959 883.738 260.272 884.82C254.873 884.981 250.219 884.911 244.843 884.765C247.38 882.061 249.642 879.226 253.218 878.141Z"/><path fill="#494994" d="M82.326 905.317C85.253 903.766 95.6414 904.531 99.5171 904.675C100.025 906.222 100.07 906.163 100.035 907.767C99.0483 909.325 97.9364 911.192 96.9041 912.682L92.3742 917.375C88.766 917.792 73.1491 919.823 74.448 912.162C74.7201 910.557 80.611 906.151 82.326 905.317Z"/><path d="M99.5171 904.675C100.025 906.222 100.07 906.163 100.035 907.767C99.0483 909.325 97.9364 911.192 96.9041 912.682L92.3742 917.375C88.766 917.792 73.1491 919.823 74.448 912.162C74.7201 910.557 80.611 906.151 82.326 905.317C81.8775 906.501 77.5253 910.85 75.6766 914.032C81.5458 914.653 86.9764 914.496 92.868 914.471C95.2508 910.547 96.7071 908.267 99.5171 904.675Z"/><path d="M238.432 904.72C241.703 904.485 243.879 903.929 246.576 905.712C249.367 910.26 244.246 914.453 241.196 917.49L231.625 917.742C228.311 917.848 226.02 918.18 223.615 915.953C221.55 911.503 226.783 907.612 229.8 905.128L238.432 904.72Z"/><path fill="#494994" d="M242.173 906.213C243.755 905.971 244.096 905.749 245.554 906.371L245.847 907.476C244.551 910.919 242.338 912.673 239.609 914.971L228.376 915.093C226.238 914.942 226.422 915.292 224.984 914.222L224.926 913.132C226.085 910.787 228.192 909.019 230.09 907.138C233.994 906.683 238.226 906.477 242.173 906.213Z"/><path d="M222.8 889.236C236.678 888.633 237.279 893.37 227.497 901.91L221.723 902.415C216.598 902.498 213.312 902.038 208.233 901.313C211.042 895.46 211.882 894.115 216.418 889.51L222.8 889.236Z"/><path fill="#494994" d="M228.16 891.208C230.336 891.065 231.675 890.547 232.484 892.753C231.494 895.986 229.497 897.378 226.963 899.476L216.375 899.508C214.08 899.483 213.08 899.799 212.29 897.492C213.12 894.555 215.014 893.303 217.391 891.524C220.917 891.53 224.621 891.339 228.16 891.208Z"/><path fill="#494994" d="M118.045 889.522C123.075 889.383 131.266 888.336 134.915 891.694C136.83 896.18 131.76 899.632 128.605 902.305C123.246 902.993 116.545 904.342 112.041 900.544C111.515 899.328 111.434 899.396 111.704 898.124C113.227 893.904 114.86 892.486 118.045 889.522Z"/><path d="M118.045 889.522C123.075 889.383 131.266 888.336 134.915 891.694C136.83 896.18 131.76 899.632 128.605 902.305C123.246 902.993 116.545 904.342 112.041 900.544C122.559 895.631 125.324 906.127 135.648 891.475C129.991 891.133 125.7 891.047 120.039 891.118C116.402 893.544 115.268 895.353 112.376 898.561L111.704 898.124C113.227 893.904 114.86 892.486 118.045 889.522Z"/><path d="M142.34 889.486C149.133 889.529 155.925 889.684 162.712 889.952C159.853 895.35 158.729 896.865 154.417 901.193C150.841 903.144 138.095 904.394 136.162 899.675C136.597 895.848 139.871 892.578 142.34 889.486Z"/><path fill="#494994" d="M143.618 891.607L160.363 891.498C157.596 895.632 156.591 896.694 152.672 899.433C147.283 899.518 141.896 899.733 136.517 900.078C139.137 896.564 140.552 894.67 143.618 891.607Z"/><path d="M137.356 904.24C151.04 904.015 150.3 908.46 142.199 917.515L134.876 917.67C120.658 918.523 123.901 913.163 130.189 904.508L137.356 904.24Z"/><path fill="#494994" d="M141.719 905.716C143.923 905.491 145.057 904.964 146.155 907.031C145.66 910.284 142.983 912.627 140.731 914.977C136.834 915.398 134.581 915.342 130.625 915.229L125.116 914.92C126.906 911.743 129.035 908.768 131.464 906.049C134.83 906.004 138.342 905.832 141.719 905.716Z"/><path fill="#494994" d="M205.212 904.868L225.569 904.913C222.768 909.082 219.602 913.55 216.278 917.325C210.452 918.094 203.242 919.512 198.474 915.278L198.164 914.575C199.217 909.828 201.509 908.077 205.212 904.868Z"/><path d="M205.212 904.868L225.569 904.913C222.768 909.082 219.602 913.55 216.278 917.325C210.452 918.094 203.242 919.512 198.474 915.278C202.856 914.722 210.631 914.974 215.28 914.989C217.952 912.03 219.828 909.679 222.253 906.5L205.738 906.502C202.977 909.121 201.094 911.943 198.164 914.575C199.217 909.828 201.509 908.077 205.212 904.868Z"/><path fill="#494994" d="M191.478 889.552C197.033 889.237 217.578 887.864 205.218 899.852C201.26 903.691 190.104 903.646 185.377 900.178L185.785 898.443C187.155 894.721 188.972 892.605 191.478 889.552Z"/><path d="M191.478 889.552C197.033 889.237 217.578 887.864 205.218 899.852C201.26 903.691 190.104 903.646 185.377 900.178C191.099 899.78 195.706 900.13 201.765 899.409C203.834 898.085 205.493 897.002 206.438 894.745C205.735 890.063 196.22 891.365 192.701 891.532C190.736 893.883 188.731 896.201 186.687 898.485L185.785 898.443C187.155 894.721 188.972 892.605 191.478 889.552Z"/><path d="M192.831 887.462C198.99 876.991 206.715 872.25 218.713 877.653L219.858 878.611C219.867 878.857 219.925 879.723 219.874 879.923C216.519 890.073 201.448 887.897 192.831 887.462Z"/><path fill="#494994" d="M218.713 877.653L219.858 878.611C219.867 878.857 219.925 879.723 219.874 879.923L219.6 879.584C218.233 879.213 214.963 882.947 212.799 883.783C207.989 885.641 201.365 885.068 196.22 884.934C198.425 882.376 199.912 880.822 202.36 878.493C207.062 878.529 214.239 878.784 218.713 877.653Z"/><path d="M146.364 884.376C147.685 873.397 165.66 876.246 173.46 876.536C170.21 881.613 169.041 883.477 164.39 887.174C158.544 888.058 151.82 889.427 146.95 885.272L146.364 884.376Z"/><path fill="#494994" d="M153.411 878.431C159.184 878.31 164.956 878.158 170.727 877.976C168.699 880.118 166.221 882.871 164.114 884.855C159.786 884.883 150.846 884.718 146.95 885.272L146.364 884.376C149.535 882.668 150.694 880.612 153.411 878.431Z"/><path d="M105.809 876.154C111.647 875.941 117.715 876.363 123.547 876.736C121.187 881.528 119.642 884.741 114.722 887.357C109.808 887.955 103.431 888.903 99.0733 885.975C93.6153 882.307 102.899 877.413 105.809 876.154Z"/><path fill="#494994" d="M103.597 878.509L120.674 878.415C119.106 880.708 117.979 881.884 116.122 883.887C112.363 885.48 103.277 887.036 101.53 882.027C101.772 880.231 102.368 879.85 103.597 878.509Z"/><path d="M184.675 876.241C188.877 876.225 193.474 876.437 197.706 876.546C194.423 882.535 191.003 887.173 183.626 887.573C177.622 887.996 174.856 887.779 169.316 885.657L176.406 876.498L184.675 876.241Z"/><path fill="#494994" d="M187.128 878.273C189.803 878.1 192.822 878.051 195.527 877.951C189.931 884.02 188.071 884.37 180.328 884.986C177.65 885.012 174.826 884.864 172.14 884.773C173.787 882.561 175.486 880.542 177.244 878.425C180.499 878.43 183.864 878.329 187.128 878.273Z"/><path d="M225.339 876.512C231.299 876.236 241.579 875.731 246.99 877.336C244.646 880.538 243.074 882.612 240.131 885.329C232.983 888.401 226.229 887.917 218.715 887.025C220.554 883.766 223.287 879.733 225.339 876.512Z"/><path fill="#494994" d="M226.523 878.019L245.149 877.995C242.763 880.166 240.982 881.676 238.426 883.639C233.427 885.077 226.781 884.967 221.511 884.968C223.294 882.83 224.93 880.323 226.523 878.019Z"/><path d="M129.149 876.497C135.507 876.455 141.865 876.459 148.222 876.507C145.377 881.842 144.027 883.222 139.581 887.4C129.813 888.523 112.375 887.385 129.149 876.497Z"/><path fill="#494994" d="M128.945 878.02L145.045 878.018C142.915 880.8 141.47 882.427 139.054 884.98L122.588 884.973C124.913 882.074 126.126 880.443 128.945 878.02Z"/><path fill="#D2D6FD" d="M416.709 861.768C440.911 860.815 468.24 862.251 492.643 862.498L610.14 862.521C602.77 875.289 589.748 892.434 580.782 904.736C570.705 918.564 558.325 937.65 546.852 949.462C543.089 949.497 538.917 949.807 535.125 950.012C523.961 950.536 511.362 950.083 500.056 950.025L443.624 949.97L390.822 950.013C377.901 950.125 356.43 952.031 343.575 948.019C342.961 947.828 343.078 947.064 343.001 946.411C344.279 942.92 347.86 938.229 350.089 935.118C366.462 912.277 382.483 889.154 399.314 866.649C400.603 864.926 402.206 863.451 403.835 862.059L416.709 861.768Z"/><path fill="#9290DC" d="M449.219 921.198C452.97 920.7 462.857 920.827 467.013 920.809C479.68 920.755 492.347 920.851 505.012 921.097C503.022 925.777 500.005 930.968 497.533 935.49L485.75 935.494L428.727 935.5C434.089 925.591 437.869 922.232 449.219 921.198Z"/><path d="M554.496 889.118C561.208 889.177 567.918 889.312 574.627 889.523C571.871 895.43 570.016 899.225 563.279 901.07C562.892 902.299 562.577 903.213 562.355 904.496C560.107 908.518 558.197 911.831 555.26 915.408C550.631 915.887 541.08 917.388 537.572 913.935L537.263 913.551C537.887 907.983 541.184 905.929 545.345 902.383C545.509 901.491 545.852 900.607 546.142 899.737C548.853 896.312 551.921 892.601 554.496 889.118Z"/><path d="M554.496 889.118C561.208 889.177 567.918 889.312 574.627 889.523C571.871 895.43 570.016 899.225 563.279 901.07C555.807 901.507 553.415 901.476 546.142 899.737C548.853 896.312 551.921 892.601 554.496 889.118Z"/><path fill="#494994" d="M555.001 892.04L570.918 892.051C569.154 894.164 567.36 896.252 565.536 898.313C561.795 898.771 553.889 898.43 549.87 898.342C551.721 895.661 552.826 894.436 555.001 892.04Z"/><path fill="#494994" d="M537.263 913.551C545.003 904.266 548.496 905.961 559.861 905.974C552.065 918.573 547.625 911.001 537.572 913.935L537.263 913.551Z"/><path fill="#BCBFFD" d="M545.345 902.383C545.509 901.491 545.852 900.607 546.142 899.737C553.415 901.476 555.807 901.507 563.279 901.07C562.892 902.299 562.577 903.213 562.355 904.496C557.714 903.179 552.348 906.656 545.345 902.383Z"/><path fill="#494994" d="M492.872 903.519C499.045 903.511 508.211 903.248 514.023 904.05C511.211 908.004 508.199 912.415 504.878 915.912C498.67 916.758 491.442 917.681 485.871 914.417L485.549 913.929L485.777 912.873C487.533 908.269 489.392 906.879 492.872 903.519Z"/><path d="M492.872 903.519C499.045 903.511 508.211 903.248 514.023 904.05C511.211 908.004 508.199 912.415 504.878 915.912C498.67 916.758 491.442 917.681 485.871 914.417C497.537 911.129 501.492 919.517 510.491 906.04C504.24 905.927 498.954 906.111 492.758 906.827C490.314 908.662 487.999 912.113 485.777 912.873C487.533 908.269 489.392 906.879 492.872 903.519Z"/><path d="M473.409 903.782C486.99 902.692 488.211 905.127 479.874 916.013L471.034 916.018C457.541 916.401 457.334 913.47 466.387 904.044L473.409 903.782Z"/><path fill="#494994" d="M479.588 906.236C481.718 906.102 482.411 905.743 482.908 907.916C482.072 910.426 480.673 911.833 479.016 913.915L465.625 913.854C463.662 913.945 461.794 914.575 461.113 912.598C461.945 910.643 465.083 908.1 466.781 906.526L479.588 906.236Z"/><path d="M479.112 889.219C484.317 888.891 495.182 887.312 497.098 893.687C496.759 898.432 491.038 900.287 487.093 900.904C480.166 901.608 475.697 901.43 468.743 900.872C471.429 897.396 475.651 891.58 479.112 889.219Z"/><path fill="#494994" d="M478.979 892.071C482.684 892.062 493.419 890.783 495.452 893.508C494.91 895.896 492.446 897.14 490.422 898.474L473.149 898.475C474.981 896.299 477.037 894.162 478.979 892.071Z"/><path d="M427.345 889.494L448.914 889.511C445.928 893.492 442.835 897.217 439.676 901.054C435.174 902.188 423.343 901.472 418.623 900.701C421.54 896.441 423.995 893.412 427.345 889.494Z"/><path fill="#494994" d="M428.369 891.482C433.492 891.735 439.748 891.524 444.955 891.481C442.668 894.67 441.588 895.985 438.623 898.464C432.924 898.536 427.227 898.677 421.532 898.885C423.729 896.333 426.053 893.926 428.369 891.482Z"/><path d="M518.957 903.39C525.774 903.696 532.595 903.906 539.418 904.02C536.761 907.255 533.906 911.429 531.422 914.876C527.785 917.607 500.768 918.353 518.957 903.39Z"/><path fill="#494994" d="M519.257 906.029C524.571 906.034 529.884 905.953 535.195 905.785C533.593 909.33 532.641 910.838 529.92 913.594C524.978 913.305 517.771 913.481 512.66 913.455C515.123 910.089 516.158 908.737 519.257 906.029Z"/><path d="M529.341 889.489L550.541 889.609C547.377 894.909 546.279 896.834 541.769 900.898C534.718 901.008 527.665 901.037 520.614 900.984C523.043 896.962 526.323 893.067 529.341 889.489Z"/><path fill="#494994" d="M530.295 892.134C535.853 891.995 541.569 892.048 547.141 892.031C545.309 894.671 544.305 896.056 541.619 897.824C536.457 898.775 530.096 898.486 524.767 898.399C526.875 895.656 527.81 894.556 530.295 892.134Z"/><path d="M418.418 902.454C423.987 905.716 430.468 904.781 436.854 904.535C434.407 909.572 432.511 912.127 428.023 915.393C422.848 915.957 414.761 917.382 410.732 913.599C408.714 908.495 414.799 905.12 418.418 902.454Z"/><path fill="#494994" d="M432.109 906.26L432.731 906.349C432.575 908.681 428.878 911.987 427.139 913.751L412.004 913.468L411.235 913.035C411.368 910.682 414.719 908.171 416.555 906.523C421.741 906.522 426.926 906.435 432.109 906.26Z"/><path d="M402.418 889.382C407.905 889.751 416.705 889.493 422.441 889.5C420.279 893.935 418.009 896.958 415.058 900.87C411.007 902.242 402.327 903.62 398.857 900.841C394.642 897.465 400.278 891.829 402.418 889.382Z"/><path fill="#494994" d="M412.895 891.784C415.046 891.596 417.526 891.548 419.71 891.45C417.668 894.175 415.932 895.973 413.593 898.441L405.124 898.805C402.745 899.016 401.904 899.121 400.04 898.046L399.749 896.882C400.372 894.671 401.52 893.745 403.074 892.044C406.349 892.022 409.623 891.935 412.895 891.784Z"/><path fill="#494994" d="M440.909 904.306C447.808 904.627 454.91 904.515 461.835 904.498C459.152 908.509 456.725 912.12 453.621 915.862C447.961 916.752 438.869 918.44 434.663 913.756L435.726 911.934C437.164 908.736 438.525 906.875 440.909 904.306Z"/><path d="M440.909 904.306C447.808 904.627 454.91 904.515 461.835 904.498C459.152 908.509 456.725 912.12 453.621 915.862C447.961 916.752 438.869 918.44 434.663 913.756C440.915 913.96 446.261 913.741 452.483 913.465C455.27 910.837 457.013 908.824 459.516 905.892C453.872 906.658 447.91 906.548 442.2 906.581C439.842 908.266 437.911 911.346 435.726 911.934C437.164 908.736 438.525 906.875 440.909 904.306Z"/><path d="M452.983 889.493C457.789 889.275 469.621 887.709 471.025 893.815C469.335 901.576 451.599 904.865 446.527 899.117L446.807 897.925C448.259 893.851 449.957 892.429 452.983 889.493Z"/><path fill="#494994" d="M453.945 892.051L470.74 892.017C467.976 894.812 466.636 896.233 463.454 898.476C457.526 898.53 452.43 898.51 446.527 899.117L446.807 897.925C448.7 897.516 451.966 893.628 453.945 892.051Z"/><path fill="#494994" d="M392.121 904.015C398.678 904.006 404.627 904.224 411.181 904.537C408.432 908.605 406.118 912.034 402.864 915.774C397.481 916.695 390.748 917.52 385.994 914.253L385.209 913.445C386.007 908.631 388.22 906.902 392.121 904.015Z"/><path d="M392.121 904.015C398.678 904.006 404.627 904.224 411.181 904.537C408.432 908.605 406.118 912.034 402.864 915.774C397.481 916.695 390.748 917.52 385.994 914.253C388.617 913.844 398.593 913.88 401.675 913.81C404.456 911.389 405.635 909.511 407.578 906.518L392.114 906.502C389.749 908.53 387.95 911.141 385.209 913.445C386.007 908.631 388.22 906.902 392.121 904.015Z"/><path d="M539.617 876.142C546.182 875.965 553.203 876.304 559.812 876.505L559.731 876.682C557.405 881.927 556.2 882.941 552.08 886.929C547.159 887.676 534.744 889.136 533.786 882.529C534.838 879.291 536.893 878.203 539.617 876.142Z"/><path fill="#494994" d="M540.825 878.175C546.37 877.999 552.231 878.042 557.805 878.003C555.393 881.285 554.495 882.327 550.884 884.163C544.932 884.818 539.614 884.331 533.701 883.856C536.41 881.191 537.548 880.085 540.825 878.175Z"/><path d="M413.295 876.162C419.934 875.924 427.653 876.106 434.375 876.101C431.297 881.029 429.982 882.818 425.592 886.58C418.262 886.677 411.599 886.701 404.282 886.435C407.375 881.966 409.252 879.738 413.295 876.162Z"/><path fill="#494994" d="M414.155 878.044L431.039 878.026C429.195 880.299 427.86 882.064 425.617 883.998L408.016 883.935C410.145 881.762 411.881 880.069 414.155 878.044Z"/><path d="M509.775 889.231C520.234 889.018 526.745 890.764 516.497 900.566L509.462 900.764L495.799 900.88C498.158 896.377 500.967 893.171 504.32 889.41L509.775 889.231Z"/><path fill="#494994" d="M512.313 892.222L521.522 891.987C519.969 893.922 518.106 895.975 516.465 897.868L511.125 898.436L499.904 898.344C501.145 896.388 502.661 894.411 504.036 892.53L512.313 892.222Z"/><path d="M513.565 876.476C520.965 876.306 528.367 876.33 535.765 876.548C533 879.922 530.156 883.23 527.233 886.468C519.62 887.469 513.779 887.165 506.17 886.86C508.394 883.164 510.965 879.907 513.565 876.476Z"/><path fill="#494994" d="M517.824 878.151C523.034 877.788 527.715 877.926 532.916 878.026C530.499 880.921 529.412 882.166 526.084 883.941C522.18 885.244 514.558 885.635 512.59 881.196L513.062 880.023C514.589 878.7 515.78 878.643 517.824 878.151Z"/><path d="M437.212 876.135C443.913 875.516 451.148 874.37 457.089 877.744L456.812 879.07C455.273 882.239 453.854 883.87 451.667 886.593L430.527 886.485C432.228 883.409 435.215 879.163 437.212 876.135Z"/><path fill="#494994" d="M457.089 877.744L456.812 879.07C454.716 880.144 452.092 882.397 450.175 883.908C444.779 884.171 439.181 884.387 433.802 884.011L439.195 878.041C443.976 878.083 452.495 878.284 457.089 877.744Z"/><path d="M462.313 876.245C466.705 876.852 479.713 876.527 484.828 876.496C482.336 879.779 479.813 882.719 477.144 885.846C472.248 887.247 461.107 886.679 455.747 886.464C457.479 883.269 460.247 879.344 462.313 876.245Z"/><path fill="#494994" d="M464.555 878.068L482.298 877.958C480.201 880.361 479.359 881.474 476.68 883.335C471.006 884.213 464.674 883.991 458.895 883.955C460.924 881.648 462.316 880.185 464.555 878.068Z"/><path d="M488.352 876.543C494.442 876.37 501.65 874.967 507.19 877.693L507.781 878.28C506.408 882.522 505.287 883.582 502.17 886.544C494.829 886.632 487.487 886.609 480.147 886.477C482.989 882.761 485.221 880.011 488.352 876.543Z"/><path fill="#494994" d="M507.19 877.693L507.781 878.28C505.87 879.592 503.063 882.319 501.263 883.964C495.328 884.132 489.402 884.008 483.466 883.934C485.906 881.724 487.902 880.116 490.501 878.093C495.146 878.046 502.926 878.313 507.19 877.693Z"/><path d="M565.221 876.561C571.688 876.288 578.147 876.442 584.62 876.524C581.804 881.483 580.945 882.998 576.459 886.61C575.793 886.75 575.123 886.873 574.45 886.979C569.903 887.678 559.429 888.414 558.782 882.308C560.083 878.99 562.106 878.358 565.221 876.561Z"/><path fill="#494994" d="M565.928 878.027L582.057 878.002C579.586 880.882 578.561 882.036 575.682 884.493L559.455 884.503C562.061 881.418 562.8 880.581 565.928 878.027Z"/><defs><linearGradient id="gradient_0" gradientUnits="userSpaceOnUse" x1="784.49933" y1="866.66431" x2="778.54132" y2="966.65289"><stop offset="0" stop-color="#DADBFF"/><stop offset="1" stop-color="#F9F6FF"/></linearGradient></defs><path fill="url(#gradient_0)" d="M916.741 873.379L917.095 873.732C917.802 875.529 917.569 877.821 917.542 879.809L881.083 928.301C873.178 938.849 865.832 949.384 857.393 959.535C845.605 961.465 829.762 960.834 817.75 960.752L765.082 960.573L698.105 960.909C682.243 960.998 663.337 961.698 647.888 959.254C646.338 958.085 645.548 957.275 645.585 955.345C648.195 952.311 664.84 953.678 669.75 953.795C678.264 953.985 686.78 954.051 695.296 953.993L802.179 953.994C811.509 954.013 852.244 955.945 857.491 950.621C879.991 927.787 896.243 898.263 916.741 873.379Z"/><defs><linearGradient id="gradient_1" gradientUnits="userSpaceOnUse" x1="487.26639" y1="853.09613" x2="465.55542" y2="979.52985"><stop offset="0" stop-color="#DBDFFF"/><stop offset="1" stop-color="#FFFCFF"/></linearGradient></defs><path fill="url(#gradient_1)" d="M609.929 872.52C610.864 873.874 610.953 877.443 611.094 879.178C607.293 885.652 594.664 902.403 589.364 909.269C578.411 923.46 563.004 947.22 550.893 959.265C538.331 961.275 516.269 960.574 502.671 960.574L422.403 960.572C408.946 960.573 395.27 960.574 381.844 960.634C373.186 960.673 352.662 961.602 344.67 959.793C343.036 958.157 341.642 956.49 343.29 954.461C346.335 953.234 363.591 954.518 369.169 954.518L483.08 954.413L518.79 954.512C526.507 954.535 534.04 954.694 541.753 954.129C550.554 953.483 553.748 948.651 558.732 942.354C576.576 919.805 591.699 894.721 609.929 872.52Z"/><path fill="#F0EFF2" d="M244.385 949.383L244.939 949.722C247.166 953.601 242.842 957.033 239.989 959.258C225.197 961.09 211.471 960.291 196.657 960.267L131.879 960.277L79.0093 960.399C68.9497 960.476 42.1811 961.061 33.6481 958.926C31.8917 957.034 30.8579 956.373 31.3239 953.743C33.6585 951.627 48.8641 952.545 52.5613 952.578L86.2808 952.888L194.352 953.76C207.981 953.797 224.596 954.264 238.201 952.686C239.282 952.56 243.233 950.086 244.385 949.383Z"/><path fill="#D2D6FD" d="M302.776 871.333C304.012 872.488 303.959 875.947 304.09 877.758C298.628 887.002 287.972 899.81 281.027 908.642L249.957 948.661C247.406 947.122 249.578 942.385 250.863 940.611C267.438 917.743 285.003 893.144 302.776 871.333Z"/><path fill="#F0EFF2" d="M687.276 306.333C697.312 308.556 701.511 320.713 697.102 329.598C693.849 336.154 688.077 334.75 682.643 331.786L681.717 330.173C683.815 325.809 696.86 330.8 695.585 320.475C694.663 313.011 683.011 315.377 683.064 310.211C684.123 308.337 685.511 307.6 687.276 306.333Z"/></svg>