<?xml version="1.0" encoding="utf-8" ?><svg xmlns="http://www.w3.org/2000/svg" xmlns:xlink="http://www.w3.org/1999/xlink" width="2048" height="1024" viewBox="0 0 2048 1024"><path d="M1251.96 39.8568C1259.21 38.5014 1288.36 39.2578 1297.58 39.3739C1313.83 39.5622 1332.77 39.6122 1348.94 40.7933C1352.78 40.8645 1360.31 40.6825 1363.64 41.7763C1379.4 42.0557 1395.5 43.8583 1411.15 45.7368L1418.68 46.6675C1433.9 48.9653 1451.04 51.6845 1465.95 55.57L1473.45 57.2678C1488.01 61.2338 1503.14 65.5547 1517.14 71.2192L1522.5 73.2832C1536.14 79.3153 1546.46 83.9703 1559.12 92.189L1562.7 94.3566C1575.03 102.674 1581.29 107.32 1591.9 117.624L1595.83 121.285C1605.3 131.628 1610.21 137.526 1617.81 149.222L1620.9 154.408C1627.05 164.193 1631.16 173.396 1635.36 184.162C1636.53 187.502 1637.68 190.851 1638.8 194.21C1645.29 217.174 1649.95 240.207 1654.96 263.259C1675.54 357.829 1720.33 448.77 1798.32 508.788C1826.06 530.137 1858.07 545.793 1888.02 563.746C1944.83 599.228 1995.21 655.237 2008.15 722.542C2015.83 762.482 2013.35 794.848 2000.11 833.64C1997.2 842.168 1983.58 868.083 1984.13 873.13L1984.86 875.442C1984.42 875.858 1983.97 876.275 1983.52 876.691C1913.15 877.539 1839.62 876.739 1769.49 876.995C1753.34 877.054 1716.32 875.652 1709.13 877.84C1683.96 890.428 1641.37 910.292 1614.24 917.571C1609.08 919.573 1603.88 921.484 1598.64 923.303C1578.43 932.068 1513.19 953.068 1491.37 956.463C1487.33 957.529 1483.81 958.492 1479.67 959.164C1455.65 964.805 1427.21 969.214 1402.68 972.523C1396.91 973.176 1390.65 974.014 1384.9 974.37C1363.45 977.473 1337.02 978.724 1315.25 979.458C1310.05 979.808 1306.64 979.922 1301.4 979.784C1297.01 980.537 1274.55 980.253 1270.04 980.148C1261.51 981.604 1222.67 980.208 1212.97 979.129C1193.96 980.156 1137.18 972.358 1116.98 969.584L1108.86 968.563C1092.82 966.756 1073.69 963.715 1057.87 960.659L1051.33 959.632C1017.63 953.703 984.545 945.331 951.272 937.416C932.877 933.211 914.356 929.767 895.999 925.476L889.648 923.678C875.974 918.913 855.255 914.903 840.982 912.196L833.579 910.692C818.324 906.761 801.493 904.034 785.877 901.265L777.266 899.63L728.108 890.581L721.768 889.634L660.778 878.245C653.086 876.487 628.288 877.073 618.766 877.082L544.631 877.175L228.893 877.433L131.81 877.377C123.213 877.384 74.8856 878.866 70.7821 875.287C74.0824 872.147 90.8245 872.891 95.9509 872.962C-6.63417 776.97 16.6904 658.222 153.219 613.511C170.88 607.728 187.063 604.94 205.304 601.955C205.988 597.923 205.464 558.971 205.453 552.699L204.835 371.116C204.79 346.473 204.417 321.798 204.531 297.182C204.563 290.176 205.091 275.631 211.231 271.562C222.891 263.835 246.676 266.045 260.764 266.029L325.508 265.987C326.327 227.559 316.588 203.64 369.941 206.059C379.565 206.495 392.8 206.237 402.693 206.266L509.481 206.494C525.515 206.527 552.811 207.34 567.904 206.133C583.82 197.505 599.727 186.393 615.778 178.503C618.256 175.836 647.164 161.646 652.065 159.316C663.069 148.95 766.353 108.148 784.861 102.583C789.565 100.319 797.814 97.9496 803.082 96.2854C825.095 88.7839 870.769 77.558 893.617 73.5967C895.187 72.9157 903.229 71.3742 905.362 70.9275C931.101 66.0084 956.986 61.8852 982.98 58.5635C984.629 58.1387 991.104 57.3701 993.135 57.0789C1015.76 54.0394 1038.46 51.5208 1061.21 49.5253C1062.49 49.1507 1071.28 48.4438 1073.17 48.2647C1095.98 47.1214 1118.61 44.5744 1141.79 43.6894C1143.4 43.316 1147.74 43.1403 1149.61 43.0121C1169.34 42.5958 1188.39 40.4781 1208.54 40.8314C1213.36 39.9982 1221.31 40.1121 1226.41 40.023C1233.68 39.9115 1245.02 39.4008 1251.96 39.8568Z"/><path fill="#EDEEF5" d="M1620.9 154.408C1627.05 164.193 1631.16 173.396 1635.36 184.162C1636.53 187.502 1637.68 190.851 1638.8 194.21C1645.29 217.174 1649.95 240.207 1654.96 263.259C1675.54 357.829 1720.33 448.77 1798.32 508.788C1826.06 530.137 1858.07 545.793 1888.02 563.746C1944.83 599.228 1995.21 655.237 2008.15 722.542C2015.83 762.482 2013.35 794.848 2000.11 833.64C1997.2 842.168 1983.58 868.083 1984.13 873.13C1972.83 872.657 1957.3 873.172 1945.64 873.148L1862.82 873.016L1618.98 873L1619 581.385C1619.01 564.232 1620.4 431.462 1617.14 425.735C1613.22 423.389 1612.25 424.126 1607.23 423.965L1598.23 424.115L1539.44 423.958L1530.83 424.157C1527.01 423.959 1528.22 424.469 1525.38 422.699C1522.28 416.581 1523.81 391.451 1524 383.19C1523.99 377.399 1524.08 371.608 1524.26 365.82L1524.13 364.343C1523.43 355.301 1523.69 333.466 1523.89 323.484C1524.17 309.198 1522.25 271.265 1524.91 259.231C1521.98 249.091 1519.71 245.912 1512.3 239.172C1523.3 229.17 1539.78 216.92 1551.77 207.611L1620.9 154.408Z"/><path fill="#EDEEF5" d="M1620.9 154.408C1627.05 164.193 1631.16 173.396 1635.36 184.162C1635.17 185.13 1634.92 186.37 1634.62 187.881C1599.54 215.317 1564.22 243.535 1528.11 269.558C1526.77 270.525 1527.26 270.257 1525.87 270.212C1524.56 265.332 1525.33 263.651 1524.91 259.231C1521.98 249.091 1519.71 245.912 1512.3 239.172C1523.3 229.17 1539.78 216.92 1551.77 207.611L1620.9 154.408Z"/><path fill="#C4C8EC" d="M1635.36 184.162C1636.53 187.502 1637.68 190.851 1638.8 194.21C1633.36 194.203 1621.9 203.911 1617.06 207.787C1586.68 232.089 1555.92 255.717 1524.99 279.304C1524.98 293.934 1524.76 309.13 1525.03 323.711C1549.03 307.02 1617.31 247.965 1638.09 240.729C1630.41 250.04 1612.57 262.913 1602.91 270.698C1577.82 290.915 1549.46 310.187 1524.76 330.612C1524.83 338.427 1525.37 357.339 1524.13 364.343C1523.43 355.301 1523.69 333.466 1523.89 323.484C1524.17 309.198 1522.25 271.265 1524.91 259.231C1525.33 263.651 1524.56 265.332 1525.87 270.212C1527.26 270.257 1526.77 270.525 1528.11 269.558C1564.22 243.535 1599.54 215.317 1634.62 187.881C1634.92 186.37 1635.17 185.13 1635.36 184.162Z"/><path fill="#C4C8EC" d="M1524.26 365.82C1524.61 369.033 1524.92 371.277 1525.57 374.451C1529.8 373.592 1535.35 367.883 1539.23 365.643C1566.31 350.017 1604.05 305.673 1632.07 297.423C1621.3 309.478 1609 317.254 1596.95 327.237C1574.32 345.981 1546.17 364.682 1524 383.19C1523.99 377.399 1524.08 371.608 1524.26 365.82Z"/><path fill="#C4C8EC" d="M1530.83 424.157C1556.73 401.811 1586.61 383.089 1612.47 360.597C1615.28 358.152 1618.73 355.311 1622.55 354.911L1623.23 356.148C1618.03 367.909 1577.92 392.354 1565.96 403.326C1559.3 409.427 1546.88 417.565 1539.44 423.958L1530.83 424.157Z"/><path fill="#C4C8EC" d="M1598.23 424.115C1602.96 419.794 1612.22 410.416 1618.34 409.923C1618.41 414.968 1610.85 420.712 1607.23 423.965L1598.23 424.115Z"/><path fill="#EDEEF5" d="M1251.96 39.8568C1259.21 38.5014 1288.36 39.2578 1297.58 39.3739C1313.83 39.5622 1332.77 39.6122 1348.94 40.7933C1352.78 40.8645 1360.31 40.6825 1363.64 41.7763C1379.4 42.0557 1395.5 43.8583 1411.15 45.7368L1418.68 46.6675C1433.9 48.9653 1451.04 51.6845 1465.95 55.57L1473.45 57.2678C1488.01 61.2338 1503.14 65.5547 1517.14 71.2192L1522.5 73.2832C1536.14 79.3153 1546.46 83.9703 1559.12 92.189L1562.7 94.3566C1575.03 102.674 1581.29 107.32 1591.9 117.624L1595.83 121.285C1605.3 131.628 1610.21 137.526 1617.81 149.222L1620.9 154.408L1551.77 207.611C1539.78 216.92 1523.3 229.17 1512.3 239.172C1511.41 238.989 1506.11 237.015 1504.95 236.604C1496.95 235.476 1489.68 237.883 1484.33 234.565C1482.5 232.27 1483.04 229.574 1483.22 226.619C1483.07 218.191 1484.88 210.925 1479.88 205.452C1470.57 206.983 1432.2 206.079 1420.78 205.961L1411.04 206L1352.18 206L1343.57 206L1284.68 205.982L1276.22 206L1217.01 205.999L1208.78 206.178L1148.91 205.995L1140.18 206L1080.99 205.989L1072.05 206.113C1053.19 205.811 1033.18 206.111 1014.25 206.114L1004.31 205.997C985.361 206.627 964.726 206.116 945.65 205.988L937.186 206.001L874.937 206C889.783 193.52 908.506 179.656 923.967 167.572L1019.79 92.6923C1036.32 79.786 1053.32 66.7025 1069.82 53.6967C1072.51 51.5775 1072.63 51.0778 1073.17 48.2647C1095.98 47.1214 1118.61 44.5744 1141.79 43.6894C1143.4 43.316 1147.74 43.1403 1149.61 43.0121C1169.34 42.5958 1188.39 40.4781 1208.54 40.8314C1213.36 39.9982 1221.31 40.1121 1226.41 40.023C1233.68 39.9115 1245.02 39.4008 1251.96 39.8568Z"/><path fill="#EDEEF5" d="M1208.54 40.8314C1213.36 39.9982 1221.31 40.1121 1226.41 40.023C1221.17 40.8726 1192.5 65.4813 1185.91 70.6395L1088.32 146.672L1043.33 182.075C1035.03 188.597 1021.45 198.751 1014.25 206.114L1004.31 205.997C985.361 206.627 964.726 206.116 945.65 205.988L937.186 206.001L874.937 206C889.783 193.52 908.506 179.656 923.967 167.572L1019.79 92.6923C1036.32 79.786 1053.32 66.7025 1069.82 53.6967C1072.51 51.5775 1072.63 51.0778 1073.17 48.2647C1095.98 47.1214 1118.61 44.5744 1141.79 43.6894C1143.4 43.316 1147.74 43.1403 1149.61 43.0121C1169.34 42.5958 1188.39 40.4781 1208.54 40.8314Z"/><path fill="#EDEEF5" d="M1073.17 48.2647C1095.98 47.1214 1118.61 44.5744 1141.79 43.6894C1137.68 49.0787 1105.62 73.0962 1098.55 78.6393C1055.55 112.358 1011.54 145.095 969.291 179.789C961.343 186.316 942.689 199.019 937.186 206.001L874.937 206C889.783 193.52 908.506 179.656 923.967 167.572L1019.79 92.6923C1036.32 79.786 1053.32 66.7025 1069.82 53.6967C1072.51 51.5775 1072.63 51.0778 1073.17 48.2647Z"/><path fill="#C4C8EC" d="M1208.54 40.8314C1213.36 39.9982 1221.31 40.1121 1226.41 40.023C1221.17 40.8726 1192.5 65.4813 1185.91 70.6395L1088.32 146.672L1043.33 182.075C1035.03 188.597 1021.45 198.751 1014.25 206.114L1004.31 205.997C1060.18 160.812 1118.63 116.487 1175 71.4858C1184.06 64.1617 1193.36 57.149 1202.89 50.4601C1205.74 48.4635 1214.86 42.9086 1216.38 41.5422L1208.54 40.8314Z"/><path fill="#C4C8EC" d="M1141.79 43.6894C1143.4 43.316 1147.74 43.1403 1149.61 43.0121C1149 45.7864 1148.65 46.306 1145.94 48.3698C1132.29 58.775 1118.55 69.3902 1105.08 79.9949L1013.13 152.356C990.283 170.128 967.389 186.809 945.65 205.988L937.186 206.001C942.689 199.019 961.343 186.316 969.291 179.789C1011.54 145.095 1055.55 112.358 1098.55 78.6393C1105.62 73.0962 1137.68 49.0787 1141.79 43.6894Z"/><path fill="#EDEEF5" d="M1522.5 73.2832C1536.14 79.3153 1546.46 83.9703 1559.12 92.189L1562.7 94.3566C1575.03 102.674 1581.29 107.32 1591.9 117.624L1595.83 121.285C1605.3 131.628 1610.21 137.526 1617.81 149.222L1620.9 154.408L1551.77 207.611C1539.78 216.92 1523.3 229.17 1512.3 239.172C1511.41 238.989 1506.11 237.015 1504.95 236.604C1496.95 235.476 1489.68 237.883 1484.33 234.565C1482.5 232.27 1483.04 229.574 1483.22 226.619C1483.07 218.191 1484.88 210.925 1479.88 205.452C1470.57 206.983 1432.2 206.079 1420.78 205.961L1411.04 206L1352.18 206C1356.43 202.107 1366.73 194.736 1371.85 190.702L1420.43 152.527C1451.49 128.138 1490.82 95.2093 1522.5 73.2832Z"/><path fill="#EDEEF5" d="M1591.9 117.624L1595.83 121.285C1605.3 131.628 1610.21 137.526 1617.81 149.222L1620.9 154.408L1551.77 207.611C1539.78 216.92 1523.3 229.17 1512.3 239.172C1511.41 238.989 1506.11 237.015 1504.95 236.604C1496.95 235.476 1489.68 237.883 1484.33 234.565C1482.5 232.27 1483.04 229.574 1483.22 226.619C1483.07 218.191 1484.88 210.925 1479.88 205.452C1480.81 204.094 1497.44 192.352 1499.77 190.377C1511.76 180.239 1586.66 124.804 1591.9 117.624Z"/><path fill="#C4C8EC" d="M1617.81 149.222L1620.9 154.408L1551.77 207.611C1539.78 216.92 1523.3 229.17 1512.3 239.172C1511.41 238.989 1506.11 237.015 1504.95 236.604C1513.83 231.448 1616.7 151.248 1617.81 149.222Z"/><path fill="#C4C8EC" d="M1591.9 117.624L1595.83 121.285C1570.74 141.961 1545.15 161.038 1519.61 181.069C1510.04 188.58 1492.31 201.268 1484.23 209.09C1484.37 214.742 1484.99 221.323 1483.22 226.619C1483.07 218.191 1484.88 210.925 1479.88 205.452C1480.81 204.094 1497.44 192.352 1499.77 190.377C1511.76 180.239 1586.66 124.804 1591.9 117.624Z"/><path fill="#EDEEF5" d="M1562.7 94.3566C1575.03 102.674 1581.29 107.32 1591.9 117.624C1586.66 124.804 1511.76 180.239 1499.77 190.377C1497.44 192.352 1480.81 204.094 1479.88 205.452C1470.57 206.983 1432.2 206.079 1420.78 205.961C1430.41 197.378 1444.34 187.48 1454.91 178.978C1490.55 150.316 1527.22 123.288 1562.7 94.3566Z"/><path fill="#C4C8EC" d="M1559.12 92.189L1562.7 94.3566C1527.22 123.288 1490.55 150.316 1454.91 178.978C1444.34 187.48 1430.41 197.378 1420.78 205.961L1411.04 206C1459.22 169.208 1509.73 126.573 1559.12 92.189Z"/><path fill="#EDEEF5" d="M1418.68 46.6675C1433.9 48.9653 1451.04 51.6845 1465.95 55.57L1473.45 57.2678C1488.01 61.2338 1503.14 65.5547 1517.14 71.2192L1522.5 73.2832C1490.82 95.2093 1451.49 128.138 1420.43 152.527L1371.85 190.702C1366.73 194.736 1356.43 202.107 1352.18 206L1343.57 206L1284.68 205.982L1276.22 206L1217.01 205.999C1232.42 192.616 1252.48 177.911 1268.87 165.116C1306.44 136.025 1343.77 106.628 1380.86 76.9278C1393.44 66.7974 1406.47 57.1819 1418.68 46.6675Z"/><path fill="#EDEEF5" d="M1473.45 57.2678C1488.01 61.2338 1503.14 65.5547 1517.14 71.2192L1522.5 73.2832C1490.82 95.2093 1451.49 128.138 1420.43 152.527L1371.85 190.702C1366.73 194.736 1356.43 202.107 1352.18 206L1343.57 206L1284.68 205.982C1299.13 192.475 1327.56 172.306 1344.41 158.986C1387.27 125.123 1431.44 92.2431 1473.45 57.2678Z"/><path fill="#C4C8EC" d="M1517.14 71.2192L1522.5 73.2832C1490.82 95.2093 1451.49 128.138 1420.43 152.527L1371.85 190.702C1366.73 194.736 1356.43 202.107 1352.18 206L1343.57 206C1384.22 173.425 1425.13 141.177 1466.29 109.258C1482.68 96.6414 1501.37 83.8447 1517.14 71.2192Z"/><path fill="#C4C8EC" d="M1465.95 55.57L1473.45 57.2678C1431.44 92.2431 1387.27 125.123 1344.41 158.986C1327.56 172.306 1299.13 192.475 1284.68 205.982L1276.22 206C1287.88 194.965 1310.34 178.385 1323.71 167.94L1417.59 95.2542C1431.2 84.6914 1454.2 67.3643 1465.95 55.57Z"/><path fill="#EDEEF5" d="M1348.94 40.7933C1352.78 40.8645 1360.31 40.6825 1363.64 41.7763C1379.4 42.0557 1395.5 43.8583 1411.15 45.7368L1418.68 46.6675C1406.47 57.1819 1393.44 66.7974 1380.86 76.9278C1343.77 106.628 1306.44 136.025 1268.87 165.116C1252.48 177.911 1232.42 192.616 1217.01 205.999L1208.78 206.178L1148.91 205.995L1140.18 206C1209.11 149.422 1280.33 99.2553 1348.94 40.7933Z"/><path fill="#C4C8EC" d="M1411.15 45.7368L1418.68 46.6675C1406.47 57.1819 1393.44 66.7974 1380.86 76.9278C1343.77 106.628 1306.44 136.025 1268.87 165.116C1252.48 177.911 1232.42 192.616 1217.01 205.999L1208.78 206.178C1226.74 189.341 1253.91 170.561 1273.46 154.768C1318.71 118.217 1366.34 82.6929 1411.15 45.7368Z"/><path fill="#C4C8EC" d="M1348.94 40.7933C1352.78 40.8645 1360.31 40.6825 1363.64 41.7763C1362.89 41.8636 1356.37 42.5151 1356.59 42.3308C1342.77 53.7747 1320.82 71.0241 1307.43 81.4983L1208.26 159.536C1190.12 173.666 1165.75 191.138 1148.91 205.995L1140.18 206C1209.11 149.422 1280.33 99.2553 1348.94 40.7933Z"/><path fill="#EDEEF5" d="M1297.58 39.3739C1313.83 39.5622 1332.77 39.6122 1348.94 40.7933C1280.33 99.2553 1209.11 149.422 1140.18 206L1080.99 205.989C1092.8 195.734 1110.35 183.431 1123.11 173.49L1199.45 113.196L1262.85 63.7506C1272.38 56.2697 1281.86 48.5767 1291.32 41.0015C1292.74 39.8645 1295.75 39.4588 1297.58 39.3739Z"/><path fill="#C4C8EC" d="M1251.96 39.8568C1259.21 38.5014 1288.36 39.2578 1297.58 39.3739C1295.75 39.4588 1292.74 39.8645 1291.32 41.0015C1281.86 48.5767 1272.38 56.2697 1262.85 63.7506L1199.45 113.196L1123.11 173.49C1110.35 183.431 1092.8 195.734 1080.99 205.989L1072.05 206.113C1079.48 198.885 1092.19 189.576 1100.54 183.189C1115.51 171.902 1130.35 160.457 1145.07 148.857C1189.63 113.849 1238.35 73.7596 1283.69 40.2191C1273.84 40.2975 1261.58 40.7169 1251.96 39.8568Z"/><path fill="#FDBE50" d="M205.304 601.955C203.546 626.13 204.873 669.34 204.864 694.491L204.699 873L95.9509 872.962C-6.63417 776.97 16.6904 658.222 153.219 613.511C170.88 607.728 187.063 604.94 205.304 601.955Z"/><path fill="#EDEEF5" d="M1061.21 49.5253C1062.49 49.1507 1071.28 48.4438 1073.17 48.2647C1072.63 51.0778 1072.51 51.5775 1069.82 53.6967C1053.32 66.7025 1036.32 79.786 1019.79 92.6923L923.967 167.572C908.506 179.656 889.783 193.52 874.937 206L865.601 206C853.501 206.039 841.401 205.986 829.302 205.841C819.565 206.38 805.365 205.989 795.31 206.001L734.562 205.973L726.478 206.003L663.183 205.982L654.94 206.249L591.078 205.975L579.636 206.263L567.904 206.133C583.82 197.505 599.727 186.393 615.778 178.503C618.256 175.836 647.164 161.646 652.065 159.316C663.069 148.95 766.353 108.148 784.861 102.583C789.565 100.319 797.814 97.9496 803.082 96.2854C825.095 88.7839 870.769 77.558 893.617 73.5967C895.187 72.9157 903.229 71.3742 905.362 70.9275C931.101 66.0084 956.986 61.8852 982.98 58.5635C984.629 58.1387 991.104 57.3701 993.135 57.0789C1015.76 54.0394 1038.46 51.5208 1061.21 49.5253Z"/><path fill="#EDEEF5" d="M803.082 96.2854C825.095 88.7839 870.769 77.558 893.617 73.5967C890.757 79.2606 801.912 144.643 789.569 155.624C773.573 169.855 743.062 188.701 726.478 206.003L663.183 205.982L654.94 206.249L591.078 205.975L579.636 206.263L567.904 206.133C583.82 197.505 599.727 186.393 615.778 178.503C618.256 175.836 647.164 161.646 652.065 159.316C663.069 148.95 766.353 108.148 784.861 102.583C789.565 100.319 797.814 97.9496 803.082 96.2854Z"/><path fill="#EDEEF5" d="M652.065 159.316C663.069 148.95 766.353 108.148 784.861 102.583L785.112 104.137C778.473 110.464 770.791 115.052 763.826 120.865C731.824 147.576 697.768 171.66 665.033 197.432C661.589 200.143 658.066 203.177 654.94 206.249L591.078 205.975L579.636 206.263L567.904 206.133C583.82 197.505 599.727 186.393 615.778 178.503C618.256 175.836 647.164 161.646 652.065 159.316Z"/><path fill="#C4C8EC" d="M615.778 178.503C618.256 175.836 647.164 161.646 652.065 159.316C647.36 167.558 602.508 196.69 591.078 205.975L579.636 206.263L567.904 206.133C583.82 197.505 599.727 186.393 615.778 178.503Z"/><path fill="#EDEEF5" d="M567.904 206.133C583.82 197.505 599.727 186.393 615.778 178.503L616.085 179.994C605.482 188.581 591.029 198.177 579.636 206.263L567.904 206.133Z"/><path fill="#C4C8EC" d="M784.861 102.583C789.565 100.319 797.814 97.9496 803.082 96.2854C796.395 107.604 683.05 187.932 663.183 205.982L654.94 206.249C658.066 203.177 661.589 200.143 665.033 197.432C697.768 171.66 731.824 147.576 763.826 120.865C770.791 115.052 778.473 110.464 785.112 104.137L784.861 102.583Z"/><path fill="#EDEEF5" d="M905.362 70.9275C931.101 66.0084 956.986 61.8852 982.98 58.5635C963.065 75.7078 943.034 90.3379 922.386 106.429L847.213 165.592C836.046 174.265 803.972 197.581 795.31 206.001L734.562 205.973L726.478 206.003C743.062 188.701 773.573 169.855 789.569 155.624C801.912 144.643 890.757 79.2606 893.617 73.5967C895.187 72.9157 903.229 71.3742 905.362 70.9275Z"/><path fill="#C4C8EC" d="M893.617 73.5967C895.187 72.9157 903.229 71.3742 905.362 70.9275C896.258 81.0946 868.125 101.551 856.638 110.424L781.347 168.811C766.264 180.531 748.758 193.536 734.562 205.973L726.478 206.003C743.062 188.701 773.573 169.855 789.569 155.624C801.912 144.643 890.757 79.2606 893.617 73.5967Z"/><path fill="#C4C8EC" d="M1061.21 49.5253C1062.49 49.1507 1071.28 48.4438 1073.17 48.2647C1072.63 51.0778 1072.51 51.5775 1069.82 53.6967C1053.32 66.7025 1036.32 79.786 1019.79 92.6923L923.967 167.572C908.506 179.656 889.783 193.52 874.937 206L865.601 206C881.11 194.199 1062.22 52.8338 1063.37 50.5672L1061.21 49.5253Z"/><path fill="#C4C8EC" d="M982.98 58.5635C984.629 58.1387 991.104 57.3701 993.135 57.0789C984.85 65.102 970.69 75.7535 961.374 83.0219L907.98 124.492C877.394 148.475 835.757 184.673 803.416 205.088C810.344 205.183 822.862 205.017 829.302 205.841C819.565 206.38 805.365 205.989 795.31 206.001C803.972 197.581 836.046 174.265 847.213 165.592L922.386 106.429C943.034 90.3379 963.065 75.7078 982.98 58.5635Z"/><path fill="#EDEEF5" d="M1292.98 877.808L1301.05 877.81C1322.35 878.001 1343.65 878.024 1364.95 877.881L1281.74 943.156C1267.43 954.346 1249.54 967.499 1236.11 979.188C1228.8 978.9 1220.11 978.313 1212.97 979.129C1193.96 980.156 1137.18 972.358 1116.98 969.584L1108.86 968.563C1092.82 966.756 1073.69 963.715 1057.87 960.659L1051.33 959.632C1082.91 931.555 1120.52 906.161 1152.25 877.85L1161.1 877.803L1222.18 877.869L1232.08 877.886L1292.98 877.808Z"/><path fill="#EDEEF5" d="M1152.25 877.85L1161.1 877.803L1222.18 877.869C1185.91 908.285 1147.52 936.312 1111.8 967.409C1110.98 968.125 1109.91 968.397 1108.86 968.563C1092.82 966.756 1073.69 963.715 1057.87 960.659L1051.33 959.632C1082.91 931.555 1120.52 906.161 1152.25 877.85Z"/><path fill="#C4C8EC" d="M1152.25 877.85L1161.1 877.803C1138.42 896.431 1115.59 914.88 1092.63 933.148C1082.7 941.054 1066.84 952.742 1057.87 960.659L1051.33 959.632C1082.91 931.555 1120.52 906.161 1152.25 877.85Z"/><path fill="#C4C8EC" d="M1292.98 877.808L1301.05 877.81C1287.25 890.543 1263.34 908.143 1248.2 920.169C1231.34 933.567 1188.95 971.131 1170.68 976.159C1181.03 964.573 1204.77 947.823 1217.84 937.567L1292.98 877.808Z"/><path fill="#C4C8EC" d="M1222.18 877.869L1232.08 877.886C1204.07 899.717 1176.25 921.783 1148.62 944.082C1144.07 947.725 1119.18 967.141 1116.98 969.584L1108.86 968.563C1109.91 968.397 1110.98 968.125 1111.8 967.409C1147.52 936.312 1185.91 908.285 1222.18 877.869Z"/><path fill="#EDEEF5" d="M1364.95 877.881L1374.28 877.797L1435.51 878.049L1445.41 877.799L1506.56 877.911C1480.21 900.473 1451.38 921.886 1424.23 943.528C1411.86 953.387 1396.45 964.025 1384.9 974.37C1363.45 977.473 1337.02 978.724 1315.25 979.458C1310.05 979.808 1306.64 979.922 1301.4 979.784C1297.01 980.537 1274.55 980.253 1270.04 980.148C1261.51 981.604 1222.67 980.208 1212.97 979.129C1220.11 978.313 1228.8 978.9 1236.11 979.188C1249.54 967.499 1267.43 954.346 1281.74 943.156L1364.95 877.881Z"/><path fill="#EDEEF5" d="M1445.41 877.799L1506.56 877.911C1480.21 900.473 1451.38 921.886 1424.23 943.528C1411.86 953.387 1396.45 964.025 1384.9 974.37C1363.45 977.473 1337.02 978.724 1315.25 979.458C1327.2 970.293 1339.59 961.664 1351.73 952.307C1383.21 927.788 1414.44 902.95 1445.41 877.799Z"/><path fill="#C4C8EC" d="M1435.51 878.049L1445.41 877.799C1414.44 902.95 1383.21 927.788 1351.73 952.307C1339.59 961.664 1327.2 970.293 1315.25 979.458C1310.05 979.808 1306.64 979.922 1301.4 979.784C1302.88 979.53 1307.28 978.77 1308.26 978.045C1319.61 969.646 1331.57 960.288 1342.67 951.669L1435.51 878.049Z"/><path fill="#C4C8EC" d="M1364.95 877.881L1374.28 877.797C1347.63 897.916 1322.48 918.038 1296.4 938.864C1278.91 952.832 1262.25 965.108 1244.94 979.681C1251.5 979.674 1264.02 979.337 1270.04 980.148C1261.51 981.604 1222.67 980.208 1212.97 979.129C1220.11 978.313 1228.8 978.9 1236.11 979.188C1249.54 967.499 1267.43 954.346 1281.74 943.156L1364.95 877.881Z"/><path fill="#EDEEF5" d="M1579.26 877.931L1588.14 877.711L1651.98 877.816L1660.81 877.779L1709.13 877.84C1683.96 890.428 1641.37 910.292 1614.24 917.571C1609.08 919.573 1603.88 921.484 1598.64 923.303C1578.43 932.068 1513.19 953.068 1491.37 956.463C1487.33 957.529 1483.81 958.492 1479.67 959.164C1455.65 964.805 1427.21 969.214 1402.68 972.523C1396.91 973.176 1390.65 974.014 1384.9 974.37C1396.45 964.025 1411.86 953.387 1424.23 943.528C1451.38 921.886 1480.21 900.473 1506.56 877.911L1516.88 877.968L1579.26 877.931Z"/><path fill="#EDEEF5" d="M1588.14 877.711L1651.98 877.816L1660.81 877.779L1709.13 877.84C1683.96 890.428 1641.37 910.292 1614.24 917.571C1609.08 919.573 1603.88 921.484 1598.64 923.303C1578.43 932.068 1513.19 953.068 1491.37 956.463C1492.41 952.696 1578.6 885.515 1588.14 877.711Z"/><path fill="#EDEEF5" d="M1660.81 877.779L1709.13 877.84C1683.96 890.428 1641.37 910.292 1614.24 917.571L1613.66 916.327C1629.11 903.16 1645.56 892.285 1660.81 877.779Z"/><path fill="#C4C8EC" d="M1651.98 877.816L1660.81 877.779C1645.56 892.285 1629.11 903.16 1613.66 916.327L1614.24 917.571C1609.08 919.573 1603.88 921.484 1598.64 923.303C1602.08 916.365 1642.59 886.201 1651.98 877.816Z"/><path fill="#C4C8EC" d="M1506.56 877.911L1516.88 877.968C1477.08 908.615 1437.57 939.635 1398.36 971.025C1399.93 972.406 1400.48 972.27 1402.68 972.523C1396.91 973.176 1390.65 974.014 1384.9 974.37C1396.45 964.025 1411.86 953.387 1424.23 943.528C1451.38 921.886 1480.21 900.473 1506.56 877.911Z"/><path fill="#C4C8EC" d="M1579.26 877.931L1588.14 877.711C1578.6 885.515 1492.41 952.696 1491.37 956.463C1487.33 957.529 1483.81 958.492 1479.67 959.164C1482.7 953.054 1565.81 889.247 1579.26 877.931Z"/><path fill="#EDEEF5" d="M1024.29 877.837C1065.42 876.243 1110.53 878.486 1152.25 877.85C1120.52 906.161 1082.91 931.555 1051.33 959.632C1017.63 953.703 984.545 945.331 951.272 937.416C957.15 930.593 976.241 916.484 984.084 910.17C997.132 899.667 1010.98 887.714 1024.29 877.837Z"/><defs><linearGradient id="gradient_0" gradientUnits="userSpaceOnUse" x1="972.95862" y1="917.46027" x2="946.20862" y2="884.5141"><stop offset="0" stop-color="#E1E2F4"/><stop offset="1" stop-color="#F9F9FB"/></linearGradient></defs><path fill="url(#gradient_0)" d="M953.089 877.748C976.824 877.955 1000.56 877.985 1024.29 877.837C1010.98 887.714 997.132 899.667 984.084 910.17C976.241 916.484 957.15 930.593 951.272 937.416C932.877 933.211 914.356 929.767 895.999 925.476L889.648 923.678C903.275 909.534 929.303 889.971 945.052 878.024L953.089 877.748Z"/><path fill="#C4C8EC" d="M945.052 878.024L953.089 877.748C938.28 889.865 907.934 913.252 895.999 925.476L889.648 923.678C903.275 909.534 929.303 889.971 945.052 878.024Z"/><path fill="#EDEEF5" d="M880.362 878.008C901.805 877.825 923.65 877.41 945.052 878.024C929.303 889.971 903.275 909.534 889.648 923.678C875.974 918.913 855.255 914.903 840.982 912.196L833.579 910.692C845.181 899.584 860.665 889.749 873.421 877.968L880.362 878.008Z"/><path fill="#C4C8EC" d="M873.421 877.968L880.362 878.008C871.857 888.944 852.558 903.136 840.982 912.196L833.579 910.692C845.181 899.584 860.665 889.749 873.421 877.968Z"/><path fill="#EDEEF5" d="M814.206 877.819L873.421 877.968C860.665 889.749 845.181 899.584 833.579 910.692C818.324 906.761 801.493 904.034 785.877 901.265L777.266 899.63C786.44 892.728 795.426 885.238 804.306 877.94L814.206 877.819Z"/><path fill="#C4C8EC" d="M804.306 877.94L814.206 877.819C804.926 885.829 795.481 893.646 785.877 901.265L777.266 899.63C786.44 892.728 795.426 885.238 804.306 877.94Z"/><path fill="#EDEEF5" d="M734.495 877.926L744.569 877.889L804.306 877.94C795.426 885.238 786.44 892.728 777.266 899.63L728.108 890.581L721.768 889.634C725.669 885.812 730.416 881.66 734.495 877.926Z"/><path fill="#C4C8EC" d="M734.495 877.926L744.569 877.889C739.501 882.812 734.664 887.61 728.108 890.581L721.768 889.634C725.669 885.812 730.416 881.66 734.495 877.926Z"/><path fill="#EDEEF5" d="M660.778 878.245C685.348 877.875 709.922 877.769 734.495 877.926C730.416 881.66 725.669 885.812 721.768 889.634L660.778 878.245Z"/><path fill="#EDEEF5" d="M394.324 309.065L1519.29 309.031L1519.37 872.977L394.101 872.996L394.324 309.065Z"/><path d="M989.745 351.502L1476.93 351.696L1477 829.998L925.5 830.072L436.7 830L436.073 351.927L989.745 351.502Z"/><path fill="#EDEEF5" d="M802.012 503.134C810.134 507.625 819.088 514.032 826.873 519.32C782.825 548.307 738.585 577.002 694.157 605.402C737.857 634.85 781.869 663.832 826.186 692.345C822.146 695.019 803.742 707.841 800.437 708.8C777.534 695 754.881 679.005 732.567 664.223C702.69 644.818 673.044 625.059 643.637 604.951C696.697 571.431 749.491 537.491 802.012 503.134Z"/><path fill="#EDEEF5" d="M1094.53 502.746C1103.61 506.363 1134.78 526.624 1144.84 533.033L1256.34 605.501L1100.44 707.178C1098.77 707.946 1097.78 708.082 1096.02 708.457C1087.94 706.935 1078.88 698.657 1072.27 693.358C1088.33 682.05 1105.47 671.55 1121.99 660.818L1206.68 605.503C1162.98 576.018 1118.57 549.557 1074.5 520.872C1080.55 514.618 1087.91 508.493 1094.53 502.746Z"/><path fill="#EDEEF5" d="M1017.52 470.568C1025.01 475.588 1033.1 480.131 1040.91 484.669C1025.06 508.472 1009.75 534.586 994.617 559.068C957.395 620.288 919.516 681.106 880.988 741.513C874.442 738.521 864.165 730.889 857.949 726.506C874.137 704.242 892.125 672.416 907.04 648.604L1017.52 470.568Z"/><path fill="#EDEEF5" d="M394.499 241.071L1158.16 241.002L1391.72 241.032L1461.78 240.961C1474.73 240.94 1489.97 240.928 1502.73 241.653C1524.35 242.881 1520.63 288.531 1518.66 303.032L1517.06 304.168L394.49 304.52L394.499 241.071Z"/><path d="M477.848 255.527C484.509 253.913 491.522 256.025 496.183 261.049C500.844 266.073 502.425 273.225 500.317 279.746C498.208 286.267 492.74 291.139 486.019 292.483C475.915 294.504 466.05 288.071 463.825 278.009C461.601 267.947 467.833 257.955 477.848 255.527Z"/><path fill="#EAD45E" d="M478.884 260.496C483.752 259.307 488.882 260.836 492.304 264.497C495.725 268.158 496.904 273.381 495.388 278.157C493.872 282.933 489.897 286.519 484.991 287.536C477.587 289.072 470.319 284.392 468.653 277.016C466.988 269.641 471.539 262.291 478.884 260.496Z"/><path d="M429.836 255.472C440.088 253.379 450.085 260.03 452.116 270.295C454.146 280.56 447.433 290.516 437.155 292.482C426.968 294.431 417.118 287.79 415.105 277.614C413.093 267.439 419.673 257.548 429.836 255.472Z"/><path fill="#EAD45E" d="M431 260.499C438.342 259.06 445.512 263.67 447.25 270.947C448.988 278.224 444.675 285.576 437.475 287.61C432.548 289.002 427.255 287.583 423.685 283.914C420.115 280.245 418.842 274.914 420.369 270.028C421.895 265.141 425.976 261.484 431 260.499Z"/><path d="M528.196 255.545C538.212 254.23 547.428 261.205 548.881 271.203C550.335 281.2 543.487 290.511 533.511 292.103C526.934 293.152 520.3 290.579 516.151 285.369C512.001 280.159 510.978 273.119 513.472 266.943C515.966 260.767 521.592 256.412 528.196 255.545Z"/><path fill="#A6E088" d="M526.277 261.45C533.193 259.041 540.762 262.634 543.267 269.516C545.773 276.397 542.286 284.015 535.441 286.617C530.926 288.333 525.837 287.485 522.123 284.398C518.408 281.312 516.643 276.464 517.504 271.712C518.364 266.959 521.716 263.038 526.277 261.45Z"/><path d="M1440.17 266.496C1442.32 265.874 1444.64 266.455 1446.24 268.018C1447.84 269.58 1448.48 271.883 1447.91 274.048C1447.35 276.213 1445.66 277.907 1443.5 278.483C1440.2 279.362 1436.81 277.423 1435.9 274.137C1434.99 270.851 1436.89 267.443 1440.17 266.496Z"/><path d="M1483.52 266.517C1485.68 265.918 1487.99 266.54 1489.56 268.14C1491.13 269.74 1491.71 272.066 1491.07 274.214C1490.43 276.362 1488.67 277.993 1486.48 278.473C1483.22 279.188 1479.99 277.177 1479.18 273.938C1478.38 270.698 1480.3 267.408 1483.52 266.517Z"/><path d="M1398.34 266.501C1401.56 266.164 1404.48 268.42 1404.96 271.624C1405.45 274.827 1403.33 277.848 1400.16 278.483C1397.96 278.921 1395.71 278.118 1394.29 276.395C1392.87 274.671 1392.51 272.306 1393.35 270.237C1394.2 268.169 1396.11 266.734 1398.34 266.501Z"/><path fill="#EDEEF5" d="M222.57 270.073L279.004 270.072L279.302 873.168L266.5 873.168L209 873.168L209.071 436.464L208.933 338.752C208.908 322.034 207.914 298.662 210.244 282.05C211.069 276.172 217.654 272.709 222.57 270.073Z"/><path fill="#7377BE" d="M1248.65 210.5L1479.02 210.83L1479.01 236.071L797.153 236.507C661.405 235.738 525.653 235.668 389.903 236.296L389.998 659.5L390.322 873.069L370.204 872.997L370.135 448.441L370.01 305.973C369.987 281.022 369.91 255.977 370.071 231.023C370.09 228.071 370.519 215.77 372.549 213.784C374.602 211.604 377.264 211.258 380.093 211.224C413.089 210.822 446.241 210.98 479.236 210.978L668.149 210.915L1248.65 210.5Z"/><path fill="#EDEEF5" d="M283.49 270.244L324.991 270.22C324.238 336.891 324.986 405.233 324.992 472.025L325.028 873.101L283.824 873.075L283.49 270.244Z"/><path fill="#EDEEF5" d="M345.669 211.067C352.895 210.81 361.238 210.996 368.555 210.981C366.439 214.709 365.11 216.692 365.14 221.117C365.29 242.99 365.624 264.86 365.739 286.735L365.962 421.853L365.949 873.063L353.5 873.072L329.662 873.072C326.614 717.405 329.019 555.975 329.075 399.783L329.026 295.988C328.982 275.391 327.556 245.149 330.675 225.149C331.7 218.582 340.027 214.013 345.669 211.067Z"/><path fill="#FDBE50" d="M1523.93 492.929L1614.07 492.7L1614.08 831.834L1551.17 831.929L1551 529.51L1524 529.51L1523.93 492.929Z"/><path fill="#EDEEF5" d="M1524 534L1546.3 534.073L1546.7 836.71C1569.13 836.955 1591.57 836.997 1614 836.835L1613.97 872.928L1524.07 872.927L1524 534Z"/><path fill="#EDEEF5" d="M1524.09 428.933L1614 428.972L1613.98 487.933L1524 487.974L1524.09 428.933Z"/><path d="M97.8962 540.301L100.268 541.748C103.845 546.418 102.106 561.783 101.34 567.753L98.7154 565.936C95.9008 558.594 97.3039 548.262 97.8962 540.301Z"/><path d="M98.2017 587.5C103.897 591.386 102.897 606.904 99.8565 612.265C94.0651 607.472 97.218 593.995 98.2017 587.5Z"/><path d="M64.8792 575.432C67.1047 575.048 69.3492 574.782 71.603 574.638C76.4033 574.36 86.203 573.53 89.7188 576.677L89.7469 578.966C83.733 579.073 68.993 580.274 64.9429 576.932L64.8792 575.432Z"/><path d="M110.828 574.401C116.136 574.319 129.579 573.282 133.405 576.558L133.174 578.615C128.591 578.963 123.996 579.143 119.4 579.153C115.139 579.142 113.025 579.257 110.252 576.467L110.828 574.401Z"/></svg>