<?xml version="1.0" encoding="utf-8" ?><svg xmlns="http://www.w3.org/2000/svg" xmlns:xlink="http://www.w3.org/1999/xlink" width="1024" height="1024" viewBox="0 0 1024 1024"><path d="M763.494 179.75L848.574 179.536C865.604 179.613 877.873 183.692 890.121 195.886C911.687 217.357 907.337 248.14 907.391 276.288L907.158 371.072L907.586 680.434C907.445 698.4 905.537 710.933 892.29 724.682C886.167 731.037 879.969 732.106 872.345 735.301C868.452 737.445 864.254 742.812 860.089 744.283C845.146 749.559 822.967 747.668 807.258 747.398C801.631 750.68 795.51 754.362 790.211 758.089C798.735 770.398 806.957 783.249 815.393 795.672C823.066 806.972 831.859 819.16 838.661 830.892C822.427 842.613 805.938 853.552 789.383 864.799C785.088 860.112 778.521 850.016 774.316 844.511C761.759 828.074 749.588 809.357 736.774 793.267C726.847 799.612 715.725 808.486 706.358 815.771C696.188 823.707 685.943 831.548 675.625 839.291C673.526 815.499 672.909 791.465 670.841 767.65C670.244 760.786 669.716 753.646 669.452 746.769C630.461 746.384 591.467 746.331 552.475 746.609L345.75 746.641L265.09 746.687C259.08 762.1 254.415 771.519 243.143 783.935C224.606 804.351 198.631 816.536 170.961 817.518C141.766 818.825 113.308 808.12 92.2128 787.895C48.5411 746.806 48.1948 678.137 89.4911 635.8C110.45 614.313 137.253 604.73 166.857 603.984L166.977 339.515L166.847 272.996C166.796 264.149 166.255 243.353 167.324 235.648C170.812 222.66 178.678 207.069 187.87 197.767C205.407 180.019 222.639 180.134 246.006 180.09L278.871 180.055L388.745 180.047L763.494 179.75Z"/><path fill="#FEFEFE" d="M417.063 205.749L698.187 205.548C745.874 205.529 793.6 205.478 841.292 205.512C852.816 205.52 861.835 208.264 870.16 216.738C881.431 228.212 879.944 244.08 879.554 258.998L505.876 259.008L388.309 259.11L350.825 259.121C344.833 259.115 331.471 258.015 326.877 260.897L326.972 261.504C331.293 263.005 369.231 262.123 376.833 262.102L453.563 262.01L879.793 262.017L879.76 536.624L879.738 646.141C879.733 665.366 879.75 684.527 879.671 703.829C879.616 717.194 877.145 725.729 867.326 735.513C855.674 747.124 836.799 745.353 821.39 744.992L811.591 744.851C817.119 740.366 824.601 736.003 830.677 732.185C838.989 726.933 847.26 721.619 855.491 716.241L855.203 285.511L432.771 285.872L279.912 285.893C251.199 285.877 222.609 285.365 193.887 286.013C193.016 295.717 193.566 311.351 193.578 321.484L193.581 384.551L193.758 608.885C185.882 606.489 177.771 604.948 169.566 604.29L169.535 351.289L169.469 276.637C169.445 266.737 169.335 256.741 169.347 246.864C169.363 234.7 171.395 226.488 179.917 217.6C193.092 203.86 209.496 205.987 226.759 206.074L266.126 206.101L417.063 205.749Z"/><path d="M354.473 231.25L681.129 230.936L789.948 230.983L822.056 231C828.382 230.978 835.406 229.742 841.253 232.285L841.459 232.919C837.126 234.753 818.774 234.027 813.25 234.004L489.55 234.167L382.721 234.242C365.733 234.255 348.742 234.257 331.756 234.337C329.924 234.346 327.063 234.295 326.522 232.347C328.594 230.496 349.895 231.232 354.473 231.25Z"/><path d="M209.249 233.816C215.593 233.393 221.076 238.197 221.491 244.541C221.906 250.885 217.096 256.362 210.752 256.77C204.418 257.177 198.952 252.376 198.537 246.043C198.123 239.71 202.917 234.238 209.249 233.816Z"/><path fill="#FEFEFE" d="M209.234 236.804C213.807 236.389 217.881 239.686 218.43 244.245C218.978 248.804 215.802 252.972 211.261 253.654C208.203 254.113 205.138 252.873 203.259 250.417C201.38 247.961 200.985 244.678 202.228 241.846C203.47 239.015 206.155 237.083 209.234 236.804Z"/><path d="M245.623 234.231C251.742 232.74 257.919 236.46 259.462 242.566C261.006 248.671 257.34 254.88 251.248 256.476C245.081 258.092 238.779 254.371 237.217 248.19C235.654 242.01 239.43 235.74 245.623 234.231Z"/><path fill="#FEFEFE" d="M247.264 236.778C251.848 236.178 256.067 239.363 256.745 243.937C257.423 248.51 254.31 252.783 249.748 253.539C246.728 254.039 243.673 252.871 241.756 250.484C239.84 248.097 239.36 244.861 240.502 242.02C241.643 239.18 244.228 237.176 247.264 236.778Z"/><path d="M284.616 234.116C290.767 233.535 296.255 237.974 296.973 244.111C297.69 250.248 293.373 255.833 287.254 256.686C281.032 257.554 275.287 253.209 274.427 246.987C274.002 243.917 274.85 240.807 276.774 238.376C278.698 235.946 281.53 234.407 284.616 234.116Z"/><path fill="#FEFEFE" d="M283.25 237.232C287.689 235.886 292.381 238.378 293.751 242.809C295.121 247.24 292.655 251.946 288.232 253.341C283.774 254.747 279.023 252.257 277.641 247.791C276.26 243.325 278.777 238.588 283.25 237.232Z"/><path fill="#FEFEFE" d="M158.621 607.733C215.697 604.142 264.885 647.482 268.509 704.556C272.133 761.629 228.822 810.843 171.751 814.5C114.632 818.161 65.3687 774.806 61.7416 717.685C58.1146 660.564 101.498 611.326 158.621 607.733Z"/><path d="M157.264 626.751C203.704 622.398 244.864 656.555 249.147 703.002C253.43 749.449 219.21 790.556 172.757 794.768C126.403 798.971 85.4032 764.841 81.1298 718.494C76.8563 672.148 110.924 631.095 157.264 626.751Z"/><path fill="#FEBE51" d="M156.557 629.771C201.277 625.002 241.392 657.399 246.144 702.121C250.897 746.843 218.485 786.946 173.761 791.682C129.06 796.416 88.9823 764.025 84.2326 719.326C79.4829 674.626 111.859 634.537 156.557 629.771Z"/><path d="M159.094 646.733C194.278 643.237 225.663 668.854 229.286 704.026C232.909 739.197 207.404 770.674 172.246 774.424C136.908 778.192 105.236 752.529 101.594 717.178C97.9533 681.827 123.73 650.247 159.094 646.733Z"/><path fill="#FEBE51" d="M160.608 649.7C194.263 647.046 223.7 672.172 226.363 705.827C229.027 739.482 203.909 768.926 170.255 771.598C136.587 774.272 107.129 749.142 104.465 715.474C101.8 681.806 126.939 652.355 160.608 649.7Z"/><path d="M166.125 668.103L173.791 668.1C173.684 671.848 173.611 675.597 173.572 679.347C190.375 684.049 195.516 697.877 181.045 709.357C187.065 712.78 192.049 716.356 193.158 723.812C193.789 728.206 192.617 732.669 189.909 736.186C185.442 742.101 180.091 743.035 173.431 744.105L173.459 753.695L165.999 753.747L165.97 743.166C162.778 743.071 161.175 743.222 158.022 743.544L158.023 753.502L151.119 753.511L151.014 743.507L140.004 743.507L140.002 736.26L146.565 736.269C146.558 719.805 146.277 702.416 146.739 686.024L139.564 686.021L139.713 679.101L150.997 679.119L151 668.416L157.948 668.453C157.762 671.985 157.79 675.895 157.744 679.462L166.076 679.604L166.125 668.103Z"/><path fill="#FEBE51" d="M155.897 713.945C164.111 713.621 182.579 712.278 183.477 724.136C183.813 728.562 183.244 729.83 180.409 733.12C173.121 737.697 164.231 736.689 155.9 736.455L155.897 713.945Z"/><path fill="#FEBE51" d="M156.071 686.241C164.075 685.879 179.141 684.362 179.602 695.824C179.753 699.563 178.846 700.823 176.458 703.562C168.995 707.364 164.078 706.656 156.006 706.473C155.989 699.729 156.01 692.985 156.071 686.241Z"/><path fill="#9FA3FB" d="M236.854 182.729L652.939 182.564L787.436 182.552L830.692 182.488C839.021 182.469 847.348 182.427 855.667 182.644C877.232 183.206 897.071 201.969 902.301 222.306C906.134 237.212 905.049 256.857 904.977 272.464L904.949 316.32L904.958 472.262L904.99 615.803L905.199 659.329C905.264 669.535 905.341 679.834 904.884 690.027C904.09 707.762 893.082 726.399 875.212 731.082C883.772 716.946 882.659 711.804 882.548 695.25L882.677 384.227L882.54 285.643C882.518 269.62 883.245 253.917 882.455 237.76C882.266 222.354 868.359 207.236 853.653 203.791C844.917 201.744 831.05 202.468 821.636 202.494L783.849 202.592L627.718 202.935L339.893 203.13L250.276 203.247C234.303 203.269 217.904 203.219 201.932 203.68C194.775 203.886 186.506 208.901 180.531 212.526C182.562 208.377 185.19 204.548 188.33 201.16C202.478 185.604 217.176 183.607 236.854 182.729Z"/><path fill="#FEFEFE" d="M666.488 638.175C676.359 641.465 689.333 647.576 699.128 651.805L752.226 674.519L814.761 700.952C826.526 705.872 839.366 710.594 850.71 716.152C848.493 717.668 846.058 719.17 843.778 720.614C824.595 732.759 805.83 745.814 786.192 757.218C802.772 781.408 819.085 805.78 835.127 830.33L828.258 834.904L789.896 861.087C772.555 836.839 755.006 812.742 737.25 788.797C731.005 793.096 723.402 799.196 717.258 803.847L678.016 833.617C676.853 825.588 676.457 813.05 675.987 804.709L673.329 760.082L669.736 696.871C668.553 677.599 667.044 657.418 666.488 638.175Z"/><path fill="#FEFEFE" d="M270.687 723.497C313.134 722.47 358.861 723.507 401.58 723.54L667.919 724.002C668.358 728.316 669.262 739.17 668.787 742.956C667.576 743.922 667.521 743.595 665.625 743.696C623.342 742.947 579.785 743.448 537.406 743.444L266.314 743.454C268.262 736.593 269.407 730.479 270.687 723.497Z"/><path fill="#FEFEFE" d="M231.522 510.008L379.264 510.001C395.894 509.976 418.461 509.37 435.5 510.507C436.733 510.589 437.178 511.521 437.766 512.409C438.06 514.683 437.913 514.848 437.159 517.092C428.355 518.511 417.375 518.127 408.307 518.075L373.748 517.985C326.31 518.246 278.871 518.209 231.434 517.872L231.522 510.008Z"/><path fill="#FEFEFE" d="M231.875 361.025L363.77 361.004L406.352 360.959C415.092 360.923 424.141 360.697 432.848 361.177C435.478 361.322 436.451 361.202 437.987 363.011C438.539 364.983 438.281 365.455 437.851 367.546C431.316 368.743 420.61 368.642 413.678 368.686C399.016 368.682 384.354 368.601 369.693 368.441L231.91 368.395L231.875 361.025Z"/><path fill="#FEFEFE" d="M452.766 510.035C480.481 509.37 510.132 510.083 538.053 509.955L579.267 509.934C586.653 509.893 603.127 508.543 610.368 511.694C611.343 512.118 611.463 513.511 611.569 514.493C610.873 516.362 610.67 516.434 609.16 517.839C601.4 518.352 592.096 518.081 584.217 518.041L548.293 517.995L490.346 518.004C478.309 518.027 464.336 518.997 452.407 517.008C451.268 516.818 450.997 515.44 450.723 514.535C451.062 512.226 451.369 512.02 452.766 510.035Z"/><path fill="#FEFEFE" d="M476.959 360.746L567.53 360.987L594.28 361.002C598.056 361.014 612.824 359.313 610.37 366.347C606.756 369.798 591.134 368.564 585.25 368.496L497.875 368.414C484.781 368.403 471.62 368.547 458.527 368.556C457.223 368.557 454.218 368.128 453.078 367.427C451.625 366.533 451.812 366.334 451.491 364.986C451.704 364.242 452.023 363.037 452.633 362.602C456.221 360.047 472.322 360.793 476.959 360.746Z"/><path fill="#FEFEFE" d="M293.753 435.638C303.118 435.334 314.089 435.589 323.574 435.583L378.304 435.515L409.889 435.47C416.019 435.427 434.234 433.967 437.912 438.34C438.7 441.555 437.456 442.547 434.562 443.491L339.068 443.572L309.849 443.588C304.816 443.592 292.46 444.837 289.514 441.15C289.11 437.947 291.144 436.572 293.753 435.638Z"/><path fill="#FEBE51" d="M242.918 397.751C280.065 396.822 317.515 398.443 354.691 397.563C359.098 397.458 371.419 396.886 374.09 400.506C373.47 405.339 368.487 405.644 364.622 405.991C355.371 406.955 333.91 405.976 323.374 405.973L232.024 405.911L232.015 397.927L242.918 397.751Z"/><path fill="#FEFEFE" d="M459.293 435.614C465.807 435.083 474.631 435.604 481.254 435.709C490.883 435.77 500.512 435.755 510.14 435.665L564.033 435.595C574.638 435.55 585.263 435.4 595.863 435.567C599.045 435.617 602.057 436.299 601.573 440.248C600.009 442.534 597.186 442.849 594.533 443.423L593.99 443.462C585.168 444.036 576.762 443.542 567.923 443.518L518.821 443.468L479.034 443.517C471.981 443.552 456.386 444.921 451.314 441.242C450.469 439.697 450.513 440.449 450.947 438.936C453.376 436.393 455.909 436.204 459.293 435.614Z"/><path fill="#FEBE51" d="M231.369 622.048C258.184 621.06 288.391 621.878 315.388 621.892L346.242 621.897C352.257 621.892 358.617 621.743 364.595 622.171C366.733 622.324 367.02 622.561 368.122 623.971C368.615 626.289 368.359 626.812 367.892 629.221C367.379 629.305 366.865 629.383 366.35 629.455C360.57 630.274 353.085 630.047 347.114 630.034L319.023 629.99C292.71 630.03 266.389 630.245 240.078 630.016C232.214 629.947 231.586 629.84 231.369 622.048Z"/><path fill="#FEFEFE" d="M294.689 584.11L295.174 584.088C322.708 583.083 355.247 583.946 383.043 584.085C393.374 584.142 403.706 584.128 414.038 584.045C419.285 584.024 433.483 582.947 437.204 586.408C438.087 588.73 437.576 590.572 435.028 591.474C405.069 592.57 374.324 591.521 344.267 591.569C335.532 591.582 299.82 592.314 293.927 590.796C292.265 589.162 292.736 590.104 292.301 587.956C292.916 585.814 293.073 585.752 294.689 584.11Z"/><path fill="#FEBE51" d="M231.607 545.946L335.376 545.884C345.832 545.885 359.715 545.674 370.438 546.155C371.522 546.203 372.342 547.396 372.88 548.313C373.231 550.533 372.855 551.115 372.148 553.345C358.255 554.347 337.164 553.707 322.548 553.705L231.574 553.685L231.607 545.946Z"/><path fill="#FEBE51" d="M232.348 473.167C263.752 472.687 294.568 473.246 325.912 473.304C334.412 473.339 342.912 473.319 351.412 473.245C357.433 473.182 364.076 472.878 370.044 473.58C372.075 473.818 372.375 474.361 373.369 475.8C373.685 477.776 373.255 478.507 372.624 480.489C360.556 481.621 336.839 480.694 323.603 480.682L231.812 480.888C231.86 478.002 232.043 476.018 232.348 473.167Z"/><path fill="#FEBE51" d="M454.699 584.053C467.386 583.673 572.915 583.194 575.365 584.998C576.125 585.558 576.94 586.455 577.013 587.43C577.158 589.372 575.8 590.648 574.598 591.976C550.524 592.117 526.45 592.129 502.376 592.011C494.853 592.011 458.766 592.617 453.327 590.89C451.836 589.147 452.214 590.108 451.957 587.99C452.704 585.915 453.107 585.695 454.699 584.053Z"/><path fill="#FEBE51" d="M480.22 622.044C497.973 621.422 518.044 622.309 536.01 621.906C542.406 621.763 570.316 621.548 575.447 622.826C577.936 625.366 576.688 627.136 575.017 629.763C564.192 630.676 486.053 630.72 480.179 628.999C477.272 626.331 478.438 625.207 480.22 622.044Z"/><path fill="#FEBE51" d="M394.591 397.586C404.635 397.52 471.933 396.628 475.948 398.72C476.788 399.158 477.538 400.21 477.598 401.155C477.734 403.297 476.471 404.601 475.121 406.063C465.011 406.419 399.048 406.854 393.495 404.878C390.985 401.789 392.509 400.446 394.591 397.586Z"/><path fill="#FEBE51" d="M292.2 322.565C297.44 322.088 303.296 322.272 308.593 322.291C328.48 322.36 348.393 322.077 368.274 322.497C374.042 322.618 375.759 325.915 371.805 330.329C369.405 330.527 366.586 330.473 364.145 330.466C341.278 330.395 318.344 331.012 295.497 330.206C290.515 330.03 288.108 326.562 292.2 322.565Z"/><path fill="#FEBE51" d="M394.396 545.925C400.708 545.787 414.83 545.905 420.989 546.076C429.284 546.307 472.516 544.478 477.548 547.217C479.56 549.955 478.425 551.48 476.378 553.756C470.132 554.15 461.985 553.729 455.473 553.78L418.616 553.914C412.882 553.919 399.254 554.346 394.127 552.96C391.359 550.294 392.642 548.852 394.396 545.925Z"/><path fill="#FEBE51" d="M405.839 472.748C427.129 472.221 449.425 473.899 470.814 473.028C473.768 472.907 477.033 473.818 477.89 476.974C476.803 482.64 470.959 481.035 466.101 480.985C457.176 480.967 398.323 481.948 395.001 480.243C393.92 479.688 393.359 478.919 393.101 477.716C392.83 476.451 393.364 475.527 394.014 474.512C397.18 472.257 401.74 472.8 405.839 472.748Z"/><path fill="#FEFEFE" d="M386.041 622.175L386.6 622.16C407.092 621.649 427.705 622.19 448.211 621.974C452.088 621.933 461.596 621.346 464.233 623.863C465.328 627.022 464.1 628.367 461.42 629.962C450.828 630.765 439.289 629.916 428.582 630.071C415.226 630.264 401.65 630.391 388.286 629.871C387.056 629.698 385.384 629.752 384.484 628.777C382.088 626.183 383.944 624.121 386.041 622.175Z"/><path fill="#FEFEFE" d="M395.084 322.611C420.048 321.922 445.469 322.682 470.471 322.571C476.074 322.546 477.736 326.133 473.752 330.269C471.006 330.544 464.465 330.346 461.394 330.337L435.57 330.174C426.502 330.096 401.536 331.078 394.813 329.287C392.034 326.934 393.331 325.179 395.084 322.611Z"/><path fill="#FEBE51" d="M498.372 545.593C511.893 545.523 525.841 546.013 539.398 545.903C546.49 545.845 570.567 544.646 575.837 547.197C577.78 549.935 576.302 551.562 574.066 553.566L524.453 553.708C518.857 553.724 498.681 554.674 495.55 552.027C493.937 548.893 495.96 547.447 498.372 545.593Z"/><path fill="#FEBE51" d="M495.899 397.575L524.962 397.561C536.823 397.64 550.817 397.547 562.637 398.399C563.779 398.481 564.578 399.201 565.345 399.977C566.592 402.898 565.56 404.691 562.913 405.976L520.862 406.035C515.632 406.065 496.213 407.134 492.848 404.33C491.172 401.079 493.414 399.463 495.899 397.575Z"/><path fill="#FEBE51" d="M496.572 322.234C509.442 321.919 522.389 322.127 535.263 322.244C539.13 322.279 549.238 321.655 545.685 328.677C544.134 330.069 544.177 329.967 542.095 330.43C531.504 330.458 505.674 331.176 493.938 329.752C491.87 329.501 489.431 323.682 496.572 322.234Z"/><path fill="#FEBE51" d="M511.782 472.743C518.571 472.726 545.576 471.154 548.147 476.688C548.029 482.847 536.254 481.14 531.865 481.092C521.174 481.144 510.07 481.339 499.382 480.634C496.951 480.474 494.653 479.686 493.388 477.489C493.36 475.374 493.109 476.336 494.189 474.498C497.886 472.003 506.822 472.747 511.782 472.743Z"/><path fill="#FEBE51" d="M231.449 584.024C242.038 583.995 265.706 583.531 277.432 585.085C277.764 585.39 278.095 585.695 278.426 585.999C279.075 587.727 278.619 588.961 278.276 590.81C270.459 592.935 240.73 591.85 231.433 591.663L231.449 584.024Z"/><path fill="#FEBE51" d="M231.725 322.482C244.264 322.008 260.233 322.193 272.898 322.803C274.496 322.879 274.896 323.666 275.668 324.688C276.148 326.788 275.637 327.748 275.024 329.91C263.16 331.179 244.207 330.549 231.904 330.483C231.783 327.861 231.775 325.116 231.725 322.482Z"/><path fill="#FEFEFE" d="M247.254 435.74C254.542 435.785 267.729 435.527 274.326 436.722C275.674 437.813 275.638 437.986 276.409 439.495C275.763 444.684 264.329 443.632 260.082 443.662C250.75 443.813 240.879 443.557 231.51 443.464L231.535 435.997L247.254 435.74Z"/><path fill="#FEFEFE" d="M617.435 435.516C623.55 435.39 629.913 435.191 636.018 435.47C639.467 435.628 645.036 435.986 645.469 440.099C644.815 441.905 644.455 442.112 643.124 443.441C636.749 443.658 617.877 446.009 615.355 439.572C615.545 437.644 616.249 437.056 617.435 435.516Z"/><path fill="#FEFEFE" d="M625.854 510.048C631.569 509.896 651.778 507.945 653.854 513.882C653.615 515.743 653.115 516.04 651.852 517.424C646.075 518.368 631.696 518.968 626.217 516.864C624.514 516.21 624.181 515.302 623.686 513.84C623.92 512.057 624.693 511.439 625.854 510.048Z"/><path fill="#FEFEFE" d="M633.434 360.74C638.151 360.67 652.274 359.56 653.783 364.934C652.601 369.606 649.193 368.625 645.125 368.566C640.03 368.67 626.705 369.934 623.756 365.729C623.479 360.023 629.524 360.8 633.434 360.74Z"/><path d="M902.994 772.642C904.125 773.128 903.741 772.914 904.667 773.771C906.312 778.041 905.398 790.528 905.089 795.534C909.365 795.455 923.26 794.908 926.635 796.447L926.277 797.112C923.078 798.668 909.583 798.196 905.341 798.169C905.524 804.746 906.349 816.971 904.331 822.829L903.516 822.456C902.392 820.591 902.633 802.148 902.486 798.149C892.383 797.685 887.549 798.966 877.493 796.495C884.321 794.941 895.139 795.473 902.515 795.54C902.39 790.026 901.922 777.735 902.994 772.642Z"/><path d="M105.924 366.694C107.059 367.171 106.679 366.963 107.617 367.799C109.037 371.776 109.133 397.655 107.921 401.199C107.281 400.7 106.911 400.305 106.331 399.74C105.139 396.513 105.159 370.428 105.924 366.694Z"/><path d="M71.1806 356.68C76.1541 356.678 95.2574 356.04 98.1916 358.319L97.8895 358.957L96.6146 358.962C90.1392 359.513 83.1973 359.283 76.6709 359.479C74.3932 359.547 72.2652 359.689 70.848 357.791L71.1806 356.68Z"/><path d="M113.911 357.149C118.836 356.799 138.944 356.361 142.643 358.12L142.828 359.131C138.969 359.789 120.598 359.525 115.878 359.057C114.603 358.93 114.442 358.107 113.911 357.149Z"/><path d="M106.155 322.171L107.45 322.806C108.741 325.63 108.152 345.96 108.285 351.239C107.204 350.967 107.514 351.051 106.526 350.467C105.091 346.271 105.835 327.41 106.155 322.171Z"/><path d="M106.439 413.899C109.774 416.006 108.633 421.648 107.803 424.843C104.333 421.844 105.149 417.776 106.439 413.899Z"/></svg>